<svg width="674" height="590" viewBox="0 0 674 590" fill="none" xmlns="http://www.w3.org/2000/svg">
<g clip-path="url(#clip0_887_499)">
<path d="M675.943 256.752H674.8V225.432C674.8 223.052 674.331 220.695 673.42 218.496C672.509 216.296 671.174 214.298 669.491 212.615C667.808 210.932 665.809 209.596 663.61 208.685C661.411 207.775 659.054 207.306 656.673 207.306H590.319C587.939 207.306 585.582 207.775 583.382 208.685C581.183 209.596 579.185 210.932 577.502 212.615C575.818 214.298 574.483 216.296 573.572 218.496C572.661 220.695 572.192 223.052 572.192 225.432V397.252C572.192 399.633 572.661 401.99 573.572 404.189C574.483 406.389 575.818 408.387 577.502 410.07C579.185 411.753 581.183 413.088 583.382 413.999C585.582 414.91 587.939 415.379 590.319 415.379H656.673C659.054 415.379 661.411 414.91 663.61 413.999C665.809 413.088 667.808 411.753 669.491 410.07C671.174 408.387 672.509 406.389 673.42 404.189C674.331 401.99 674.8 399.633 674.8 397.252V279.045H675.943V256.752Z" fill="#003408"/>
<path d="M670.942 226.497V398.067C670.942 401.657 669.516 405.101 666.977 407.64C664.438 410.179 660.994 411.605 657.404 411.606H590.73C588.953 411.605 587.193 411.255 585.551 410.574C583.908 409.894 582.416 408.897 581.16 407.639C579.903 406.382 578.906 404.89 578.227 403.247C577.547 401.605 577.197 399.844 577.198 398.067V226.497C577.198 222.907 578.624 219.465 581.161 216.928C583.699 214.39 587.141 212.964 590.73 212.964H598.819C598.422 213.94 598.271 214.999 598.38 216.048C598.488 217.096 598.852 218.102 599.44 218.977C600.028 219.852 600.822 220.568 601.752 221.065C602.682 221.561 603.72 221.821 604.774 221.822H642.788C643.843 221.824 644.883 221.566 645.814 221.07C646.746 220.575 647.542 219.858 648.13 218.982C648.719 218.107 649.083 217.099 649.189 216.05C649.296 215 649.143 213.94 648.743 212.964H657.404C660.993 212.964 664.436 214.389 666.975 216.927C669.514 219.465 670.941 222.907 670.942 226.497Z" fill="#E6E6E6"/>
<path d="M658.321 300.804H580.815V321.718H658.321V300.804Z" fill="#00AA13"/>
<path d="M661.395 318.026H586.35C585.861 318.026 585.392 317.831 585.046 317.485C584.7 317.139 584.505 316.67 584.505 316.181V297.727C584.505 297.238 584.7 296.769 585.046 296.423C585.392 296.077 585.861 295.882 586.35 295.882H661.395C661.884 295.882 662.354 296.077 662.699 296.423C663.045 296.769 663.24 297.238 663.241 297.727V316.181C663.24 316.67 663.045 317.139 662.699 317.485C662.354 317.831 661.884 318.026 661.395 318.026ZM586.35 297.112C586.187 297.112 586.031 297.177 585.915 297.292C585.8 297.408 585.735 297.564 585.735 297.727V316.181C585.735 316.344 585.8 316.5 585.915 316.616C586.031 316.731 586.187 316.796 586.35 316.796H661.395C661.558 316.796 661.715 316.731 661.83 316.616C661.945 316.5 662.01 316.344 662.01 316.181V297.727C662.01 297.564 661.945 297.408 661.83 297.292C661.715 297.177 661.558 297.112 661.395 297.112H586.35Z" fill="#003408"/>
<path d="M599.269 312.491H589.427V313.721H599.269V312.491Z" fill="#003408"/>
<path d="M612.801 312.491H602.959V313.721H612.801V312.491Z" fill="#003408"/>
<path d="M626.334 312.491H616.492V313.721H626.334V312.491Z" fill="#003408"/>
<path d="M639.866 312.491H630.024V313.721H639.866V312.491Z" fill="#003408"/>
<path d="M653.399 312.491H643.557V313.721H653.399V312.491Z" fill="#003408"/>
<path opacity="0.1" d="M670.942 380.621V398.066C670.942 401.657 669.516 405.101 666.977 407.64C664.438 410.179 660.994 411.605 657.404 411.605H590.73C588.953 411.605 587.193 411.255 585.551 410.574C583.908 409.894 582.416 408.896 581.16 407.639C579.903 406.382 578.906 404.889 578.227 403.247C577.547 401.604 577.197 399.844 577.198 398.066V317.817L670.942 380.621Z" fill="#002505"/>
<path d="M351.374 364.776H60.4204V507.485H351.374V364.776Z" fill="#E6E6E6"/>
<path opacity="0.1" d="M277.405 507.485H61.6507C61.3247 507.484 61.0123 507.354 60.7818 507.124C60.5513 506.893 60.4214 506.581 60.4204 506.255V366.007C60.4214 365.681 60.5513 365.368 60.7818 365.138C61.0123 364.907 61.3247 364.777 61.6507 364.776H64.3818L277.405 507.485Z" fill="#002505"/>
<path d="M646.018 383.844H195.133V385.074H646.018V383.844Z" fill="#003408"/>
<path d="M337.682 84.656H208.82V82H150.389V84.656H20.9958C19.8512 84.656 18.7177 84.8814 17.6602 85.3195C16.6026 85.7575 15.6417 86.3996 14.8323 87.209C14.0229 88.0184 13.3808 88.9793 12.9428 90.0368C12.5048 91.0944 12.2793 92.2278 12.2793 93.3725V269.824C12.2793 272.136 13.1976 274.353 14.8323 275.988C16.467 277.622 18.6841 278.541 20.9958 278.541H337.682C339.994 278.541 342.211 277.622 343.845 275.988C345.48 274.353 346.398 272.136 346.398 269.824V93.3725C346.398 92.2278 346.173 91.0944 345.735 90.0368C345.297 88.9793 344.655 88.0184 343.845 87.209C343.036 86.3996 342.075 85.7575 341.018 85.3195C339.96 84.8814 338.827 84.656 337.682 84.656Z" fill="#003408"/>
<path d="M334.71 100.058H23.9688V275.355H334.71V100.058Z" fill="#E6E6E6"/>
<path d="M179.074 95.2786C180.834 95.2786 182.261 93.8517 182.261 92.0914C182.261 90.3312 180.834 88.9043 179.074 88.9043C177.314 88.9043 175.887 90.3312 175.887 92.0914C175.887 93.8517 177.314 95.2786 179.074 95.2786Z" fill="#00AA13"/>
<path d="M116.397 165.477H109.016C108.527 165.477 108.057 165.282 107.711 164.936C107.366 164.59 107.171 164.121 107.17 163.632V156.251C107.171 155.761 107.366 155.292 107.711 154.946C108.057 154.6 108.527 154.406 109.016 154.405H116.397C116.887 154.406 117.356 154.6 117.702 154.946C118.047 155.292 118.242 155.761 118.243 156.251V163.632C118.242 164.121 118.047 164.59 117.702 164.936C117.356 165.282 116.887 165.477 116.397 165.477ZM109.016 155.636C108.853 155.636 108.696 155.701 108.581 155.816C108.466 155.931 108.401 156.088 108.401 156.251V163.632C108.401 163.795 108.466 163.952 108.581 164.067C108.696 164.182 108.853 164.247 109.016 164.247H116.397C116.56 164.247 116.717 164.182 116.832 164.067C116.947 163.952 117.012 163.795 117.012 163.632V156.251C117.012 156.088 116.947 155.931 116.832 155.816C116.717 155.701 116.56 155.636 116.397 155.636H109.016Z" fill="#003408"/>
<path d="M248.032 164.246H107.784V165.476H248.032V164.246Z" fill="#003408"/>
<path d="M244.342 198.078H211.741V207.92H244.342V198.078Z" fill="#00AA13"/>
<path d="M246.803 205.459H216.662C216.173 205.458 215.703 205.264 215.357 204.918C215.012 204.572 214.817 204.103 214.816 203.614V196.232C214.817 195.743 215.012 195.274 215.357 194.928C215.703 194.582 216.173 194.387 216.662 194.387H246.803C247.292 194.387 247.761 194.582 248.107 194.928C248.453 195.274 248.648 195.743 248.648 196.232V203.614C248.648 204.103 248.453 204.572 248.107 204.918C247.761 205.264 247.292 205.458 246.803 205.459ZM216.662 195.617C216.499 195.617 216.342 195.682 216.227 195.797C216.112 195.913 216.047 196.069 216.047 196.232V203.614C216.047 203.777 216.112 203.933 216.227 204.048C216.342 204.164 216.499 204.228 216.662 204.229H246.803C246.966 204.228 247.122 204.164 247.238 204.048C247.353 203.933 247.418 203.777 247.418 203.614V196.232C247.418 196.069 247.353 195.913 247.238 195.797C247.122 195.682 246.966 195.617 246.803 195.617H216.662Z" fill="#003408"/>
<path d="M493.468 209.149H431.956V252.208H493.468V209.149Z" fill="#00AA13"/>
<path d="M499.619 248.825H440.567C439.915 248.824 439.289 248.565 438.828 248.103C438.367 247.642 438.107 247.017 438.106 246.364V205.766C438.107 205.114 438.367 204.488 438.828 204.027C439.289 203.566 439.915 203.306 440.567 203.306H499.619C500.271 203.306 500.896 203.566 501.358 204.027C501.819 204.488 502.079 205.114 502.079 205.766V246.364C502.079 247.017 501.819 247.642 501.358 248.103C500.896 248.565 500.271 248.824 499.619 248.825ZM440.567 205.766V246.364H499.621L499.619 205.766H440.567Z" fill="#003408"/>
<path d="M492.853 204.229H490.393C490.393 198.846 488.254 193.682 484.447 189.876C480.64 186.069 475.477 183.93 470.094 183.93C464.71 183.93 459.547 186.069 455.74 189.876C451.933 193.682 449.794 198.846 449.794 204.229H447.334C447.334 198.193 449.732 192.404 454 188.136C458.268 183.868 464.057 181.47 470.094 181.47C476.13 181.47 481.919 183.868 486.187 188.136C490.455 192.404 492.853 198.193 492.853 204.229Z" fill="#003408"/>
<path d="M476.244 221.145C476.245 220.074 475.967 219.021 475.436 218.09C474.906 217.16 474.141 216.384 473.219 215.84C472.296 215.295 471.247 215.001 470.176 214.987C469.105 214.972 468.049 215.238 467.112 215.757C466.175 216.276 465.39 217.031 464.834 217.946C464.278 218.862 463.971 219.907 463.943 220.978C463.916 222.049 464.168 223.108 464.675 224.052C465.183 224.995 465.928 225.789 466.836 226.356V232.959C466.836 233.386 466.921 233.81 467.084 234.205C467.248 234.6 467.488 234.959 467.79 235.261C468.093 235.564 468.452 235.804 468.847 235.967C469.242 236.131 469.665 236.215 470.093 236.215C470.957 236.215 471.785 235.872 472.396 235.261C473.006 234.651 473.349 233.822 473.349 232.959V226.356C474.235 225.805 474.965 225.037 475.472 224.125C475.978 223.214 476.244 222.188 476.244 221.145Z" fill="#003408"/>
<path d="M183.753 428.133H173.911V429.363H183.753V428.133Z" fill="#003408"/>
<path d="M197.286 428.133H187.444V429.363H197.286V428.133Z" fill="#003408"/>
<path d="M210.819 428.133H200.977V429.363H210.819V428.133Z" fill="#003408"/>
<path d="M224.351 428.133H214.509V429.363H224.351V428.133Z" fill="#003408"/>
<path d="M237.883 428.133H228.042V429.363H237.883V428.133Z" fill="#003408"/>
<path d="M364.292 497.026H75.7994C75.147 497.026 74.5216 496.766 74.0603 496.305C73.599 495.844 73.3396 495.218 73.3389 494.566V354.318C73.3396 353.666 73.599 353.04 74.0603 352.579C74.5216 352.118 75.147 351.858 75.7994 351.857H364.292C364.944 351.858 365.57 352.118 366.031 352.579C366.492 353.04 366.752 353.666 366.752 354.318V494.566C366.752 495.218 366.492 495.844 366.031 496.305C365.57 496.766 364.944 497.026 364.292 497.026ZM75.7994 354.318V494.566H364.294L364.292 354.318H75.7994Z" fill="#003408"/>
<path d="M88.7166 375.233C90.755 375.233 92.4074 373.581 92.4074 371.542C92.4074 369.504 90.755 367.852 88.7166 367.852C86.6783 367.852 85.0259 369.504 85.0259 371.542C85.0259 373.581 86.6783 375.233 88.7166 375.233Z" fill="#003408"/>
<path d="M101.634 375.233C103.672 375.233 105.325 373.581 105.325 371.542C105.325 369.504 103.672 367.852 101.634 367.852C99.5958 367.852 97.9434 369.504 97.9434 371.542C97.9434 373.581 99.5958 375.233 101.634 375.233Z" fill="#003408"/>
<path d="M114.552 375.233C116.59 375.233 118.242 373.581 118.242 371.542C118.242 369.504 116.59 367.852 114.552 367.852C112.513 367.852 110.861 369.504 110.861 371.542C110.861 373.581 112.513 375.233 114.552 375.233Z" fill="#003408"/>
<path d="M247.419 436.745H164.377C163.888 436.744 163.419 436.549 163.073 436.203C162.727 435.858 162.532 435.388 162.532 434.899V413.985C162.532 413.496 162.727 413.027 163.073 412.681C163.419 412.335 163.888 412.14 164.377 412.14H247.419C247.908 412.14 248.377 412.335 248.723 412.681C249.069 413.027 249.264 413.496 249.264 413.985V434.899C249.264 435.388 249.069 435.858 248.723 436.203C248.377 436.549 247.908 436.744 247.419 436.745ZM164.377 413.37C164.214 413.37 164.058 413.435 163.942 413.55C163.827 413.666 163.762 413.822 163.762 413.985V434.899C163.762 435.062 163.827 435.219 163.942 435.334C164.058 435.449 164.214 435.514 164.377 435.514H247.419C247.582 435.514 247.738 435.449 247.853 435.334C247.969 435.219 248.034 435.062 248.034 434.899V413.985C248.034 413.822 247.969 413.666 247.853 413.55C247.738 413.435 247.582 413.37 247.419 413.37H164.377Z" fill="#003408"/>
<path d="M268.332 437.36C274.447 437.36 279.405 432.403 279.405 426.288C279.405 420.173 274.447 415.216 268.332 415.216C262.217 415.216 257.26 420.173 257.26 426.288C257.26 432.403 262.217 437.36 268.332 437.36Z" fill="#00AA13"/>
<path d="M272.022 436.131C269.711 436.131 267.451 435.446 265.529 434.162C263.607 432.878 262.109 431.052 261.225 428.917C260.34 426.781 260.109 424.431 260.56 422.164C261.01 419.897 262.124 417.814 263.758 416.18C265.393 414.545 267.475 413.432 269.742 412.981C272.009 412.53 274.359 412.762 276.495 413.646C278.63 414.531 280.456 416.029 281.74 417.951C283.024 419.873 283.71 422.133 283.71 424.444C283.706 427.543 282.474 430.513 280.283 432.704C278.092 434.896 275.121 436.128 272.022 436.131ZM272.022 413.987C269.954 413.987 267.932 414.6 266.213 415.749C264.493 416.898 263.153 418.532 262.361 420.442C261.57 422.353 261.363 424.456 261.766 426.484C262.17 428.513 263.166 430.376 264.628 431.838C266.09 433.301 267.954 434.297 269.982 434.7C272.011 435.104 274.113 434.897 276.024 434.105C277.935 433.314 279.568 431.973 280.717 430.254C281.866 428.534 282.479 426.512 282.479 424.444C282.476 421.672 281.374 419.014 279.413 417.053C277.453 415.093 274.795 413.99 272.022 413.987Z" fill="#003408"/>
<path d="M272.188 428.808L266.233 422.853L267.972 421.113L271.859 424.999L282.705 409.587L284.717 411.004L272.188 428.808Z" fill="#003408"/>
<path opacity="0.1" d="M265.816 275.355H23.9683V113.338L265.816 275.355Z" fill="#002505"/>
<path d="M355.124 272.165H324.797V269.98C324.797 269.923 324.786 269.867 324.764 269.814C324.742 269.762 324.71 269.714 324.67 269.674C324.63 269.634 324.582 269.602 324.53 269.58C324.477 269.558 324.421 269.547 324.364 269.547H313.966C313.909 269.547 313.853 269.558 313.8 269.58C313.748 269.602 313.7 269.634 313.66 269.674C313.62 269.714 313.588 269.762 313.566 269.814C313.544 269.867 313.533 269.923 313.533 269.98V272.165H307.034V269.98C307.034 269.923 307.023 269.867 307.001 269.814C306.98 269.762 306.948 269.714 306.907 269.674C306.867 269.634 306.819 269.602 306.767 269.58C306.714 269.558 306.658 269.547 306.601 269.547H296.203C296.146 269.547 296.09 269.558 296.037 269.58C295.985 269.602 295.937 269.634 295.897 269.674C295.857 269.714 295.825 269.762 295.803 269.814C295.781 269.867 295.77 269.923 295.77 269.98V272.165H289.271V269.98C289.271 269.923 289.26 269.867 289.238 269.814C289.217 269.762 289.185 269.714 289.145 269.674C289.104 269.634 289.057 269.602 289.004 269.58C288.951 269.558 288.895 269.547 288.838 269.547H278.44C278.384 269.547 278.327 269.558 278.275 269.58C278.222 269.602 278.174 269.634 278.134 269.674C278.094 269.714 278.062 269.762 278.04 269.814C278.018 269.867 278.007 269.923 278.007 269.98V272.165H271.509V269.98C271.509 269.923 271.497 269.867 271.476 269.814C271.454 269.762 271.422 269.714 271.382 269.674C271.341 269.634 271.294 269.602 271.241 269.58C271.189 269.558 271.132 269.547 271.075 269.547H260.678C260.621 269.547 260.564 269.558 260.512 269.58C260.459 269.602 260.411 269.634 260.371 269.674C260.331 269.714 260.299 269.762 260.277 269.814C260.255 269.867 260.244 269.923 260.244 269.98V272.165H253.746V269.98C253.746 269.923 253.734 269.867 253.713 269.814C253.691 269.762 253.659 269.714 253.619 269.674C253.579 269.634 253.531 269.602 253.478 269.58C253.426 269.558 253.369 269.547 253.312 269.547H242.915C242.858 269.547 242.801 269.558 242.749 269.58C242.696 269.602 242.649 269.634 242.608 269.674C242.568 269.714 242.536 269.762 242.514 269.814C242.493 269.867 242.481 269.923 242.481 269.98V272.165H235.983V269.98C235.983 269.923 235.972 269.867 235.95 269.814C235.928 269.762 235.896 269.714 235.856 269.674C235.816 269.634 235.768 269.602 235.715 269.58C235.663 269.558 235.606 269.547 235.55 269.547H225.152C225.095 269.547 225.039 269.558 224.986 269.58C224.933 269.602 224.886 269.634 224.845 269.674C224.805 269.714 224.773 269.762 224.752 269.814C224.73 269.867 224.719 269.923 224.719 269.98V272.165H218.22V269.98C218.22 269.923 218.209 269.867 218.187 269.814C218.165 269.762 218.133 269.714 218.093 269.674C218.053 269.634 218.005 269.602 217.952 269.58C217.9 269.558 217.844 269.547 217.787 269.547H136.337C136.28 269.547 136.224 269.558 136.172 269.58C136.119 269.602 136.071 269.634 136.031 269.674C135.991 269.714 135.959 269.762 135.937 269.814C135.915 269.867 135.904 269.923 135.904 269.98V272.165H129.406V269.98C129.406 269.923 129.394 269.867 129.373 269.814C129.351 269.762 129.319 269.714 129.279 269.674C129.238 269.634 129.191 269.602 129.138 269.58C129.086 269.558 129.029 269.547 128.972 269.547H118.574C118.518 269.547 118.461 269.558 118.409 269.58C118.356 269.602 118.308 269.634 118.268 269.674C118.228 269.714 118.196 269.762 118.174 269.814C118.152 269.867 118.141 269.923 118.141 269.98V272.165H111.643V269.98C111.643 269.923 111.631 269.867 111.61 269.814C111.588 269.762 111.556 269.714 111.516 269.674C111.476 269.634 111.428 269.602 111.375 269.58C111.323 269.558 111.266 269.547 111.209 269.547H100.812C100.755 269.547 100.698 269.558 100.646 269.58C100.593 269.602 100.545 269.634 100.505 269.674C100.465 269.714 100.433 269.762 100.411 269.814C100.39 269.867 100.378 269.923 100.378 269.98V272.165H93.8798V269.98C93.8798 269.923 93.8686 269.867 93.8468 269.814C93.825 269.762 93.7931 269.714 93.7529 269.674C93.7126 269.634 93.6649 269.602 93.6123 269.58C93.5598 269.558 93.5034 269.547 93.4465 269.547H83.0488C82.9919 269.547 82.9355 269.558 82.883 269.58C82.8304 269.602 82.7826 269.634 82.7424 269.674C82.7022 269.714 82.6703 269.762 82.6485 269.814C82.6267 269.867 82.6155 269.923 82.6155 269.98V272.165H76.1169V269.98C76.1169 269.923 76.1057 269.867 76.0839 269.814C76.0621 269.762 76.0302 269.714 75.99 269.674C75.9498 269.634 75.902 269.602 75.8494 269.58C75.7969 269.558 75.7405 269.547 75.6836 269.547H65.2858C65.229 269.547 65.1726 269.558 65.1201 269.58C65.0675 269.602 65.0197 269.634 64.9795 269.674C64.9393 269.714 64.9074 269.762 64.8856 269.814C64.8638 269.867 64.8526 269.923 64.8526 269.98V272.165H58.354V269.98C58.354 269.923 58.3428 269.867 58.3211 269.814C58.2993 269.762 58.2674 269.714 58.2271 269.674C58.1869 269.634 58.1391 269.602 58.0866 269.58C58.034 269.558 57.9777 269.547 57.9208 269.547H47.523C47.4661 269.547 47.4098 269.558 47.3572 269.58C47.3046 269.602 47.2569 269.634 47.2166 269.674C47.1764 269.714 47.1445 269.762 47.1227 269.814C47.1009 269.867 47.0897 269.923 47.0897 269.98V272.165H40.5911V269.98C40.5911 269.923 40.5799 269.867 40.5581 269.814C40.5364 269.762 40.5045 269.714 40.4642 269.674C40.424 269.634 40.3762 269.602 40.3237 269.58C40.2711 269.558 40.2148 269.547 40.1579 269.547H29.7601C29.7032 269.547 29.6469 269.558 29.5943 269.58C29.5417 269.602 29.494 269.634 29.4538 269.674C29.4135 269.714 29.3816 269.762 29.3598 269.814C29.3381 269.867 29.3269 269.923 29.3269 269.98V272.165H9.39778C8.03232 272.165 6.68024 272.434 5.41872 272.957C4.1572 273.479 3.01096 274.245 2.04544 275.211C1.07991 276.176 0.314019 277.322 -0.208518 278.584C-0.731055 279.845 -1 281.197 -1 282.563V287.265C-0.999993 290.022 0.0954867 292.667 2.04545 294.617C3.99541 296.567 6.64012 297.662 9.39778 297.662H355.124C356.489 297.662 357.842 297.393 359.103 296.871C360.365 296.348 361.511 295.582 362.476 294.617C363.442 293.651 364.208 292.505 364.73 291.244C365.253 289.982 365.522 288.63 365.522 287.265V282.563C365.522 281.197 365.253 279.845 364.73 278.584C364.208 277.322 363.442 276.176 362.476 275.211C361.511 274.245 360.365 273.479 359.103 272.957C357.842 272.434 356.489 272.165 355.124 272.165Z" fill="#003408"/>
<path d="M260.335 215.915H97.943C97.4538 215.914 96.9847 215.72 96.6387 215.374C96.2928 215.028 96.0982 214.559 96.0977 214.069V146.406C96.0982 145.917 96.2928 145.448 96.6387 145.102C96.9847 144.756 97.4538 144.561 97.943 144.561H260.335C260.825 144.561 261.294 144.756 261.64 145.102C261.986 145.448 262.18 145.917 262.181 146.406V214.069C262.18 214.559 261.986 215.028 261.64 215.374C261.294 215.72 260.825 215.914 260.335 215.915ZM97.943 145.791C97.7799 145.791 97.6236 145.856 97.5083 145.971C97.393 146.087 97.3281 146.243 97.3279 146.406V214.069C97.3281 214.233 97.393 214.389 97.5083 214.504C97.6236 214.619 97.7799 214.684 97.943 214.685H260.335C260.499 214.684 260.655 214.619 260.77 214.504C260.886 214.389 260.95 214.233 260.951 214.069V146.406C260.95 146.243 260.886 146.087 260.77 145.971C260.655 145.856 260.499 145.791 260.335 145.791H97.943Z" fill="#003408"/>
<path d="M116.397 183.93H109.016C108.527 183.929 108.057 183.735 107.711 183.389C107.366 183.043 107.171 182.574 107.17 182.084V174.703C107.171 174.214 107.366 173.744 107.711 173.399C108.057 173.053 108.527 172.858 109.016 172.857H116.397C116.887 172.858 117.356 173.053 117.702 173.399C118.047 173.744 118.242 174.214 118.243 174.703V182.084C118.242 182.574 118.047 183.043 117.702 183.389C117.356 183.735 116.887 183.929 116.397 183.93ZM109.016 174.088C108.853 174.088 108.696 174.153 108.581 174.268C108.466 174.383 108.401 174.54 108.401 174.703V182.084C108.401 182.247 108.466 182.404 108.581 182.519C108.696 182.634 108.853 182.699 109.016 182.699H116.397C116.56 182.699 116.717 182.634 116.832 182.519C116.947 182.404 117.012 182.247 117.012 182.084V174.703C117.012 174.54 116.947 174.383 116.832 174.268C116.717 174.153 116.56 174.088 116.397 174.088H109.016Z" fill="#003408"/>
<path d="M248.032 182.699H107.784V183.929H248.032V182.699Z" fill="#003408"/>
<path d="M612.801 247.901H161.916V249.132H612.801V247.901Z" fill="#003408"/>
<path d="M161.916 256.514C166.673 256.514 170.528 252.659 170.528 247.903C170.528 243.147 166.673 239.291 161.916 239.291C157.16 239.291 153.305 243.147 153.305 247.903C153.305 252.659 157.16 256.514 161.916 256.514Z" fill="#003408"/>
<path d="M612.801 255.9C616.537 255.9 619.567 252.87 619.567 249.134C619.567 245.397 616.537 242.367 612.801 242.367C609.064 242.367 606.034 245.397 606.034 249.134C606.034 252.87 609.064 255.9 612.801 255.9Z" fill="#003408"/>
<path d="M646.018 391.842C649.755 391.842 652.784 388.813 652.784 385.076C652.784 381.339 649.755 378.31 646.018 378.31C642.281 378.31 639.251 381.339 639.251 385.076C639.251 388.813 642.281 391.842 646.018 391.842Z" fill="#003408"/>
<path d="M196.978 391.842C200.715 391.842 203.744 388.813 203.744 385.076C203.744 381.339 200.715 378.31 196.978 378.31C193.241 378.31 190.211 381.339 190.211 385.076C190.211 388.813 193.241 391.842 196.978 391.842Z" fill="#003408"/>
</g>
<defs>
<clipPath id="clip0_887_499">
<rect width="674" height="590" fill="white"/>
</clipPath>
</defs>
</svg>
