<svg width="423" height="286" viewBox="0 0 423 286" fill="none" xmlns="http://www.w3.org/2000/svg">
<g clip-path="url(#clip0_931_1896)">
<path d="M397.69 266.73C397.69 266.73 445.79 187.94 409.37 168.63C382.18 154.22 360 178.74 360 178.74C360 178.74 397.29 82.7404 355.34 67.1204C313.39 51.5004 310 110.12 310 110.12C310 110.12 314.71 -9.55963 230.25 0.610366C166.8 8.25037 179.85 74.5104 179.85 74.5104C179.85 74.5104 127.53 56.4304 94.2999 94.0004C55.2398 138.13 109.3 188.85 109.3 188.85C109.3 188.85 57.9998 158.05 27.5698 178.74C-6.63016 202 -1.00016 234 25.9298 271.12L397.69 266.73Z" fill="#F0F8FF"/>
<path d="M412.78 273.161C412.78 280.161 320.38 285.761 206.39 285.761C92.4 285.761 0 280.121 0 273.161C0 266.201 92.4 260.551 206.39 260.551C320.38 260.551 412.78 266.191 412.78 273.161Z" fill="#D6E6F2"/>
<path d="M137.34 243.11H342.28L348.55 132.25H131.08L137.34 243.11Z" fill="#76FF84"/>
<path d="M233.44 147.17C233.44 161.06 219.66 172.33 202.64 172.33L132.8 173L130 122H202.6C219.66 122 233.44 133.28 233.44 147.17Z" fill="#76FF84"/>
<path d="M343.68 144.11H135.93V231.65H343.68V144.11Z" fill="#FFE100"/>
<path d="M346.41 236.56H150.66V149.02L351.88 147.49L346.41 236.56Z" fill="#FFE100"/>
<path d="M343.89 138.99H140.12V226.54H343.89V138.99Z" fill="white"/>
<path d="M328.81 253.12L132.5 196.77L155.2 112.42L351.52 168.77L328.81 253.12Z" fill="#FFE100"/>
<path d="M342.44 149.021H148.11V236.571H342.44V149.021Z" fill="white"/>
<path d="M350.72 162.301L351.88 141.841H276.15C260.45 141.841 247.39 150.651 244.58 162.301H123.93L130.47 273.161H344.26L349 192.791V192.711L350.79 162.301H350.72Z" fill="#00AA13"/>
<path d="M340.16 182.271C368.133 182.271 390.81 159.594 390.81 131.621C390.81 103.647 368.133 80.9707 340.16 80.9707C312.187 80.9707 289.51 103.647 289.51 131.621C289.51 159.594 312.187 182.271 340.16 182.271Z" fill="#76FF84"/>
<path d="M395.38 131.62C395.386 141.639 392.42 151.435 386.858 159.769C381.296 168.102 373.387 174.599 364.132 178.437C354.876 182.275 344.691 183.281 334.864 181.33C325.036 179.378 316.008 174.555 308.922 167.472C301.836 160.389 297.01 151.363 295.054 141.536C293.099 131.71 294.101 121.524 297.936 112.267C301.77 103.01 308.263 95.0989 316.595 89.5333C324.926 83.9677 334.721 80.998 344.74 81C358.167 81 371.045 86.3325 380.541 95.825C390.037 105.318 395.375 118.193 395.38 131.62Z" fill="#76FF84"/>
<path d="M364.25 123.161C364.239 119.293 362.699 115.587 359.966 112.852C357.232 110.117 353.527 108.574 349.66 108.561H340.14C336.271 108.571 332.564 110.113 329.828 112.848C327.092 115.584 325.551 119.292 325.54 123.161V139.001C325.54 139.361 325.62 139.701 325.65 140.001H364.15C364.15 139.651 364.25 139.311 364.25 139.001V123.161Z" fill="#00AA13"/>
<path d="M364.82 151.141H324.66C323.698 151.138 322.777 150.755 322.096 150.075C321.416 149.395 321.033 148.473 321.03 147.511C321.033 146.549 321.416 145.627 322.096 144.947C322.777 144.267 323.698 143.883 324.66 143.881H364.82C365.781 143.886 366.702 144.27 367.381 144.95C368.061 145.629 368.445 146.55 368.45 147.511C368.448 148.473 368.064 149.395 367.384 150.075C366.704 150.755 365.782 151.138 364.82 151.141Z" fill="#00AA13"/>
<path d="M344.9 116.791C343.809 116.785 342.764 116.349 341.993 115.578C341.221 114.806 340.786 113.762 340.78 112.671V106.381C340.786 105.29 341.222 104.247 341.993 103.477C342.765 102.707 343.81 102.273 344.9 102.271C345.989 102.273 347.033 102.707 347.804 103.477C348.574 104.247 349.008 105.291 349.01 106.381V112.671C349.008 113.761 348.574 114.806 347.804 115.577C347.034 116.349 345.99 116.785 344.9 116.791Z" fill="#00AA13"/>
<path d="M239.82 98.5302L250.99 113.14L248.62 96.1602L239.82 98.5302Z" fill="#FFE100"/>
<path d="M200 99.5801H247.83C250.066 99.581 252.227 98.7707 253.912 97.2996C255.596 95.8284 256.69 93.7963 256.99 91.5801L258.99 76.8301C259.162 75.5254 259.054 74.199 258.673 72.9394C258.291 71.6798 257.645 70.5162 256.778 69.5261C255.911 68.5361 254.843 67.7424 253.645 67.1982C252.447 66.6539 251.146 66.3716 249.83 66.3701H198.06C196.744 66.3714 195.444 66.6537 194.246 67.198C193.048 67.7423 191.981 68.5362 191.114 69.5265C190.248 70.5167 189.603 71.6806 189.223 72.9402C188.843 74.1997 188.736 75.5259 188.91 76.8301L190.91 91.5801C191.208 93.7844 192.292 95.8071 193.962 97.2766C195.632 98.7462 197.776 99.5641 200 99.5801Z" fill="#FFE100"/>
<path d="M231.34 83C231.342 83.6325 231.531 84.2502 231.884 84.7751C232.237 85.3001 232.737 85.7086 233.322 85.9493C233.907 86.19 234.55 86.2519 235.17 86.1273C235.79 86.0027 236.36 85.6972 236.806 85.2492C237.253 84.8013 237.556 84.2311 237.679 83.6107C237.802 82.9902 237.738 82.3473 237.495 81.7632C237.253 81.179 236.843 80.6798 236.317 80.3287C235.791 79.9775 235.172 79.79 234.54 79.79C234.119 79.79 233.702 79.8731 233.313 80.0346C232.924 80.196 232.571 80.4326 232.274 80.7308C231.976 81.029 231.741 81.383 231.581 81.7724C231.42 82.1618 231.339 82.579 231.34 83Z" fill="#F0F8FF"/>
<path d="M220.74 83.0001C220.74 83.6354 220.929 84.2564 221.282 84.7845C221.635 85.3126 222.137 85.724 222.724 85.9667C223.311 86.2093 223.957 86.2723 224.58 86.1476C225.203 86.023 225.775 85.7162 226.224 85.2663C226.672 84.8164 226.977 84.2435 227.1 83.6201C227.222 82.9968 227.158 82.3511 226.913 81.7647C226.669 81.1783 226.256 80.6777 225.726 80.3262C225.197 79.9747 224.576 79.7881 223.94 79.7901C223.091 79.7927 222.277 80.1321 221.677 80.7338C221.077 81.3355 220.74 82.1504 220.74 83.0001Z" fill="#F0F8FF"/>
<path d="M210.15 83C210.152 83.6325 210.342 84.2502 210.695 84.7751C211.047 85.3001 211.548 85.7086 212.133 85.9493C212.718 86.19 213.361 86.2519 213.981 86.1273C214.601 86.0027 215.17 85.6972 215.617 85.2492C216.063 84.8013 216.367 84.2311 216.49 83.6107C216.612 82.9902 216.548 82.3473 216.306 81.7632C216.063 81.179 215.653 80.6798 215.127 80.3287C214.601 79.9775 213.983 79.79 213.35 79.79C212.929 79.79 212.512 79.8731 212.124 80.0346C211.735 80.196 211.381 80.4326 211.084 80.7308C210.787 81.029 210.551 81.383 210.391 81.7724C210.231 82.1618 210.149 82.579 210.15 83Z" fill="#F0F8FF"/>
<path d="M105.81 146.581C105.81 146.581 92 138.061 90 129.881C88 121.701 94.07 118.561 94.07 118.561C94.07 118.561 108.41 136.511 113.61 144.001C120.17 153.471 105.81 146.581 105.81 146.581Z" fill="#FFBE9E"/>
<path d="M86.6399 110.3C76.7699 118.02 93.6399 139.11 93.6399 139.11L105.64 132.87C105.64 132.87 96.2599 102.77 86.6399 110.3Z" fill="#76FF84"/>
<path d="M59.5703 191.051L103.17 160.291L102.31 154.001L60.8603 150.851L59.5703 191.051Z" fill="#1D1D1D"/>
<path d="M97.23 115.9C94.43 106.9 80.92 106.46 69.93 108.13C62.53 109.25 57.76 111.65 56.93 120.91C56.41 126.81 58.03 152.62 61.65 159.45C61.65 159.45 74.26 166.51 102.38 157.85C102.38 157.85 103.23 135.09 97.23 115.9Z" fill="#76FF84"/>
<path d="M60 161.06C60 161.06 86.75 166.24 103.48 158.26L102.31 154C88.7438 158.251 74.3213 158.994 60.39 156.16L60 161.06Z" fill="#1D1D1D"/>
<path d="M73.2798 156.73H75.6598L76.2198 163.86H72.2998L73.2798 156.73Z" fill="#1D1D1D"/>
<path d="M89.8896 155.91L91.6197 155.37L94.5696 161.9L91.0296 163.01L89.8896 155.91Z" fill="#1D1D1D"/>
<path d="M71.11 96.1904C71.11 96.1904 82.42 98.6204 81.8 99.5404C81.18 100.46 82.27 102.33 82.29 104.13C82.29 106.13 83.63 108.13 85.37 110.13C86.59 111.51 84.43 113.13 82.5 113.53C74.19 115.09 68.94 111.98 70.7 109.29C74.65 103.26 71.11 96.1904 71.11 96.1904Z" fill="#FFBE9E"/>
<path d="M82.2897 104.13C82.2897 102.33 81.1597 100.47 81.7997 99.54C82.4397 98.61 70.2197 96 70.2197 96C71.4057 97.3242 72.1623 98.9769 72.3897 100.74C75.7797 105.33 80.6097 106.74 83.6797 107.94C82.9426 106.787 82.4681 105.487 82.2897 104.13Z" fill="#FF9C81"/>
<path d="M82.4999 83.1407C86.9499 86.5107 90.7499 98.1407 86.0899 103.661C83.5299 106.661 74.2199 103.481 69.8499 96.8607C69.2799 96.0007 67.8499 91.0807 70.2199 85.7107C71.2599 83.2807 77.8699 79.6507 82.4999 83.1407Z" fill="#FFBE9E"/>
<path d="M87.6403 92.29C87.6403 93.01 86.6403 85.29 82.2803 84.74C80.5103 84.53 80.9103 86.39 78.8603 86.54C77.1003 86.67 71.8603 83.14 73.8603 93.54C73.9603 94.04 73.4803 94.64 73.2503 95.09C73.0203 95.54 73.8603 96.91 73.8403 97.54C73.8203 98.17 72.0203 96.29 72.0603 96.89C72.1103 97.8 73.6903 100.34 72.3803 100.69C71.7403 100.86 70.9703 99.84 70.5003 99.5C69.1903 98.5 68.5003 98.61 67.4203 97.37C66.3403 96.13 64.0603 93.86 64.7703 90.73C65.1803 88.95 66.9703 88.73 67.4803 87.03C70.1203 78.03 74.7803 77.56 76.4203 77.32C78.6203 76.99 80.3103 78.06 82.5203 79.99C83.5723 80.8591 84.7002 81.6322 85.8903 82.3C86.1903 82.45 88.2103 83.47 87.8103 88.38C87.6452 89.0378 87.5249 89.706 87.4503 90.38C87.5103 91.05 87.6403 91.66 87.6403 92.29Z" fill="#1D1D1D"/>
<path d="M75.0001 96.1905C75.0001 96.1905 71.7801 93.3605 70.0001 94.1905C68.2201 95.0205 70.7201 99.8405 74.3801 99.1905C78.0401 98.5405 76.0001 97.0005 75.0001 96.1905Z" fill="#FFBE9E"/>
<path d="M101.91 262.801C101.91 262.801 103.58 264.801 105.55 267.401C107.52 270.001 108.99 272.811 106.23 274.071C103.47 275.331 100.14 272.231 99.0598 270.391C97.9798 268.551 96.7498 268.751 95.2598 267.531C93.7698 266.311 94.5598 261.771 94.5598 261.771L101.91 262.801Z" fill="#1D1D1D"/>
<path d="M76.6303 175.881C80.6503 181.001 94.0003 263.001 94.0003 263.001C98.0003 266.381 104.06 263.001 104.06 263.001C108.42 221.191 103.06 159.101 103.06 159.101C103.06 159.101 72.6103 181.001 76.6303 175.881Z" fill="#1D1D1D"/>
<path d="M99.2202 160.4C99.1602 163.8 99.2202 173.33 104.14 173.33C104.292 173.35 104.432 173.424 104.534 173.539C104.635 173.654 104.691 173.802 104.691 173.955C104.691 174.109 104.635 174.257 104.534 174.372C104.432 174.487 104.292 174.561 104.14 174.58C98.1402 174.58 97.9002 164.58 97.9702 160.4C97.9895 160.248 98.0636 160.108 98.1787 160.007C98.2937 159.906 98.4418 159.85 98.5952 159.85C98.7486 159.85 98.8967 159.906 99.0117 160.007C99.1268 160.108 99.2009 160.248 99.2202 160.4Z" fill="#1D1D1D"/>
<path d="M61.7998 264.15C61.7998 264.15 60.1298 266.15 58.1598 268.75C56.1898 271.35 54.7198 274.16 57.4698 275.42C60.2198 276.68 63.5698 273.58 64.6498 271.74C65.7298 269.9 66.9598 270.1 68.4498 268.88C69.9398 267.66 69.1498 263.12 69.1498 263.12L61.7998 264.15Z" fill="#1D1D1D"/>
<path d="M87.0802 177.231C83.0802 182.321 69.6602 264.301 69.6602 264.301C65.6602 267.681 59.6602 264.301 59.6602 264.301C55.3002 222.501 60.0202 161.061 60.0202 161.061C60.0202 161.061 91.1502 182.321 87.1302 177.231H87.0802Z" fill="#1D1D1D"/>
<path d="M65.7403 161.75C65.8003 165.91 65.5303 175.92 59.5703 175.92C59.4182 175.901 59.2783 175.827 59.1769 175.712C59.0755 175.596 59.0195 175.448 59.0195 175.295C59.0195 175.142 59.0755 174.994 59.1769 174.878C59.2783 174.763 59.4182 174.689 59.5703 174.67C64.4403 174.67 64.5703 165.15 64.4903 161.75C64.5096 161.598 64.5837 161.458 64.6988 161.357C64.8139 161.255 64.9619 161.199 65.1153 161.199C65.2687 161.199 65.4168 161.255 65.5318 161.357C65.6469 161.458 65.721 161.598 65.7403 161.75Z" fill="#1D1D1D"/>
<path d="M78.3499 94.9104H78.4799C78.6109 94.9636 78.7491 94.9972 78.8899 95.0104C79.4499 95.0104 79.7099 94.6904 79.8899 94.2104C79.9699 93.9204 80.4399 94.0804 80.3599 94.3804C80.3037 94.6106 80.1927 94.8237 80.0363 95.0017C79.88 95.1797 79.683 95.3173 79.462 95.4028C79.241 95.4882 79.0027 95.519 78.7672 95.4924C78.5318 95.4659 78.3063 95.3829 78.1099 95.2504C77.8299 95.1104 78.1099 94.7204 78.3999 94.8604L78.3499 94.9104Z" fill="#201714"/>
<path d="M83.5303 93.0007C83.6691 93.1288 83.8278 93.2335 84.0003 93.3107C84.5503 93.5407 84.8603 93.2007 85.0003 92.7207C85.1203 92.4307 85.5903 92.5907 85.4703 92.8807C85.2403 93.4607 84.8203 93.9707 84.1103 93.8807C83.7347 93.7932 83.3894 93.6067 83.1103 93.3407C82.8803 93.1207 83.2703 92.8107 83.4903 93.0207L83.5303 93.0007Z" fill="#201714"/>
<path d="M84.4203 90.4904C84.055 90.4072 83.6719 90.4637 83.3462 90.6487C83.0205 90.8338 82.7758 91.134 82.6603 91.4904C82.5303 91.8504 81.9803 91.6004 82.1203 91.2404C82.2794 90.7552 82.613 90.3464 83.0565 90.0932C83.4999 89.8401 84.0216 89.7607 84.5203 89.8704C84.9003 89.9504 84.8003 90.5404 84.4203 90.4604V90.4904Z" fill="#4D2F20"/>
<path d="M79.6301 92.5302C79.296 92.3381 78.9 92.2838 78.5265 92.3791C78.153 92.4743 77.8314 92.7115 77.6301 93.0402C77.4001 93.3502 76.9401 92.9602 77.1701 92.6602C77.457 92.2279 77.8965 91.9197 78.4008 91.7974C78.9051 91.675 79.4369 91.7474 79.8901 92.0002C79.9579 92.0369 80.009 92.0983 80.0328 92.1717C80.0565 92.2451 80.0511 92.3248 80.0177 92.3942C79.9842 92.4637 79.9253 92.5177 79.8531 92.5448C79.781 92.572 79.7011 92.5704 79.6301 92.5402V92.5302Z" fill="#4D2F20"/>
<path d="M81.6701 92.6006C81.5476 93.1565 81.5858 93.7357 81.7801 94.2706C82.0901 95.0006 82.9901 95.2706 83.5301 95.8206C84.2801 96.6206 83.6901 97.2106 82.6701 97.6206C82.4301 97.7206 82.2701 97.4206 82.5201 97.3206C84.8001 96.3806 81.9101 95.4806 81.4401 94.5306C81.165 93.9011 81.1018 93.1992 81.2601 92.5306C81.2601 92.3106 81.7101 92.3306 81.6701 92.5306V92.6006Z" fill="#7C4930"/>
<path d="M80.87 98.6504C80.87 98.6504 80.73 100.65 82.43 100.71C84.13 100.77 84.32 98.8704 84.32 98.8704L80.87 98.6504Z" fill="#FAFFFF"/>
<path d="M77.5402 98.6704C77.6059 98.809 77.6982 98.9332 77.8119 99.0361C77.9256 99.139 78.0584 99.2184 78.2028 99.27C78.3472 99.3215 78.5003 99.3441 78.6534 99.3365C78.8066 99.3288 78.9567 99.2911 79.0952 99.2254C79.2338 99.1598 79.358 99.0675 79.4609 98.9538C79.5638 98.8401 79.6432 98.7073 79.6948 98.5629C79.7463 98.4185 79.7689 98.2653 79.7613 98.1122C79.7536 97.9591 79.7159 97.809 79.6502 97.6704C79.5176 97.3906 79.2793 97.1749 78.9877 97.0709C78.696 96.9668 78.375 96.9828 78.0952 97.1154C77.8154 97.248 77.5998 97.4864 77.4957 97.778C77.3916 98.0696 77.4076 98.3906 77.5402 98.6704Z" fill="#FF9C81"/>
<path d="M86.9202 94.7602C86.7249 94.6367 86.4973 94.5738 86.2663 94.5795C86.0353 94.5851 85.8111 94.6591 85.622 94.792C85.433 94.925 85.2875 95.1109 85.204 95.3264C85.1205 95.5419 85.1027 95.7773 85.1529 96.0029C85.203 96.2285 85.3188 96.4342 85.4857 96.5941C85.6526 96.7539 85.8631 96.8608 86.0907 96.9011C86.3183 96.9415 86.5527 96.9135 86.7644 96.8208C86.9761 96.7281 87.1556 96.5748 87.2802 96.3802C87.3634 96.2503 87.4201 96.1053 87.447 95.9534C87.474 95.8015 87.4706 95.6459 87.4371 95.4953C87.4037 95.3447 87.3408 95.2023 87.2521 95.0761C87.1634 94.95 87.0506 94.8426 86.9202 94.7602Z" fill="#FF9C81"/>
<path d="M96.03 130.49H119.34L104.74 153.16H82.75L96.03 130.49Z" fill="#163A54"/>
<path d="M61.1997 150.641C61.1997 150.641 53.9997 136.151 56.5097 128.121C59.0197 120.091 65.9297 120.631 65.9297 120.631C65.9297 120.631 64.5797 140.261 69.3597 148.001C74.1397 155.741 61.1997 150.641 61.1997 150.641Z" fill="#FFBE9E"/>
<path d="M63.9999 109.711C51.5399 111.081 54.8199 137.911 54.8199 137.911L68.2999 138.911C68.2999 138.911 76.1199 108.371 63.9999 109.711Z" fill="#76FF84"/>
<path d="M63.8302 152.321C70.3202 154.111 88.0902 152.321 88.0902 152.321L85.0902 148.041L63.2002 143.631C63.2002 143.631 57.2202 150.501 63.8302 152.321Z" fill="#FFBE9E"/>
<path d="M84.4199 147.37C84.7922 146.899 85.1077 146.385 85.3599 145.84C86.0075 144.943 86.8061 144.164 87.7199 143.54C88.2099 143.17 88.7999 141.81 89.5599 142.01C90.8099 142.35 89.2199 144.34 89.0299 144.89C88.9236 145.136 88.8973 145.41 88.9547 145.672C89.0121 145.934 89.1504 146.171 89.3499 146.35C89.6553 146.516 90.0059 146.579 90.3499 146.53C91.4646 146.426 92.5728 146.263 93.6699 146.04C94.2399 145.95 94.8199 145.9 95.3899 145.84C95.8534 145.716 96.3302 145.649 96.8099 145.64C96.8952 145.65 96.9773 145.678 97.0506 145.723C97.1238 145.768 97.1864 145.828 97.234 145.899C97.2816 145.971 97.3131 146.051 97.3262 146.136C97.3393 146.221 97.3337 146.308 97.3099 146.39C97.1899 146.7 96.8599 146.66 96.5799 146.73C95.9599 146.91 95.3499 147.1 94.7399 147.3C94.5999 147.3 93.9599 147.46 93.8999 147.6C93.6399 148.32 95.3499 148.04 95.6299 148.01C96.3026 147.879 96.9992 147.952 97.6299 148.22C97.6734 148.237 97.7124 148.264 97.7436 148.299C97.7749 148.334 97.7976 148.375 97.8099 148.42C97.8099 148.57 97.6799 148.67 97.5399 148.73C96.7199 149.06 95.8099 149.09 94.9999 149.44C94.8599 149.5 94.7199 149.59 94.7099 149.73C94.7099 150.31 95.8199 150.36 96.1899 150.41C96.5599 150.46 96.7199 150.51 96.7799 150.74C96.7935 150.817 96.7836 150.897 96.7515 150.968C96.7194 151.039 96.6666 151.099 96.5999 151.14C96.4655 151.223 96.3159 151.277 96.1599 151.3C95.7052 151.415 95.2445 151.505 94.7799 151.57C94.5599 151.57 93.8999 151.57 93.8599 151.88C93.8574 151.911 93.8614 151.942 93.8717 151.972C93.8821 152.001 93.8985 152.028 93.9199 152.05C94.0878 152.193 94.292 152.287 94.5099 152.32C94.7099 152.39 94.9399 152.52 94.9599 152.74C94.9799 152.96 94.6999 153.19 94.4499 153.28C93.5024 153.538 92.5215 153.653 91.5399 153.62C90.5399 153.62 89.4799 153.62 88.4599 153.62C87.0953 153.548 85.7363 153.394 84.3899 153.16C83.1469 153.064 81.9764 152.537 81.0799 151.67C80.602 151.012 80.2619 150.263 80.0799 149.47C79.9937 149.008 80.0828 148.53 80.3299 148.13C80.3665 148.077 80.4143 148.033 80.4699 148C80.5453 147.98 80.6245 147.98 80.6999 148C81.3167 148.078 81.9383 148.112 82.5599 148.1C83.2429 148.066 83.8959 147.81 84.4199 147.37Z" fill="#FFBE9E"/>
<path d="M112.26 143.12C111.73 142.82 110.95 141.56 110.26 141.87C109.07 142.38 110.93 144.13 111.19 144.65C111.329 144.877 111.394 145.142 111.374 145.408C111.354 145.673 111.251 145.926 111.08 146.13C110.793 146.349 110.441 146.465 110.08 146.46C108.961 146.52 107.839 146.52 106.72 146.46C106.14 146.46 105.57 146.46 104.98 146.46C104.508 146.405 104.032 146.405 103.56 146.46C103.476 146.481 103.398 146.521 103.331 146.576C103.264 146.631 103.21 146.7 103.173 146.778C103.135 146.857 103.116 146.942 103.115 147.029C103.115 147.116 103.134 147.201 103.17 147.28C103.34 147.57 103.65 147.48 103.94 147.52C104.58 147.6 105.21 147.71 105.85 147.82C105.98 147.82 106.63 147.82 106.71 148C107.08 148.67 105.34 148.64 105.06 148.65C104.359 148.605 103.661 148.776 103.06 149.14C103.02 149.165 102.986 149.199 102.96 149.239C102.934 149.278 102.917 149.323 102.91 149.37C102.91 149.52 103.08 149.6 103.22 149.64C104.08 149.85 104.99 149.75 105.84 149.98C105.98 149.98 106.14 150.08 106.17 150.23C106.3 150.79 105.17 151.01 104.8 151.11C104.43 151.21 104.28 151.28 104.26 151.52C104.257 151.598 104.278 151.674 104.319 151.74C104.36 151.806 104.419 151.858 104.49 151.89C104.636 151.949 104.793 151.979 104.95 151.98C105.418 152.033 105.889 152.057 106.36 152.05C106.58 152.05 107.23 151.94 107.36 152.23C107.38 152.285 107.38 152.345 107.36 152.4C107.215 152.565 107.028 152.689 106.82 152.76C106.62 152.85 106.42 153.02 106.42 153.23C106.42 153.44 106.75 153.65 107.01 153.7C107.985 153.818 108.973 153.791 109.94 153.62C111.033 153.495 112.089 153.155 113.05 152.62C118.06 149.73 113.23 143.66 112.26 143.12Z" fill="#FFBE9E"/>
</g>
<defs>
<clipPath id="clip0_931_1896">
<rect width="423" height="285.76" fill="white"/>
</clipPath>
</defs>
</svg>
