<svg width="424" height="301" viewBox="0 0 424 301" fill="none" xmlns="http://www.w3.org/2000/svg">
<g clip-path="url(#clip0_1061_437)">
<path d="M243.06 273.09C188.65 248.5 179.38 259.23 133.28 281.92C83.3401 306.5 38.9001 270.67 33.5201 239.77C18.1801 151.64 71.2301 71.0699 133.67 53.3899C169.6 43.2199 238.94 53.0699 243.14 110.76C245.05 136.99 232.21 161.12 262.82 170.56C294.47 180.32 343.45 155.91 356.21 205.08C368.87 253.8 293.92 296.07 243.06 273.09Z" fill="#CEFF8A" fill-opacity="0.5"/>
<path d="M357.67 286.66C357.67 286.66 420.85 221.09 400.47 196.24C398.513 193.897 395.829 192.276 392.844 191.634C389.86 190.993 386.746 191.368 384 192.7C376.42 196.4 365.66 206.75 357.63 235.04C357.63 235.04 393.19 159.27 365.63 154.88C365.63 154.88 336.68 146.68 332.37 222.74C332.37 222.74 335.81 168.52 311.73 165.24C311.73 165.24 257.82 149.08 307.14 287.99L357.67 286.66Z" fill="#337804"/>
<path d="M347.81 287.35C347.81 287.35 383.76 250 365 241.11C365 241.11 354.49 239.06 347.85 262.45C347.85 262.45 365 225.91 351.72 223.79C351.72 223.79 339 213.93 335.72 256.52C335.72 256.52 337.38 230.37 325.77 228.79C325.77 228.79 299.77 221 323.55 287.99L347.81 287.35Z" fill="#58CC02"/>
<path d="M211.93 301.01C328.976 301.01 423.86 296.39 423.86 290.69C423.86 284.991 328.976 280.37 211.93 280.37C94.8843 280.37 0 284.991 0 290.69C0 296.39 94.8843 301.01 211.93 301.01Z" fill="#204B03" fill-opacity="0.3"/>
<path d="M322.6 25.7695H132.47C127.731 25.7695 123.89 29.6109 123.89 34.3495V281.66C123.89 286.398 127.731 290.24 132.47 290.24H322.6C327.338 290.24 331.18 286.398 331.18 281.66V34.3495C331.18 29.6109 327.338 25.7695 322.6 25.7695Z" fill="#7FEA16"/>
<path d="M314.02 25.7695H123.89C119.151 25.7695 115.31 29.6109 115.31 34.3495V281.66C115.31 286.398 119.151 290.24 123.89 290.24H314.02C318.758 290.24 322.6 286.398 322.6 281.66V34.3495C322.6 29.6109 318.758 25.7695 314.02 25.7695Z" fill="#A6FF47"/>
<path d="M308.31 38.6299H132.47V275.94H308.31V38.6299Z" fill="#D7E7FF"/>
<path d="M298.3 52.1396H123.89V283.09H298.3V52.1396Z" fill="#EBF3FF"/>
<path d="M266.02 20.4102H179.3C174.561 20.4102 170.72 24.2516 170.72 28.9902V37.5602C170.72 42.2988 174.561 46.1402 179.3 46.1402H266.02C270.758 46.1402 274.6 42.2988 274.6 37.5602V28.9902C274.6 24.2516 270.758 20.4102 266.02 20.4102Z" fill="#FEDA00"/>
<path d="M175 75.0898H144.62V105.47H175V75.0898Z" fill="#7FEA16"/>
<path d="M175 117.98H144.62V148.36H175V117.98Z" fill="#7FEA16"/>
<path d="M175 169.44H144.62V199.82H175V169.44Z" fill="#7FEA16"/>
<path d="M175 212.33H144.62V242.71H175V212.33Z" fill="#7FEA16"/>
<path d="M151.77 88.9996L160.96 103.95L178.39 67.1396L159.81 90.2796L151.77 88.9996Z" fill="#A6FF47"/>
<path d="M151.77 125.7L160.96 140.65L178.39 103.84L159.81 126.98L151.77 125.7Z" fill="#A6FF47"/>
<path d="M151.77 185.34L160.96 200.29L178.39 163.48L159.81 186.62L151.77 185.34Z" fill="#A6FF47"/>
<path d="M151.77 222.04L160.96 236.99L178.39 200.18L159.81 223.32L151.77 222.04Z" fill="#A6FF47"/>
<path d="M284.29 78.79H183.42V82.73H284.29V78.79Z" fill="#A6FF47"/>
<path d="M284.29 87.96H183.42V91.9H284.29V87.96Z" fill="#A6FF47"/>
<path d="M284.29 97.1396H183.42V101.08H284.29V97.1396Z" fill="#A6FF47"/>
<path d="M284.29 120.08H183.42V124.02H284.29V120.08Z" fill="#A6FF47"/>
<path d="M284.29 129.25H183.42V133.19H284.29V129.25Z" fill="#A6FF47"/>
<path d="M284.29 138.43H183.42V142.37H284.29V138.43Z" fill="#A6FF47"/>
<path d="M284.29 216.42H183.42V220.36H284.29V216.42Z" fill="#A6FF47"/>
<path d="M284.29 225.59H183.42V229.53H284.29V225.59Z" fill="#A6FF47"/>
<path d="M284.29 234.77H183.42V238.71H284.29V234.77Z" fill="#A6FF47"/>
<path d="M205.49 0H239.83C242.263 0.00265028 244.596 0.970996 246.315 2.69229C248.035 4.41359 249 6.74704 249 9.18V31.64C249 34.072 248.034 36.4045 246.314 38.1242C244.595 39.8439 242.262 40.81 239.83 40.81H205.49C203.058 40.81 200.726 39.8439 199.006 38.1242C197.286 36.4045 196.32 34.072 196.32 31.64V9.17C196.32 6.73796 197.286 4.40554 199.006 2.68583C200.726 0.966122 203.058 0 205.49 0Z" fill="#FEDA00"/>
<path d="M358.28 72.8604H239.91C232.1 72.8604 225.77 79.191 225.77 87.0004V117.57C225.77 125.38 232.1 131.71 239.91 131.71H358.28C366.089 131.71 372.42 125.38 372.42 117.57V87.0004C372.42 79.191 366.089 72.8604 358.28 72.8604Z" fill="#FEDA00"/>
<path d="M273.64 128.92V147.46L301.67 128.92H273.64Z" fill="#FEDA00"/>
<path d="M234.9 155.28C222.111 155.28 209.846 160.361 200.803 169.404C191.76 178.447 186.68 190.712 186.68 203.5H283.13C283.13 197.167 281.882 190.896 279.458 185.045C277.034 179.194 273.482 173.878 269.003 169.4C264.524 164.922 259.207 161.371 253.356 158.948C247.504 156.525 241.233 155.279 234.9 155.28Z" fill="#FFA000"/>
<path d="M274.88 176.53L229.53 203.53H283.13C283.149 193.907 280.275 184.5 274.88 176.53Z" fill="#7EAF2F"/>
<path d="M275.86 178.07C268.73 166.94 260.13 160.01 246.33 156.66L230.27 203.5H242.2L275.86 178.07Z" fill="#FEDA00"/>
<path d="M254.2 159.31C248.112 156.659 241.54 155.297 234.9 155.31C230.537 155.232 226.187 155.818 222 157.05L233.1 203.5H234.79L254.2 159.31Z" fill="#FAC22E"/>
<path d="M186.68 203.5H233.07L196.91 173.81C189.3 182.56 186.68 195.59 186.68 203.5Z" fill="#FEB801"/>
<path d="M234.9 189.83C231.275 189.83 227.798 191.27 225.234 193.834C222.671 196.398 221.23 199.875 221.23 203.5H248.57C248.57 201.705 248.217 199.927 247.53 198.269C246.843 196.61 245.836 195.103 244.567 193.834C243.297 192.565 241.79 191.558 240.132 190.871C238.473 190.184 236.696 189.83 234.9 189.83Z" fill="#E9E4FC"/>
<path d="M234.9 193.77C232.319 193.77 229.845 194.795 228.02 196.619C226.195 198.444 225.17 200.919 225.17 203.5H244.64C244.637 200.918 243.61 198.443 241.784 196.619C239.957 194.794 237.481 193.77 234.9 193.77Z" fill="#282738"/>
<path d="M272.99 193.83L239.66 198.93L240.45 202.73L272.99 193.83Z" fill="#282738"/>
<path d="M265.07 118.12C261.986 119.229 258.737 119.81 255.46 119.84C250.71 119.84 246.82 118.63 243.75 115.71C241.05 113.1 239.38 108.92 239.38 104.04C239.43 94.7097 245.84 87.8797 256.38 87.8797C259.051 87.815 261.707 88.3054 264.18 89.3197L263.18 92.6197C261.001 91.6662 258.638 91.2052 256.26 91.2697C248.64 91.2697 243.67 96.0097 243.67 103.86C243.67 111.71 248.45 116.5 255.75 116.5C257.582 116.596 259.414 116.31 261.13 115.66V106.32H254.77V103.07H265.08L265.07 118.12Z" fill="white"/>
<path d="M298 103.53C298 114.31 291.45 120.03 283.46 120.03C275.19 120.03 269.38 113.61 269.38 104.14C269.38 94.2004 275.56 87.6904 283.93 87.6904C292.47 87.6904 298 94.2404 298 103.53ZM273.7 104C273.7 110.7 277.32 116.69 283.7 116.69C290.08 116.69 293.7 110.79 293.7 103.69C293.7 97.4704 290.45 90.9604 283.7 90.9604C276.95 90.9604 273.7 97.1704 273.7 104Z" fill="white"/>
<path d="M330 103.53C330 114.31 323.45 120.03 315.46 120.03C307.19 120.03 301.39 113.61 301.39 104.14C301.39 94.2004 307.56 87.6904 315.92 87.6904C324.45 87.6904 330 94.2404 330 103.53ZM305.7 104.04C305.7 110.74 309.33 116.73 315.7 116.73C322.07 116.73 325.7 110.83 325.7 103.73C325.7 97.5104 322.44 91.0004 315.7 91.0004C308.96 91.0004 305.68 97.1704 305.68 104L305.7 104.04Z" fill="white"/>
<path d="M335.21 88.6197C338.057 88.1908 340.931 87.9735 343.81 87.9697C349.61 87.9697 353.75 89.3197 356.49 91.8697C359.23 94.4197 360.9 98.0497 360.9 103.12C360.9 108.19 359.32 112.41 356.4 115.29C353.48 118.17 348.64 119.8 342.55 119.8C340.098 119.815 337.647 119.688 335.21 119.42V88.6197ZM339.21 116.31C340.565 116.497 341.933 116.574 343.3 116.54C351.94 116.54 356.64 111.71 356.64 103.26C356.64 95.8697 352.5 91.1797 343.95 91.1797C342.36 91.1541 340.772 91.2915 339.21 91.5897V116.31Z" fill="white"/>
<path d="M103.56 168.2C103.56 168.2 89.8299 159.71 87.7899 151.57C85.7499 143.43 91.7899 140.29 91.7899 140.29C91.7899 140.29 106.08 158.17 111.26 165.63C117.87 175.07 103.56 168.2 103.56 168.2Z" fill="#FFBE9E"/>
<path d="M84.4499 132.05C74.6199 139.75 91.4499 160.76 91.4499 160.76L103.39 154.54C103.39 154.54 93.9999 124.55 84.4499 132.05Z" fill="#58CC02"/>
<path d="M57.4902 212.51L100.93 181.87L100.07 175.59L58.7702 172.46L57.4902 212.51Z" fill="#1D1D1D"/>
<path d="M94.9995 137.64C92.2095 128.69 78.7496 128.23 67.7996 129.89C60.4196 131.01 55.6696 133.4 54.7996 142.62C54.2796 148.5 55.8896 174.22 59.4996 181.03C59.4996 181.03 72.0696 188.03 100.08 179.43C100.14 179.43 101 156.76 94.9995 137.64Z" fill="#A6FF47"/>
<path d="M57.8799 182.63C57.8799 182.63 84.5399 187.79 101.21 179.84L100.07 175.6C86.5516 179.833 72.1813 180.572 58.2999 177.75L57.8799 182.63Z" fill="#7FEA16"/>
<path d="M71.1499 178.32H73.5199L74.0799 185.42H70.1699L71.1499 178.32Z" fill="#A6FF47"/>
<path d="M87.7002 177.5L89.4202 176.96L92.3602 183.47L88.8302 184.58L87.7002 177.5Z" fill="#A6FF47"/>
<path d="M69.0004 118C69.0004 118 80.2804 120.42 79.6504 121.35C79.0204 122.28 80.1204 124.12 80.1504 125.92C80.1504 127.92 81.4804 129.92 83.2104 131.92C84.4304 133.3 82.2704 134.92 80.3504 135.31C72.0704 136.87 66.8504 133.77 68.6004 131.09C72.5104 125 69.0004 118 69.0004 118Z" fill="#FFBE9E"/>
<path d="M80.1298 125.91C80.1298 124.11 78.9998 122.26 79.6298 121.34C80.2598 120.42 68.0898 117.8 68.0898 117.8C69.2736 119.12 70.027 120.77 70.2498 122.53C73.6298 127.1 78.4498 128.53 81.5098 129.7C80.7715 128.556 80.2999 127.261 80.1298 125.91Z" fill="#FF9C81"/>
<path d="M80.3298 105C84.7698 108.36 88.5498 119.94 83.9098 125.45C81.3598 128.45 72.0798 125.26 67.7298 118.67C67.1598 117.81 65.7298 112.91 68.0898 107.56C69.1298 105.13 75.7198 101.51 80.3298 105Z" fill="#FFBE9E"/>
<path d="M85.4501 114.11C85.4501 114.82 84.4501 107.11 80.1201 106.58C78.3501 106.37 78.7501 108.23 76.7001 108.38C74.9601 108.51 69.7001 104.99 71.7001 115.38C71.8001 115.88 71.3301 116.47 71.1001 116.92C70.8701 117.37 71.7001 118.73 71.6901 119.36C71.6801 119.99 69.8701 118.12 69.9101 118.71C69.9101 119.62 71.5301 122.15 70.2201 122.5C69.5901 122.67 68.8201 121.65 68.3601 121.31C67.0501 120.31 66.3601 120.43 65.2801 119.19C64.2001 117.95 61.9401 115.69 62.6501 112.57C63.0501 110.8 64.8401 110.63 65.3501 108.89C67.9801 99.8898 72.6201 99.4498 74.2601 99.2098C76.4401 98.8898 78.1301 99.9498 80.3301 101.87C81.3787 102.739 82.5032 103.512 83.6901 104.18C83.9901 104.33 86.0001 105.34 85.6101 110.23C85.4356 110.886 85.3152 111.554 85.2501 112.23C85.3201 112.88 85.4601 113.48 85.4501 114.11Z" fill="#1D1D1D"/>
<path d="M72.8201 118C72.8201 118 69.6101 115.18 67.8201 116C66.0301 116.82 68.5301 121.63 72.1801 121C75.8301 120.37 73.8001 118.75 72.8201 118Z" fill="#FFBE9E"/>
<path d="M99.6699 284C99.6699 284 101.34 285.95 103.3 288.59C105.26 291.23 106.73 293.97 103.98 295.23C101.23 296.49 97.9099 293.4 96.8299 291.57C95.7499 289.74 94.5299 289.93 93.0499 288.71C91.5699 287.49 92.3499 282.98 92.3499 282.98L99.6699 284Z" fill="#1D1D1D"/>
<path d="M74.4802 197.4C78.4802 202.47 91.8302 284.17 91.8302 284.17C95.8302 287.54 101.83 284.17 101.83 284.17C106.17 242.51 100.83 180.64 100.83 180.64C100.83 180.64 70.4702 202.47 74.4802 197.4Z" fill="#1D1D1D"/>
<path d="M96.9997 182C96.9997 185.39 97.0497 194.88 101.9 194.88C102.064 194.88 102.222 194.945 102.338 195.061C102.454 195.178 102.52 195.335 102.52 195.5C102.52 195.664 102.454 195.822 102.338 195.938C102.222 196.055 102.064 196.12 101.9 196.12C95.9697 196.12 95.6897 186.12 95.7597 182C95.7597 181.835 95.825 181.678 95.9413 181.561C96.0576 181.445 96.2153 181.38 96.3797 181.38C96.5441 181.38 96.7018 181.445 96.8181 181.561C96.9344 181.678 96.9997 181.835 96.9997 182Z" fill="#7FEA16"/>
<path d="M59.7101 285.35C59.7101 285.35 58.0401 287.3 56.0801 289.94C54.1201 292.58 52.6501 295.32 55.4001 296.58C58.1501 297.84 61.4701 294.75 62.5501 292.92C63.6301 291.09 64.8501 291.28 66.3301 290.06C67.8101 288.84 67.0301 284.33 67.0301 284.33L59.7101 285.35Z" fill="#1D1D1D"/>
<path d="M84.89 198.74C80.89 203.81 67.54 285.51 67.54 285.51C63.54 288.88 57.54 285.51 57.54 285.51C53.2 243.85 57.9 182.63 57.9 182.63C57.9 182.63 88.9 203.81 84.9 198.74H84.89Z" fill="#1D1D1D"/>
<path d="M63.6301 183.32C63.7001 187.47 63.4201 197.44 57.4901 197.44C57.3257 197.44 57.168 197.375 57.0517 197.259C56.9354 197.142 56.8701 196.985 56.8701 196.82C56.8701 196.656 56.9354 196.498 57.0517 196.382C57.168 196.266 57.3257 196.2 57.4901 196.2C62.3401 196.2 62.4401 186.71 62.3901 183.32C62.3901 183.156 62.4554 182.998 62.5717 182.882C62.688 182.766 62.8457 182.7 63.0101 182.7C63.1746 182.7 63.3323 182.766 63.4485 182.882C63.5648 182.998 63.6301 183.156 63.6301 183.32Z" fill="#7FEA16"/>
<path d="M76.1997 116.72H76.3197C76.4557 116.769 76.5965 116.802 76.7397 116.82C77.2997 116.82 77.5497 116.5 77.6797 116.03C77.7597 115.73 78.2297 115.89 78.1497 116.19C78.0949 116.42 77.9852 116.634 77.8299 116.812C77.6745 116.99 77.4783 117.128 77.258 117.213C77.0376 117.299 76.7998 117.33 76.565 117.303C76.3301 117.276 76.1053 117.193 75.9097 117.06C75.6297 116.92 75.9097 116.53 76.1997 116.67V116.72Z" fill="#201714"/>
<path d="M81.3603 114.85C81.5004 114.974 81.659 115.075 81.8303 115.15C82.3803 115.39 82.6803 115.05 82.8303 114.56C82.9403 114.28 83.4103 114.44 83.3003 114.73C83.0603 115.3 82.6503 115.82 81.9403 115.73C81.5633 115.646 81.2171 115.459 80.9403 115.19C80.7103 114.98 81.1003 114.67 81.3203 114.88L81.3603 114.85Z" fill="#201714"/>
<path d="M82.2397 112.32C81.877 112.235 81.4955 112.291 81.1725 112.477C80.8495 112.662 80.609 112.964 80.4997 113.32C80.3597 113.68 79.8197 113.43 79.9497 113.07C80.0986 112.581 80.4294 112.167 80.8739 111.914C81.3184 111.661 81.843 111.588 82.3397 111.71C82.7197 111.79 82.6197 112.38 82.2397 112.3V112.32Z" fill="#4D2F20"/>
<path d="M77.4799 114.35C77.1464 114.155 76.7496 114.099 76.3753 114.194C76.0011 114.29 75.6794 114.529 75.4799 114.86C75.2499 115.17 74.7999 114.78 75.0199 114.47C75.304 114.048 75.7344 113.747 76.2278 113.625C76.7211 113.503 77.2422 113.569 77.6899 113.81C77.7516 113.848 77.797 113.908 77.8177 113.978C77.8384 114.048 77.8329 114.123 77.8023 114.189C77.7717 114.256 77.718 114.308 77.6513 114.338C77.5846 114.367 77.5094 114.371 77.4399 114.35H77.4799Z" fill="#4D2F20"/>
<path d="M79.5002 114.42C79.3796 114.973 79.4178 115.549 79.6102 116.08C79.9202 116.81 80.8202 117.08 81.3602 117.63C82.1102 118.42 81.5202 119.01 80.5102 119.42C80.2602 119.52 80.1002 119.22 80.3502 119.12C82.6202 118.19 79.7502 117.28 79.2802 116.34C79.0065 115.711 78.94 115.01 79.0902 114.34C79.0902 114.12 79.5402 114.15 79.5002 114.34V114.42Z" fill="#7C4930"/>
<path d="M78.7098 120.45C78.7098 120.45 78.5698 122.45 80.2698 122.45C81.9698 122.45 82.1398 120.62 82.1398 120.62L78.7098 120.45Z" fill="#FAFFFF"/>
<path d="M75.4002 120.47C75.4626 120.608 75.552 120.733 75.6632 120.836C75.7743 120.939 75.905 121.019 76.0475 121.072C76.19 121.124 76.3415 121.147 76.4931 121.14C76.6446 121.133 76.7933 121.095 76.9302 121.03C77.1396 120.935 77.3158 120.779 77.4366 120.583C77.5573 120.387 77.617 120.16 77.6082 119.93C77.5994 119.7 77.5223 119.478 77.3869 119.292C77.2515 119.106 77.0639 118.964 76.8478 118.885C76.6317 118.806 76.397 118.793 76.1735 118.848C75.9499 118.902 75.7477 119.022 75.5926 119.192C75.4374 119.362 75.3362 119.574 75.302 119.802C75.2677 120.029 75.3019 120.262 75.4002 120.47Z" fill="#FF9C81"/>
<path d="M84.7404 116.57C84.546 116.444 84.3184 116.379 84.0866 116.382C83.8548 116.385 83.6292 116.457 83.4385 116.589C83.2478 116.721 83.1005 116.907 83.0154 117.122C82.9302 117.338 82.9111 117.574 82.9603 117.8C83.0095 118.027 83.125 118.234 83.292 118.395C83.4589 118.555 83.6699 118.663 83.8981 118.704C84.1264 118.744 84.3615 118.716 84.5738 118.623C84.7861 118.53 84.9659 118.376 85.0904 118.18C85.2562 117.92 85.3124 117.605 85.2469 117.303C85.1813 117.002 84.9993 116.738 84.7404 116.57Z" fill="#FF9C81"/>
<path d="M93.8101 152.17H117.04L102.49 174.76H80.5801L93.8101 152.17Z" fill="#CEE8EF"/>
<path d="M59.1099 172.25C59.1099 172.25 51.8899 157.81 54.4399 149.81C56.9899 141.81 63.8299 142.35 63.8299 142.35C63.8299 142.35 62.4699 161.91 67.2399 169.63C72.0099 177.35 59.1099 172.25 59.1099 172.25Z" fill="#FFBE9E"/>
<path d="M61.8699 131.46C49.4699 132.83 52.7299 159.57 52.7299 159.57L66.1599 160.57C66.1599 160.57 73.9999 130.13 61.8699 131.46Z" fill="#58CC02"/>
<path d="M61.7296 173.92C68.1996 175.71 85.8996 173.92 85.8996 173.92L82.8996 169.65L61.0996 165.27C61.0996 165.27 55.1396 172.11 61.7296 173.92Z" fill="#FFBE9E"/>
<path d="M82.2395 169C82.6093 168.527 82.9246 168.014 83.1795 167.47C83.8236 166.576 84.6189 165.801 85.5295 165.18C86.0195 164.81 86.5995 163.45 87.3695 163.65C88.6095 163.99 87.0295 165.98 86.8395 166.52C86.734 166.765 86.7081 167.036 86.7655 167.296C86.823 167.557 86.9608 167.792 87.1595 167.97C87.463 168.141 87.8144 168.208 88.1595 168.16C89.2704 168.052 90.3751 167.888 91.4695 167.67C92.0395 167.58 92.6095 167.52 93.1895 167.46C93.6505 167.34 94.1235 167.273 94.5995 167.26C94.6852 167.271 94.7675 167.3 94.8407 167.346C94.9139 167.392 94.9764 167.453 95.0239 167.525C95.0714 167.597 95.1027 167.679 95.1158 167.764C95.1288 167.85 95.1233 167.937 95.0995 168.02C94.9795 168.33 94.6495 168.28 94.3695 168.36C93.7595 168.53 93.1395 168.73 92.5295 168.92C92.3995 168.97 91.7595 169.08 91.7095 169.22C91.4395 169.94 93.1495 169.66 93.4195 169.63C94.0922 169.498 94.7888 169.572 95.4195 169.84C95.4639 169.855 95.5037 169.882 95.5351 169.917C95.5666 169.952 95.5887 169.994 95.5995 170.04C95.5995 170.18 95.4695 170.29 95.3295 170.35C94.5195 170.68 93.5995 170.71 92.7895 171.06C92.6595 171.11 92.5195 171.2 92.5095 171.35C92.5095 171.92 93.6095 171.97 93.9895 172.02C94.3695 172.07 94.5195 172.12 94.5795 172.35C94.5883 172.428 94.5751 172.506 94.5415 172.577C94.508 172.648 94.4553 172.707 94.3895 172.75C94.2559 172.834 94.1059 172.888 93.9495 172.91C93.4981 173.025 93.0408 173.115 92.5795 173.18C92.3595 173.18 91.6995 173.18 91.6595 173.49C91.6563 173.519 91.6601 173.549 91.6705 173.577C91.6809 173.605 91.6977 173.63 91.7195 173.65C91.884 173.794 92.0845 173.891 92.2995 173.93C92.5095 173.99 92.7395 174.12 92.7595 174.34C92.7795 174.56 92.4995 174.79 92.2495 174.88C91.3053 175.137 90.3278 175.252 89.3495 175.22C88.3495 175.22 87.3495 175.22 86.2795 175.22C84.9179 175.152 83.5619 174.998 82.2195 174.76C81.0054 174.638 79.8693 174.106 78.9995 173.25C78.7859 172.969 78.6016 172.668 78.4495 172.35C78.2283 171.943 78.0698 171.504 77.9795 171.05C77.8929 170.591 77.9822 170.116 78.2295 169.72C78.2661 169.667 78.3139 169.622 78.3695 169.59C78.4449 169.57 78.5242 169.57 78.5995 169.59C79.213 169.668 79.8313 169.701 80.4495 169.69C81.1036 169.652 81.7295 169.411 82.2395 169Z" fill="#FFBE9E"/>
<path d="M110 164.76C109.47 164.46 108.69 163.2 108 163.51C106.81 164.02 108.67 165.76 108.93 166.28C109.069 166.507 109.133 166.772 109.113 167.037C109.094 167.303 108.991 167.556 108.82 167.76C108.533 167.979 108.181 168.095 107.82 168.09C106.71 168.18 105.59 168.09 104.48 168.09C103.9 168.09 103.33 168.09 102.75 168.09C102.275 168.034 101.795 168.034 101.32 168.09C101.238 168.113 101.162 168.153 101.097 168.208C101.032 168.262 100.979 168.33 100.942 168.407C100.905 168.483 100.885 168.567 100.883 168.652C100.881 168.737 100.897 168.821 100.93 168.9C101.1 169.2 101.42 169.1 101.7 169.14C102.34 169.22 102.97 169.33 103.6 169.44C103.74 169.44 104.39 169.44 104.47 169.62C104.83 170.28 103.1 170.26 102.83 170.26C102.127 170.215 101.429 170.39 100.83 170.76C100.79 170.783 100.756 170.815 100.73 170.853C100.704 170.891 100.687 170.934 100.68 170.98C100.68 171.13 100.84 171.22 100.99 171.25C101.84 171.46 102.75 171.36 103.6 171.59C103.671 171.6 103.739 171.629 103.797 171.672C103.854 171.716 103.9 171.774 103.93 171.84C104.05 172.4 102.93 172.62 102.56 172.72C102.19 172.82 102.05 172.89 102.02 173.12C102.02 173.199 102.042 173.277 102.085 173.344C102.127 173.412 102.188 173.466 102.26 173.5C102.405 173.56 102.562 173.591 102.72 173.59C103.181 173.643 103.645 173.666 104.11 173.66C104.33 173.66 104.99 173.54 105.11 173.84C105.122 173.866 105.128 173.895 105.128 173.925C105.128 173.954 105.122 173.983 105.11 174.01C104.966 174.174 104.779 174.295 104.57 174.36C104.38 174.45 104.18 174.62 104.18 174.83C104.18 175.04 104.5 175.25 104.77 175.3C105.738 175.418 106.719 175.391 107.68 175.22C108.768 175.09 109.821 174.75 110.78 174.22C115.76 171.34 111 165.29 110 164.76Z" fill="#FFBE9E"/>
</g>
<defs>
<clipPath id="clip0_1061_437">
<rect width="424" height="301" fill="white"/>
</clipPath>
</defs>
</svg>
