<svg width="674" height="590" viewBox="0 0 674 590" fill="none" xmlns="http://www.w3.org/2000/svg">
<path d="M20 92C20 85.3726 25.3726 80 32 80H641C647.627 80 653 85.3726 653 92V499C653 505.627 647.627 511 641 511H32C25.3726 511 20 505.627 20 499V92Z" fill="#E6E6E6"/>
<path d="M38 103C38 98.5817 41.5817 95 46 95H628C632.418 95 636 98.5817 636 103V488C636 492.418 632.418 496 628 496H46C41.5817 496 38 492.418 38 488V103Z" fill="white"/>
<path d="M642.936 510.995H30.344C24.6344 510.995 20.006 506.877 20 501.803V89.1923C20.0072 84.1177 24.6344 80.006 30.344 80H642.936C648.646 80 653.274 84.1177 653.28 89.1923V501.803C653.272 506.877 648.645 510.988 642.936 510.995ZM30.344 82.0403C25.9033 82.0403 22.3034 85.2431 22.2987 89.1898V501.801C22.2987 505.747 25.9033 508.945 30.344 508.95H642.936C647.376 508.95 650.976 505.747 650.981 501.801V89.1898C650.981 85.2431 647.376 82.0451 642.936 82.0403H30.344Z" fill="#00AA13"/>
<path d="M583.369 175.713H90.3074C87.5649 175.71 84.9357 174.619 82.9965 172.679C81.0574 170.74 79.9665 168.111 79.9634 165.369V129.739C79.9665 126.997 81.0574 124.368 82.9965 122.429C84.9357 120.489 87.5649 119.399 90.3074 119.396H583.369C586.111 119.399 588.74 120.489 590.679 122.429C592.619 124.368 593.709 126.997 593.713 129.739V165.369C593.709 168.111 592.619 170.74 590.679 172.679C588.74 174.619 586.111 175.71 583.369 175.713ZM90.3074 121.694C88.1744 121.697 86.1295 122.545 84.6212 124.053C83.113 125.562 82.2646 127.607 82.262 129.739V165.369C82.2646 167.502 83.113 169.547 84.6212 171.055C86.1295 172.563 88.1744 173.411 90.3074 173.414H583.369C585.502 173.411 587.547 172.563 589.055 171.055C590.563 169.547 591.411 167.502 591.414 165.369V129.739C591.411 127.607 590.563 125.562 589.055 124.053C587.547 122.545 585.502 121.697 583.369 121.694H90.3074Z" fill="#00AA13"/>
<path d="M285.693 285.727H90.3074C87.5649 285.724 84.9357 284.633 82.9965 282.694C81.0574 280.755 79.9665 278.126 79.9634 275.383V239.754C79.9665 237.012 81.0574 234.383 82.9965 232.443C84.9357 230.504 87.5649 229.413 90.3074 229.41H285.693C288.436 229.413 291.065 230.504 293.004 232.443C294.943 234.383 296.034 237.012 296.037 239.754V275.383C296.034 278.126 294.943 280.755 293.004 282.694C291.065 284.633 288.436 285.724 285.693 285.727ZM90.3074 231.709C88.1744 231.711 86.1295 232.56 84.6212 234.068C83.113 235.576 82.2646 237.621 82.262 239.754V275.383C82.2646 277.516 83.113 279.561 84.6212 281.069C86.1295 282.578 88.1744 283.426 90.3074 283.429H285.693C287.826 283.426 289.871 282.578 291.38 281.069C292.888 279.561 293.736 277.516 293.739 275.383V239.754C293.736 237.621 292.888 235.576 291.38 234.068C289.871 232.56 287.826 231.711 285.693 231.709H90.3074Z" fill="#00AA13"/>
<path d="M583.37 285.727H387.984C385.241 285.724 382.612 284.633 380.673 282.694C378.734 280.755 377.643 278.126 377.64 275.383V239.754C377.643 237.012 378.734 234.383 380.673 232.443C382.612 230.504 385.241 229.413 387.984 229.41H583.37C586.112 229.413 588.741 230.504 590.681 232.443C592.62 234.383 593.71 237.012 593.714 239.754V275.383C593.71 278.126 592.62 280.755 590.681 282.694C588.741 284.633 586.112 285.724 583.37 285.727ZM387.984 231.709C385.851 231.711 383.806 232.56 382.298 234.068C380.789 235.576 379.941 237.621 379.938 239.754V275.383C379.941 277.516 380.789 279.562 382.297 281.07C383.805 282.578 385.851 283.426 387.984 283.429H583.37C585.503 283.426 587.548 282.578 589.056 281.069C590.564 279.561 591.412 277.516 591.415 275.383V239.754C591.412 237.621 590.564 235.576 589.056 234.068C587.548 232.56 585.503 231.711 583.37 231.709H387.984Z" fill="#00AA13"/>
<path d="M401.065 471.741H270.041C267.451 471.738 264.968 470.707 263.137 468.876C261.305 467.044 260.275 464.561 260.272 461.971V449.328C260.276 446.738 261.306 444.256 263.137 442.424C264.968 440.593 267.451 439.563 270.041 439.56H401.065C403.655 439.563 406.137 440.593 407.969 442.424C409.8 444.256 410.83 446.738 410.833 449.328V461.971C410.831 464.561 409.801 467.044 407.969 468.876C406.138 470.707 403.655 471.738 401.065 471.741Z" fill="#00AA13"/>
<path d="M112.143 345.493C110.325 345.492 108.547 344.952 107.036 343.941C105.524 342.931 104.346 341.494 103.651 339.814C102.956 338.134 102.774 336.286 103.129 334.502C103.484 332.719 104.36 331.081 105.646 329.795C106.933 328.51 108.571 327.634 110.354 327.28C112.138 326.925 113.986 327.108 115.666 327.804C117.346 328.5 118.782 329.678 119.792 331.19C120.802 332.702 121.341 334.48 121.341 336.298C121.341 338.737 120.373 341.075 118.648 342.8C116.924 344.524 114.585 345.493 112.147 345.493H112.143ZM112.143 329.402C110.779 329.402 109.446 329.807 108.312 330.564C107.178 331.322 106.294 332.399 105.772 333.659C105.25 334.919 105.114 336.306 105.38 337.643C105.646 338.981 106.303 340.21 107.267 341.174C108.231 342.139 109.46 342.796 110.798 343.062C112.136 343.328 113.522 343.191 114.782 342.669C116.042 342.147 117.119 341.263 117.877 340.129C118.635 338.995 119.039 337.662 119.039 336.298C119.039 334.469 118.313 332.715 117.019 331.422C115.726 330.129 113.972 329.402 112.143 329.402Z" fill="#00AA13"/>
<path d="M112.143 375.375C110.325 375.374 108.547 374.834 107.036 373.823C105.524 372.813 104.346 371.376 103.651 369.696C102.956 368.016 102.774 366.167 103.129 364.384C103.484 362.601 104.36 360.963 105.646 359.677C106.933 358.392 108.571 357.516 110.354 357.162C112.138 356.807 113.986 356.99 115.666 357.686C117.346 358.382 118.782 359.56 119.792 361.072C120.802 362.584 121.341 364.362 121.341 366.18C121.341 368.619 120.373 370.957 118.648 372.682C116.924 374.406 114.585 375.375 112.147 375.375H112.143ZM112.143 359.284C110.779 359.284 109.446 359.688 108.312 360.446C107.178 361.204 106.294 362.281 105.772 363.541C105.25 364.801 105.114 366.188 105.38 367.525C105.646 368.863 106.303 370.092 107.267 371.056C108.231 372.021 109.46 372.677 110.798 372.943C112.136 373.21 113.522 373.073 114.782 372.551C116.042 372.029 117.119 371.145 117.877 370.011C118.635 368.877 119.039 367.544 119.039 366.18C119.039 364.351 118.313 362.597 117.019 361.304C115.726 360.011 113.972 359.284 112.143 359.284Z" fill="#00AA13"/>
<path d="M112.143 405.256C110.325 405.256 108.547 404.716 107.036 403.705C105.524 402.694 104.346 401.258 103.651 399.578C102.956 397.898 102.774 396.049 103.129 394.266C103.484 392.482 104.36 390.844 105.646 389.559C106.933 388.273 108.571 387.398 110.354 387.044C112.138 386.689 113.986 386.871 115.666 387.567C117.346 388.263 118.782 389.442 119.792 390.954C120.802 392.466 121.341 394.243 121.341 396.062C121.341 398.5 120.373 400.839 118.648 402.563C116.924 404.288 114.585 405.256 112.147 405.256H112.143ZM112.143 389.166C110.779 389.166 109.446 389.57 108.312 390.328C107.178 391.086 106.294 392.163 105.772 393.423C105.25 394.683 105.114 396.069 105.38 397.407C105.646 398.745 106.303 399.974 107.267 400.938C108.231 401.902 109.46 402.559 110.798 402.825C112.136 403.091 113.522 402.955 114.782 402.433C116.042 401.911 117.119 401.027 117.877 399.893C118.635 398.759 119.039 397.426 119.039 396.062C119.039 394.233 118.313 392.479 117.019 391.186C115.726 389.892 113.972 389.166 112.143 389.166Z" fill="#00AA13"/>
<path d="M156.155 328.827C154.173 328.827 152.273 329.614 150.872 331.015C149.471 332.416 148.684 334.316 148.684 336.298C148.684 338.279 149.471 340.179 150.872 341.58C152.273 342.981 154.173 343.768 156.155 343.768H263.042C265.024 343.768 266.924 342.981 268.325 341.58C269.726 340.179 270.513 338.279 270.513 336.298C270.513 334.316 269.726 332.416 268.325 331.015C266.924 329.614 265.024 328.827 263.042 328.827H156.155Z" fill="#00AA13"/>
<path d="M156.155 358.709C154.19 358.734 152.314 359.532 150.933 360.93C149.553 362.329 148.778 364.215 148.778 366.18C148.778 368.145 149.553 370.031 150.933 371.429C152.314 372.827 154.19 373.625 156.155 373.65H263.043C265.024 373.65 266.924 372.863 268.325 371.462C269.726 370.061 270.513 368.161 270.513 366.18C270.513 364.198 269.726 362.298 268.325 360.897C266.924 359.496 265.024 358.709 263.043 358.709H156.155Z" fill="#00AA13"/>
<path d="M156.155 388.748C154.19 388.773 152.314 389.571 150.933 390.969C149.553 392.368 148.778 394.254 148.778 396.219C148.778 398.184 149.553 400.07 150.933 401.468C152.314 402.866 154.19 403.664 156.155 403.689H263.043C265.024 403.689 266.924 402.902 268.325 401.501C269.726 400.1 270.513 398.2 270.513 396.219C270.513 394.237 269.726 392.337 268.325 390.936C266.924 389.535 265.024 388.748 263.043 388.748H156.155Z" fill="#00AA13"/>
<path d="M410.393 345.493C408.574 345.493 406.797 344.954 405.285 343.943C403.773 342.933 402.594 341.497 401.898 339.817C401.202 338.137 401.02 336.288 401.375 334.504C401.73 332.721 402.605 331.082 403.891 329.797C405.177 328.511 406.816 327.635 408.599 327.28C410.383 326.925 412.231 327.108 413.912 327.803C415.592 328.499 417.028 329.678 418.038 331.19C419.048 332.702 419.588 334.48 419.588 336.298C419.588 338.737 418.619 341.075 416.894 342.8C415.17 344.524 412.831 345.493 410.393 345.493ZM410.393 329.402C409.029 329.402 407.696 329.807 406.562 330.564C405.428 331.322 404.544 332.399 404.022 333.659C403.5 334.919 403.363 336.306 403.629 337.643C403.895 338.981 404.552 340.21 405.517 341.174C406.481 342.139 407.71 342.796 409.048 343.062C410.385 343.328 411.772 343.191 413.032 342.669C414.292 342.147 415.369 341.263 416.127 340.129C416.884 338.995 417.289 337.662 417.289 336.298C417.289 335.393 417.11 334.496 416.764 333.659C416.417 332.823 415.909 332.062 415.269 331.422C414.629 330.782 413.869 330.274 413.032 329.927C412.195 329.581 411.298 329.402 410.393 329.402Z" fill="#00AA13"/>
<path d="M410.393 375.375C408.574 375.375 406.797 374.835 405.285 373.825C403.773 372.815 402.594 371.379 401.898 369.699C401.202 368.019 401.02 366.17 401.375 364.386C401.73 362.603 402.605 360.964 403.891 359.678C405.177 358.392 406.816 357.517 408.599 357.162C410.383 356.807 412.231 356.989 413.912 357.685C415.592 358.381 417.028 359.56 418.038 361.072C419.048 362.584 419.588 364.361 419.588 366.18C419.588 368.619 418.619 370.957 416.894 372.682C415.17 374.406 412.831 375.375 410.393 375.375ZM410.393 359.284C409.029 359.284 407.696 359.688 406.562 360.446C405.428 361.204 404.544 362.281 404.022 363.541C403.5 364.801 403.363 366.188 403.629 367.525C403.895 368.863 404.552 370.092 405.517 371.056C406.481 372.021 407.71 372.677 409.048 372.943C410.385 373.21 411.772 373.073 413.032 372.551C414.292 372.029 415.369 371.145 416.127 370.011C416.884 368.877 417.289 367.544 417.289 366.18C417.289 365.274 417.11 364.378 416.764 363.541C416.417 362.704 415.909 361.944 415.269 361.304C414.629 360.663 413.869 360.156 413.032 359.809C412.195 359.462 411.298 359.284 410.393 359.284Z" fill="#00AA13"/>
<path d="M410.393 405.513C408.574 405.513 406.797 404.974 405.285 403.964C403.773 402.953 402.594 401.517 401.898 399.837C401.202 398.157 401.02 396.308 401.375 394.525C401.73 392.741 402.605 391.103 403.891 389.817C405.177 388.531 406.816 387.655 408.599 387.301C410.383 386.946 412.231 387.128 413.912 387.824C415.592 388.52 417.028 389.698 418.038 391.21C419.048 392.722 419.588 394.5 419.588 396.319C419.588 398.757 418.619 401.096 416.894 402.82C415.17 404.545 412.831 405.513 410.393 405.513ZM410.393 389.423C409.029 389.423 407.696 389.827 406.562 390.585C405.428 391.343 404.544 392.42 404.022 393.68C403.5 394.94 403.363 396.326 403.629 397.664C403.895 399.002 404.552 400.23 405.517 401.195C406.481 402.159 407.71 402.816 409.048 403.082C410.385 403.348 411.772 403.212 413.032 402.69C414.292 402.168 415.369 401.284 416.127 400.15C416.884 399.016 417.289 397.683 417.289 396.319C417.289 395.413 417.11 394.516 416.764 393.68C416.417 392.843 415.909 392.083 415.269 391.442C414.629 390.802 413.869 390.294 413.032 389.948C412.195 389.601 411.298 389.423 410.393 389.423Z" fill="#00AA13"/>
<path d="M454.07 328.827C452.089 328.827 450.189 329.614 448.788 331.015C447.387 332.416 446.6 334.316 446.6 336.298C446.6 338.279 447.387 340.179 448.788 341.58C450.189 342.981 452.089 343.768 454.07 343.768H560.958C562.939 343.768 564.839 342.981 566.24 341.58C567.641 340.179 568.429 338.279 568.429 336.298C568.429 334.316 567.641 332.416 566.24 331.015C564.839 329.614 562.939 328.827 560.958 328.827H454.07Z" fill="#00AA13"/>
<path d="M454.07 358.71C453.081 358.697 452.099 358.881 451.182 359.251C450.264 359.621 449.43 360.169 448.726 360.864C448.022 361.559 447.463 362.387 447.082 363.299C446.7 364.212 446.504 365.191 446.504 366.18C446.504 367.169 446.7 368.149 447.082 369.061C447.463 369.974 448.022 370.802 448.726 371.497C449.43 372.191 450.264 372.74 451.182 373.11C452.099 373.479 453.081 373.663 454.07 373.651H560.957C562.939 373.651 564.839 372.864 566.24 371.463C567.641 370.062 568.428 368.162 568.428 366.18C568.428 364.199 567.641 362.299 566.24 360.898C564.839 359.497 562.939 358.71 560.957 358.71H454.07Z" fill="#00AA13"/>
<path d="M454.07 388.748C453.081 388.735 452.099 388.919 451.182 389.289C450.264 389.659 449.43 390.207 448.726 390.902C448.022 391.597 447.463 392.425 447.082 393.337C446.7 394.25 446.504 395.229 446.504 396.218C446.504 397.207 446.7 398.187 447.082 399.099C447.463 400.012 448.022 400.84 448.726 401.535C449.43 402.23 450.264 402.778 451.182 403.148C452.099 403.517 453.081 403.701 454.07 403.689H560.957C562.939 403.689 564.839 402.902 566.24 401.501C567.641 400.1 568.428 398.2 568.428 396.218C568.428 394.237 567.641 392.337 566.24 390.936C564.839 389.535 562.939 388.748 560.957 388.748H454.07Z" fill="#00AA13"/>
<path d="M112.289 250.098C110.308 250.098 108.408 250.885 107.007 252.286C105.606 253.687 104.819 255.587 104.819 257.568C104.819 259.55 105.606 261.45 107.007 262.851C108.408 264.252 110.308 265.039 112.289 265.039H239.865C241.846 265.039 243.747 264.252 245.148 262.851C246.549 261.45 247.336 259.55 247.336 257.568C247.336 255.587 246.549 253.687 245.148 252.286C243.747 250.885 241.846 250.098 239.865 250.098H112.289Z" fill="#00AA13"/>
<path d="M112.289 140.084C110.308 140.084 108.408 140.871 107.007 142.272C105.606 143.673 104.819 145.573 104.819 147.555C104.819 149.536 105.606 151.436 107.007 152.837C108.408 154.238 110.308 155.025 112.289 155.025H239.865C241.846 155.025 243.747 154.238 245.148 152.837C246.549 151.436 247.336 149.536 247.336 147.555C247.336 145.573 246.549 143.673 245.148 142.272C243.747 140.871 241.846 140.084 239.865 140.084H112.289Z" fill="#00AA13"/>
<path d="M260.846 252.771C260.745 252.77 260.646 252.797 260.558 252.847C260.471 252.898 260.398 252.97 260.348 253.058C260.297 253.145 260.271 253.244 260.271 253.345C260.271 253.446 260.298 253.545 260.349 253.633L265.227 262.081C265.278 262.168 265.35 262.241 265.437 262.291C265.525 262.341 265.624 262.368 265.724 262.368C265.825 262.368 265.924 262.341 266.012 262.291C266.099 262.241 266.171 262.168 266.222 262.081L271.1 253.633C271.151 253.545 271.178 253.446 271.178 253.345C271.178 253.244 271.152 253.145 271.101 253.058C271.051 252.97 270.978 252.898 270.891 252.847C270.803 252.797 270.704 252.77 270.603 252.771H260.846Z" fill="#00AA13"/>
<path d="M409.967 250.098C407.985 250.098 406.085 250.885 404.684 252.286C403.283 253.687 402.496 255.587 402.496 257.568C402.496 259.55 403.283 261.45 404.684 262.851C406.085 264.252 407.985 265.039 409.967 265.039H537.542C539.524 265.039 541.424 264.252 542.825 262.851C544.226 261.45 545.013 259.55 545.013 257.568C545.013 255.587 544.226 253.687 542.825 252.286C541.424 250.885 539.524 250.098 537.542 250.098H409.967Z" fill="#00AA13"/>
<path d="M558.522 252.771C558.421 252.77 558.322 252.797 558.235 252.847C558.147 252.898 558.075 252.97 558.024 253.058C557.974 253.145 557.947 253.244 557.947 253.345C557.947 253.446 557.974 253.545 558.025 253.633L562.903 262.081C562.954 262.169 563.026 262.241 563.114 262.292C563.201 262.342 563.3 262.369 563.401 262.369C563.502 262.369 563.602 262.342 563.689 262.292C563.776 262.241 563.849 262.169 563.899 262.081L568.777 253.633C568.827 253.545 568.854 253.446 568.854 253.345C568.854 253.244 568.828 253.145 568.777 253.058C568.727 252.97 568.654 252.898 568.567 252.847C568.479 252.797 568.38 252.77 568.279 252.771H558.522Z" fill="#00AA13"/>
<path d="M410.395 370.779C412.934 370.779 414.992 368.72 414.992 366.181C414.992 363.642 412.934 361.584 410.395 361.584C407.856 361.584 405.798 363.642 405.798 366.181C405.798 368.72 407.856 370.779 410.395 370.779Z" fill="#00AA13"/>
<path d="M112.147 400.818C114.686 400.818 116.744 398.759 116.744 396.22C116.744 393.681 114.686 391.623 112.147 391.623C109.608 391.623 107.549 393.681 107.549 396.22C107.549 398.759 109.608 400.818 112.147 400.818Z" fill="#00AA13"/>
</svg>
