<svg width="423" height="299" viewBox="0 0 423 299" fill="none" xmlns="http://www.w3.org/2000/svg">
<g clip-path="url(#clip0_1061_511)">
<mask id="mask0_1061_511" style="mask-type:luminance" maskUnits="userSpaceOnUse" x="0" y="0" width="423" height="299">
<path d="M423 0H0V298.58H423V0Z" fill="white"/>
</mask>
<g mask="url(#mask0_1061_511)">
<path d="M276.179 266.38C215.849 237.04 205.569 249.84 154.449 276.91C99.0795 306.25 49.7895 263.49 43.8195 226.62C26.8095 121.44 85.6395 25.29 154.879 4.18996C194.729 -7.95004 271.609 3.79996 276.269 72.65C278.389 103.96 264.159 132.75 298.089 144.01C333.199 155.67 387.499 126.54 401.659 185.21C415.689 243.36 332.579 293.8 276.179 266.38Z" fill="#CEFF8A" fill-opacity="0.5"/>
<path d="M229.139 298.32C336.205 298.32 422.999 294.734 422.999 290.31C422.999 285.886 336.205 282.3 229.139 282.3C122.073 282.3 35.2793 285.886 35.2793 290.31C35.2793 294.734 122.073 298.32 229.139 298.32Z" fill="#204B03" fill-opacity="0.3"/>
<path d="M305.59 273.43C305.582 275.516 305.163 277.579 304.357 279.503C303.551 281.427 302.373 283.173 300.892 284.641C299.411 286.11 297.654 287.271 295.724 288.061C293.793 288.85 291.726 289.25 289.64 289.24H114.22C112.13 289.257 110.057 288.861 108.12 288.075C106.184 287.289 104.422 286.128 102.935 284.659C101.448 283.19 100.267 281.442 99.4573 279.515C98.6481 277.588 98.2276 275.52 98.2197 273.43V32.3298C98.2289 30.2407 98.6504 28.1739 99.4602 26.248C100.27 24.3221 101.452 22.5751 102.939 21.1072C104.425 19.6392 106.187 18.4792 108.123 17.6937C110.059 16.9082 112.131 16.5127 114.22 16.5298H289.64C291.725 16.5193 293.791 16.9197 295.721 17.7082C297.651 18.4966 299.407 19.6577 300.889 21.125C302.37 22.5923 303.547 24.337 304.354 26.2596C305.161 28.1822 305.581 30.2449 305.59 32.3298V273.43Z" fill="#A6FF47"/>
<path d="M313.999 273.43C313.99 275.519 313.569 277.587 312.759 279.513C311.949 281.44 310.768 283.187 309.281 284.656C307.795 286.125 306.033 287.286 304.097 288.072C302.161 288.859 300.089 289.256 297.999 289.24H122.589C120.504 289.249 118.438 288.847 116.509 288.058C114.579 287.268 112.824 286.106 111.344 284.638C109.863 283.169 108.687 281.424 107.881 279.501C107.076 277.578 106.657 275.515 106.649 273.43V32.3298C106.659 30.2457 107.078 28.1838 107.884 26.2619C108.69 24.3399 109.867 22.5956 111.347 21.1284C112.827 19.6613 114.582 18.5 116.511 17.711C118.44 16.9219 120.505 16.5205 122.589 16.5298H297.999C300.088 16.5139 302.16 16.9104 304.095 17.6963C306.03 18.4823 307.791 19.6423 309.278 21.11C310.764 22.5777 311.946 24.3242 312.756 26.2495C313.566 28.1748 313.989 30.241 313.999 32.3298V273.43Z" fill="#58CC02"/>
<path d="M295.83 238.39C295.83 246.88 288.49 253.76 279.43 253.76H138.07C129.07 253.76 121.68 246.88 121.68 238.39V56.2499C121.68 47.7599 129.02 40.8799 138.07 40.8799H279.43C288.49 40.8799 295.83 47.7599 295.83 56.2499V238.39Z" fill="#A6FF47"/>
<path d="M289.63 238.389C289.601 240.437 289.169 242.459 288.359 244.339C287.549 246.22 286.377 247.922 284.908 249.349C283.44 250.777 281.705 251.901 279.803 252.657C277.9 253.414 275.867 253.789 273.82 253.759H137.49C135.442 253.789 133.409 253.414 131.507 252.657C129.604 251.901 127.869 250.777 126.401 249.349C124.933 247.922 123.76 246.22 122.95 244.339C122.14 242.459 121.708 240.437 121.68 238.389V56.2495C121.708 54.2021 122.14 52.1805 122.95 50.3C123.76 48.4195 124.933 46.717 126.401 45.2897C127.869 43.8624 129.604 42.7383 131.507 41.9816C133.409 41.2249 135.442 40.8504 137.49 40.8795H273.82C275.867 40.8504 277.9 41.2249 279.803 41.9816C281.705 42.7383 283.44 43.8624 284.908 45.2897C286.377 46.717 287.549 48.4195 288.359 50.3C289.169 52.1805 289.601 54.2021 289.63 56.2495V238.389Z" fill="white"/>
<path d="M246.14 28.9996C246.136 29.2767 246.078 29.5503 245.968 29.8048C245.858 30.0593 245.699 30.2897 245.501 30.4828C245.302 30.676 245.067 30.8281 244.81 30.9305C244.552 31.0329 244.277 31.0835 244 31.0796H168.54C167.984 31.0823 167.449 30.8652 167.052 30.4757C166.655 30.0862 166.428 29.5557 166.42 28.9996C166.421 28.7229 166.477 28.4493 166.585 28.1944C166.692 27.9394 166.849 27.7082 167.046 27.514C167.243 27.3198 167.476 27.1664 167.732 27.0627C167.989 26.959 168.263 26.9069 168.54 26.9096H244C244.278 26.9043 244.555 26.9543 244.814 27.0569C245.072 27.1594 245.308 27.3123 245.507 27.5068C245.706 27.7013 245.865 27.9334 245.973 28.1897C246.082 28.4459 246.139 28.7212 246.14 28.9996Z" fill="#A6FF47"/>
<path d="M217.999 275.39H206.639C205.35 275.385 204.116 274.87 203.205 273.957C202.294 273.045 201.782 271.809 201.779 270.52C201.785 269.233 202.298 268 203.209 267.089C204.119 266.179 205.352 265.665 206.639 265.66H217.999C219.287 265.665 220.52 266.179 221.43 267.089C222.34 268 222.854 269.233 222.859 270.52C222.857 271.809 222.344 273.045 221.434 273.957C220.523 274.87 219.288 275.385 217.999 275.39Z" fill="#A6FF47"/>
<path d="M238.47 232.23C238.467 234.832 237.431 237.327 235.59 239.167C233.749 241.006 231.253 242.04 228.65 242.04H157.48C154.878 242.04 152.383 241.006 150.543 239.166C148.703 237.327 147.67 234.831 147.67 232.23V17.1296C147.67 14.5269 148.703 12.0306 150.543 10.1893C152.382 8.348 154.877 7.31222 157.48 7.30957H228.65C231.254 7.30957 233.752 8.34417 235.594 10.1858C237.435 12.0274 238.47 14.5251 238.47 17.1296V232.23Z" fill="#DAFFDE"/>
<path d="M179.019 36.5303H155.649V59.9003H179.019V36.5303Z" fill="#A6FF47"/>
<path d="M205.21 36.5303H181.84V59.9003H205.21V36.5303Z" fill="#A6FF47"/>
<path d="M231.01 36.5303H207.63V59.9003H231.01V36.5303Z" fill="#A6FF47"/>
<path d="M179.019 63.6299H155.649V86.9999H179.019V63.6299Z" fill="#A6FF47"/>
<path d="M205.21 63.6299H181.84V86.9999H205.21V63.6299Z" fill="#A6FF47"/>
<path d="M231.01 63.6299H207.63V86.9999H231.01V63.6299Z" fill="#A6FF47"/>
<path d="M179.019 90.7197H155.649V114.09H179.019V90.7197Z" fill="#A6FF47"/>
<path d="M205.21 90.7197H181.84V114.09H205.21V90.7197Z" fill="#A6FF47"/>
<path d="M231.01 90.7197H207.63V114.09H231.01V90.7197Z" fill="#A6FF47"/>
<path d="M179.019 117.81H155.649V141.19H179.019V117.81Z" fill="#A6FF47"/>
<path d="M205.21 117.81H181.84V141.19H205.21V117.81Z" fill="#A6FF47"/>
<path d="M231.01 117.81H207.63V141.19H231.01V117.81Z" fill="#A6FF47"/>
<path d="M179.019 144.91H155.649V168.28H179.019V144.91Z" fill="#A6FF47"/>
<path d="M205.21 144.91H181.84V168.28H205.21V144.91Z" fill="#A6FF47"/>
<path d="M231.01 144.91H207.63V168.28H231.01V144.91Z" fill="#A6FF47"/>
<path d="M179.019 172.01H155.649V195.38H179.019V172.01Z" fill="#A6FF47"/>
<path d="M205.21 172.01H181.84V195.38H205.21V172.01Z" fill="#A6FF47"/>
<path d="M231.01 172.01H207.63V195.38H231.01V172.01Z" fill="#A6FF47"/>
<path d="M179.019 199.1H155.649V222.47H179.019V199.1Z" fill="#A6FF47"/>
<path d="M205.21 199.1H181.84V222.47H205.21V199.1Z" fill="#A6FF47"/>
<path d="M231.01 199.1H207.63V222.47H231.01V199.1Z" fill="#A6FF47"/>
<path d="M231.009 25.8701H155.649V31.1401H231.009V25.8701Z" fill="#FEC000"/>
<path d="M162.459 42.6303C162.459 42.0303 162.409 41.3003 162.409 40.5803C162.259 41.2103 162.049 41.9303 161.859 42.5103L161.249 44.4503H160.369L159.839 42.5203C159.669 41.9403 159.499 41.2303 159.379 40.5803C159.379 41.2503 159.379 42.0203 159.299 42.6403L159.199 44.5303H158.199L158.519 39.5303H159.999L160.489 41.1903C160.639 41.7703 160.789 42.3903 160.909 42.9803C161.049 42.4003 161.219 41.7403 161.379 41.1903L161.909 39.5303H163.389L163.659 44.5303H162.559L162.459 42.6303Z" fill="white"/>
<path d="M169.049 42C169.085 42.3376 169.048 42.6789 168.941 43.001C168.834 43.323 168.658 43.6182 168.427 43.8667C168.196 44.1151 167.914 44.3109 167.6 44.4409C167.286 44.5709 166.949 44.6319 166.609 44.62C166.284 44.6257 165.961 44.5626 165.662 44.4349C165.363 44.3072 165.094 44.1177 164.873 43.8789C164.652 43.64 164.484 43.3572 164.38 43.0489C164.276 42.7406 164.238 42.4139 164.269 42.09C164.242 41.7563 164.284 41.4204 164.393 41.1038C164.502 40.7873 164.676 40.4969 164.904 40.2513C165.131 40.0058 165.408 39.8104 165.715 39.6775C166.023 39.5447 166.354 39.4775 166.689 39.48C167.015 39.4732 167.338 39.535 167.638 39.6614C167.939 39.7878 168.209 39.9759 168.431 40.2136C168.654 40.4513 168.824 40.7333 168.931 41.041C169.037 41.3488 169.077 41.6756 169.049 42ZM165.459 42.07C165.459 43.07 165.909 43.73 166.669 43.73C167.429 43.73 167.859 43.01 167.859 42.04C167.859 41.07 167.439 40.37 166.669 40.37C165.899 40.37 165.459 41.09 165.459 42.06V42.07Z" fill="white"/>
<path d="M185.189 40.4097H183.859V39.4697H187.679V40.4097H186.329V44.4097H185.189V40.4097Z" fill="white"/>
<path d="M189.409 39.4697V42.3297C189.409 43.1897 189.739 43.6297 190.309 43.6297C190.879 43.6297 191.229 43.2097 191.229 42.3297V39.4697H192.359V42.2597C192.359 43.7997 191.579 44.5297 190.279 44.5297C188.979 44.5297 188.279 43.8297 188.279 42.2497V39.4697H189.409Z" fill="white"/>
<path d="M210.36 44.5303L209.18 39.5303H210.39L210.76 41.5803C210.87 42.1803 210.97 42.8203 211.06 43.3203C211.14 42.7803 211.26 42.1803 211.39 41.5703L211.8 39.5703H213L213.4 41.6703C213.51 42.2503 213.58 42.7803 213.67 43.3403C213.75 42.7803 213.86 42.2003 213.97 41.6103L214.37 39.6103H215.52L214.23 44.6103H213L212.59 42.4703C212.49 41.9703 212.41 41.4703 212.35 40.9303C212.26 41.4903 212.17 41.9303 212.05 42.4703L211.58 44.6103L210.36 44.5303Z" fill="white"/>
<path d="M219.08 42.4203H217.26V43.6103H219.26V44.5303H216.09V39.5303H219.17V40.4603H217.23V41.4603H219.05L219.08 42.4203Z" fill="white"/>
<path d="M158.629 67.2098H157.289V66.2598H161.119V67.2098H159.759V71.2098H158.629V67.2098Z" fill="white"/>
<path d="M162.84 66.26V68.18H164.71V66.26H165.83V71.26H164.71V69.16H162.84V71.25H161.72V66.25L162.84 66.26Z" fill="white"/>
<path d="M183.859 66.2402H186.859V67.1702H184.999V68.3002H186.789V69.2202H184.999V71.2202H183.879L183.859 66.2402Z" fill="white"/>
<path d="M187.75 66.3102C188.246 66.2349 188.748 66.1981 189.25 66.2002C189.815 66.1512 190.38 66.2881 190.86 66.5902C191.007 66.7117 191.124 66.8646 191.204 67.0377C191.284 67.2109 191.323 67.3997 191.32 67.5902C191.316 67.8593 191.23 68.1208 191.073 68.3391C190.915 68.5574 190.694 68.7218 190.44 68.8102C190.617 68.9012 190.77 69.0329 190.887 69.1946C191.003 69.3562 191.08 69.5432 191.11 69.7402C191.213 70.2181 191.347 70.6891 191.51 71.1502H190.36C190.215 70.7693 190.098 70.3782 190.01 69.9802C189.89 69.3602 189.67 69.1902 189.21 69.1802H188.87V71.1802H187.75V66.3102ZM188.87 68.4502H189.31C189.88 68.4502 190.21 68.1702 190.21 67.7402C190.21 67.3102 189.9 67.0502 189.38 67.0402C189.211 67.0208 189.039 67.0208 188.87 67.0402V68.4502Z" fill="white"/>
<path d="M210.359 70.1504C210.749 70.343 211.175 70.4487 211.609 70.4604C212.129 70.4604 212.409 70.2404 212.409 69.9204C212.409 69.6004 212.169 69.4304 211.569 69.2204C210.739 68.9304 210.199 68.4704 210.199 67.7504C210.199 67.0304 210.909 66.2404 212.089 66.2404C212.526 66.2365 212.959 66.3252 213.359 66.5004L213.099 67.4004C212.786 67.2531 212.445 67.1747 212.099 67.1704C211.609 67.1704 211.389 67.3904 211.389 67.6504C211.389 67.9104 211.659 68.1104 212.309 68.3504C213.189 68.6804 213.599 69.1304 213.599 69.8404C213.599 70.5504 212.959 71.3804 211.599 71.3804C211.113 71.3845 210.632 71.2821 210.189 71.0804L210.359 70.1504Z" fill="white"/>
<path d="M215.48 70.0003L215.13 71.2803H214L215.52 66.2803H217L218.54 71.2803H217.33L216.91 70.0003H215.48ZM216.74 69.1603L216.43 68.1003L216.18 67.1003C216.1 67.4003 216.03 67.7703 215.94 68.1003L215.65 69.1603H216.74Z" fill="white"/>
<path d="M158.599 205.68C158.992 205.874 159.422 205.98 159.859 205.99C160.379 205.99 160.649 205.78 160.649 205.45C160.649 205.12 160.399 204.97 159.809 204.75C158.979 204.46 158.439 204 158.439 203.28C158.439 202.56 159.149 201.78 160.319 201.78C160.756 201.77 161.189 201.855 161.589 202.03L161.349 202.94C161.037 202.791 160.696 202.712 160.349 202.71C159.869 202.71 159.629 202.93 159.629 203.18C159.629 203.43 159.909 203.64 160.549 203.89C161.429 204.21 161.859 204.67 161.859 205.37C161.859 206.07 161.199 206.91 159.859 206.91C159.373 206.917 158.891 206.814 158.449 206.61L158.599 205.68Z" fill="white"/>
<path d="M163.68 201.86V204.72C163.68 205.58 164.01 206.02 164.58 206.02C165.15 206.02 165.5 205.61 165.5 204.72V201.86H166.62V204.65C166.62 206.19 165.84 206.92 164.55 206.92C163.26 206.92 162.55 206.23 162.55 204.64V201.86H163.68Z" fill="white"/>
<path d="M219.319 73.54L221.179 77.29L225.319 77.9L222.319 80.82L223.029 84.95L219.319 83L215.619 84.95L216.329 80.82L213.329 77.9L217.469 77.29L219.319 73.54Z" fill="#FFB31A"/>
<path d="M189.42 204.26C189.42 203.66 189.42 202.94 189.42 202.26C189.27 202.9 189.06 203.61 188.86 204.19L188.25 206.19H187.38L186.84 204.26C186.69 203.67 186.51 202.96 186.39 202.31C186.39 202.99 186.39 203.75 186.3 204.37L186.21 206.27H185.21L185.54 201.27H187.02L187.52 202.93C187.67 203.5 187.83 204.13 187.94 204.71C188.08 204.13 188.25 203.48 188.41 202.92L188.95 201.27H190.41L190.69 206.27H189.59L189.42 204.26Z" fill="white"/>
<path d="M196 203.62C196.036 203.959 195.999 204.302 195.891 204.625C195.783 204.948 195.607 205.244 195.375 205.494C195.142 205.743 194.859 205.94 194.544 206.07C194.229 206.201 193.89 206.262 193.55 206.25C193.225 206.254 192.903 206.19 192.604 206.062C192.306 205.934 192.038 205.744 191.817 205.506C191.596 205.267 191.428 204.985 191.324 204.677C191.219 204.37 191.18 204.044 191.21 203.72C191.18 203.386 191.221 203.049 191.33 202.731C191.439 202.413 191.612 202.121 191.84 201.875C192.068 201.628 192.345 201.432 192.653 201.298C192.961 201.165 193.294 201.097 193.63 201.1C193.956 201.093 194.279 201.155 194.58 201.282C194.881 201.408 195.151 201.596 195.375 201.833C195.598 202.071 195.769 202.353 195.877 202.66C195.985 202.968 196.026 203.295 196 203.62ZM192.4 203.69C192.4 204.69 192.86 205.36 193.61 205.36C194.36 205.36 194.81 204.63 194.81 203.66C194.81 202.69 194.37 202 193.6 202C192.83 202 192.43 202.72 192.43 203.69H192.4Z" fill="white"/>
<path d="M212.169 202H210.829V201.06H214.649V202H213.299V206H212.169V202Z" fill="white"/>
<path d="M216.379 201.1V204C216.379 204.85 216.699 205.29 217.279 205.29C217.859 205.29 218.189 204.87 218.189 204V201.1H219.319V203.89C219.319 205.43 218.549 206.16 217.239 206.16C215.929 206.16 215.239 205.47 215.239 203.88V201.1H216.379Z" fill="white"/>
<path d="M188.93 212.51L193.35 218.47L198.33 209.93L193.17 215.12L188.93 212.51Z" fill="#483CC2"/>
<path d="M59.3291 186.82L72.3291 203.81L69.5691 184.06L59.3291 186.82Z" fill="#FFE100"/>
<path d="M12.9995 188H68.6795C71.286 188.003 73.8046 187.058 75.7659 185.342C77.7272 183.625 78.9973 181.254 79.3395 178.67L81.6295 161.51C81.8254 159.997 81.697 158.46 81.2528 157C80.8086 155.54 80.0588 154.192 79.0533 153.045C78.0478 151.897 76.8096 150.977 75.421 150.345C74.0324 149.713 72.5252 149.384 70.9995 149.38H10.7495C9.21788 149.379 7.70377 149.706 6.30881 150.338C4.91385 150.971 3.67031 151.894 2.66164 153.047C1.65298 154.2 0.902511 155.555 0.460611 157.021C0.0187106 158.488 -0.104402 160.032 0.099533 161.55L2.37953 178.71C2.73168 181.279 4.00047 183.634 5.95209 185.341C7.9037 187.048 10.4066 187.993 12.9995 188Z" fill="#FFE100"/>
<path d="M49.4698 168.71C49.4658 169.449 49.6815 170.173 50.0893 170.789C50.4972 171.405 51.079 171.886 51.7608 172.171C52.4426 172.456 53.1937 172.532 53.9188 172.39C54.644 172.248 55.3104 171.893 55.8337 171.371C56.3569 170.849 56.7134 170.184 56.8578 169.459C57.0022 168.734 56.9281 167.983 56.6449 167.3C56.3616 166.618 55.882 166.035 55.2668 165.625C54.6517 165.216 53.9288 164.998 53.1898 165C52.2049 165 51.2602 165.391 50.5629 166.086C49.8655 166.782 49.4724 167.725 49.4698 168.71Z" fill="#F0F8FF"/>
<path d="M37.1397 168.71C37.1357 169.449 37.3514 170.173 37.7593 170.789C38.1672 171.405 38.7489 171.886 39.4307 172.171C40.1125 172.456 40.8636 172.532 41.5887 172.39C42.3139 172.248 42.9804 171.893 43.5036 171.371C44.0269 170.849 44.3833 170.184 44.5277 169.459C44.6721 168.734 44.598 167.983 44.3148 167.3C44.0315 166.618 43.5519 166.035 42.9368 165.625C42.3216 165.216 41.5987 164.998 40.8597 165C39.8748 165 38.9301 165.391 38.2328 166.086C37.5354 166.782 37.1423 167.725 37.1397 168.71Z" fill="#F0F8FF"/>
<path d="M24.8096 168.71C24.8057 169.449 25.0213 170.173 25.4292 170.789C25.8371 171.405 26.4188 171.886 27.1006 172.171C27.7824 172.456 28.5335 172.532 29.2587 172.39C29.9838 172.248 30.6503 171.893 31.1735 171.371C31.6968 170.849 32.0532 170.184 32.1976 169.459C32.3421 168.734 32.268 167.983 31.9847 167.3C31.7014 166.618 31.2218 166.035 30.6067 165.625C29.9915 165.216 29.2686 164.998 28.5296 165C27.5456 165.003 26.6024 165.394 25.9056 166.089C25.2088 166.784 24.8149 167.726 24.8096 168.71Z" fill="#F0F8FF"/>
<path d="M340.58 64.4703L329.46 79.0103L331.82 62.1104L340.58 64.4703Z" fill="#FFE100"/>
<path d="M380.19 65.5197H332.58C330.349 65.5191 328.195 64.707 326.519 63.2351C324.842 61.7631 323.759 59.7317 323.47 57.5197L321.47 42.8397C321.296 41.5404 321.402 40.219 321.781 38.9641C322.16 37.7092 322.802 36.5498 323.666 35.5638C324.53 34.5778 325.595 33.788 326.789 33.2475C327.983 32.7069 329.279 32.4281 330.59 32.4297H382.11C383.42 32.4295 384.715 32.7094 385.908 33.2506C387.101 33.7918 388.164 34.5817 389.027 35.5676C389.89 36.5534 390.532 37.7123 390.91 38.9665C391.288 40.2207 391.394 41.5413 391.22 42.8397L389.27 57.5197C388.978 59.7249 387.897 61.7498 386.228 63.2203C384.559 64.6908 382.414 65.5076 380.19 65.5197Z" fill="#FFE100"/>
<path d="M348.999 48.9996C348.999 49.6309 348.812 50.2481 348.461 50.7729C348.11 51.2977 347.611 51.7066 347.028 51.9477C346.444 52.1889 345.802 52.2514 345.183 52.1275C344.564 52.0036 343.996 51.6988 343.55 51.2517C343.104 50.8046 342.801 50.2352 342.679 49.6158C342.557 48.9963 342.622 48.3546 342.865 47.7719C343.108 47.1892 343.518 46.6916 344.044 46.3423C344.57 45.993 345.188 45.8076 345.819 45.8096C346.238 45.8096 346.652 45.8922 347.038 46.0526C347.425 46.213 347.776 46.4482 348.071 46.7445C348.367 47.0409 348.601 47.3926 348.76 47.7796C348.919 48.1666 349 48.5811 348.999 48.9996Z" fill="#F0F8FF"/>
<path d="M359.569 48.9996C359.569 49.6309 359.382 50.2481 359.031 50.7729C358.68 51.2977 358.181 51.7066 357.598 51.9477C357.014 52.1889 356.372 52.2514 355.753 52.1275C355.134 52.0036 354.566 51.6988 354.12 51.2517C353.675 50.8046 353.371 50.2352 353.25 49.6158C353.128 48.9963 353.192 48.3546 353.435 47.7719C353.678 47.1892 354.089 46.6916 354.614 46.3423C355.14 45.993 355.758 45.8076 356.389 45.8096C356.808 45.8096 357.222 45.8922 357.609 46.0526C357.995 46.213 358.346 46.4482 358.642 46.7445C358.937 47.0409 359.171 47.3926 359.33 47.7796C359.489 48.1666 359.571 48.5811 359.569 48.9996Z" fill="#F0F8FF"/>
<path d="M370.119 48.9996C370.119 49.6305 369.932 50.2473 369.582 50.7719C369.231 51.2964 368.733 51.7053 368.15 51.9468C367.567 52.1882 366.926 52.2514 366.307 52.1283C365.688 52.0052 365.12 51.7014 364.674 51.2553C364.227 50.8091 363.924 50.2407 363.801 49.6219C363.677 49.0031 363.741 48.3617 363.982 47.7788C364.224 47.1959 364.632 46.6977 365.157 46.3472C365.682 45.9967 366.298 45.8096 366.929 45.8096C367.349 45.8083 367.764 45.8899 368.152 46.0497C368.539 46.2096 368.891 46.4445 369.188 46.741C369.484 47.0375 369.719 47.3896 369.879 47.7773C370.039 48.1649 370.121 48.5803 370.119 48.9996Z" fill="#F0F8FF"/>
<path d="M277.64 169.26L254.76 191.4H173.63V87.0303H277.64V170.19V169.26Z" fill="#FFE100"/>
<path d="M277.64 87.0303H173.63V98.6803H277.64V87.0303Z" fill="#FFB31A"/>
<path d="M254.76 191.4L277.64 169.26H254.76V191.4Z" fill="#FFB31A"/>
<path d="M265 109.93C265.013 110.313 264.874 110.685 264.614 110.966C264.354 111.248 263.992 111.414 263.609 111.43H187.449C187.067 111.414 186.706 111.248 186.445 110.966C186.185 110.685 186.046 110.313 186.059 109.93C186.046 109.547 186.185 109.174 186.445 108.893C186.706 108.612 187.067 108.445 187.449 108.43H263.579C263.961 108.448 264.321 108.615 264.581 108.896C264.841 109.176 264.98 109.547 264.97 109.93H265Z" fill="#E6F0FF"/>
<path d="M265 119.94C265.013 120.323 264.874 120.696 264.614 120.977C264.354 121.258 263.992 121.425 263.609 121.44H187.449C187.067 121.425 186.706 121.258 186.445 120.977C186.185 120.696 186.046 120.323 186.059 119.94C186.046 119.557 186.185 119.185 186.445 118.904C186.706 118.623 187.067 118.456 187.449 118.44H263.579C263.961 118.459 264.321 118.626 264.581 118.906C264.841 119.187 264.98 119.558 264.97 119.94H265Z" fill="#E6F0FF"/>
<path d="M265 132.46C265.01 132.842 264.871 133.213 264.611 133.494C264.351 133.774 263.991 133.942 263.609 133.96H187.449C187.067 133.944 186.706 133.778 186.445 133.497C186.185 133.216 186.046 132.843 186.059 132.46C186.046 132.077 186.185 131.704 186.445 131.423C186.706 131.142 187.067 130.976 187.449 130.96H263.579C263.962 130.976 264.324 131.142 264.584 131.423C264.844 131.704 264.983 132.077 264.97 132.46H265Z" fill="#E6F0FF"/>
<path d="M265 142.47C265.006 142.659 264.976 142.847 264.909 143.025C264.843 143.202 264.742 143.364 264.613 143.503C264.484 143.641 264.329 143.753 264.157 143.831C263.985 143.91 263.799 143.953 263.609 143.96H187.449C187.26 143.953 187.074 143.91 186.902 143.831C186.73 143.753 186.575 143.641 186.446 143.503C186.317 143.364 186.216 143.202 186.15 143.025C186.083 142.847 186.053 142.659 186.059 142.47C186.046 142.087 186.185 141.714 186.445 141.433C186.706 141.152 187.067 140.985 187.449 140.97H263.579C263.962 140.985 264.324 141.152 264.584 141.433C264.844 141.714 264.983 142.087 264.97 142.47H265Z" fill="#E6F0FF"/>
<path d="M265 155C265.013 155.383 264.874 155.756 264.614 156.037C264.354 156.318 263.992 156.484 263.609 156.5H187.449C187.067 156.484 186.706 156.318 186.445 156.037C186.185 155.756 186.046 155.383 186.059 155C186.046 154.617 186.185 154.244 186.445 153.963C186.706 153.682 187.067 153.516 187.449 153.5H263.579C263.772 153.504 263.961 153.546 264.137 153.624C264.313 153.701 264.471 153.813 264.603 153.953C264.736 154.092 264.839 154.257 264.907 154.437C264.975 154.616 265.006 154.808 265 155Z" fill="#E6F0FF"/>
<path d="M265 165C265.013 165.383 264.874 165.756 264.614 166.037C264.354 166.318 263.992 166.484 263.609 166.5H187.449C187.067 166.484 186.706 166.318 186.445 166.037C186.185 165.756 186.046 165.383 186.059 165C186.046 164.617 186.185 164.244 186.445 163.963C186.706 163.682 187.067 163.516 187.449 163.5H263.579C263.772 163.504 263.961 163.546 264.137 163.624C264.313 163.701 264.471 163.813 264.603 163.953C264.736 164.092 264.839 164.257 264.907 164.437C264.975 164.616 265.006 164.808 265 165Z" fill="#E6F0FF"/>
<path d="M372.579 148.18C374.459 155.9 369.439 178.07 369.439 178.07L364.609 172.88L362.609 148.63C362.609 148.63 370.689 140.46 372.579 148.18Z" fill="#E9B79C"/>
<path d="M372.999 151.24C372.999 151.24 371.429 131.73 363.999 126C356.569 120.27 349.449 126.56 349.449 126.56C349.449 126.56 363.289 143.89 363.199 155C363.109 166.11 372.999 151.24 372.999 151.24Z" fill="#E9B79C"/>
<path d="M362.679 176.66C361.94 177.403 361.448 178.356 361.269 179.39C361.179 180.05 361.269 180.73 361.269 181.39C361.088 182.784 360.736 184.151 360.219 185.46C360.114 185.744 360.066 186.046 360.079 186.35C360.074 186.507 360.116 186.663 360.201 186.796C360.285 186.929 360.408 187.033 360.553 187.095C360.699 187.157 360.859 187.173 361.014 187.142C361.168 187.11 361.31 187.033 361.419 186.92C361.658 186.709 361.843 186.445 361.959 186.149C362.3 185.13 362.778 184.161 363.379 183.27C363.491 183.112 363.642 182.986 363.818 182.905C363.993 182.825 364.187 182.792 364.379 182.81C364.919 182.94 365.039 183.66 365.009 184.21C365.003 185.192 364.781 186.162 364.359 187.05C364.144 187.492 363.826 187.876 363.43 188.168C363.035 188.461 362.575 188.653 362.089 188.73C361.489 188.79 360.759 188.67 360.379 189.14C360.237 189.354 360.182 189.614 360.227 189.868C360.271 190.121 360.412 190.347 360.619 190.5C361.043 190.8 361.563 190.935 362.079 190.88C362.683 190.844 363.282 190.754 363.869 190.61C365.087 190.43 366.257 190.008 367.309 189.37C368.624 188.332 369.478 186.82 369.689 185.16C369.899 183.501 369.945 181.827 369.829 180.16C369.782 177.962 369.886 175.763 370.139 173.58C370.359 172.686 370.242 171.742 369.809 170.929C369.471 170.527 369.033 170.22 368.539 170.039C367.98 169.766 367.371 169.606 366.749 169.57C366.44 169.556 366.132 169.608 365.844 169.721C365.556 169.835 365.296 170.008 365.079 170.23C364.814 170.645 364.641 171.113 364.572 171.601C364.503 172.089 364.54 172.587 364.679 173.06C364.759 173.62 365.119 174.5 364.679 174.98C364.239 175.46 363.259 176 362.679 176.66Z" fill="#E9B79C"/>
<path d="M353.78 119.44C353.78 119.44 365.11 118.52 370.19 132.44C374.56 144.38 373.51 143.83 373.51 143.83L362.29 146.78C362.29 146.78 349.38 127.92 353.78 119.44Z" fill="#A6FF47"/>
<path d="M361.229 209.49L317.029 177.13L317.899 170.5L359.929 167.19L361.229 209.49Z" fill="#1D1D1D"/>
<path d="M318.31 285C318.31 285 316.62 287.06 314.62 289.84C312.62 292.62 311.13 295.53 313.93 296.84C316.73 298.15 320.11 294.91 321.2 292.97C322.29 291.03 323.54 291.24 325.05 289.97C326.56 288.7 325.77 283.91 325.77 283.91L318.31 285Z" fill="#163A54"/>
<path d="M343.939 193.53C339.859 198.89 326.279 285.16 326.279 285.16C322.209 288.71 316.089 285.16 316.089 285.16C311.669 241.16 317.139 175.83 317.139 175.83C317.139 175.83 348.019 198.89 343.939 193.53Z" fill="#1D1D1D"/>
<path d="M324.48 177.07C319.48 212.74 315.01 250.42 318.63 286.39C318.72 287.22 319.98 287.23 319.9 286.39C316.28 250.53 320.69 212.97 325.7 177.39C325.82 176.56 324.6 176.21 324.48 177.04V177.07Z" fill="#1D1D1D"/>
<path d="M359 286.41C359 286.41 360.7 288.47 362.69 291.25C364.68 294.03 366.18 296.94 363.39 298.25C360.6 299.56 357.21 296.31 356.11 294.38C355.01 292.45 353.77 292.65 352.26 291.38C350.75 290.11 351.55 285.32 351.55 285.32L359 286.41Z" fill="#163A54"/>
<path d="M333.35 195C337.42 200.35 351 286.62 351 286.62C355.08 290.18 361.2 286.62 361.2 286.62C365.62 242.62 360.82 173.3 360.82 173.3C360.82 173.3 329.27 200.3 333.35 195Z" fill="#1D1D1D"/>
<path d="M351.579 178.84C356.579 214.39 360.999 251.95 357.389 287.84C357.299 288.68 358.569 288.67 358.649 287.84C362.279 251.84 357.829 214.18 352.799 178.52C352.689 177.68 351.469 178.04 351.579 178.87V178.84Z" fill="#1D1D1D"/>
<path d="M299.81 147.38C299.81 147.38 318 143.55 323 135.73C328 127.91 322.29 122.33 322.29 122.33C322.29 122.33 306.23 137.2 295.8 138.46C285.37 139.72 299.81 147.38 299.81 147.38Z" fill="#E9B79C"/>
<path d="M333.299 118.52C333.299 118.52 335.069 118.4 333.769 127.17C332.159 138 313.999 144.37 313.999 144.37L304.529 134C304.529 134 321.999 118.52 333.299 118.52Z" fill="#A6FF47"/>
<path d="M322.94 126.38C325.83 116.76 339.77 116.27 351.11 118.05C358.75 119.25 363.05 124.47 363.11 133.88C363.11 140.05 363.61 166.02 359.88 173.34C359.88 173.34 347.12 183.13 317.67 171.34C317.63 171.32 316.76 146.94 322.94 126.38Z" fill="#A6FF47"/>
<path d="M302.659 146.64C295.509 149.38 279.659 147.38 279.659 147.38L280.879 141.83L301.789 137.16C301.789 137.16 309.799 143.89 302.659 146.64Z" fill="#E9B79C"/>
<path d="M274.999 140.35C272.499 139.65 270.089 138.68 267.569 138.03C266.87 137.828 266.147 137.721 265.419 137.71C265.142 137.7 264.868 137.77 264.629 137.91C264.514 137.983 264.426 138.092 264.379 138.221C264.332 138.349 264.328 138.489 264.369 138.62C264.469 138.87 264.779 139.04 264.749 139.3C264.719 139.56 264.159 139.64 263.899 139.89C263.808 140.005 263.758 140.148 263.758 140.295C263.758 140.442 263.808 140.585 263.899 140.7C264.089 140.928 264.329 141.109 264.599 141.23L266.599 142.3C266.292 142.609 265.884 142.797 265.449 142.83C265.268 142.825 265.086 142.845 264.909 142.89C264.819 142.911 264.74 142.965 264.687 143.04C264.634 143.116 264.61 143.208 264.619 143.3C264.655 143.401 264.721 143.489 264.809 143.55C265.858 144.375 267.108 144.906 268.429 145.09C269.742 145.265 271.044 145.512 272.329 145.83C272.631 145.886 272.919 146.004 273.173 146.176C273.428 146.348 273.645 146.571 273.809 146.83C273.898 147.202 273.899 147.589 273.814 147.962C273.729 148.335 273.56 148.683 273.319 148.98C273.009 149.51 272.699 150.04 272.379 150.57C272.059 151.1 271.939 151.57 272.309 151.85C272.435 151.915 272.573 151.949 272.714 151.949C272.855 151.949 272.994 151.915 273.119 151.85C274.377 151.259 275.516 150.442 276.479 149.44C278.459 147.805 280.862 146.765 283.409 146.44C283.62 146.434 283.827 146.386 284.019 146.3C284.281 146.156 284.494 145.936 284.629 145.67C285.242 144.656 285.498 143.466 285.359 142.29C285.346 142.107 285.292 141.929 285.199 141.77C285.063 141.606 284.888 141.478 284.689 141.4C283.149 140.68 281.949 141.04 280.349 141.06C278.542 141.071 276.742 140.832 274.999 140.35Z" fill="#E9B79C"/>
<path d="M344.63 121.83C344.63 121.83 344.37 153.9 341.01 173.83L337.39 174.06C340.653 156.841 342.035 139.318 341.51 121.8L344.63 121.83Z" fill="#FCFDFC"/>
<path d="M361.389 175.53C361.389 175.53 333.789 181.08 316.529 172.53L317.709 167.96C331.685 172.522 346.616 173.322 360.999 170.28L361.389 175.53Z" fill="#1D1D1D"/>
<path d="M347.649 170.89H345.189L344.619 178.53H348.659L347.649 170.89Z" fill="#1D1D1D"/>
<path d="M330.509 170.01L328.739 169.43L325.689 176.44L329.339 177.63L330.509 170.01Z" fill="#1D1D1D"/>
<path d="M343.73 127.65C343.811 127.58 343.876 127.494 343.924 127.398C343.971 127.301 343.999 127.197 344.005 127.09C344.012 126.983 343.997 126.876 343.962 126.775C343.926 126.673 343.871 126.58 343.8 126.5C343.653 126.341 343.449 126.245 343.232 126.234C343.015 126.222 342.803 126.297 342.64 126.44C342.559 126.511 342.493 126.597 342.446 126.693C342.399 126.789 342.371 126.894 342.365 127.001C342.358 127.108 342.373 127.215 342.408 127.316C342.443 127.417 342.498 127.51 342.57 127.59C342.717 127.75 342.921 127.846 343.138 127.857C343.355 127.868 343.567 127.794 343.73 127.65Z" fill="#A6FF47"/>
<path d="M343.73 135.3C343.811 135.23 343.876 135.144 343.924 135.048C343.971 134.952 343.999 134.847 344.005 134.74C344.012 134.633 343.997 134.526 343.962 134.425C343.926 134.323 343.871 134.23 343.8 134.15C343.654 133.989 343.451 133.892 343.234 133.878C343.017 133.865 342.804 133.938 342.64 134.08C342.559 134.151 342.493 134.237 342.446 134.333C342.399 134.429 342.371 134.534 342.365 134.641C342.358 134.748 342.373 134.855 342.408 134.956C342.443 135.057 342.498 135.151 342.57 135.23C342.641 135.311 342.728 135.377 342.825 135.425C342.922 135.472 343.028 135.5 343.135 135.506C343.243 135.513 343.351 135.498 343.453 135.463C343.555 135.427 343.649 135.372 343.73 135.3Z" fill="#A6FF47"/>
<path d="M343.389 142.05C343.242 141.89 343.039 141.795 342.822 141.783C342.605 141.772 342.392 141.846 342.229 141.99C342.148 142.061 342.082 142.147 342.035 142.243C341.988 142.34 341.961 142.445 341.955 142.552C341.95 142.66 341.966 142.767 342.002 142.868C342.039 142.969 342.096 143.062 342.169 143.14C342.315 143.299 342.517 143.395 342.732 143.406C342.947 143.417 343.158 143.343 343.319 143.2C343.4 143.129 343.466 143.044 343.513 142.947C343.56 142.851 343.588 142.747 343.595 142.64C343.601 142.533 343.586 142.426 343.551 142.324C343.516 142.223 343.461 142.13 343.389 142.05Z" fill="#A6FF47"/>
<path d="M341.409 151.26C341.328 151.331 341.262 151.417 341.215 151.513C341.168 151.61 341.14 151.715 341.135 151.822C341.129 151.93 341.145 152.037 341.182 152.138C341.219 152.239 341.276 152.331 341.349 152.41C341.42 152.49 341.506 152.555 341.602 152.602C341.698 152.649 341.803 152.677 341.91 152.683C342.016 152.69 342.123 152.675 342.225 152.64C342.326 152.605 342.419 152.551 342.499 152.48C342.579 152.409 342.645 152.323 342.691 152.227C342.738 152.131 342.766 152.026 342.772 151.92C342.779 151.813 342.764 151.706 342.729 151.605C342.694 151.503 342.64 151.41 342.569 151.33C342.423 151.169 342.22 151.071 342.003 151.058C341.787 151.045 341.573 151.118 341.409 151.26Z" fill="#A6FF47"/>
<path d="M340.69 161.849C340.535 161.997 340.443 162.199 340.432 162.413C340.421 162.626 340.492 162.836 340.63 162.999C340.698 163.078 340.781 163.142 340.874 163.188C340.967 163.234 341.068 163.261 341.172 163.266C341.276 163.272 341.38 163.256 341.477 163.221C341.575 163.185 341.664 163.13 341.74 163.059C341.894 162.912 341.987 162.71 341.998 162.496C342.009 162.283 341.938 162.073 341.8 161.909C341.732 161.831 341.649 161.767 341.556 161.721C341.463 161.675 341.361 161.648 341.258 161.643C341.154 161.637 341.05 161.653 340.953 161.688C340.855 161.724 340.766 161.779 340.69 161.849Z" fill="#A6FF47"/>
<path d="M357.759 138.21H349.359L349.759 137.8C349.569 140.51 349.639 146 352.809 146.88C355.809 147.71 357.749 144.88 357.889 142.12C357.961 140.698 357.788 139.274 357.379 137.91C357.35 137.808 357.363 137.698 357.414 137.605C357.466 137.513 357.552 137.444 357.654 137.415C357.756 137.386 357.866 137.398 357.959 137.45C358.051 137.501 358.12 137.588 358.149 137.69C359.319 141.69 358.699 148.23 353.279 147.79C349.089 147.45 348.739 141.07 348.959 137.79C348.962 137.684 349.004 137.582 349.078 137.506C349.153 137.43 349.253 137.385 349.359 137.38H357.759C357.869 137.38 357.975 137.424 358.053 137.501C358.13 137.579 358.174 137.685 358.174 137.795C358.174 137.905 358.13 138.011 358.053 138.088C357.975 138.166 357.869 138.21 357.759 138.21Z" fill="#FFB31A"/>
<path d="M326.999 135.76L335.719 136.76C335.824 136.767 335.921 136.814 335.994 136.889C336.066 136.965 336.107 137.065 336.109 137.17C336.159 141.05 334.929 147.62 329.969 147.02C325.009 146.42 325.519 139.74 326.619 136.08C326.633 136.03 326.656 135.983 326.688 135.943C326.72 135.902 326.76 135.868 326.805 135.842C326.85 135.817 326.899 135.8 326.951 135.794C327.002 135.787 327.054 135.791 327.104 135.805C327.154 135.819 327.201 135.842 327.242 135.874C327.282 135.906 327.317 135.946 327.342 135.991C327.368 136.036 327.384 136.085 327.39 136.137C327.397 136.188 327.393 136.24 327.379 136.29C326.588 138.59 326.443 141.063 326.959 143.44C327.083 143.932 327.306 144.394 327.615 144.796C327.923 145.199 328.311 145.534 328.754 145.782C329.197 146.029 329.686 146.183 330.191 146.234C330.696 146.286 331.205 146.233 331.689 146.08C333.419 145.5 334.259 143.59 334.689 141.91C335.059 140.58 335.009 139.22 335.279 137.91C335.279 137.68 335.279 137.43 335.279 137.2C335.139 138.32 335.969 137.33 335.399 137.56C335.249 137.63 334.829 137.5 334.669 137.48L326.959 136.61C326.449 136.53 326.439 135.71 326.999 135.76Z" fill="#FFB31A"/>
<path d="M350.359 106.64C350.359 106.64 338.689 109.25 339.359 110.24C340.029 111.23 338.869 113.24 338.839 115.15C338.839 117.25 337.46 119.47 335.67 121.59C334.41 123.07 336.67 124.84 338.67 125.23C347.24 126.9 352.669 123.57 350.839 120.69C346.709 114.22 350.359 106.64 350.359 106.64Z" fill="#E9B79C"/>
<path d="M338.819 115.15C338.819 113.22 339.989 111.23 339.339 110.24C338.689 109.25 351.279 106.44 351.279 106.44C350.047 107.876 349.268 109.643 349.039 111.52C345.819 114.293 342.118 116.452 338.119 117.89C338.519 117.028 338.756 116.099 338.819 115.15Z" fill="#C58063"/>
<path d="M338.239 90.6899C333.339 94.5299 329.149 107.82 334.289 114.16C337.099 117.63 347.359 113.94 352.169 106.37C352.789 105.37 354.329 99.7599 351.769 93.6199C350.619 90.8399 343.339 86.6899 338.239 90.6899Z" fill="#E9B79C"/>
<path d="M332.579 101.149C332.579 101.969 333.679 93.1495 338.469 92.5095C340.419 92.2695 339.979 94.3995 342.249 94.5695C344.179 94.7195 349.969 90.6895 347.739 102.639C347.629 103.209 348.159 103.889 348.409 104.399C348.659 104.909 347.749 106.489 347.759 107.209C347.769 107.929 349.759 105.779 349.759 106.469C349.689 107.569 348.939 108.539 348.849 109.649C348.689 111.649 350.369 110.539 351.049 109.579L353.829 105.649C354.329 105.031 354.702 104.321 354.929 103.559C355.009 103.229 355.259 101.559 355.539 101.479C356.112 101.259 356.729 101.18 357.339 101.249C357.384 99.4905 357.106 97.7383 356.519 96.0795C355.907 94.4204 354.791 92.9941 353.329 91.9995C353.995 92.0561 354.664 92.0561 355.329 91.9995C355.441 92.0033 355.551 91.9679 355.639 91.8995C355.789 91.7395 355.639 91.4895 355.529 91.3095C354.57 90.0366 353.42 88.92 352.119 87.9995C351.339 87.4495 349.119 85.8295 348.119 86.2495C348.514 86.0878 348.847 85.8039 349.069 85.4395C346.355 85.2674 343.63 85.4117 340.949 85.8695C341.467 85.203 341.915 84.486 342.289 83.7295C339.957 84.2192 337.831 85.413 336.199 87.1495C335.383 88.1025 334.787 89.2243 334.455 90.4345C334.123 91.6447 334.063 92.9133 334.279 94.1495C334.349 94.7095 334.139 94.7895 333.909 95.1495C333.625 95.7277 333.404 96.3344 333.249 96.9595C332.818 98.315 332.593 99.7273 332.579 101.149Z" fill="#53424D"/>
<path d="M346.54 105.6C346.54 105.6 350.08 102.37 352.04 103.3C354 104.23 351.25 109.76 347.22 108.99C343.19 108.22 345.46 106.48 346.54 105.6Z" fill="#E9B79C"/>
<path d="M344.5 103.7C344.61 103.64 344.38 103.7 344.34 103.76C344.159 103.825 343.971 103.865 343.78 103.88C343.05 103.94 342.72 103.45 342.56 102.82C342.46 102.43 341.84 102.63 341.94 103.02C342.007 103.324 342.148 103.606 342.348 103.844C342.549 104.081 342.804 104.267 343.092 104.385C343.379 104.503 343.691 104.549 344.001 104.521C344.31 104.492 344.608 104.389 344.87 104.22C345.24 104.04 344.87 103.52 344.5 103.7Z" fill="#201714"/>
<path d="M337.74 101.13C337.556 101.293 337.346 101.424 337.12 101.52C336.39 101.82 336 101.36 335.75 100.72C335.6 100.34 334.98 100.54 335.13 100.92C335.42 101.68 335.96 102.37 336.89 102.23C337.395 102.138 337.862 101.898 338.23 101.54C338.54 101.27 338.04 100.85 337.74 101.13Z" fill="#201714"/>
<path d="M336.629 97.7798C337.114 97.6751 337.62 97.7597 338.044 98.0164C338.468 98.273 338.778 98.6821 338.909 99.1598C339.079 99.6298 339.799 99.3198 339.629 98.8398C339.434 98.1984 339.005 97.6536 338.427 97.313C337.85 96.9723 337.165 96.8606 336.509 96.9998C336.458 97.0077 336.409 97.0256 336.365 97.0525C336.32 97.0794 336.282 97.1147 336.251 97.1565C336.221 97.1983 336.198 97.2457 336.186 97.296C336.174 97.3463 336.172 97.3986 336.179 97.4498C336.187 97.501 336.205 97.5502 336.232 97.5945C336.259 97.6388 336.294 97.6774 336.336 97.708C336.378 97.7387 336.425 97.7608 336.476 97.7731C336.526 97.7854 336.578 97.7877 336.629 97.7798Z" fill="#4D2F20"/>
<path d="M342.87 100.55C343.307 100.321 343.815 100.266 344.291 100.398C344.766 100.53 345.174 100.838 345.43 101.26C345.73 101.68 346.33 101.18 346.04 100.76C345.677 100.197 345.116 99.7906 344.469 99.6203C343.821 99.45 343.133 99.5285 342.54 99.8402C342.446 99.884 342.373 99.9634 342.337 100.061C342.302 100.158 342.306 100.266 342.35 100.36C342.394 100.454 342.473 100.527 342.571 100.563C342.668 100.599 342.776 100.594 342.87 100.55Z" fill="#4D2F20"/>
<path d="M340.189 100.6C340.339 101.328 340.28 102.084 340.019 102.78C339.599 103.78 338.409 104.04 337.679 104.78C336.679 105.78 337.439 106.59 338.769 107.16C339.089 107.29 339.299 106.89 338.979 106.76C335.979 105.49 339.809 104.36 340.449 103.13C340.814 102.325 340.916 101.426 340.739 100.56C340.689 100.28 340.149 100.3 340.189 100.56V100.6Z" fill="#C58063"/>
<path d="M341.2 108.81C341.2 108.81 341.07 111.51 338.85 111.24C336.63 110.97 336.68 108.55 336.68 108.55L341.2 108.81Z" fill="#FAFFFF"/>
<path d="M345.589 108.49C345.462 108.764 345.256 108.994 344.997 109.151C344.738 109.307 344.438 109.383 344.136 109.368C343.834 109.353 343.543 109.249 343.301 109.068C343.058 108.887 342.876 108.638 342.776 108.352C342.676 108.067 342.663 107.758 342.74 107.465C342.816 107.173 342.979 106.91 343.206 106.71C343.432 106.51 343.714 106.382 344.014 106.343C344.314 106.304 344.619 106.355 344.889 106.49C345.241 106.669 345.511 106.976 345.641 107.349C345.772 107.722 345.753 108.131 345.589 108.49Z" fill="#DEA296"/>
<path d="M333.26 103.32C333.52 103.162 333.821 103.084 334.125 103.096C334.429 103.108 334.723 103.211 334.969 103.39C335.215 103.569 335.402 103.817 335.508 104.103C335.613 104.388 335.631 104.699 335.56 104.995C335.488 105.291 335.331 105.559 335.108 105.766C334.884 105.972 334.604 106.108 334.303 106.156C334.003 106.203 333.695 106.161 333.418 106.034C333.142 105.906 332.909 105.7 332.75 105.44C332.643 105.268 332.571 105.076 332.538 104.876C332.506 104.676 332.514 104.471 332.561 104.274C332.608 104.076 332.695 103.89 332.815 103.727C332.935 103.563 333.086 103.425 333.26 103.32Z" fill="#DEA296"/>
</g>
</g>
<defs>
<clipPath id="clip0_1061_511">
<rect width="423" height="299" fill="white"/>
</clipPath>
</defs>
</svg>
