<svg xmlns="http://www.w3.org/2000/svg" viewBox="0 0 744.9 142.47"><defs><style>.cls-1,.cls-3{fill:#00aa13;}.cls-2{font-size:133.9px;font-family:ClashDisplay-Semibold, Clash Display;font-weight:600;}.cls-3{letter-spacing:0em;}</style></defs><g id="Layer_2" data-name="Layer 2"><g id="Layer_1-2" data-name="Layer 1"><path class="cls-1" d="M8.71,27.41a3.49,3.49,0,0,0-5.54.82A26.25,26.25,0,0,0,.06,40.62l0,16.5a3.5,3.5,0,0,0,3.48,3.49h9.89a3.5,3.5,0,0,0,3.5-3.48l0-16.5a9.47,9.47,0,0,1,.29-2.33A3.48,3.48,0,0,0,16.31,35ZM16.86,88l0-16.5A3.49,3.49,0,0,0,13.4,68H3.51A3.48,3.48,0,0,0,0,71.47L0,88A26.24,26.24,0,0,0,2.49,99.2a3.48,3.48,0,0,0,5.62,1L16,92.33a3.47,3.47,0,0,0,1-3A10.4,10.4,0,0,1,16.86,88ZM26.55,14.2a26.41,26.41,0,0,0-11.44,2.59,3.49,3.49,0,0,0-1,5.61l7.79,7.82a3.5,3.5,0,0,0,3,1,9.34,9.34,0,0,1,1.6-.13l16.5,0a3.5,3.5,0,0,0,3.49-3.48v-9.9a3.5,3.5,0,0,0-3.48-3.49Zm43.86.06-13,0a3.48,3.48,0,0,0-3.49,3.48v9.9a3.48,3.48,0,0,0,3.48,3.49h13a13.09,13.09,0,0,1,13.06,13.1l-.06,40.37A13.08,13.08,0,0,1,70.3,97.65l-43.86-.06a9.45,9.45,0,0,1-2.51-.34,3.45,3.45,0,0,0-3.33.91L13,105.71a3.49,3.49,0,0,0,.8,5.53,26.22,26.22,0,0,0,12.59,3.21l43.86.06a30,30,0,0,0,30-29.9l0-40.37A29.93,29.93,0,0,0,70.41,14.26Z"/><text class="cls-2" transform="translate(145.17 111.81)">Intern<tspan class="cls-3" x="405.18" y="0">val</tspan></text></g></g></svg>