<svg width="504" height="321" viewBox="0 0 504 321" fill="none" xmlns="http://www.w3.org/2000/svg">
<path d="M473.464 114.286C473.464 72.2069 439.353 38.0953 397.274 38.0953H107.655C65.5759 38.0953 31.4643 72.2069 31.4643 114.286V243.81C31.4643 285.888 65.5759 320 107.655 320H397.274C439.353 320 473.464 285.888 473.464 243.81V114.286Z" fill="url(#paint0_linear_1140_1346)"/>
<mask id="mask0_1140_1346" style="mask-type:alpha" maskUnits="userSpaceOnUse" x="31" y="0" width="443" height="320">
<path d="M473.464 4.86374e-05H31.4643V243.81C31.4643 285.888 65.5759 320 107.655 320H397.274C439.353 320 473.464 285.888 473.464 243.81V4.86374e-05Z" fill="#24F045"/>
</mask>
<g mask="url(#mask0_1140_1346)">
<path d="M139.812 407.92L218.754 379.588L364.208 341.167C366.233 340.632 367.413 338.527 366.813 336.521L267.28 3.56987C266.691 1.60127 264.614 0.486903 262.648 1.08546L38.7984 69.2526C36.8487 69.8463 35.744 71.9025 36.3253 73.8559L135.007 405.488C135.614 407.528 137.81 408.639 139.812 407.92Z" fill="#E39223"/>
<path d="M210.049 20.1564L96.3587 54.4554C94.4356 55.0356 93.3245 57.042 93.8532 58.9799L94.4544 61.1839C94.9993 63.1815 97.075 64.3454 99.0636 63.7685L213.108 30.6788C215.061 30.112 216.193 28.0774 215.645 26.119L214.689 22.7057C214.129 20.7064 212.036 19.5568 210.049 20.1564Z" fill="#232323"/>
<path d="M47.1947 94.3649L72.1402 172.001L137.497 400.076C138.143 402.329 140.496 403.63 142.748 402.978L358.31 340.527C360.566 339.874 361.859 337.509 361.193 335.257L270.381 28.2112C269.717 25.9673 267.36 24.6864 265.116 25.3505L50.0259 89.0066C47.7455 89.6815 46.4673 92.1008 47.1947 94.3649Z" fill="#FFE100"/>
<path d="M57.0055 170.662L165.277 426.339C166.731 429.772 170.685 431.387 174.127 429.954L346.701 358.096C350.204 356.638 351.828 352.589 350.303 349.115L238.797 95.0491C237.314 91.6699 233.399 90.0976 229.99 91.5119L60.6505 161.759C57.1744 163.201 55.5382 167.198 57.0055 170.662Z" fill="#FBF3E7"/>
<path fill-rule="evenodd" clip-rule="evenodd" d="M171.892 415.879C172.686 417.756 174.848 418.639 176.73 417.856L336.114 351.49C338.03 350.693 338.918 348.478 338.084 346.578L232.279 105.502C231.468 103.654 229.328 102.795 227.464 103.568L71.1509 168.411C69.2501 169.2 68.3553 171.386 69.1578 173.281L171.892 415.879ZM229.484 99.1345L229.488 99.1422C229.486 99.1396 229.485 99.1371 229.484 99.1345ZM165.277 426.339L57.0055 170.662C55.5382 167.198 57.1744 163.201 60.6505 161.759L229.99 91.5119C233.399 90.0976 237.314 91.6699 238.797 95.0491L350.303 349.115C351.828 352.589 350.204 356.638 346.701 358.096L174.127 429.954C170.685 431.387 166.731 429.772 165.277 426.339Z" fill="#01AAD5"/>
<rect width="4.81181" height="9.8769" rx="1.05912" transform="matrix(0.925324 -0.379178 0.379476 0.925202 59.8518 156.305)" fill="#232323"/>
<rect width="4.81181" height="9.8769" rx="1.05912" transform="matrix(0.925324 -0.379178 0.379476 0.925202 72.1469 151.265)" fill="#232323"/>
<rect width="4.81181" height="9.8769" rx="1.05912" transform="matrix(0.925324 -0.379178 0.379476 0.925202 84.442 146.225)" fill="#232323"/>
<rect width="4.81181" height="9.8769" rx="1.05912" transform="matrix(0.925324 -0.379178 0.379476 0.925202 96.7373 141.186)" fill="#232323"/>
<rect width="4.81181" height="9.8769" rx="1.05912" transform="matrix(0.925324 -0.379178 0.379476 0.925202 109.032 136.146)" fill="#232323"/>
<rect width="4.81181" height="9.8769" rx="1.05912" transform="matrix(0.925324 -0.379178 0.379476 0.925202 121.328 131.107)" fill="#232323"/>
<rect width="4.81181" height="9.8769" rx="1.05912" transform="matrix(0.925324 -0.379178 0.379476 0.925202 133.623 126.067)" fill="#232323"/>
<rect width="4.81181" height="9.8769" rx="1.05912" transform="matrix(0.925324 -0.379178 0.379476 0.925202 145.918 121.028)" fill="#232323"/>
<rect width="4.81181" height="9.8769" rx="1.05912" transform="matrix(0.925324 -0.379178 0.379476 0.925202 158.213 115.988)" fill="#232323"/>
<rect width="4.81181" height="9.8769" rx="1.05912" transform="matrix(0.925324 -0.379178 0.379476 0.925202 170.508 110.949)" fill="#232323"/>
<rect width="4.81181" height="9.8769" rx="1.05912" transform="matrix(0.925324 -0.379178 0.379476 0.925202 182.803 105.909)" fill="#232323"/>
<rect width="4.81181" height="9.8769" rx="1.05912" transform="matrix(0.925324 -0.379178 0.379476 0.925202 195.099 100.87)" fill="#232323"/>
<rect width="4.81181" height="9.8769" rx="1.05912" transform="matrix(0.925324 -0.379178 0.379476 0.925202 207.394 95.8301)" fill="#232323"/>
<rect width="4.81181" height="9.8769" rx="1.05912" transform="matrix(0.925324 -0.379178 0.379476 0.925202 219.689 90.7907)" fill="#232323"/>
<rect width="154.412" height="4.79609" rx="2.39804" transform="matrix(0.917509 -0.397715 0.39786 0.917446 84.4286 180.881)" fill="#D9D9D9"/>
<rect width="154.412" height="4.79609" rx="2.39804" transform="matrix(0.917509 -0.397715 0.39786 0.917446 88.666 188.506)" fill="#D9D9D9"/>
<rect width="154.412" height="4.79609" rx="2.39804" transform="matrix(0.917509 -0.397715 0.39786 0.917446 92.9033 196.132)" fill="#D9D9D9"/>
<rect width="154.412" height="4.79609" rx="2.39804" transform="matrix(0.917509 -0.397715 0.39786 0.917446 97.1409 205.452)" fill="#D9D9D9"/>
<rect width="154.412" height="4.79609" rx="2.39804" transform="matrix(0.917509 -0.397715 0.39786 0.917446 102.226 213.925)" fill="#D9D9D9"/>
<path fill-rule="evenodd" clip-rule="evenodd" d="M402.988 504.762C396.557 443.822 381.347 317.58 371.952 300.137C369.214 295.052 363.738 285.885 356.929 274.486C334.542 237.009 297.746 175.408 296.459 155.473C295.117 134.675 301.772 121.089 305.267 116.896C306.525 111.585 310.216 100.879 314.913 100.543C320.785 100.124 367.758 87.125 374.469 85.0285C374.76 84.9376 375.042 84.8474 375.317 84.7598C381.374 82.8259 383.676 82.091 392.503 100.543C393.621 102.879 394.707 105.172 395.765 107.405C403.445 123.608 409.622 136.642 415.151 139.959C415.807 140.352 416.467 140.691 417.114 141.023C422.668 143.871 427.19 146.191 418.926 178.116C409.699 213.758 404.246 239.336 414.731 261.979C423.12 280.093 485.611 431.102 515.808 504.343L402.988 504.762ZM328.754 162.602C331.55 162.881 338.148 162.015 342.174 156.312C348.466 154.914 361.635 154.131 363.984 162.182C366.332 170.233 349.304 174.482 340.497 175.6C338.959 174.203 334.457 169.646 328.754 162.602Z" fill="#FEB98C"/>
<path d="M334.924 170.109L337.313 173.504L340.059 175.425C339.104 174.537 337.299 172.729 334.924 170.109Z" fill="#BE693B"/>
<path d="M340.3 175.594L341.507 176.439L351.993 183.567L360.8 179.793L354.592 172.138C349.84 173.956 344.253 175.088 340.3 175.594Z" fill="#BE693B"/>
<path d="M359.602 169.707L375.479 177.278L369.188 138.281C370.161 136.197 372.849 132.204 375.848 132.819C375.865 132.823 375.882 132.827 375.899 132.83C375.888 132.828 375.876 132.825 375.865 132.823C375.86 132.822 375.854 132.821 375.848 132.819C373.728 132.338 369.175 127.765 367.511 113.123C357.864 113.821 335.971 115.387 325.57 116.058C315.169 116.729 322.355 129.196 327.248 135.346L323.473 137.862L323.054 151.699L329.345 162.182L329.671 162.646C332.855 162.602 338.386 161.327 341.927 156.312C348.218 154.914 361.387 154.131 363.736 162.182C364.622 165.22 362.75 167.716 359.602 169.707Z" fill="#BE693B"/>
<path d="M357.861 275.834L417.414 256.243C418.459 255.899 419.496 256.106 420.057 257.053C429.398 272.801 489.494 413.32 514.576 485.472C514.675 485.759 514.728 486.047 514.742 486.351L515.413 501.454C515.493 503.253 514.05 504.751 512.25 504.739L396.515 503.935C395.431 503.928 394.495 503.325 394.243 502.271C392.719 495.895 389.287 471.044 384.287 406.642C379.021 338.821 364.295 296.516 356.014 280.52C355.081 278.72 355.934 276.467 357.861 275.834Z" fill="#204B03"/>
<path d="M325.151 116.477L424.969 220.886C421.278 226.924 416.721 228.993 414.903 229.273L323.473 135.765C321.46 119.664 310.052 116.197 304.6 116.477L288.663 92.5761L290.76 90.8988L310.052 104.736C312.401 111.11 321.096 115.219 325.151 116.477Z" fill="#232323"/>
<path d="M425.237 267.298L359.54 288.102C358.682 286.08 357.858 284.263 357.079 282.653C355.668 279.732 357.041 276.103 360.123 275.09L416.403 256.576C418.076 256.025 419.779 256.516 420.629 258.058C421.723 260.042 423.285 263.182 425.237 267.298Z" fill="#FBF3E7"/>
<path d="M296.479 144.477C297.23 133.925 300.006 125.994 302.557 121.124C303.815 123.285 305.059 126.35 305.809 130.476C306.812 135.991 301.82 140.984 296.479 144.477Z" fill="#EFC6AA"/>
</g>
<path d="M260.214 98.2033L274.175 77.3846" stroke="white" stroke-width="2.49084" stroke-linecap="round"/>
<path d="M267.594 108.137L287.975 93.4995" stroke="white" stroke-width="2.49084" stroke-linecap="round"/>
<path d="M274.31 119.176L299.024 114.628" stroke="white" stroke-width="2.49084" stroke-linecap="round"/>
<path d="M9.44686 270.99C4.07492 251.058 8.92888 218.132 8.92888 218.132C8.92888 218.132 -3.19428 250.726 1.49478 271.068C6.86212 294.353 38.4621 319.826 38.4621 319.826C38.4621 319.826 15.2197 292.41 9.44686 270.99Z" fill="#A6FF47"/>
<path d="M489.794 70.8809C483.928 55.607 466.464 45 466.464 45C466.464 45 489.296 51.1115 497.57 68.0502C514.418 102.541 489.794 174 489.794 174C489.794 174 503.46 106.465 489.794 70.8809Z" fill="#A6FF47"/>
<defs>
<linearGradient id="paint0_linear_1140_1346" x1="252.464" y1="38.0953" x2="252.464" y2="320" gradientUnits="userSpaceOnUse">
<stop stop-color="#7FEA16"/>
<stop offset="1" stop-color="#439F03"/>
</linearGradient>
</defs>
</svg>
