<svg width="1219" height="580" viewBox="0 0 1219 580" fill="none" xmlns="http://www.w3.org/2000/svg">
<path d="M1160.7 245.463C1153.87 245.562 1147.26 247.985 1141.98 252.333C1131.39 229.868 1112.41 214.774 1090.73 214.774C1083.77 214.838 1076.92 216.43 1070.65 219.438C1059.1 171.65 1025.01 137 984.753 137C944.492 137 911.31 170.848 899.412 217.683C894.242 215.762 888.77 214.76 883.248 214.724C858.851 214.724 838.068 233.829 828.429 261.158C822.912 256.977 816.185 254.69 809.253 254.639C790.93 254.639 775.568 270.936 771 293H1197C1197.05 266.724 1180.79 245.463 1160.7 245.463Z" fill="#EFEFEF"/>
<path d="M294.696 270.785C289.929 270.854 285.323 272.547 281.641 275.585C274.256 259.888 261.027 249.342 245.907 249.342C241.06 249.387 236.279 250.499 231.908 252.601C223.858 219.211 200.094 195 172.025 195C143.956 195 120.822 218.65 112.527 251.374C108.922 250.032 105.107 249.333 101.257 249.307C84.2479 249.307 69.7584 262.656 63.0386 281.752C59.1923 278.83 54.5025 277.232 49.6691 277.197C36.8946 277.197 26.1849 288.584 23 304H320C320.035 285.641 308.695 270.785 294.696 270.785Z" fill="#EFEFEF"/>
<path d="M594.893 98.4889C591.105 98.544 587.445 99.8953 584.52 102.32C578.652 89.7917 568.139 81.3742 556.125 81.3742C552.273 81.4097 548.474 82.2976 545.001 83.9749C538.604 57.324 519.721 38 497.417 38C475.113 38 456.73 56.8766 450.139 82.9961C447.275 81.9248 444.243 81.3663 441.184 81.3462C427.668 81.3462 416.155 92.001 410.815 107.242C407.759 104.91 404.032 103.635 400.192 103.607C390.041 103.607 381.531 112.695 379 125H615C615.028 110.346 606.017 98.4889 594.893 98.4889Z" fill="#EFEFEF"/>
<ellipse cx="613" cy="449" rx="511" ry="14" fill="#EFEFEF"/>
<rect x="447" y="244" width="335" height="49" fill="#0A7117"/>
<rect x="179" y="293" width="872" height="156" fill="#09DE20"/>
<rect x="447" y="244" width="335" height="205" fill="#76FF84"/>
<rect x="179" y="384" width="872" height="46" fill="#76FF84"/>
<rect x="179" y="293" width="872" height="46" fill="#76FF84"/>
<path d="M229 244H447V293H179L229 244Z" fill="#00AA13"/>
<path d="M478.725 195H617.046V244H447L478.725 195Z" fill="#00AA13"/>
<path d="M750.275 195H611.954V244H782L750.275 195Z" fill="#00AA13"/>
<path d="M999 244H781V293H1049L999 244Z" fill="#00AA13"/>
<rect x="548" y="244" width="133" height="95" fill="#09DE20"/>
<rect x="548" y="293" width="31" height="156" fill="#09DE20"/>
<rect x="650" y="293" width="31" height="156" fill="#09DE20"/>
<rect x="400" y="293" width="11" height="156" fill="#FEDA00"/>
<rect x="354" y="293" width="12" height="156" fill="#FEDA00"/>
<rect x="309" y="293" width="11" height="156" fill="#FEDA00"/>
<rect x="263" y="293" width="12" height="156" fill="#FEDA00"/>
<rect x="218" y="293" width="11" height="156" fill="#FEDA00"/>
<rect x="1000" y="293" width="11" height="156" fill="#FEDA00"/>
<rect x="954" y="293" width="12" height="156" fill="#FEDA00"/>
<rect x="909" y="293" width="11" height="156" fill="#FEDA00"/>
<rect x="863" y="293" width="12" height="156" fill="#FEDA00"/>
<rect x="818" y="293" width="11" height="156" fill="#FEDA00"/>
<rect x="476" y="339" width="21" height="110" fill="#09DE20"/>
<rect x="732" y="339" width="21" height="110" fill="#09DE20"/>
<rect x="478" y="271" width="40" height="40" stroke="white" stroke-width="3"/>
<rect x="482.444" y="291" width="22" height="22" transform="rotate(-45 482.444 291)" fill="white"/>
<rect x="487" y="280" width="22" height="22" fill="white"/>
<rect x="593" y="266" width="40" height="40" stroke="white" stroke-width="3"/>
<rect x="597.444" y="286" width="22" height="22" transform="rotate(-45 597.444 286)" fill="white"/>
<rect x="602" y="275" width="22" height="22" fill="white"/>
<rect x="713" y="271" width="40" height="40" stroke="white" stroke-width="3"/>
<rect x="717.444" y="291" width="22" height="22" transform="rotate(-45 717.444 291)" fill="white"/>
<rect x="722" y="280" width="22" height="22" fill="white"/>
<g clip-path="url(#clip0_1046_73)">
<path d="M146.783 394.437L144.975 394.25C142.335 396.179 139.82 398.276 137.444 400.529L141.093 391.072L139.765 390.934C139.765 390.934 135.089 400.625 133.966 404.018C132.513 405.558 131.142 407.176 129.858 408.863C129.855 408.838 129.855 408.812 129.858 408.787C130.385 403.388 130.641 397.965 130.625 392.54C132.604 384.385 142.196 359.914 142.196 359.914H140.375L137.431 366.567L136.061 359.914H134.733L135.829 370.187L130.57 382.087C130.392 370.353 129.886 359.935 129.886 359.935H127.147C127.147 359.935 127.031 363.396 126.805 368.692C125.038 365.265 122.32 359.935 122.32 359.935H120.684L126.326 376.362L126.469 376.175C126.202 381.665 125.867 387.943 125.47 394.063C124.325 392.149 123.077 390.301 121.732 388.525C120.965 385.022 117.288 374.915 117.288 374.915H115.953L118.623 384.697C116.49 382.211 114.204 379.864 111.777 377.67H109.949C119.773 386.31 124.874 402.232 124.881 402.232C124.285 409.652 123.58 416.021 122.786 419.24C120.047 430.282 119.78 448.965 119.78 448.965H132.891C132.891 448.965 129.756 431.126 129.543 417.122C130.399 415.253 136.876 401.498 146.783 394.437Z" fill="#76FF84"/>
<path d="M146.783 394.437L144.975 394.25C142.335 396.179 139.82 398.276 137.444 400.529L141.094 391.072L139.765 390.934C139.765 390.934 135.089 400.626 133.966 404.018C132.514 405.558 131.142 407.176 129.858 408.863C129.855 408.838 129.855 408.812 129.858 408.787C130.385 403.388 130.641 397.965 130.625 392.54C132.604 384.385 142.196 359.914 142.196 359.914H140.375L137.431 366.567L136.061 359.914H134.733L135.829 370.187L130.57 382.087C130.392 370.353 129.886 359.935 129.886 359.935H127.147C127.147 359.935 127.031 363.396 126.805 368.692C125.038 365.265 122.32 359.935 122.32 359.935H120.684L126.326 376.362L126.469 376.175C126.428 377.013 126.387 377.871 126.339 378.737C126.949 378.291 127.633 377.961 128.359 377.76C130.009 377.387 129.667 379.92 129.441 382.087C129.215 384.254 131.878 383.43 130.995 385.438C130.112 387.445 130.03 396.105 129.372 400.958C128.715 405.81 129.071 409.23 130.057 410.421C131.043 411.612 130.577 411.985 129.119 414.297C127.661 416.61 128.291 423.297 128.386 427.201C128.482 431.105 130.283 444.653 127.846 447.041C126.024 448.82 121.855 447.394 119.869 446.563C119.815 448.107 119.801 449.021 119.801 449.021H132.912C132.912 449.021 129.776 431.181 129.564 417.177C130.399 415.253 136.876 401.498 146.783 394.437Z" fill="#00AA13"/>
<path d="M116.836 384.434C117.72 384.385 119.862 386.31 120.896 388.47C121.93 390.629 125.477 394.008 125.477 394.008C124.331 392.094 123.083 390.245 121.738 388.47C120.972 384.967 117.295 374.86 117.295 374.86H115.96L118.63 384.641C116.497 382.155 114.21 379.808 111.784 377.615H109.949C112.233 379.676 114.271 381.999 116.022 384.538C116.289 384.476 116.562 384.441 116.836 384.434Z" fill="#603813"/>
<path d="M148.132 370.173C144.27 347.827 134.439 335 126.996 335C119.554 335 109.73 347.827 105.861 370.173C102.116 391.848 98.9395 409.992 107.176 416.215C115.412 422.438 126.935 422.556 126.935 422.556V421.926L127.065 422.556C127.065 422.556 138.588 422.438 146.824 416.215C155.06 409.992 151.883 391.848 148.132 370.173Z" fill="#09DE20"/>
<path d="M148.132 370.173C144.51 349.212 135.637 336.62 128.407 335.145C141.696 338.274 146.715 391.086 146.783 399.013C146.858 407.223 143.661 418.942 126.997 418.942C110.565 418.942 103.239 409.985 103.075 409.777C103.708 412.321 105.152 414.583 107.183 416.215C115.399 422.445 126.942 422.556 126.942 422.556V421.926L127.072 422.556C127.072 422.556 138.595 422.438 146.831 416.215C155.067 409.992 151.884 391.848 148.132 370.173Z" fill="#00AA13"/>
<path d="M109.949 365.764C107.21 379.193 102.383 398.493 107.518 402.702C112.653 406.911 126.175 408.462 127.715 400.847C129.256 393.232 131.823 343.203 124.292 339.41C120.082 337.291 112.331 353.995 109.949 365.764Z" fill="#76FF84"/>
<path d="M112.653 372.603C110.531 381.145 107.176 398.708 111.626 399.781C116.076 400.854 118.986 377.31 117.713 372.894C116.439 368.477 113.228 370.284 112.653 372.603Z" fill="white"/>
<path d="M118.938 353.539C116.248 353.774 113.42 366.151 117.144 365.764C120.869 365.376 121.629 353.296 118.938 353.539Z" fill="white"/>
</g>
<g clip-path="url(#clip1_1046_73)">
<path d="M695.632 124.468C695.623 124.588 695.661 124.944 695.509 124.996C695.349 125.05 695.196 124.581 695.134 124.477C694.641 123.632 694.071 122.835 693.43 122.097C692.516 121.057 691.467 120.145 690.31 119.387C689.612 118.929 688.877 118.53 688.112 118.196C687.762 118.043 687.38 117.902 687.008 117.985C686.545 118.089 686.222 118.519 686.046 118.962C685.871 119.405 685.799 119.885 685.609 120.322C685.343 120.93 684.681 121.781 683.939 121.779C683.695 121.779 683.704 121.482 683.676 121.294C683.576 120.635 683.479 119.976 683.378 119.318C683.032 119.49 682.862 119.881 682.614 120.179C682.366 120.476 681.994 120.696 681.613 120.644C681.233 120.593 680.904 120.186 681.028 119.822C681.172 119.395 681.727 119.328 682.16 119.209C683.216 118.919 683.939 117.969 684.565 117.068C685.192 116.166 685.875 115.199 686.911 114.843C687.717 114.567 688.65 114.699 689.384 114.264C689.925 113.945 690.35 113.327 690.978 113.324C691.31 113.322 691.611 113.501 691.915 113.635C692.219 113.77 692.585 113.86 692.871 113.691C692.822 114.465 691.066 114.854 691.223 115.645C693.962 117.246 695.714 120.413 695.62 123.593" fill="#00AA13"/>
<path d="M707.679 109.087C707.564 109.046 707.873 108.855 707.9 108.838C708.08 108.723 708.266 108.61 708.451 108.499C708.96 108.194 709.503 107.942 710.084 107.818C710.681 107.691 711.295 107.68 711.902 107.728C712.341 107.762 713.138 107.887 713.573 107.954C713.537 107.949 713.465 107.852 713.434 107.826C713.362 107.762 712.854 107.434 712.901 107.341C712.937 107.267 713.24 107.272 713.303 107.265C713.603 107.233 713.897 107.193 714.2 107.199C714.559 107.207 714.917 107.258 715.264 107.35C715.521 107.418 715.773 107.504 716.019 107.606C716.281 107.715 716.537 107.839 716.786 107.978C717.26 108.248 717.716 108.549 718.15 108.88C718.351 109.029 718.539 109.174 718.714 109.311L718.966 109.509L719.085 109.602C719.124 109.633 719.161 109.662 719.199 109.69C719.265 109.74 719.406 109.883 719.489 109.892C719.616 109.904 719.561 109.83 719.561 109.707C719.559 109.478 719.614 109.253 719.72 109.05C719.981 108.556 720.481 108.348 721.02 108.37C721.22 108.379 721.422 108.401 721.619 108.367C722.046 108.295 722.423 107.793 722.733 107.507L722.27 108.225L722.255 108.249C722.199 108.336 722.144 108.421 722.09 108.506C722.032 108.59 721.98 108.679 721.934 108.77C721.857 108.94 721.904 109.086 721.903 109.267C721.903 109.458 721.874 109.649 721.819 109.832C721.758 110.036 721.665 110.23 721.544 110.405C721.419 110.586 721.246 110.697 721.185 110.905C721.032 111.434 721.022 112.018 720.941 112.562C720.877 112.996 720.811 113.438 720.65 113.847C720.447 114.366 720.087 114.668 719.685 115.023C719.398 115.276 719.11 115.476 718.756 115.607C717.707 115.997 716.756 116.614 715.971 117.416C715.759 117.633 715.638 117.925 715.475 118.183C715.283 118.487 715.074 118.785 714.799 119.021C714.184 119.548 713.285 119.516 712.562 119.269C712.163 119.132 711.788 118.933 711.451 118.679C711.287 118.555 711.133 118.419 710.988 118.273C710.612 117.885 710.305 117.441 710.163 116.912C710.127 116.783 710.11 116.625 710.206 116.532C710.278 116.463 710.384 116.455 710.482 116.451C711.556 116.405 712.633 116.379 713.7 116.229C714.339 116.139 715.574 116.043 715.671 115.196C715.712 114.841 715.609 114.446 715.477 114.117C714.924 112.734 713.6 111.88 712.341 111.19C711.607 110.786 710.854 110.42 710.082 110.09C709.69 109.923 709.287 109.785 708.896 109.62C708.604 109.492 707.977 109.193 707.679 109.087Z" fill="#00AA13"/>
<path d="M708.669 83.4951C709.118 83.5194 709.568 83.5178 710.017 83.4901C711.168 83.4177 712.283 82.9857 713.438 82.973C714.051 82.9665 714.664 83.0685 715.257 83.2194C715.786 83.3536 716.329 83.6485 716.871 83.6771C716.97 83.6829 717.069 83.6802 717.167 83.6688C717.284 83.6555 717.398 83.6313 717.51 83.5964C717.506 83.5823 717.503 83.5671 717.499 83.5508C717.254 82.6101 717.548 81.6719 717.83 80.7774C718.01 80.2086 718.234 79.5914 718.505 78.9582C718.64 78.6416 718.78 78.3358 718.922 78.0442C718.994 77.8995 719.067 77.7547 719.139 77.6176C719.211 77.4805 719.283 77.3444 719.35 77.212C719.43 77.0631 719.501 76.9091 719.561 76.751C719.612 76.5916 719.644 76.4266 719.656 76.2597C719.688 75.9481 719.683 75.6338 719.64 75.3236C719.593 75.0024 719.524 74.6849 719.434 74.3734C719.377 74.1719 719.27 73.9096 719.368 73.7109C719.738 74.1089 719.896 74.8941 719.978 75.4188C720.067 75.9829 720.058 76.5583 719.952 77.1194C719.901 77.3783 719.835 77.6338 719.753 77.8846C719.677 78.1281 719.597 78.3608 719.525 78.5866C719.454 78.8123 719.39 79.0316 719.343 79.2447C719.337 79.2711 719.331 79.2976 719.325 79.324C719.319 79.3504 719.315 79.3768 719.31 79.4029C719.306 79.4289 719.3 79.4553 719.295 79.4814C719.291 79.5074 719.288 79.5335 719.284 79.5592C719.28 79.5848 719.276 79.6105 719.272 79.6362C719.269 79.6619 719.267 79.6872 719.264 79.7126C719.261 79.7379 719.259 79.7632 719.256 79.7882C719.254 79.8132 719.253 79.8381 719.251 79.8631C719.249 79.8881 719.248 79.9127 719.246 79.9373L719.244 79.9735C719.244 79.9858 719.244 79.9977 719.244 80.0096C719.244 80.0581 719.244 80.1062 719.241 80.1544C719.239 80.2025 719.243 80.2484 719.244 80.2948C719.244 80.3179 719.244 80.3407 719.247 80.3635C719.25 80.3863 719.249 80.4091 719.251 80.4315C719.252 80.454 719.253 80.476 719.254 80.4981C719.256 80.5202 719.258 80.5422 719.26 80.564C719.264 80.6074 719.268 80.6504 719.273 80.6924C719.283 80.7767 719.292 80.8581 719.305 80.9366C719.312 80.9779 719.318 81.0184 719.325 81.0578C719.296 80.891 719.94 80.6729 720.044 80.6497C720.637 80.5184 720.914 80.8668 721.411 81.0065C721.969 81.1617 722.472 80.8433 722.974 80.6519C722.739 80.9388 722.353 81.0477 722.086 81.309C721.75 81.6379 721.806 81.8785 721.768 82.2772C721.731 82.6759 721.44 83.0436 721.127 83.2697C720.738 83.5512 720.728 83.7947 720.608 84.2828C720.45 84.9186 720.069 85.4808 719.61 85.9472C719.205 86.3575 718.701 86.6347 718.284 87.0219C717.964 87.3178 717.737 87.7788 717.531 88.1634C717.296 88.602 717.083 89.0828 716.846 89.5818C716.57 90.164 716.285 90.7613 715.873 91.2603C715.527 91.6789 715.08 92.0288 714.559 92.1786C713.321 92.5347 712.123 91.4912 711.486 90.52C711.303 90.2418 711.193 89.9002 711.257 89.5731C711.331 89.1867 711.638 88.8784 711.989 88.7022C712.521 88.4348 713.182 88.3581 713.762 88.2495C714.143 88.1772 714.535 88.0751 714.885 87.904C715.19 87.7546 715.469 87.5349 715.638 87.2393C715.806 86.9437 715.849 86.5652 715.699 86.2598C715.458 85.7663 714.926 85.7754 714.466 85.8868C714.355 85.9129 714.244 85.9422 714.134 85.9744C712.636 86.4122 710.994 87.3779 709.428 86.6459C708.359 86.1459 707.229 84.6121 707.453 83.3678C707.828 83.3377 708.278 83.4734 708.669 83.4951Z" fill="#00AA13"/>
<path d="M762.648 107.696C762.885 107.699 763.127 107.66 763.364 107.643C763.724 107.618 764.087 107.525 763.855 107.995C763.254 109.207 762.02 109.656 761.115 110.567C761.239 110.805 761.451 110.984 761.706 111.065C762.406 111.282 763.379 110.646 763.924 110.266C764.248 110.039 764.598 109.818 764.829 109.489C765.089 109.119 764.919 108.599 765.095 108.19C765.306 107.697 765.861 107.579 766.311 107.411C766.795 107.23 767.342 106.977 767.712 106.607C768.244 106.072 768.231 105.402 768.246 104.699C768.249 104.571 768.181 104.363 768.251 104.246C768.321 104.13 768.453 104.097 768.555 104.031C768.682 103.945 768.8 103.845 768.908 103.734C769.122 103.52 769.315 103.285 769.484 103.033C769.718 102.697 769.97 102.374 770.129 101.991C769.855 102.048 769.67 102.347 769.355 102.254C769.27 102.23 768.842 102.046 768.772 102.133C769.302 101.461 769.577 101.06 769.748 100.216C769.892 99.4741 769.898 98.7123 769.766 97.9686C769.725 97.7316 769.643 97.503 769.6 97.2678C769.591 97.2193 769.528 96.7138 769.518 96.7218C769.157 96.9425 768.955 97.4661 768.86 97.8597C768.707 98.4969 768.964 99.1833 768.838 99.8266C768.708 100.496 768.347 101.156 768.101 101.795C768.045 101.94 768.004 102.079 767.882 102.169C767.76 102.26 767.55 102.291 767.411 102.384C767.153 102.561 766.939 102.795 766.784 103.068C766.684 103.241 766.606 103.427 766.553 103.62C766.489 103.851 766.455 103.883 766.218 103.932C765.995 103.978 765.771 104.019 765.546 104.052C765.102 104.118 764.654 104.161 764.205 104.18C763.299 104.221 762.392 104.167 761.497 104.019C760.858 103.91 760.226 103.761 759.605 103.574C759.276 103.476 758.942 103.365 758.603 103.243C758.263 103.121 757.918 102.99 757.572 102.845C757.313 102.736 757.047 102.628 756.788 102.524C756.551 102.43 755.265 101.882 754.704 101.174C754.503 100.921 754.685 102.03 754.712 102.201C754.758 102.5 754.832 102.795 754.932 103.08C754.989 103.24 755.054 103.397 755.127 103.551C755.307 103.933 755.543 104.287 755.827 104.6C756.563 105.403 757.509 105.989 758.468 106.484C759.351 106.941 760.289 107.282 761.259 107.497C761.712 107.602 762.182 107.693 762.648 107.696Z" fill="#00AA13"/>
<path d="M798.209 90.5671C798.912 91.0452 799.587 91.5618 800.233 92.1147C800.48 92.3267 800.656 92.4041 800.549 92.7471C800.482 92.9599 800.338 93.1546 800.224 93.3391C800.011 93.6891 799.75 94.0072 799.449 94.2838C798.941 94.7473 798.276 94.9518 797.657 95.2322C796.99 95.5339 796.325 95.861 795.747 96.3177C795.68 96.3698 795.615 96.4237 795.55 96.479C795.535 96.4917 795.514 96.5087 795.495 96.5293C795.469 96.5535 795.446 96.5801 795.426 96.6089C795.398 96.6492 795.379 96.6945 795.368 96.7424C795.356 96.7969 795.357 96.8535 795.372 96.9074C795.557 97.6126 796.794 97.4788 797.295 97.3597C797.384 97.3387 797.473 97.3156 797.562 97.2895C797.651 97.2635 797.742 97.2342 797.83 97.2005C797.874 97.1846 797.918 97.1643 797.963 97.1477L798.029 97.1184L798.062 97.1039L798.095 97.088C798.183 97.0458 798.268 96.9989 798.351 96.9472C798.392 96.9208 798.434 96.8944 798.474 96.8651C798.514 96.8358 798.552 96.8058 798.591 96.7754C798.667 96.7126 798.738 96.6449 798.805 96.5727C798.87 96.5004 798.932 96.428 798.987 96.3556C799.1 96.2109 799.199 96.0662 799.299 95.9352C799.324 95.9016 799.349 95.8701 799.374 95.8379C799.399 95.8057 799.425 95.7753 799.45 95.7467C799.5 95.6885 799.553 95.6334 799.609 95.5817C799.829 95.3773 800.102 95.239 800.389 95.1417C800.94 94.9572 801.473 95.0169 802.04 94.9152C803.167 94.7164 804.179 94.1005 804.875 93.1893C805.218 92.7432 805.339 92.3173 805.536 91.8169C805.546 91.7899 805.557 91.7638 805.568 91.7387C805.986 91.5849 806.214 91.1471 806.245 90.718C806.263 90.4817 806.183 90.2252 806.185 89.9915C806.185 89.8829 806.357 89.5573 806.353 89.5034C806.292 89.5307 806.232 89.5634 806.176 89.601L806.159 89.6115C805.811 89.8142 805.445 89.7541 805.061 89.7838C805.314 88.1299 805.205 86.5867 804.686 84.9863C804.265 83.696 803.799 82.345 802.857 81.334C802.505 80.9554 802.105 80.6252 801.668 80.352C801.329 80.1422 800.681 79.6533 800.783 80.3567C801.089 82.9934 801.368 85.5533 800.927 88.199C800.893 88.4038 800.857 88.5993 800.819 88.7855C800.398 88.5198 799.962 88.2798 799.513 88.0665C799.039 87.8431 798.553 87.6485 798.056 87.4836C796.188 86.8609 794.085 86.6069 792.142 86.9894C791.877 87.0389 791.618 87.1184 791.37 87.2264C791.575 87.3711 791.883 87.4344 792.127 87.522L792.238 87.5622L792.403 87.6215C792.85 87.7829 793.292 87.9557 793.73 88.14C795.299 88.7978 796.8 89.6108 798.209 90.5671Z" fill="#00AA13"/>
<path d="M763.037 86.4346C763.023 86.3598 763.027 86.2828 763.049 86.2098C763.07 86.1368 763.108 86.0698 763.16 86.0142C763.326 85.842 763.589 85.8203 763.828 85.8094C765.197 85.7461 767.471 85.7045 768.411 84.5018C768.343 84.4384 768.277 84.4327 768.19 84.4044C763.478 82.8891 760.124 75.5921 764.209 71.7151C764.341 71.5873 764.485 71.4708 764.637 71.3667C764.561 71.4177 765.263 73.4961 765.333 73.6752C766.583 76.8752 769.586 78.7947 772.511 80.2847C772.742 80.4026 772.958 80.5112 773.157 80.6103C773.303 80.6827 773.44 80.7503 773.566 80.8133C773.653 80.8553 774.352 79.8277 774.455 79.7365C774.914 79.328 775.653 78.9832 776.286 79.0649C777.188 79.1811 777.553 79.2936 778.35 78.7957L778.322 78.8873C778.32 78.8949 778.318 78.9025 778.315 78.9104C778.127 79.5256 778.024 79.789 778.042 80.4468C778.047 80.6436 778.01 80.8393 777.936 81.0214C777.862 81.2036 777.75 81.3684 777.61 81.5055C777.297 81.8061 776.441 81.7949 776.808 82.2027C777.054 82.4741 777.751 82.5808 778.095 82.6669C778.736 82.827 779.394 82.9097 780.055 82.9133C781.451 82.9213 782.81 82.4618 784.056 81.864C784.463 81.6687 784.872 81.3738 785.293 81.237C784.842 82.3102 783.473 83.244 782.481 83.7734C780.938 84.5976 779.179 84.7474 777.483 85.0036C776.412 85.1661 775.175 85.0727 774.245 85.6111C774.063 85.7159 773.872 85.8061 773.676 85.8807C773.65 85.8905 773.624 85.901 773.597 85.9104L773.515 85.9375C773.488 85.9462 773.461 85.9559 773.433 85.9643L773.349 85.9889C772.378 86.27 770.945 86.1586 770.278 87.0693C769.869 87.6272 769.438 88.2966 768.744 88.5166C768.068 88.7312 767.025 88.5611 766.344 88.4109C765.623 88.2528 764.935 87.9693 764.312 87.5733C763.974 87.3598 763.203 86.9097 763.056 86.5045C763.048 86.4817 763.041 86.4584 763.037 86.4346Z" fill="#00AA13"/>
<path d="M834.863 74.5477C834.346 74.6165 833.95 74.8824 833.558 75.2153C832.516 76.0996 831.819 77.1735 830.428 77.5759C830.115 77.6663 829.197 77.9355 828.902 77.7206C828.506 77.4333 829.149 77.2839 829.337 77.1717C829.691 76.9589 829.959 76.6281 830.094 76.2371C830.233 75.8322 830.05 75.4132 830.146 75.0069C830.234 74.6338 830.512 74.327 830.566 73.9384C830.282 73.9674 830.051 74.2492 829.757 74.3031C829.524 74.3466 829.318 74.1765 829.109 74.0821C828.369 73.7474 827.409 74.0198 826.953 74.6935C826.748 74.9975 826.651 75.4733 826.32 75.6629C825.877 75.9162 825.636 75.6321 825.347 75.3329C824.962 74.9261 824.633 74.4693 824.369 73.9746C823.444 72.253 823.293 70.2228 823.337 68.3033C823.347 67.8217 823.373 67.3405 823.404 66.8596C823.433 66.4019 823.66 65.8436 823.037 66.0126C822.057 66.2782 821.245 67.0405 820.63 67.8192C819.608 69.1127 818.866 70.7402 818.7 72.3876C818.671 72.6771 818.628 72.9553 818.592 73.231C818.533 73.6862 818.498 74.1356 818.592 74.6244C818.73 75.3719 819.07 76.0673 819.573 76.6351C820.578 77.7492 822.215 78.2442 823.665 77.8715C823.3 78.7399 822.67 79.3817 821.666 79.3723C821.162 79.3676 820.663 79.2392 820.158 79.2359C819.653 79.2327 819.102 79.3883 818.821 79.8098C818.493 80.303 818.657 81.0013 819.042 81.4514C819.527 82.0188 820.376 82.4345 821.083 82.6346C821.225 82.6751 821.368 82.7113 821.511 82.7431C822.128 82.8741 822.789 82.9291 823.418 82.9704C823.862 82.9993 824.343 82.9342 824.673 82.636C825.152 82.2018 823.913 81.0491 824.465 80.9249C825.523 80.6872 826.423 80.2436 826.976 79.6253C827.377 79.177 828.588 80.1543 829.186 80.1959C829.931 80.248 830.57 80.2747 831.251 79.9151C831.909 79.5666 832.446 79.0203 832.932 78.4645C833.525 77.7879 834.076 77.0755 834.607 76.3496C834.872 75.9878 835.133 75.6195 835.392 75.2511C835.573 74.9978 835.864 74.7475 836.002 74.4913C835.64 74.543 835.237 74.4982 834.863 74.5477Z" fill="#00AA13"/>
<path d="M769.269 47.5323C769.296 46.8278 770.511 46.3983 771.033 46.302C771.765 46.1656 772.524 46.1906 773.244 46.0014C774.062 45.7868 774.493 45.3378 774.848 44.6094C775.212 43.8622 775.745 43.1863 776.358 42.6259C778.6 40.5768 779.773 41.468 781.037 39.5261C781.442 38.9041 782.247 38.132 782.914 38.1736C783.274 38.1957 783.612 38.3545 783.969 38.4005C784.326 38.4464 784.754 38.3357 784.89 38.0024C784.575 39.406 783.884 40.6965 782.892 41.7351C783.057 41.5903 784.042 41.9833 784.233 42.0354C784.936 42.2286 785.671 42.1902 786.388 42.1077C786.604 42.0828 788.233 42.0035 788.29 41.7325C788.121 42.5318 786.889 43.085 786.22 43.3716C785.289 43.7726 784.279 43.9525 783.268 43.8973C784.958 45.5171 787.04 46.6673 789.307 47.2348C786.627 49.2632 782.841 49.7079 779.767 48.3565C779.237 48.1231 778.71 47.8499 778.268 47.4707C777.851 47.1133 777.741 46.3798 777.335 46.1135C776.918 45.8404 776.461 46.1635 776.133 46.4272C775.66 46.8075 774.807 47.5851 775.344 48.1148C775.881 48.6445 774.556 49.0505 774.254 49.1384C773.549 49.345 772.806 49.392 772.081 49.2759C771.329 49.154 769.593 48.6152 769.305 47.7794C769.278 47.7 769.265 47.6162 769.269 47.5323Z" fill="#00AA13"/>
<path d="M750.033 51.164C750.052 54.0981 750.953 57.246 753.867 57.8665C754.218 57.9414 754.63 58.1223 754.477 58.5804C754.319 59.0526 753.713 58.9509 753.346 58.8561C752.979 58.7613 752.643 58.5873 752.289 58.4581C751.935 58.3289 751.547 58.2439 751.183 58.3387C750.388 58.546 750.4 59.3638 750.618 60.006C751.114 61.4754 752.587 63.2603 754.222 63.4889C754.494 63.5251 754.799 63.4528 754.963 63.2335C755.127 63.0142 755.121 62.7269 755.111 62.4585C755.071 61.4906 755.133 60.8013 756.224 60.6783C756.762 60.6178 758.056 60.446 758.333 61.1012C758.407 61.2775 758.461 61.458 758.549 61.6292C759.267 63.0157 760.8 63.549 762.266 63.6641C763.816 63.786 765.68 63.6311 767.096 62.9477C767.198 62.8984 767.741 62.5989 767.462 62.4889C765.84 61.847 764.163 61.3382 762.619 60.5086C762.024 60.1882 761.446 59.838 760.886 59.4593C760.443 59.16 759.22 58.3376 759.072 57.7724C758.9 57.115 759.532 57.3744 760.209 56.4775C760.413 56.2075 760.509 55.9398 760.458 55.6047C760.422 55.3757 760.395 55.1343 760.463 54.9086C760.535 54.6643 760.708 54.4411 760.809 54.2052C760.836 54.1437 760.86 54.0818 760.886 54.0196C760.519 54.1643 760.083 54.4498 759.693 54.495C759.333 54.537 759.004 54.309 758.633 54.394C758.249 54.483 757.9 54.6844 757.63 54.973C757.438 55.1785 757.413 55.4462 757.144 55.3102C756.898 55.1854 756.624 54.6227 756.462 54.3962C755.364 52.8556 754.355 51.3894 753.526 49.687C752.858 48.3182 752.441 46.8897 751.89 45.4772C751.773 45.1776 751.552 44.7571 751.307 45.2344C750.908 46.0156 750.607 46.8432 750.41 47.6984C750.181 48.6656 750.025 49.8947 750.033 51.164Z" fill="#00AA13"/>
<path d="M811.395 55.8104C811.98 55.4485 812.243 54.7495 812.627 54.1767C813.348 53.1003 815.21 53.4487 816.542 52.394C817.627 51.5346 818.904 51.7557 820.237 51.412C821.149 51.179 822.054 50.9177 822.951 50.6254C823.767 50.3576 824.556 50.0211 825.392 49.804C825.716 49.721 826.043 49.6507 826.372 49.5931C826.433 49.5826 827.179 49.4867 827.147 49.4122C827.143 49.4042 827.138 49.3971 827.131 49.3914C827.124 49.3856 827.116 49.3814 827.108 49.3789C825.738 49.0919 824.382 48.7869 822.974 48.8307C822.24 48.8535 821.522 48.8709 820.796 48.9754C820.495 49.0181 818.921 49.1397 818.777 49.3713C818.893 49.1846 819.029 48.9968 819.131 48.7923C819.202 48.646 819.259 48.4929 819.301 48.3354C819.346 48.1675 819.373 47.9952 819.38 47.8216C819.395 47.4264 819.341 47.2303 819.516 46.8761C819.766 46.3696 820.168 46.0027 820.282 45.4288C819.923 45.6378 819.55 45.8213 819.166 45.9781C818.993 46.0555 818.671 46.1952 818.474 46.1792C818.296 46.1637 818.156 46.0081 818.016 45.9136C817.82 45.7801 817.572 45.6966 817.342 45.6441C816.865 45.5311 816.364 45.5653 815.906 45.7421C815.511 45.902 815.166 46.1642 814.904 46.502C814.616 46.8707 814.544 47.2571 814.393 47.6783C814.27 47.5665 814.186 47.3968 814.075 47.2676C813.863 47.0216 813.603 46.7209 813.298 46.3739C811.946 44.8376 810.703 43.3678 808.906 42.312C807.418 41.4371 806.044 40.8365 804.359 40.72C804.239 40.7117 804.116 40.7062 803.992 40.703C803.451 40.6762 805.722 42.2744 806.515 43.1536C807.418 44.1548 808.232 45.2322 808.95 46.3739C809.953 47.9699 810.888 49.6372 810.705 51.5914C810.682 51.8196 810.607 52.0393 810.486 52.2337C810.365 52.4282 810.201 52.5922 810.007 52.7131C809.591 52.9664 809.082 52.9993 808.595 53.0218C807.863 53.0554 807.131 53.0825 806.396 53.1097C805.778 53.1328 804.402 53.084 804.922 54.1043C805.154 54.5588 805.841 54.828 806.273 55.0176C807.303 55.4715 808.385 55.798 809.494 55.9902C810.136 56.1024 810.84 56.1537 811.395 55.8104Z" fill="#00AA13"/>
</g>
<defs>
<clipPath id="clip0_1046_73">
<rect width="50" height="114" fill="white" transform="translate(102 335)"/>
</clipPath>
<clipPath id="clip1_1046_73">
<rect width="155" height="87" fill="white" transform="matrix(-1 0 0 1 836 38)"/>
</clipPath>
</defs>
</svg>
