<svg width="1167" height="425" viewBox="0 0 1167 425" fill="none" xmlns="http://www.w3.org/2000/svg">
<path d="M1130.7 207.463C1123.87 207.562 1117.26 209.985 1111.98 214.333C1101.39 191.868 1082.41 176.774 1060.73 176.774C1053.77 176.838 1046.92 178.43 1040.65 181.438C1029.1 133.65 995.014 99 954.753 99C914.492 99 881.31 132.848 869.412 179.683C864.242 177.762 858.77 176.76 853.248 176.724C828.851 176.724 808.068 195.829 798.429 223.158C792.912 218.977 786.185 216.69 779.253 216.639C760.93 216.639 745.568 232.936 741 255H1167C1167.05 228.724 1150.79 207.463 1130.7 207.463Z" fill="#EFEFEF"/>
<path d="M265.292 233.699C260.638 233.766 256.14 235.413 252.545 238.367C245.335 223.103 232.417 212.847 217.654 212.847C212.921 212.89 208.252 213.972 203.984 216.015C196.124 183.544 172.92 160 145.513 160C118.105 160 95.5161 182.999 87.4169 214.823C83.897 213.518 80.172 212.837 76.4129 212.813C59.8044 212.813 45.6564 225.794 39.095 244.364C35.3393 241.523 30.76 239.969 26.0406 239.934C13.5671 239.934 3.10983 251.008 0 266H290C290.034 248.146 278.962 233.699 265.292 233.699Z" fill="#EFEFEF"/>
<path d="M564.893 60.4889C561.105 60.544 557.445 61.8953 554.52 64.3202C548.652 51.7917 538.139 43.3742 526.125 43.3742C522.273 43.4097 518.474 44.2976 515.001 45.9749C508.604 19.324 489.721 0 467.417 0C445.113 0 426.73 18.8766 420.139 44.9961C417.275 43.9248 414.243 43.3663 411.184 43.3462C397.668 43.3462 386.155 54.001 380.815 69.242C377.759 66.91 374.032 65.6348 370.192 65.6066C360.041 65.6066 351.531 74.6953 349 87H585C585.028 72.3462 576.017 60.4889 564.893 60.4889Z" fill="#EFEFEF"/>
<ellipse cx="583" cy="411" rx="511" ry="14" fill="#EFEFEF"/>
<rect x="417" y="206" width="335" height="49" fill="#0A7117"/>
<rect x="149" y="255" width="872" height="156" fill="#09DE20"/>
<rect x="417" y="206" width="335" height="205" fill="#76FF84"/>
<rect x="149" y="346" width="872" height="46" fill="#76FF84"/>
<rect x="149" y="255" width="872" height="46" fill="#76FF84"/>
<path d="M199 206H417V255H149L199 206Z" fill="#0A7117"/>
<path d="M448.157 157H584V206H417L448.157 157Z" fill="#0A7117"/>
<path d="M719.843 157H584V206H751L719.843 157Z" fill="#0A7117"/>
<path d="M969 206H751V255H1019L969 206Z" fill="#0A7117"/>
<rect x="518" y="206" width="133" height="95" fill="#09DE20"/>
<rect x="518" y="255" width="31" height="156" fill="#09DE20"/>
<rect x="620" y="255" width="31" height="156" fill="#09DE20"/>
<rect x="370" y="255" width="11" height="156" fill="#FEDA00"/>
<rect x="324" y="255" width="12" height="156" fill="#FEDA00"/>
<rect x="279" y="255" width="11" height="156" fill="#FEDA00"/>
<rect x="233" y="255" width="12" height="156" fill="#FEDA00"/>
<rect x="188" y="255" width="11" height="156" fill="#FEDA00"/>
<rect x="970" y="255" width="11" height="156" fill="#FEDA00"/>
<rect x="924" y="255" width="12" height="156" fill="#FEDA00"/>
<rect x="879" y="255" width="11" height="156" fill="#FEDA00"/>
<rect x="833" y="255" width="12" height="156" fill="#FEDA00"/>
<rect x="788" y="255" width="11" height="156" fill="#FEDA00"/>
<rect x="446" y="301" width="21" height="110" fill="#09DE20"/>
<rect x="702" y="301" width="21" height="110" fill="#09DE20"/>
<rect x="448" y="233" width="40" height="40" stroke="white" stroke-width="3"/>
<rect x="452.444" y="253" width="22" height="22" transform="rotate(-45 452.444 253)" fill="white"/>
<rect x="457" y="242" width="22" height="22" fill="white"/>
<rect x="563" y="228" width="40" height="40" stroke="white" stroke-width="3"/>
<rect x="567.444" y="248" width="22" height="22" transform="rotate(-45 567.444 248)" fill="white"/>
<rect x="572" y="237" width="22" height="22" fill="white"/>
<rect x="683" y="233" width="40" height="40" stroke="white" stroke-width="3"/>
<rect x="687.444" y="253" width="22" height="22" transform="rotate(-45 687.444 253)" fill="white"/>
<rect x="692" y="242" width="22" height="22" fill="white"/>
</svg>
