<svg xmlns="http://www.w3.org/2000/svg" viewBox="0 0 570.68 570.68"><defs><style>.cls-1{fill:#00aa13;}</style></defs><g id="Layer_2" data-name="Layer 2"><g id="Layer_1-2" data-name="Layer 1"><path class="cls-1" d="M49.12,75.35A19.85,19.85,0,0,0,17.58,80,149.57,149.57,0,0,0,0,150.58v93.91a19.85,19.85,0,0,0,19.85,19.85h56.3A19.84,19.84,0,0,0,96,244.49V150.58a54.83,54.83,0,0,1,1.63-13.28,19.61,19.61,0,0,0-5.19-18.63ZM96,420.1V326.19a19.84,19.84,0,0,0-19.85-19.85H19.85A19.85,19.85,0,0,0,0,326.19V420.1a149.63,149.63,0,0,0,14.27,63.95,19.86,19.86,0,0,0,32,5.6l44.81-44.81a19.84,19.84,0,0,0,5.47-16.93A54.39,54.39,0,0,1,96,420.1ZM150.58,0A149.72,149.72,0,0,0,85.46,14.82a19.87,19.87,0,0,0-5.51,32l44.4,44.4a19.63,19.63,0,0,0,17.11,5.57,54.75,54.75,0,0,1,9.12-.76H244.5a19.84,19.84,0,0,0,19.84-19.85V19.85A19.85,19.85,0,0,0,244.5,0ZM400.26,0H326.19a19.85,19.85,0,0,0-19.85,19.85v56.3A19.85,19.85,0,0,0,326.19,96h74.07a74.42,74.42,0,0,1,74.42,74.43V400.26a74.42,74.42,0,0,1-74.43,74.42H150.58a54.38,54.38,0,0,1-14.29-1.9A19.64,19.64,0,0,0,117.35,478l-43,43a19.85,19.85,0,0,0,4.57,31.48,149.64,149.64,0,0,0,71.7,18.19H400.25A170.42,170.42,0,0,0,570.68,400.26V170.43A170.42,170.42,0,0,0,400.26,0Z"/></g></g></svg>