<svg width="150" height="150" viewBox="0 0 150 150" fill="none" xmlns="http://www.w3.org/2000/svg">
<path d="M13.0325 19.7538C12.4561 19.1791 11.7533 18.7471 10.9802 18.4922C10.207 18.2372 9.38495 18.1665 8.57959 18.2857C7.77423 18.4048 7.0079 18.7105 6.34179 19.1783C5.67567 19.6461 5.12824 20.2631 4.74319 20.98C1.68918 26.6787 0.0907313 33.043 0.0898284 39.5076V64.1811C0.0937521 65.5614 0.643129 66.8843 1.61835 67.8617C2.59357 68.8392 3.91567 69.392 5.29681 69.3999H20.0948C21.4785 69.3999 22.8061 68.8526 23.7873 67.8775C24.7686 66.9025 25.3238 65.5789 25.3317 64.196V39.5225C25.3312 38.3476 25.4769 37.1772 25.7656 36.0383C25.9834 35.1682 25.9725 34.2567 25.7339 33.3921C25.4954 32.5275 25.0372 31.7391 24.404 31.1036L13.0325 19.7538ZM25.227 110.358V85.6844C25.231 84.3054 24.6887 82.9809 23.7187 82.0003C22.7486 81.0196 21.4297 80.4625 20.0499 80.4506H5.25192C4.56562 80.4447 3.88492 80.5744 3.24897 80.8324C2.61301 81.0903 2.03436 81.4714 1.54628 81.9536C1.0582 82.4358 0.670329 83.0097 0.404969 83.6423C0.13961 84.2749 0.00199961 84.9536 5.293e-05 85.6395V110.358C-0.00945781 116.147 1.26285 121.866 3.72574 127.106C4.07763 127.867 4.60819 128.531 5.27226 129.043C5.93634 129.555 6.71429 129.899 7.53994 130.046C8.36559 130.193 9.21451 130.138 10.0145 129.886C10.8145 129.635 11.5418 129.194 12.1347 128.601L23.9402 116.833C24.5274 116.257 24.9692 115.55 25.2294 114.77C25.4895 113.99 25.5605 113.159 25.4364 112.347C25.324 111.689 25.254 111.025 25.227 110.358ZM39.7257 3.27399e-05C33.8016 -0.00759024 27.9516 1.31605 22.6085 3.87303C21.8526 4.22802 21.1928 4.75906 20.6847 5.42158C20.1766 6.08411 19.8349 6.85878 19.6883 7.68058C19.5418 8.50238 19.5946 9.34733 19.8423 10.1445C20.0901 10.9417 20.5256 11.6678 21.1123 12.262L32.7681 23.9558C33.3464 24.5396 34.0541 24.9792 34.8339 25.239C35.6137 25.4988 36.4437 25.5714 37.2569 25.4511C38.0478 25.3178 38.8488 25.2527 39.6509 25.2567H64.3392C65.7203 25.2528 67.044 24.7038 68.022 23.7291C69 22.7545 69.5532 21.4332 69.5611 20.0529V5.24876C69.5572 3.86843 69.0078 2.54555 68.0326 1.56811C67.0574 0.590666 65.7353 0.0378227 64.3541 0.0299407L39.7257 3.27399e-05ZM105.352 0.0897552H85.9002C85.2152 0.0877878 84.5365 0.220937 83.903 0.481575C83.2696 0.742213 82.6938 1.12522 82.2087 1.60864C81.7236 2.09206 81.3387 2.66639 81.0761 3.29873C80.8135 3.93107 80.6783 4.60898 80.6783 5.29362V20.0977C80.6763 20.7824 80.8096 21.4607 81.0703 22.0938C81.3311 22.7268 81.7144 23.3023 82.1981 23.7871C82.6818 24.2719 83.2565 24.6565 83.8892 24.919C84.5219 25.1815 85.2002 25.3165 85.8853 25.3165H105.337C110.526 25.3284 115.499 27.398 119.162 31.0709C122.826 34.7437 124.882 39.7196 124.878 44.9058L124.788 105.274C124.776 110.459 122.705 115.427 119.029 119.086C115.354 122.745 110.375 124.796 105.187 124.788L39.5611 124.698C38.2921 124.698 37.0289 124.527 35.8055 124.19C34.9286 123.96 34.0064 123.964 33.1317 124.203C32.257 124.442 31.4607 124.907 30.823 125.551L19.4514 136.841C18.8782 137.415 18.4466 138.114 18.1911 138.884C17.9355 139.654 17.863 140.472 17.9791 141.275C18.0953 142.077 18.397 142.842 18.8604 143.508C19.3237 144.173 19.9359 144.722 20.6484 145.11C26.4253 148.264 32.9035 149.915 39.4863 149.91L105.112 150C116.991 150 128.386 145.294 136.8 136.913C145.214 128.533 149.96 117.161 150 105.289V44.9208C150.02 33.061 145.329 21.6782 136.957 13.2725C128.586 4.86677 117.218 0.125401 105.352 0.0897552Z" fill="#58CC02"/>
</svg>
