<svg width="745" height="143" viewBox="0 0 745 143" fill="none" xmlns="http://www.w3.org/2000/svg">
<g clip-path="url(#clip0_1061_48)">
<path d="M8.70997 27.41C8.32479 27.0257 7.85509 26.7368 7.33836 26.5663C6.82164 26.3958 6.27222 26.3485 5.73397 26.4282C5.19572 26.5079 4.68355 26.7123 4.23837 27.0251C3.79318 27.338 3.42731 27.7506 3.16997 28.23C1.12888 32.0409 0.0605778 36.2969 0.0599743 40.62V57.12C0.0625966 58.0431 0.429764 58.9277 1.08154 59.5814C1.73331 60.235 2.61692 60.6047 3.53997 60.61H13.43C14.3548 60.61 15.242 60.244 15.8978 59.592C16.5536 58.9399 16.9247 58.0548 16.93 57.13V40.63C16.9296 39.8443 17.027 39.0616 17.22 38.3C17.3655 37.7182 17.3582 37.1086 17.1988 36.5304C17.0393 35.9522 16.7332 35.425 16.31 35L8.70997 27.41ZM16.86 88V71.5C16.8627 70.5778 16.5002 69.6921 15.8519 69.0363C15.2036 68.3805 14.3221 68.0079 13.4 68H3.50997C3.0513 67.996 2.59636 68.0828 2.17133 68.2553C1.74631 68.4278 1.35957 68.6826 1.03337 69.0051C0.707171 69.3276 0.447942 69.7113 0.270594 70.1344C0.0932449 70.5574 0.00127537 71.0113 -2.56602e-05 71.47V88C-0.00638201 91.8713 0.843942 95.6961 2.48997 99.2C2.72516 99.7087 3.07975 100.153 3.52357 100.495C3.96739 100.838 4.48732 101.068 5.03913 101.166C5.59094 101.264 6.15831 101.228 6.69296 101.059C7.22761 100.891 7.71373 100.596 8.10997 100.2L16 92.33C16.3924 91.9449 16.6877 91.4721 16.8616 90.9505C17.0354 90.429 17.0829 89.8735 17 89.33C16.9248 88.8901 16.8781 88.4459 16.86 88ZM26.55 14.2C22.5907 14.1949 18.681 15.0801 15.11 16.79C14.6047 17.0274 14.1638 17.3825 13.8242 17.8256C13.4846 18.2686 13.2563 18.7867 13.1583 19.3362C13.0604 19.8858 13.0957 20.4509 13.2612 20.984C13.4268 21.5171 13.7179 22.0027 14.11 22.4L21.9 30.22C22.2865 30.6104 22.7594 30.9044 23.2806 31.0781C23.8018 31.2519 24.3565 31.3005 24.9 31.22C25.4286 31.1308 25.9639 31.0873 26.5 31.09H43C43.923 31.0874 44.8077 30.7202 45.4613 30.0684C46.115 29.4167 46.4847 28.5331 46.49 27.61V17.71C46.4874 16.7869 46.1202 15.9023 45.4684 15.2486C44.8166 14.595 43.933 14.2253 43.01 14.22L26.55 14.2ZM70.41 14.26H57.41C56.9521 14.2587 56.4985 14.3477 56.0752 14.522C55.6518 14.6963 55.267 14.9525 54.9428 15.2757C54.6186 15.599 54.3613 15.9831 54.1858 16.406C54.0103 16.8288 53.92 17.2822 53.92 17.74V27.64C53.9187 28.0978 54.0077 28.5514 54.182 28.9748C54.3563 29.3982 54.6124 29.783 54.9357 30.1072C55.259 30.4314 55.6431 30.6886 56.0659 30.8642C56.4888 31.0397 56.9421 31.13 57.4 31.13H70.4C73.8682 31.138 77.1915 32.522 79.6402 34.9781C82.0888 37.4343 83.4626 40.7618 83.46 44.23L83.4 84.6C83.392 88.0673 82.0077 91.3896 79.5513 93.8366C77.0948 96.2837 73.7673 97.6553 70.3 97.65L26.44 97.59C25.5918 97.5898 24.7476 97.4755 23.93 97.25C23.3439 97.0959 22.7276 97.0988 22.143 97.2586C21.5584 97.4183 21.0262 97.7292 20.6 98.16L13 105.71C12.6169 106.094 12.3285 106.562 12.1577 107.076C11.9869 107.591 11.9384 108.138 12.016 108.675C12.0936 109.212 12.2953 109.723 12.605 110.168C12.9146 110.614 13.3238 110.98 13.8 111.24C17.6609 113.349 21.9905 114.453 26.39 114.45L70.25 114.51C78.1892 114.51 85.8047 111.363 91.4279 105.759C97.0511 100.154 100.224 92.5492 100.25 84.61V44.24C100.263 36.309 97.1281 28.6969 91.5332 23.0758C85.9383 17.4546 78.341 14.2838 70.41 14.26Z" fill="#58CC02"/>
<path d="M170.611 102.91H150.526V13.197H170.611V102.91ZM201.209 102.91H181.124V35.8261H199.736V56.4467H200.941C202.682 45.1991 210.716 34.4871 228.257 34.4871C246.601 34.4871 255.305 46.2703 255.305 61.1332V102.91H235.22V67.8282C235.22 57.1162 230.801 52.5636 218.482 52.5636C205.762 52.5636 201.209 57.6518 201.209 69.0333V102.91ZM312.732 102.91H296.129C280.462 102.91 270.955 95.5455 270.955 78.6741V52.4297H260.377V35.8261H270.955V22.8378H291.04V35.8261H312.732V52.4297H291.04V76.3978C291.04 83.0928 293.585 84.8335 300.681 84.8335H312.732V102.91ZM355.872 104.249C333.511 104.249 318.246 93.2692 318.246 69.435C318.246 48.011 333.377 34.4871 355.47 34.4871C377.43 34.4871 392.025 46.0025 392.025 67.0248C392.025 69.435 391.757 71.1757 391.489 73.452H336.858C337.394 83.7623 342.214 88.181 355.203 88.181C367.12 88.181 371.271 85.1013 371.271 79.3436V78.0046H391.356V79.4775C391.356 94.0726 377.162 104.249 355.872 104.249ZM355.069 50.1534C343.152 50.1534 338.063 54.1704 337.126 62.8739H372.743C372.208 54.0365 366.852 50.1534 355.069 50.1534ZM420.627 102.91H400.542V35.8261H419.154V53.6348H420.36C422.234 42.7889 429.331 34.4871 442.855 34.4871C457.852 34.4871 464.011 44.7974 464.011 57.9196V69.0333H443.926V62.0705C443.926 54.706 440.98 51.4924 432.812 51.4924C423.841 51.4924 420.627 55.6433 420.627 64.079V102.91ZM491.369 102.91H471.284V35.8261H489.897V56.4467H491.102C492.842 45.1991 500.876 34.4871 518.417 34.4871C536.762 34.4871 545.465 46.2703 545.465 61.1332V102.91H525.38V67.8282C525.38 57.1162 520.961 52.5636 508.643 52.5636C495.922 52.5636 491.369 57.6518 491.369 69.0333V102.91Z" fill="black"/>
<path d="M605.57 102.91H580.799L550.27 35.8261H572.631L592.716 83.3606H594.055L614.274 35.8261H636.234L605.57 102.91ZM662.157 104.249C647.696 104.249 638.992 97.554 638.992 86.3064C638.992 76.3978 646.357 70.2384 660.684 68.7655L689.472 65.8197V63.2756C689.472 54.5721 685.589 52.1619 674.877 52.1619C664.701 52.1619 660.55 54.8399 660.55 62.4722V63.0078H640.331V62.6061C640.331 46.0025 654.257 34.4871 676.35 34.4871C698.712 34.4871 709.29 46.0025 709.29 63.5434V102.91H690.544V87.5115H689.472C686.393 97.9557 677.02 104.249 662.157 104.249ZM659.211 84.9674C659.211 88.5827 662.023 90.0556 667.915 90.0556C681.572 90.0556 688.937 86.842 689.472 77.3351L666.174 80.0131C661.353 80.4148 659.211 81.7538 659.211 84.9674ZM739.555 102.91H719.47V13.197H739.555V102.91Z" fill="#58CC02"/>
</g>
<defs>
<clipPath id="clip0_1061_48">
<rect width="744.9" height="142.47" fill="white"/>
</clipPath>
</defs>
</svg>
