<svg width="913" height="580" viewBox="0 0 913 580" fill="none" xmlns="http://www.w3.org/2000/svg">
<rect x="520" y="271" width="4" height="40" fill="black" fill-opacity="0.12"/>
<rect x="635" y="266" width="4" height="40" fill="black" fill-opacity="0.12"/>
<rect x="755" y="271" width="4" height="40" fill="black" fill-opacity="0.12"/>
<g clip-path="url(#clip0_1052_60)">
<path d="M456.515 522.969C658.936 522.969 823.031 501.539 823.031 475.103C823.031 448.667 658.936 427.237 456.515 427.237C254.095 427.237 90 448.667 90 475.103C90 501.539 254.095 522.969 456.515 522.969Z" fill="#ECEDEB"/>
<path d="M712.826 249.496C712.826 249.496 708.817 95.2875 654.223 78.0162C598.705 60.3747 539.207 61.886 481.499 64.4767C427.183 66.9441 372.466 65.4636 318.274 69.0412C258.653 72.989 236.538 100.346 223.399 155.398C216.256 186.276 212.328 217.81 211.678 249.496L198.385 289.343H726.12L712.826 249.496Z" fill="#09DE20"/>
<path d="M256.864 268.155V233.582C256.864 233.582 255.538 208.353 226.298 205.824C197.058 203.295 117.173 265.503 118.623 278.796C120.073 292.088 134.6 386.433 143.884 390.442C153.168 394.452 177.133 413.018 198.385 402.409C219.636 391.799 256.864 268.155 256.864 268.155Z" fill="#00AA13"/>
<path d="M656.938 268.155V233.582C656.938 233.582 658.295 208.353 687.534 205.824C716.774 203.295 796.536 265.657 795.21 278.95C793.884 292.242 779.233 386.587 769.949 390.597C760.665 394.606 736.73 412.957 715.541 402.409C694.351 391.861 656.938 268.155 656.938 268.155Z" fill="#00AA13"/>
<path d="M256.864 268.155C254.699 270.383 252.369 272.445 249.894 274.323C232.004 289.066 186.417 323.917 186.417 323.917H730.099L656.938 264.177L256.864 268.155Z" fill="#1D6926"/>
<path d="M186.417 323.948V378.908H729.698L730.099 323.948H186.417Z" fill="#09DE20"/>
<path d="M169.145 432.973L152.119 486.268C151.766 487.329 151.671 488.459 151.842 489.564C152.013 490.669 152.445 491.717 153.103 492.622C153.76 493.527 154.624 494.262 155.622 494.766C156.621 495.27 157.725 495.528 158.843 495.52C159.982 495.509 161.101 495.223 162.105 494.686C163.11 494.149 163.969 493.377 164.611 492.436L205.047 434.299L169.145 432.973Z" fill="#B57053"/>
<path d="M747.31 432.973L764.304 486.268C764.664 487.326 764.765 488.456 764.599 489.561C764.432 490.667 764.003 491.717 763.348 492.623C762.693 493.528 761.83 494.264 760.832 494.768C759.834 495.273 758.73 495.53 757.611 495.52C756.473 495.509 755.353 495.223 754.349 494.686C753.345 494.149 752.485 493.377 751.844 492.436L711.407 434.299L747.31 432.973Z" fill="#B57053"/>
<path d="M781.731 263.159C772.91 258.841 762.947 258.193 750.888 264.177C726.984 276.112 729.636 323.979 729.636 323.979V377.15H186.417V323.979C186.417 323.979 189.07 276.112 165.166 264.177C153.199 258.193 143.236 258.841 134.322 263.159C126.916 267.023 120.902 273.104 117.119 280.552C113.337 288 111.976 296.443 113.225 304.703C116.988 332.46 124.051 380.419 130.498 399.726C139.751 427.638 139.751 432.973 159.738 439.604C177.041 445.372 399.331 441.146 457.996 439.913C516.599 441.146 738.92 445.372 756.223 439.604C776.148 432.973 776.148 427.638 785.463 399.726C791.91 380.419 798.973 332.398 802.736 304.703C803.993 296.453 802.646 288.017 798.881 280.57C795.115 273.124 789.12 267.037 781.731 263.159Z" fill="#0A7117"/>
<path d="M337.15 273.552L328.545 199.532C328.545 199.532 380.979 183.927 408.924 183.156C436.868 182.384 471.32 181.583 473.695 181.583C476.07 181.583 494.761 258.039 494.761 258.039C494.761 258.039 428.448 266.613 392.546 272.103C356.644 277.593 337.15 273.552 337.15 273.552Z" fill="#FEDA00"/>
<path d="M473.109 266.459L487.914 193.148C487.914 193.148 525.359 188.46 553.457 193.148C581.556 197.836 644.6 222.787 644.6 222.787L628.222 296.807C628.222 296.807 567.368 295.234 532.268 287.555C511.589 283.01 491.254 277.022 471.413 269.636" fill="#FEDA00"/>
<path d="M643.212 249.897C643.212 249.897 671.218 238.516 675.598 235.895C679.978 233.273 684.358 235 682.6 242.063C680.841 249.126 665.975 268.34 659.837 272.72C653.699 277.099 650.214 277.068 643.212 283.206C636.211 289.343 625.693 298.102 625.693 298.102L599.445 281.448L643.212 249.897Z" fill="#DECBB6"/>
<path d="M655.457 284.902C655.457 284.902 699.224 267.384 706.226 263.005C713.227 258.625 708.848 267.384 703.604 282.281C698.361 297.177 687.843 314.664 678.929 320.771C670.015 326.878 648.302 322.529 648.302 322.529L655.457 284.902Z" fill="#DECBB6"/>
<path d="M413.026 254.276C413.026 254.276 507.531 216.619 524.063 216.619C540.595 216.619 643.089 249.897 643.089 249.897C636.665 258.538 629.647 266.721 622.084 274.385C614.188 281.386 599.322 284.902 599.322 284.902C599.322 284.902 521.411 257.762 495.163 257.762C468.915 257.762 425.147 261.278 425.147 261.278C425.147 261.278 399.763 260.383 397.141 260.383C394.52 260.383 413.026 254.276 413.026 254.276Z" fill="#1D1D1D"/>
<path d="M273.859 310.285C273.859 310.285 350.012 328.79 380.64 328.79C411.268 328.79 462.9 307.787 484.799 306.029C506.698 304.271 646.698 331.412 652.835 331.412C658.973 331.412 658.079 318.273 659.837 305.165C661.595 292.057 661.595 286.66 655.457 285.026C649.319 283.391 622.208 281.51 567.059 258.779C511.911 236.049 486.526 241.261 462.9 245.641C439.274 250.02 380.64 257.021 380.64 257.021L359.635 247.399C359.635 247.399 328.113 249.126 315.868 256.127C303.623 263.128 270.343 309.514 270.343 309.514L273.859 310.285Z" fill="#1D1D1D"/>
<path d="M209.457 156.539C209.457 156.539 186.047 149.507 168.867 146.392C151.687 143.277 140.028 144.048 139.226 152.561C138.425 161.073 150.947 232.132 156.406 258.656C161.866 285.18 182.13 307.016 193.851 308.558C205.571 310.1 251.559 307.016 251.559 298.442C251.559 289.868 209.457 156.539 209.457 156.539Z" fill="#FEDA00"/>
<path d="M174.327 264.917C161.527 237.807 145.827 151.82 144.748 145.899C143.253 146.316 141.923 147.181 140.936 148.378C139.949 149.575 139.352 151.045 139.227 152.591C138.455 161.165 150.947 232.163 156.406 258.687C161.866 285.211 182.13 307.047 193.851 308.589C199.06 309.066 204.299 309.138 209.519 308.805C194.796 296.849 182.797 281.886 174.327 264.917Z" fill="#FF832E"/>
<path d="M355.687 144.881C355.687 144.881 363.738 150.525 364.139 155.367C364.54 160.209 350.444 169.462 350.444 170.788C350.444 172.114 358.895 201.383 360.9 209.063C361.856 212.409 362.028 215.93 361.402 219.354C360.776 222.777 359.37 226.01 357.291 228.801C353.652 232.842 343.196 230.004 339.957 225.162C336.718 220.32 332.308 217.112 333.788 208.261C335.269 199.409 339.957 172.392 340.636 169.955C341.314 167.519 355.687 144.881 355.687 144.881Z" fill="#EA9476"/>
<path d="M268.307 154.966C274.545 156.891 280.4 159.886 285.611 163.818C294.093 170.295 337.212 207.335 337.212 207.335L337.613 222.756L267.875 161.505L268.307 154.966Z" fill="#00AA13"/>
<path d="M209.087 161.505C209.087 161.505 193.326 171.991 192.463 183.371C191.599 194.752 257.234 313.77 263.403 317.286C269.572 320.802 280.028 316.392 281.909 312.906C283.791 309.421 328.175 263.005 337.921 258.656C347.668 254.307 366.822 256.898 365.928 247.275C365.033 237.653 275.771 161.505 270.528 156.231C265.284 150.957 234.657 147.503 227.655 149.23C220.654 150.957 209.087 161.505 209.087 161.505Z" fill="#76FF84"/>
<path d="M245.884 149.908L256.217 158.174L261.553 171.775L255.785 163.941L256.217 177.141L243.016 165.175L245.884 149.908Z" fill="#00AA13"/>
<path d="M209.087 129.984C210.385 132.385 211.135 135.043 211.284 137.768C211.433 140.493 210.978 143.216 209.951 145.745L206.62 154.504L251.251 174.612L245.082 144.881L209.087 129.984Z" fill="#EA9476"/>
<path d="M244.959 90.5997C244.959 90.5997 255.476 79.2191 251.127 68.733C246.778 58.2468 234.503 56.3962 234.503 59.1103V66.975C234.503 66.975 218.742 58.2159 218.742 60.8066C219.086 63.0496 219.987 65.1704 221.363 66.975C221.363 66.975 201.222 60.8066 203.875 67.8385C206.124 72.6151 209.785 76.5872 214.362 79.2191C209.934 77.5695 205.049 77.643 200.673 79.4252C196.297 81.2074 192.75 84.5682 190.735 88.8417C187.446 95.0926 186.106 102.186 186.886 109.206C187.667 116.226 190.533 122.851 195.115 128.226C201.284 134.395 209.982 145.745 209.982 145.745L235.366 129.121L230.123 95.8427L244.959 90.5997Z" fill="#1D1D1D"/>
<path d="M249.338 84.4621C249.338 84.4621 263.342 129.984 263.342 138.744C263.342 147.503 251.004 150.124 238.852 149.23C231.065 148.369 223.881 144.629 218.711 138.744C218.711 138.744 198.57 129.984 198.57 121.225C198.57 112.466 206.466 107.223 209.951 111.603C212.294 114.779 214.068 118.338 215.195 122.12L224.849 121.225L222.196 112.497C222.932 111.504 223.401 110.339 223.558 109.114C223.714 107.888 223.553 106.642 223.091 105.496C220.486 101.47 217.556 97.6639 214.331 94.1156C214.331 94.1156 226.576 80.1135 249.338 84.4621Z" fill="#F6BA99"/>
<path d="M204.708 148.366L240.579 159.716L256.34 178.992L199.433 161.474L204.708 148.366Z" fill="#00AA13"/>
<path d="M204.708 171.127C204.708 171.127 190.705 161.505 178.46 172.885C166.215 184.266 216.952 284.902 216.952 284.902L239.715 244.654L207.329 177.234" fill="#00AA13"/>
<path d="M332.493 176.37L344.738 130.848L363.984 122.983L345.602 184.235L332.493 176.37Z" fill="#1D1D1D"/>
<path d="M248.475 247.275L314.11 201.753C314.11 201.753 316.732 178.992 318.49 176.37C320.248 173.749 328.977 163.232 335.115 161.505C341.253 159.778 348.254 148.366 348.254 156.231C348.254 164.095 342.085 170.233 342.085 173.749C342.085 177.265 345.602 183.371 340.327 194.752C335.053 206.133 319.323 216.619 317.595 219.271C315.868 221.924 276.45 270.9 262.447 280.523C248.444 290.145 236.199 305.905 232.683 291.903C229.167 277.901 248.475 247.275 248.475 247.275Z" fill="#F6BA99"/>
<path d="M256.34 242.896C256.34 242.896 249.339 266.521 242.337 278.765C235.335 291.009 238.852 297.27 232.714 298.041C226.576 298.812 207.329 291.873 209.951 277.007C212.573 262.141 228.457 236.758 237.094 235C245.73 233.242 254.582 233.273 256.34 242.896Z" fill="#00AA13"/>
</g>
<defs>
<clipPath id="clip0_1052_60">
<rect width="733" height="465" fill="white" transform="translate(90 58)"/>
</clipPath>
</defs>
</svg>
