<svg width="1405" height="1684" viewBox="0 0 1405 1684" fill="none" xmlns="http://www.w3.org/2000/svg">
<g clip-path="url(#clip0_1079_65)">
<rect x="520" y="271" width="4" height="40" fill="black" fill-opacity="0.12"/>
<rect x="635" y="266" width="4" height="40" fill="black" fill-opacity="0.12"/>
<rect x="755" y="271" width="4" height="40" fill="black" fill-opacity="0.12"/>
<path d="M423 1168.59C395.338 1193.94 369.604 1248.46 369.604 1248.46C369.604 1248.46 402.214 1192.56 434.471 1168.59C464.57 1146.22 492.004 1152.2 522.675 1130.63C553.422 1109 666.512 1152.14 697.343 1130.63C752.686 1092.02 790.329 1096.88 857.816 1096.88C969.676 1096.88 857.816 1112.56 990.062 956.266C1032.47 906.147 978.476 858.893 1009.92 808.862C1044.42 753.977 1050.42 771.757 1093.56 692.297C1111.48 659.291 1103.03 601.981 1117.6 567.369C1138.51 517.711 1148.93 522.351 1166.74 492.099C1217.81 405.335 1261.46 408.723 1300.55 315.945C1320.1 269.556 1279.88 156.496 1300.55 100.588C1318.46 52.1407 1381.57 -3.95459 1381.57 -3.95459H722.956H22C22 -3.95459 93.9012 79.8371 111.906 145.541C129.494 209.722 94.4362 251.732 111.906 315.945C133.801 396.422 232.653 492.099 232.653 492.099C232.653 492.099 337.718 603.071 327.263 728.886C318.351 836.148 447.547 841.775 423 932.743C369.604 1130.63 531.597 1083.62 482.726 1130.63C462.81 1149.79 443.373 1149.92 423 1168.59Z" fill="#F0F8FF"/>
<path d="M1019.86 541.233L1096.56 418.396L1113.42 348.876L1177.91 306.536L1189.74 176.381L1259.26 91.1789L1205.03 119.405L1259.26 -5H114.52L168.359 57.7254L202.205 119.405H168.359L213.835 208.266L244.675 280.923L193.972 259.492L244.675 348.876L302.696 373.443L320.991 440.873L383.716 549.074L412.988 619.64L383.716 596.641L405.148 650.48L412.988 737.25L451.669 805.203L483.554 898.768L443.828 876.814L460.555 947.38L451.669 1005.4L518.053 1055.06L892.315 1035.72L952.426 932.222H920.541L961.312 865.314L929.427 888.836L942.495 737.25L1013.06 660.412L1042.33 596.641L1019.86 619.64V541.233Z" fill="#DDEFFF"/>
<path d="M1031.88 835.52C1040.91 809.959 1073.7 780.113 1073.7 780.113C1073.7 780.113 1044.93 812.017 1039.2 835.52C1028.78 878.234 1052.85 894.635 1042.86 937.449C1033.99 975.435 1019.86 990.243 998.425 1023.17C968.001 1069.92 964.971 1142.87 964.971 1142.87L938.313 1102.63C938.313 1102.63 947.722 1042.51 974.903 1011.15C1009.3 971.467 1020.16 966.948 1031.88 929.085C1044 889.924 1018.22 874.173 1031.88 835.52Z" fill="#F0F8FF"/>
<g clip-path="url(#clip1_1079_65)">
<path d="M718.268 1490.97C929.883 1490.97 1101.43 1468.56 1101.43 1440.93C1101.43 1413.29 929.883 1390.89 718.268 1390.89C506.652 1390.89 335.104 1413.29 335.104 1440.93C335.104 1468.56 506.652 1490.97 718.268 1490.97Z" fill="#ECEDEB"/>
<path d="M986.221 1205.07C986.221 1205.07 982.029 1043.86 924.956 1025.8C866.916 1007.36 804.716 1008.94 744.386 1011.65C687.603 1014.23 630.401 1012.68 573.747 1016.42C511.418 1020.55 488.299 1049.15 474.563 1106.7C467.095 1138.98 462.989 1171.95 462.31 1205.07L448.412 1246.73H1000.12L986.221 1205.07Z" fill="#439F03"/>
<path d="M509.548 1224.58V1188.44C509.548 1188.44 508.161 1162.06 477.593 1159.42C447.025 1156.77 363.512 1221.81 365.027 1235.7C366.543 1249.6 381.73 1348.23 391.436 1352.42C401.141 1356.61 426.195 1376.02 448.412 1364.93C470.629 1353.84 509.548 1224.58 509.548 1224.58Z" fill="#58CC02"/>
<path d="M927.793 1224.58V1188.44C927.793 1188.44 929.212 1162.06 959.78 1159.42C990.348 1156.77 1073.73 1221.97 1072.35 1235.86C1070.96 1249.76 1055.64 1348.39 1045.94 1352.58C1036.23 1356.77 1011.21 1375.96 989.058 1364.93C966.906 1353.9 927.793 1224.58 927.793 1224.58Z" fill="#58CC02"/>
<path d="M509.548 1224.58C507.284 1226.91 504.848 1229.06 502.26 1231.03C483.559 1246.44 435.901 1282.87 435.901 1282.87H1004.28L927.794 1220.42L509.548 1224.58Z" fill="#204B03"/>
<path d="M435.901 1282.91V1340.36H1003.86L1004.28 1282.91H435.901Z" fill="#439F03"/>
<path d="M417.844 1396.88L400.045 1452.6C399.675 1453.71 399.576 1454.89 399.755 1456.05C399.934 1457.2 400.386 1458.3 401.073 1459.24C401.76 1460.19 402.663 1460.96 403.707 1461.48C404.751 1462.01 405.905 1462.28 407.074 1462.27C408.265 1462.26 409.435 1461.96 410.485 1461.4C411.535 1460.84 412.433 1460.03 413.104 1459.05L455.377 1398.27L417.844 1396.88Z" fill="#B57053"/>
<path d="M1022.27 1396.88L1040.04 1452.6C1040.41 1453.71 1040.52 1454.89 1040.34 1456.04C1040.17 1457.2 1039.72 1458.3 1039.04 1459.24C1038.35 1460.19 1037.45 1460.96 1036.41 1461.49C1035.36 1462.01 1034.21 1462.28 1033.04 1462.27C1031.85 1462.26 1030.68 1461.96 1029.63 1461.4C1028.58 1460.84 1027.68 1460.03 1027.01 1459.05L984.737 1398.27L1022.27 1396.88Z" fill="#B57053"/>
<path d="M1058.26 1219.36C1049.03 1214.84 1038.62 1214.17 1026.01 1220.42C1001.02 1232.9 1003.79 1282.94 1003.79 1282.94V1338.52H435.901V1282.94C435.901 1282.94 438.674 1232.9 413.684 1220.42C401.173 1214.17 390.758 1214.84 381.44 1219.36C373.697 1223.4 367.409 1229.75 363.455 1237.54C359.501 1245.33 358.078 1254.15 359.384 1262.79C363.318 1291.81 370.702 1341.94 377.441 1362.13C387.115 1391.31 387.115 1396.88 408.009 1403.82C426.098 1409.85 658.486 1405.43 719.815 1404.14C781.08 1405.43 1013.5 1409.85 1031.59 1403.82C1052.42 1396.88 1052.42 1391.31 1062.16 1362.13C1068.9 1341.94 1076.28 1291.74 1080.21 1262.79C1081.53 1254.16 1080.12 1245.34 1076.18 1237.56C1072.25 1229.77 1065.98 1223.41 1058.26 1219.36Z" fill="#337804"/>
<path d="M593.481 1230.22L584.484 1152.84C584.484 1152.84 639.3 1136.52 668.514 1135.72C697.728 1134.91 733.745 1134.07 736.228 1134.07C738.711 1134.07 758.251 1214 758.251 1214C758.251 1214 688.925 1222.97 651.392 1228.71C613.859 1234.45 593.481 1230.22 593.481 1230.22Z" fill="#FEDA00"/>
<path d="M735.615 1222.81L751.093 1146.17C751.093 1146.17 790.238 1141.26 819.613 1146.17C848.988 1151.07 914.896 1177.15 914.896 1177.15L897.774 1254.53C897.774 1254.53 834.155 1252.89 797.461 1244.86C775.843 1240.11 754.585 1233.85 733.842 1226.13" fill="#FEDA00"/>
<path d="M913.445 1205.49C913.445 1205.49 942.723 1193.59 947.302 1190.85C951.88 1188.11 956.459 1189.92 954.621 1197.3C952.783 1204.69 937.241 1224.77 930.825 1229.35C924.408 1233.93 920.764 1233.9 913.445 1240.31C906.125 1246.73 895.13 1255.89 895.13 1255.89L867.689 1238.48L913.445 1205.49Z" fill="#DECBB6"/>
<path d="M926.246 1242.09C926.246 1242.09 972.001 1223.77 979.321 1219.19C986.64 1214.62 982.061 1223.77 976.58 1239.35C971.098 1254.92 960.103 1273.2 950.784 1279.59C941.465 1285.97 918.765 1281.42 918.765 1281.42L926.246 1242.09Z" fill="#DECBB6"/>
<path d="M672.803 1210.07C672.803 1210.07 771.6 1170.7 788.883 1170.7C806.167 1170.7 913.316 1205.49 913.316 1205.49C906.6 1214.53 899.263 1223.08 891.357 1231.09C883.102 1238.41 867.56 1242.09 867.56 1242.09C867.56 1242.09 786.11 1213.71 758.67 1213.71C731.23 1213.71 685.475 1217.39 685.475 1217.39C685.475 1217.39 658.937 1216.45 656.197 1216.45C653.456 1216.45 672.803 1210.07 672.803 1210.07Z" fill="#1D1D1D"/>
<path d="M527.315 1268.62C527.315 1268.62 606.927 1287.97 638.946 1287.97C670.965 1287.97 724.942 1266.01 747.836 1264.17C770.73 1262.34 917.088 1290.71 923.505 1290.71C929.922 1290.71 928.987 1276.97 930.825 1263.27C932.663 1249.57 932.663 1243.92 926.246 1242.22C919.829 1240.51 891.486 1238.54 833.833 1214.78C776.179 1191.01 749.642 1196.46 724.942 1201.04C700.243 1205.62 638.946 1212.94 638.946 1212.94L616.987 1202.88C616.987 1202.88 584.033 1204.69 571.232 1212C558.431 1219.32 523.639 1267.82 523.639 1267.82L527.315 1268.62Z" fill="#1D1D1D"/>
<path d="M459.987 1107.89C459.987 1107.89 435.514 1100.54 417.553 1097.29C399.593 1094.03 387.405 1094.84 386.566 1103.73C385.728 1112.63 398.819 1186.92 404.527 1214.65C410.234 1242.38 431.419 1265.21 443.672 1266.82C455.925 1268.43 504.001 1265.21 504.001 1256.24C504.001 1247.28 459.987 1107.89 459.987 1107.89Z" fill="#FEDA00"/>
<path d="M423.261 1221.19C409.879 1192.85 393.467 1102.96 392.338 1096.77C390.776 1097.21 389.386 1098.11 388.354 1099.36C387.322 1100.61 386.698 1102.15 386.566 1103.77C385.76 1112.73 398.819 1186.95 404.527 1214.68C410.234 1242.41 431.419 1265.24 443.672 1266.85C449.118 1267.35 454.594 1267.42 460.052 1267.08C444.66 1254.58 432.116 1238.93 423.261 1221.19Z" fill="#FF832E"/>
<path d="M612.86 1095.71C612.86 1095.71 621.276 1101.61 621.695 1106.67C622.114 1111.73 607.378 1121.4 607.378 1122.79C607.378 1124.18 616.213 1154.77 618.309 1162.8C619.309 1166.3 619.489 1169.98 618.834 1173.56C618.18 1177.14 616.709 1180.52 614.536 1183.44C610.732 1187.66 599.801 1184.7 596.415 1179.63C593.029 1174.57 588.418 1171.22 589.966 1161.96C591.514 1152.71 596.415 1124.47 597.124 1121.92C597.834 1119.37 612.86 1095.71 612.86 1095.71Z" fill="#EA9476"/>
<path d="M521.511 1106.25C528.032 1108.26 534.153 1111.39 539.6 1115.5C548.467 1122.27 593.545 1161 593.545 1161L593.964 1177.12L521.059 1113.08L521.511 1106.25Z" fill="#58CC02"/>
<path d="M459.601 1113.08C459.601 1113.08 443.124 1124.05 442.221 1135.94C441.318 1147.84 509.935 1272.27 516.384 1275.94C522.832 1279.62 533.763 1275.01 535.73 1271.36C537.697 1267.72 584.097 1219.19 594.287 1214.65C604.476 1210.1 624.5 1212.81 623.565 1202.75C622.63 1192.69 529.314 1113.08 523.832 1107.57C518.35 1102.06 486.332 1098.45 479.012 1100.25C471.692 1102.06 459.601 1113.08 459.601 1113.08Z" fill="#CEFF8A"/>
<path d="M498.069 1100.96L508.871 1109.6L514.449 1123.82L508.419 1115.63L508.871 1129.43L495.07 1116.92L498.069 1100.96Z" fill="#58CC02"/>
<path d="M459.601 1080.13C460.957 1082.64 461.741 1085.42 461.897 1088.27C462.053 1091.12 461.577 1093.97 460.503 1096.61L457.021 1105.77L503.679 1126.79L497.23 1095.71L459.601 1080.13Z" fill="#EA9476"/>
<path d="M497.102 1038.96C497.102 1038.96 508.097 1027.06 503.55 1016.1C499.004 1005.14 486.171 1003.2 486.171 1006.04V1014.26C486.171 1014.26 469.694 1005.1 469.694 1007.81C470.054 1010.16 470.996 1012.37 472.434 1014.26C472.434 1014.26 451.379 1007.81 454.152 1015.16C456.503 1020.16 460.33 1024.31 465.115 1027.06C460.486 1025.34 455.379 1025.41 450.804 1027.28C446.23 1029.14 442.522 1032.65 440.415 1037.12C436.977 1043.66 435.575 1051.07 436.391 1058.41C437.208 1065.75 440.204 1072.67 444.994 1078.29C451.443 1084.74 460.536 1096.61 460.536 1096.61L487.074 1079.23L481.592 1044.44L497.102 1038.96Z" fill="#1D1D1D"/>
<path d="M501.68 1032.54C501.68 1032.54 516.319 1080.13 516.319 1089.29C516.319 1098.45 503.421 1101.19 490.717 1100.25C482.577 1099.35 475.066 1095.44 469.661 1089.29C469.661 1089.29 448.605 1080.13 448.605 1070.98C448.605 1061.82 456.86 1056.34 460.504 1060.92C462.953 1064.24 464.807 1067.96 465.985 1071.91L476.078 1070.98L473.305 1061.85C474.074 1060.81 474.565 1059.6 474.728 1058.31C474.892 1057.03 474.724 1055.73 474.24 1054.53C471.517 1050.32 468.454 1046.34 465.082 1042.63C465.082 1042.63 477.884 1028 501.68 1032.54Z" fill="#F6BA99"/>
<path d="M455.022 1099.35L492.523 1111.21L509 1131.37L449.508 1113.05L455.022 1099.35Z" fill="#58CC02"/>
<path d="M455.022 1123.14C455.022 1123.14 440.383 1113.08 427.582 1124.98C414.781 1136.88 467.823 1242.09 467.823 1242.09L491.62 1200.01L457.763 1129.53" fill="#58CC02"/>
<path d="M588.612 1128.63L601.413 1081.04L621.534 1072.81L602.316 1136.85L588.612 1128.63Z" fill="#1D1D1D"/>
<path d="M500.777 1202.75L569.394 1155.16C569.394 1155.16 572.135 1131.37 573.973 1128.63C575.811 1125.88 584.936 1114.89 591.353 1113.08C597.769 1111.28 605.089 1099.35 605.089 1107.57C605.089 1115.79 598.64 1122.21 598.64 1125.88C598.64 1129.56 602.316 1135.94 596.802 1147.84C591.288 1159.74 574.843 1170.7 573.038 1173.47C571.232 1176.25 530.023 1227.45 515.384 1237.51C500.745 1247.57 487.944 1264.04 484.268 1249.41C480.592 1234.77 500.777 1202.75 500.777 1202.75Z" fill="#F6BA99"/>
<path d="M509 1198.17C509 1198.17 501.68 1222.87 494.361 1235.67C487.041 1248.47 490.717 1255.02 484.301 1255.82C477.884 1256.63 457.763 1249.37 460.504 1233.83C463.245 1218.29 479.851 1191.76 488.879 1189.92C497.908 1188.08 507.162 1188.11 509 1198.17Z" fill="#58CC02"/>
<path d="M554.141 1262.05C606.83 1227.76 614.775 1145.31 612.162 1108.38C612.162 1108.38 619.479 1148.1 612.162 1187.83C604.844 1227.55 590.933 1268.78 554.141 1303.35C510.245 1344.59 479.393 1357.19 408.304 1353.53C337.215 1349.87 353.419 1271.46 353.419 1271.46C353.42 1319.73 488.279 1304.91 554.141 1262.05Z" fill="#F0F8FF"/>
<path d="M399.397 1330.53C483.031 1330.53 553.074 1287.14 553.074 1287.14C553.074 1287.14 473.1 1347.78 399.397 1347.78C359.088 1347.78 350.785 1301.78 350.785 1301.78C350.785 1301.78 362.999 1330.53 399.397 1330.53Z" fill="#FEDA00"/>
</g>
<path d="M1105.14 518.757C1118.65 498.013 1145.83 483.735 1145.83 483.735C1145.83 483.735 1118.79 493.87 1105.14 505.689C1080.28 527.213 1073.19 542.13 1062.2 573.119C1050.57 605.88 1056.31 648.715 1048.61 668.252C1030.69 713.662 976.1 732.896 974.38 781.681C973.432 808.555 989.539 887.791 989.539 887.791C989.539 887.791 983.854 816.906 989.539 791.612C1000.7 741.968 1040.71 732.669 1062.2 686.547C1071.25 667.118 1071.02 571.133 1105.14 518.757Z" fill="#FEDA00"/>
<path d="M306.779 558.007C273.464 482.388 181.427 387.556 181.427 387.556C181.427 387.556 231.291 429.823 247.041 442.414C299.066 484.006 320.489 521.272 330.282 541.843C346.754 576.444 363.579 623.558 363.578 669.292C363.578 715.723 361.967 721.439 363.578 767.152C364.466 792.334 429.192 855.906 429.192 855.906C429.192 855.906 357.641 796.241 352.316 772.539C341.865 726.021 347.725 716.686 342.523 669.292C337.136 620.211 325.946 601.514 306.779 558.007Z" fill="#FEDA00"/>
<path d="M319.946 795.271C313.476 783.359 312.105 749.795 312.105 749.795C312.105 749.795 299.869 790.761 306.355 807.293C313.578 825.703 333.262 840.302 348.172 853.292C361.441 864.853 378.444 880.611 388.421 895.109C403.15 916.512 393.125 946.857 393.125 946.857C393.125 946.857 410.42 911.918 396.784 887.268C388.538 872.362 373.886 856.373 361.762 844.406C346.456 829.297 330.21 814.171 319.946 795.271Z" fill="#F0F8FF"/>
<path d="M1263.44 162.268C1266.06 137.223 1275.98 99.0195 1275.98 99.0195C1275.98 99.0195 1256.76 136.452 1249.85 162.268C1236.06 213.732 1268.17 248.665 1249.85 298.695C1231.57 348.617 1178.83 346.933 1171.44 399.579C1169.51 413.325 1156.81 459.168 1156.81 459.168C1156.81 459.168 1174.16 416.214 1182.94 402.715C1212.66 357.03 1259.1 350.515 1275.98 298.695C1292.56 247.825 1257.88 215.481 1263.44 162.268Z" fill="#FEDA00"/>
<path d="M139.087 157.563C129.148 108.982 85.248 42.5667 85.248 42.5667C85.248 42.5667 140.209 107.043 153.201 157.563C166.84 210.6 143.265 243.01 146.928 297.65C148.398 319.58 153.201 353.58 153.201 353.58C153.201 353.58 136.562 320.454 130.724 297.65C117.133 244.557 150.073 211.256 139.087 157.563Z" fill="#FEDA00"/>
</g>
<defs>
<clipPath id="clip0_1079_65">
<rect width="1405" height="1684" fill="white"/>
</clipPath>
<clipPath id="clip1_1079_65">
<rect width="766.295" height="486.122" fill="white" transform="translate(335.104 1004.88)"/>
</clipPath>
</defs>
</svg>
