<svg width="1405" height="1684" viewBox="0 0 1405 1684" fill="none" xmlns="http://www.w3.org/2000/svg">
<g clip-path="url(#clip0_1079_65)">
<rect x="520" y="271" width="4" height="40" fill="black" fill-opacity="0.12"/>
<rect x="635" y="266" width="4" height="40" fill="black" fill-opacity="0.12"/>
<rect x="755" y="271" width="4" height="40" fill="black" fill-opacity="0.12"/>
<path d="M423 1168.59C395.338 1193.94 369.604 1248.46 369.604 1248.46C369.604 1248.46 402.214 1192.56 434.471 1168.59C464.57 1146.22 492.004 1152.2 522.675 1130.63C553.422 1109 666.512 1152.14 697.343 1130.63C752.686 1092.02 790.329 1096.88 857.816 1096.88C969.676 1096.88 857.816 1112.56 990.062 956.266C1032.47 906.147 978.476 858.893 1009.92 808.862C1044.42 753.977 1050.42 771.757 1093.56 692.297C1111.48 659.291 1103.03 601.981 1117.6 567.369C1138.51 517.711 1148.93 522.351 1166.74 492.099C1217.81 405.335 1261.46 408.723 1300.55 315.945C1320.1 269.556 1279.88 156.496 1300.55 100.588C1318.46 52.1407 1381.57 -3.95459 1381.57 -3.95459H722.956H22C22 -3.95459 93.9012 79.8371 111.906 145.541C129.494 209.722 94.4362 251.732 111.906 315.945C133.801 396.422 232.653 492.099 232.653 492.099C232.653 492.099 337.718 603.071 327.263 728.886C318.351 836.148 447.547 841.775 423 932.743C369.604 1130.63 531.597 1083.62 482.726 1130.63C462.81 1149.79 443.373 1149.92 423 1168.59Z" fill="white"/>
<path d="M1019.86 541.233L1096.56 418.396L1113.42 348.876L1177.91 306.536L1189.74 176.381L1259.26 91.1789L1205.03 119.405L1259.26 -5H114.52L168.359 57.7254L202.205 119.405H168.359L213.835 208.266L244.675 280.923L193.972 259.492L244.675 348.876L302.696 373.443L320.991 440.873L383.716 549.074L412.988 619.64L383.716 596.641L405.148 650.48L412.988 737.25L451.669 805.203L483.554 898.768L443.828 876.814L460.555 947.38L451.669 1005.4L518.053 1055.06L892.315 1035.72L952.426 932.222H920.541L961.312 865.314L929.427 888.836L942.495 737.25L1013.06 660.412L1042.33 596.641L1019.86 619.64V541.233Z" fill="#DDEFFF"/>
<path d="M1031.88 835.52C1040.91 809.959 1073.7 780.113 1073.7 780.113C1073.7 780.113 1044.93 812.017 1039.2 835.52C1028.78 878.234 1052.85 894.635 1042.86 937.449C1033.99 975.435 1019.86 990.243 998.425 1023.17C968.001 1069.92 964.971 1142.87 964.971 1142.87L938.313 1102.63C938.313 1102.63 947.722 1042.51 974.903 1011.15C1009.3 971.467 1020.16 966.948 1031.88 929.085C1044 889.924 1018.22 874.173 1031.88 835.52Z" fill="white"/>
<g clip-path="url(#clip1_1079_65)">
<path d="M718.268 1490.97C929.883 1490.97 1101.43 1468.56 1101.43 1440.93C1101.43 1413.29 929.883 1390.89 718.268 1390.89C506.652 1390.89 335.104 1413.29 335.104 1440.93C335.104 1468.56 506.652 1490.97 718.268 1490.97Z" fill="#ECEDEB"/>
<path d="M986.221 1205.07C986.221 1205.07 982.029 1043.86 924.956 1025.8C866.916 1007.36 804.716 1008.94 744.386 1011.65C687.603 1014.23 630.401 1012.68 573.747 1016.42C511.418 1020.55 488.299 1049.15 474.563 1106.7C467.095 1138.98 462.989 1171.95 462.31 1205.07L448.412 1246.73H1000.12L986.221 1205.07Z" fill="#439F03"/>
<path d="M509.548 1224.58V1188.44C509.548 1188.44 508.161 1162.06 477.593 1159.42C447.025 1156.77 363.512 1221.81 365.027 1235.7C366.543 1249.6 381.73 1348.23 391.436 1352.42C401.141 1356.61 426.195 1376.02 448.412 1364.93C470.629 1353.84 509.548 1224.58 509.548 1224.58Z" fill="#58CC02"/>
<path d="M927.793 1224.58V1188.44C927.793 1188.44 929.212 1162.06 959.78 1159.42C990.348 1156.77 1073.73 1221.97 1072.35 1235.86C1070.96 1249.76 1055.64 1348.39 1045.94 1352.58C1036.23 1356.77 1011.21 1375.96 989.058 1364.93C966.906 1353.9 927.793 1224.58 927.793 1224.58Z" fill="#58CC02"/>
<path d="M509.548 1224.58C507.284 1226.91 504.848 1229.06 502.26 1231.03C483.559 1246.44 435.901 1282.87 435.901 1282.87H1004.28L927.794 1220.42L509.548 1224.58Z" fill="#204B03"/>
<path d="M435.901 1282.91V1340.36H1003.86L1004.28 1282.91H435.901Z" fill="#439F03"/>
<path d="M417.844 1396.88L400.045 1452.6C399.675 1453.71 399.576 1454.89 399.755 1456.05C399.934 1457.2 400.386 1458.3 401.073 1459.24C401.76 1460.19 402.663 1460.96 403.707 1461.48C404.751 1462.01 405.905 1462.28 407.074 1462.27C408.265 1462.26 409.435 1461.96 410.485 1461.4C411.535 1460.84 412.433 1460.03 413.104 1459.05L455.377 1398.27L417.844 1396.88Z" fill="#B57053"/>
<path d="M1022.27 1396.88L1040.04 1452.6C1040.41 1453.71 1040.52 1454.89 1040.34 1456.04C1040.17 1457.2 1039.72 1458.3 1039.04 1459.24C1038.35 1460.19 1037.45 1460.96 1036.41 1461.49C1035.36 1462.01 1034.21 1462.28 1033.04 1462.27C1031.85 1462.26 1030.68 1461.96 1029.63 1461.4C1028.58 1460.84 1027.68 1460.03 1027.01 1459.05L984.737 1398.27L1022.27 1396.88Z" fill="#B57053"/>
<path d="M1058.26 1219.36C1049.03 1214.84 1038.62 1214.17 1026.01 1220.42C1001.02 1232.9 1003.79 1282.94 1003.79 1282.94V1338.52H435.901V1282.94C435.901 1282.94 438.674 1232.9 413.684 1220.42C401.173 1214.17 390.758 1214.84 381.44 1219.36C373.697 1223.4 367.409 1229.75 363.455 1237.54C359.501 1245.33 358.078 1254.15 359.384 1262.79C363.318 1291.81 370.702 1341.94 377.441 1362.13C387.115 1391.31 387.115 1396.88 408.009 1403.82C426.098 1409.85 658.486 1405.43 719.815 1404.14C781.08 1405.43 1013.5 1409.85 1031.59 1403.82C1052.42 1396.88 1052.42 1391.31 1062.16 1362.13C1068.9 1341.94 1076.28 1291.74 1080.21 1262.79C1081.53 1254.16 1080.12 1245.34 1076.18 1237.56C1072.25 1229.77 1065.98 1223.41 1058.26 1219.36Z" fill="#337804"/>
<path d="M593.481 1230.22L584.484 1152.84C584.484 1152.84 639.3 1136.52 668.514 1135.72C697.728 1134.91 733.745 1134.07 736.228 1134.07C738.711 1134.07 758.251 1214 758.251 1214C758.251 1214 688.925 1222.97 651.392 1228.71C613.859 1234.45 593.481 1230.22 593.481 1230.22Z" fill="#FEDA00"/>
<path d="M735.615 1222.81L751.093 1146.17C751.093 1146.17 790.238 1141.26 819.613 1146.17C848.988 1151.07 914.896 1177.15 914.896 1177.15L897.774 1254.53C897.774 1254.53 834.155 1252.89 797.461 1244.86C775.843 1240.11 754.585 1233.85 733.842 1226.13" fill="#FEDA00"/>
<path d="M913.445 1205.49C913.445 1205.49 942.723 1193.59 947.302 1190.85C951.88 1188.11 956.459 1189.92 954.621 1197.3C952.783 1204.69 937.241 1224.77 930.825 1229.35C924.408 1233.93 920.764 1233.9 913.445 1240.31C906.125 1246.73 895.13 1255.89 895.13 1255.89L867.689 1238.48L913.445 1205.49Z" fill="#DECBB6"/>
<path d="M926.246 1242.09C926.246 1242.09 972.001 1223.77 979.321 1219.19C986.64 1214.62 982.061 1223.77 976.58 1239.35C971.098 1254.92 960.103 1273.2 950.784 1279.59C941.465 1285.97 918.765 1281.42 918.765 1281.42L926.246 1242.09Z" fill="#DECBB6"/>
<path d="M672.803 1210.07C672.803 1210.07 771.6 1170.7 788.883 1170.7C806.167 1170.7 913.316 1205.49 913.316 1205.49C906.6 1214.53 899.263 1223.08 891.357 1231.09C883.102 1238.41 867.56 1242.09 867.56 1242.09C867.56 1242.09 786.11 1213.71 758.67 1213.71C731.23 1213.71 685.475 1217.39 685.475 1217.39C685.475 1217.39 658.937 1216.45 656.197 1216.45C653.456 1216.45 672.803 1210.07 672.803 1210.07Z" fill="#1D1D1D"/>
<path d="M527.315 1268.62C527.315 1268.62 606.927 1287.97 638.946 1287.97C670.965 1287.97 724.942 1266.01 747.836 1264.17C770.73 1262.34 917.088 1290.71 923.505 1290.71C929.922 1290.71 928.987 1276.97 930.825 1263.27C932.663 1249.57 932.663 1243.92 926.246 1242.22C919.829 1240.51 891.486 1238.54 833.833 1214.78C776.179 1191.01 749.642 1196.46 724.942 1201.04C700.243 1205.62 638.946 1212.94 638.946 1212.94L616.987 1202.88C616.987 1202.88 584.033 1204.69 571.232 1212C558.431 1219.32 523.639 1267.82 523.639 1267.82L527.315 1268.62Z" fill="#1D1D1D"/>
<path d="M459.987 1107.89C459.987 1107.89 435.514 1100.54 417.553 1097.29C399.593 1094.03 387.405 1094.84 386.566 1103.73C385.728 1112.63 398.819 1186.92 404.527 1214.65C410.234 1242.38 431.419 1265.21 443.672 1266.82C455.925 1268.43 504.001 1265.21 504.001 1256.24C504.001 1247.28 459.987 1107.89 459.987 1107.89Z" fill="#FEDA00"/>
<path d="M423.261 1221.19C409.879 1192.85 393.467 1102.96 392.338 1096.77C390.776 1097.21 389.386 1098.11 388.354 1099.36C387.322 1100.61 386.698 1102.15 386.566 1103.77C385.76 1112.73 398.819 1186.95 404.527 1214.68C410.234 1242.41 431.419 1265.24 443.672 1266.85C449.118 1267.35 454.594 1267.42 460.052 1267.08C444.66 1254.58 432.116 1238.93 423.261 1221.19Z" fill="#FF832E"/>
<path d="M612.86 1095.71C612.86 1095.71 621.276 1101.61 621.695 1106.67C622.114 1111.73 607.378 1121.4 607.378 1122.79C607.378 1124.18 616.213 1154.77 618.309 1162.8C619.309 1166.3 619.489 1169.98 618.834 1173.56C618.18 1177.14 616.709 1180.52 614.536 1183.44C610.732 1187.66 599.801 1184.7 596.415 1179.63C593.029 1174.57 588.418 1171.22 589.966 1161.96C591.514 1152.71 596.415 1124.47 597.124 1121.92C597.834 1119.37 612.86 1095.71 612.86 1095.71Z" fill="#EA9476"/>
<path d="M521.511 1106.25C528.032 1108.26 534.153 1111.39 539.6 1115.5C548.467 1122.27 593.545 1161 593.545 1161L593.964 1177.12L521.059 1113.08L521.511 1106.25Z" fill="#58CC02"/>
<path d="M459.601 1113.08C459.601 1113.08 443.124 1124.05 442.221 1135.94C441.318 1147.84 509.935 1272.27 516.384 1275.94C522.832 1279.62 533.763 1275.01 535.73 1271.36C537.697 1267.72 584.097 1219.19 594.287 1214.65C604.476 1210.1 624.5 1212.81 623.565 1202.75C622.63 1192.69 529.314 1113.08 523.832 1107.57C518.35 1102.06 486.332 1098.45 479.012 1100.25C471.692 1102.06 459.601 1113.08 459.601 1113.08Z" fill="#CEFF8A"/>
<path d="M498.069 1100.96L508.871 1109.6L514.449 1123.82L508.419 1115.63L508.871 1129.43L495.07 1116.92L498.069 1100.96Z" fill="#58CC02"/>
<path d="M459.601 1080.13C460.957 1082.64 461.741 1085.42 461.897 1088.27C462.053 1091.12 461.577 1093.97 460.503 1096.61L457.021 1105.77L503.679 1126.79L497.23 1095.71L459.601 1080.13Z" fill="#EA9476"/>
<path d="M497.102 1038.96C497.102 1038.96 508.097 1027.06 503.55 1016.1C499.004 1005.14 486.171 1003.2 486.171 1006.04V1014.26C486.171 1014.26 469.694 1005.1 469.694 1007.81C470.054 1010.16 470.996 1012.37 472.434 1014.26C472.434 1014.26 451.379 1007.81 454.152 1015.16C456.503 1020.16 460.33 1024.31 465.115 1027.06C460.486 1025.34 455.379 1025.41 450.804 1027.28C446.23 1029.14 442.522 1032.65 440.415 1037.12C436.977 1043.66 435.575 1051.07 436.391 1058.41C437.208 1065.75 440.204 1072.67 444.994 1078.29C451.443 1084.74 460.536 1096.61 460.536 1096.61L487.074 1079.23L481.592 1044.44L497.102 1038.96Z" fill="#1D1D1D"/>
<path d="M501.68 1032.54C501.68 1032.54 516.319 1080.13 516.319 1089.29C516.319 1098.45 503.421 1101.19 490.717 1100.25C482.577 1099.35 475.066 1095.44 469.661 1089.29C469.661 1089.29 448.605 1080.13 448.605 1070.98C448.605 1061.82 456.86 1056.34 460.504 1060.92C462.953 1064.24 464.807 1067.96 465.985 1071.91L476.078 1070.98L473.305 1061.85C474.074 1060.81 474.565 1059.6 474.728 1058.31C474.892 1057.03 474.724 1055.73 474.24 1054.53C471.517 1050.32 468.454 1046.34 465.082 1042.63C465.082 1042.63 477.884 1028 501.68 1032.54Z" fill="#F6BA99"/>
<path d="M455.022 1099.35L492.523 1111.21L509 1131.37L449.508 1113.05L455.022 1099.35Z" fill="#58CC02"/>
<path d="M455.022 1123.14C455.022 1123.14 440.383 1113.08 427.582 1124.98C414.781 1136.88 467.823 1242.09 467.823 1242.09L491.62 1200.01L457.763 1129.53" fill="#58CC02"/>
<path d="M588.612 1128.63L601.413 1081.04L621.534 1072.81L602.316 1136.85L588.612 1128.63Z" fill="#1D1D1D"/>
<path d="M500.777 1202.75L569.394 1155.16C569.394 1155.16 572.135 1131.37 573.973 1128.63C575.811 1125.88 584.936 1114.89 591.353 1113.08C597.769 1111.28 605.089 1099.35 605.089 1107.57C605.089 1115.79 598.64 1122.21 598.64 1125.88C598.64 1129.56 602.316 1135.94 596.802 1147.84C591.288 1159.74 574.843 1170.7 573.038 1173.47C571.232 1176.25 530.023 1227.45 515.384 1237.51C500.745 1247.57 487.944 1264.04 484.268 1249.41C480.592 1234.77 500.777 1202.75 500.777 1202.75Z" fill="#F6BA99"/>
<path d="M509 1198.17C509 1198.17 501.68 1222.87 494.361 1235.67C487.041 1248.47 490.717 1255.02 484.301 1255.82C477.884 1256.63 457.763 1249.37 460.504 1233.83C463.245 1218.29 479.851 1191.76 488.879 1189.92C497.908 1188.08 507.162 1188.11 509 1198.17Z" fill="#58CC02"/>
<path d="M554.141 1262.05C606.83 1227.76 614.775 1145.31 612.162 1108.38C612.162 1108.38 619.479 1148.1 612.162 1187.83C604.844 1227.55 590.933 1268.78 554.141 1303.35C510.245 1344.59 479.393 1357.19 408.304 1353.53C337.215 1349.87 353.419 1271.46 353.419 1271.46C353.42 1319.73 488.279 1304.91 554.141 1262.05Z" fill="white"/>
<path d="M399.397 1330.53C483.031 1330.53 553.074 1287.14 553.074 1287.14C553.074 1287.14 473.1 1347.78 399.397 1347.78C359.088 1347.78 350.785 1301.78 350.785 1301.78C350.785 1301.78 362.999 1330.53 399.397 1330.53Z" fill="#FEDA00"/>
</g>
<path d="M1105.14 518.757C1118.65 498.013 1145.83 483.735 1145.83 483.735C1145.83 483.735 1118.79 493.87 1105.14 505.689C1080.28 527.213 1073.19 542.13 1062.2 573.119C1050.57 605.88 1056.31 648.715 1048.61 668.252C1030.69 713.662 976.1 732.896 974.38 781.681C973.432 808.555 989.539 887.791 989.539 887.791C989.539 887.791 983.854 816.906 989.539 791.612C1000.7 741.968 1040.71 732.669 1062.2 686.547C1071.25 667.118 1071.02 571.133 1105.14 518.757Z" fill="#FEDA00"/>
<path d="M306.779 558.007C273.464 482.388 181.427 387.556 181.427 387.556C181.427 387.556 231.291 429.823 247.041 442.414C299.066 484.006 320.489 521.272 330.282 541.843C346.754 576.444 363.579 623.558 363.578 669.292C363.578 715.723 361.967 721.439 363.578 767.152C364.466 792.334 429.192 855.906 429.192 855.906C429.192 855.906 357.641 796.241 352.316 772.539C341.865 726.021 347.725 716.686 342.523 669.292C337.136 620.211 325.946 601.514 306.779 558.007Z" fill="#FEDA00"/>
<path d="M319.946 795.271C313.476 783.359 312.105 749.795 312.105 749.795C312.105 749.795 299.869 790.761 306.355 807.293C313.578 825.703 333.262 840.302 348.172 853.292C361.441 864.853 378.444 880.611 388.421 895.109C403.15 916.512 393.125 946.857 393.125 946.857C393.125 946.857 410.42 911.918 396.784 887.268C388.538 872.362 373.886 856.373 361.762 844.406C346.456 829.297 330.21 814.171 319.946 795.271Z" fill="white"/>
<path d="M1263.44 162.268C1266.06 137.223 1275.98 99.0195 1275.98 99.0195C1275.98 99.0195 1256.76 136.452 1249.85 162.268C1236.06 213.732 1268.17 248.665 1249.85 298.695C1231.57 348.617 1178.83 346.933 1171.44 399.579C1169.51 413.325 1156.81 459.168 1156.81 459.168C1156.81 459.168 1174.16 416.214 1182.94 402.715C1212.66 357.03 1259.1 350.515 1275.98 298.695C1292.56 247.825 1257.88 215.481 1263.44 162.268Z" fill="#FEDA00"/>
<path d="M139.087 157.563C129.148 108.982 85.248 42.5667 85.248 42.5667C85.248 42.5667 140.209 107.043 153.201 157.563C166.84 210.6 143.265 243.01 146.928 297.65C148.398 319.58 153.201 353.58 153.201 353.58C153.201 353.58 136.562 320.454 130.724 297.65C117.133 244.557 150.073 211.256 139.087 157.563Z" fill="#FEDA00"/>
<rect x="542" y="693" width="320" height="71" rx="14" fill="white"/>
<rect x="555" y="708" width="3" height="41" rx="1.5" fill="#58CC02"/>
<path d="M575.934 725H572.91L578.184 712.94H582.036L587.346 725H584.25L580.938 717.278L580.2 715.406H580.002L579.264 717.278L575.934 725ZM584.286 722.336H575.79V719.906H584.286V722.336ZM604.428 725H601.728V720.284C601.728 719.54 601.578 719.012 601.278 718.7C600.978 718.388 600.438 718.232 599.658 718.232C598.842 718.232 598.284 718.406 597.984 718.754C597.696 719.102 597.552 719.666 597.552 720.446H597.21L596.994 718.754H597.516C597.588 718.238 597.744 717.758 597.984 717.314C598.236 716.87 598.602 716.51 599.082 716.234C599.574 715.946 600.204 715.802 600.972 715.802C601.752 715.802 602.394 715.958 602.898 716.27C603.414 716.582 603.798 717.008 604.05 717.548C604.302 718.088 604.428 718.7 604.428 719.384V725ZM590.676 725H587.976V715.982H590.478V718.79L590.676 718.88V725ZM597.552 725H594.852V720.284C594.852 719.54 594.702 719.012 594.402 718.7C594.102 718.388 593.562 718.232 592.782 718.232C591.954 718.232 591.396 718.406 591.108 718.754C590.82 719.102 590.676 719.666 590.676 720.446H590.334L590.136 718.718H590.622C590.706 718.214 590.868 717.746 591.108 717.314C591.348 716.87 591.702 716.51 592.17 716.234C592.638 715.946 593.25 715.802 594.006 715.802C594.786 715.802 595.422 715.964 595.914 716.288C596.418 716.612 596.79 717.044 597.03 717.584C597.27 718.124 597.39 718.724 597.39 719.384H597.552V725ZM612.064 725.18C611.02 725.18 610.198 724.958 609.598 724.514C609.01 724.058 608.632 723.386 608.464 722.498H607.96L608.158 720.554H608.5C608.5 721.07 608.596 721.49 608.788 721.814C608.992 722.126 609.286 722.354 609.67 722.498C610.066 722.642 610.552 722.714 611.128 722.714C611.716 722.714 612.196 722.642 612.568 722.498C612.94 722.354 613.216 722.12 613.396 721.796C613.576 721.472 613.666 721.04 613.666 720.5C613.666 719.936 613.576 719.498 613.396 719.186C613.216 718.862 612.94 718.628 612.568 718.484C612.196 718.34 611.722 718.268 611.146 718.268C610.27 718.268 609.61 718.43 609.166 718.754C608.722 719.078 608.5 719.63 608.5 720.41H608.158V718.376H608.644C608.8 717.62 609.16 717.002 609.724 716.522C610.3 716.042 611.122 715.802 612.19 715.802C613.09 715.802 613.852 715.994 614.476 716.378C615.1 716.762 615.574 717.308 615.898 718.016C616.234 718.712 616.402 719.54 616.402 720.5C616.402 721.448 616.234 722.276 615.898 722.984C615.574 723.68 615.088 724.22 614.44 724.604C613.792 724.988 613 725.18 612.064 725.18ZM608.302 725H605.8V712.94H608.5V722.102L608.302 722.336V725ZM620.225 725H617.525V715.982H620.225V725ZM620.225 715.064H617.525V712.94H620.225V715.064ZM624.338 725H621.638V712.94H624.338V725ZM634.001 725.18C632.789 725.18 631.757 725.024 630.905 724.712C630.053 724.388 629.405 723.914 628.961 723.29C628.517 722.654 628.295 721.868 628.295 720.932V720.824H630.995V721.148C630.995 721.52 631.073 721.82 631.229 722.048C631.397 722.276 631.697 722.444 632.129 722.552C632.561 722.66 633.185 722.714 634.001 722.714C634.721 722.714 635.273 722.678 635.657 722.606C636.041 722.522 636.305 722.396 636.449 722.228C636.593 722.06 636.665 721.844 636.665 721.58C636.665 721.208 636.539 720.938 636.287 720.77C636.047 720.602 635.621 720.464 635.009 720.356L631.625 719.87C630.905 719.75 630.287 719.552 629.771 719.276C629.267 719 628.877 718.634 628.601 718.178C628.325 717.71 628.187 717.146 628.187 716.486C628.187 716.03 628.283 715.58 628.475 715.136C628.679 714.692 628.997 714.296 629.429 713.948C629.861 713.588 630.425 713.3 631.121 713.084C631.829 712.868 632.693 712.76 633.713 712.76C634.949 712.76 635.963 712.94 636.755 713.3C637.559 713.648 638.159 714.146 638.555 714.794C638.951 715.43 639.149 716.168 639.149 717.008V717.116H636.431V716.864C636.431 716.48 636.347 716.168 636.179 715.928C636.023 715.688 635.729 715.514 635.297 715.406C634.865 715.286 634.247 715.226 633.443 715.226C632.795 715.226 632.285 715.268 631.913 715.352C631.553 715.436 631.295 715.562 631.139 715.73C630.983 715.898 630.905 716.114 630.905 716.378C630.905 716.606 630.953 716.798 631.049 716.954C631.145 717.098 631.295 717.212 631.499 717.296C631.703 717.38 631.973 717.452 632.309 717.512L635.693 718.052C636.593 718.196 637.307 718.43 637.835 718.754C638.375 719.078 638.765 719.474 639.005 719.942C639.245 720.398 639.365 720.902 639.365 721.454C639.365 722.102 639.185 722.714 638.825 723.29C638.465 723.854 637.889 724.31 637.097 724.658C636.305 725.006 635.273 725.18 634.001 725.18ZM644.19 725.18C643.35 725.18 642.648 725.024 642.084 724.712C641.532 724.388 641.118 723.956 640.842 723.416C640.578 722.876 640.446 722.27 640.446 721.598V715.982H643.146V720.698C643.146 721.418 643.32 721.946 643.668 722.282C644.016 722.606 644.616 722.768 645.468 722.768C646.356 722.768 646.974 722.594 647.322 722.246C647.682 721.886 647.862 721.322 647.862 720.554L648.204 720.536L648.402 722.246H647.898C647.826 722.75 647.646 723.224 647.358 723.668C647.082 724.112 646.68 724.478 646.152 724.766C645.636 725.042 644.982 725.18 644.19 725.18ZM650.562 725H648.042V722.21L647.862 722.12V715.982H650.562V725ZM654.643 725H651.943V715.982H654.445V718.556L654.643 718.646V725ZM654.643 719.78H654.103V718.376H654.607C654.691 717.884 654.853 717.446 655.093 717.062C655.345 716.666 655.681 716.36 656.101 716.144C656.521 715.916 657.031 715.802 657.631 715.802C658.315 715.802 658.861 715.946 659.269 716.234C659.689 716.51 659.995 716.888 660.187 717.368C660.379 717.836 660.475 718.364 660.475 718.952V720.446H657.775V719.51C657.775 719.006 657.661 718.646 657.433 718.43C657.217 718.202 656.833 718.088 656.281 718.088C655.681 718.088 655.255 718.226 655.003 718.502C654.763 718.778 654.643 719.204 654.643 719.78ZM670.56 725H668.04V722.858L667.896 722.822V719.672C667.896 719.084 667.746 718.688 667.446 718.484C667.158 718.28 666.654 718.178 665.934 718.178C665.25 718.178 664.758 718.28 664.458 718.484C664.158 718.688 664.008 719.048 664.008 719.564V719.636H661.29V719.582C661.29 718.838 661.488 718.184 661.884 717.62C662.28 717.044 662.838 716.6 663.558 716.288C664.29 715.964 665.148 715.802 666.132 715.802C667.14 715.802 667.968 715.964 668.616 716.288C669.276 716.612 669.762 717.068 670.074 717.656C670.398 718.232 670.56 718.916 670.56 719.708V725ZM664.224 725.18C663.252 725.18 662.49 724.964 661.938 724.532C661.386 724.1 661.11 723.512 661.11 722.768C661.11 722.312 661.218 721.922 661.434 721.598C661.65 721.274 661.974 721.016 662.406 720.824C662.838 720.62 663.378 720.482 664.026 720.41L668.076 719.996V721.544L664.764 721.922C664.44 721.946 664.2 722.012 664.044 722.12C663.9 722.216 663.828 722.372 663.828 722.588C663.828 722.828 663.924 723.002 664.116 723.11C664.308 723.218 664.602 723.272 664.998 723.272C665.646 723.272 666.18 723.212 666.6 723.092C667.02 722.972 667.338 722.78 667.554 722.516C667.782 722.24 667.896 721.874 667.896 721.418L668.148 721.4V722.93H667.896C667.692 723.626 667.278 724.178 666.654 724.586C666.042 724.982 665.232 725.18 664.224 725.18ZM678.283 725H676.051C674.995 725 674.167 724.742 673.567 724.226C672.967 723.71 672.667 722.882 672.667 721.742V714.236H675.367V721.436C675.367 721.892 675.463 722.198 675.655 722.354C675.859 722.498 676.195 722.57 676.663 722.57H678.283V725ZM678.283 718.214H671.245V715.982H678.283V718.214Z" fill="#1D1D1D"/>
<path d="M580.42 739.636C580.42 740.557 580.254 741.352 579.922 742.023C579.589 742.693 579.134 743.21 578.554 743.574C577.974 743.938 577.313 744.119 576.568 744.119C575.824 744.119 575.162 743.938 574.582 743.574C574.003 743.21 573.547 742.693 573.214 742.023C572.882 741.352 572.716 740.557 572.716 739.636C572.716 738.716 572.882 737.92 573.214 737.25C573.547 736.58 574.003 736.062 574.582 735.699C575.162 735.335 575.824 735.153 576.568 735.153C577.313 735.153 577.974 735.335 578.554 735.699C579.134 736.062 579.589 736.58 579.922 737.25C580.254 737.92 580.42 738.716 580.42 739.636ZM579.398 739.636C579.398 738.881 579.271 738.243 579.018 737.723C578.768 737.203 578.429 736.81 578 736.543C577.574 736.276 577.097 736.142 576.568 736.142C576.04 736.142 575.561 736.276 575.132 736.543C574.706 736.81 574.366 737.203 574.114 737.723C573.864 738.243 573.739 738.881 573.739 739.636C573.739 740.392 573.864 741.03 574.114 741.55C574.366 742.07 574.706 742.463 575.132 742.73C575.561 742.997 576.04 743.131 576.568 743.131C577.097 743.131 577.574 742.997 578 742.73C578.429 742.463 578.768 742.07 579.018 741.55C579.271 741.03 579.398 740.392 579.398 739.636ZM583.067 740.062V744H582.061V737.455H583.033V738.477H583.118C583.271 738.145 583.504 737.878 583.817 737.676C584.129 737.472 584.533 737.369 585.027 737.369C585.47 737.369 585.858 737.46 586.19 737.642C586.523 737.821 586.781 738.094 586.966 738.46C587.151 738.824 587.243 739.284 587.243 739.841V744H586.237V739.909C586.237 739.395 586.104 738.994 585.837 738.707C585.57 738.418 585.203 738.273 584.737 738.273C584.416 738.273 584.129 738.342 583.876 738.482C583.626 738.621 583.429 738.824 583.284 739.091C583.139 739.358 583.067 739.682 583.067 740.062ZM590.086 735.273V744H589.081V735.273H590.086ZM592.576 746.455C592.406 746.455 592.254 746.44 592.12 746.412C591.987 746.386 591.894 746.361 591.843 746.335L592.099 745.449C592.343 745.511 592.559 745.534 592.746 745.517C592.934 745.5 593.1 745.416 593.245 745.266C593.393 745.118 593.528 744.878 593.65 744.545L593.837 744.034L591.417 737.455H592.508L594.315 742.67H594.383L596.19 737.455H597.281L594.502 744.955C594.377 745.293 594.222 745.572 594.038 745.794C593.853 746.018 593.638 746.185 593.394 746.293C593.153 746.401 592.88 746.455 592.576 746.455ZM609.483 739.636C609.483 740.557 609.317 741.352 608.984 742.023C608.652 742.693 608.196 743.21 607.616 743.574C607.037 743.938 606.375 744.119 605.631 744.119C604.886 744.119 604.224 743.938 603.645 743.574C603.065 743.21 602.609 742.693 602.277 742.023C601.945 741.352 601.778 740.557 601.778 739.636C601.778 738.716 601.945 737.92 602.277 737.25C602.609 736.58 603.065 736.062 603.645 735.699C604.224 735.335 604.886 735.153 605.631 735.153C606.375 735.153 607.037 735.335 607.616 735.699C608.196 736.062 608.652 736.58 608.984 737.25C609.317 737.92 609.483 738.716 609.483 739.636ZM608.46 739.636C608.46 738.881 608.334 738.243 608.081 737.723C607.831 737.203 607.491 736.81 607.062 736.543C606.636 736.276 606.159 736.142 605.631 736.142C605.102 736.142 604.624 736.276 604.195 736.543C603.768 736.81 603.429 737.203 603.176 737.723C602.926 738.243 602.801 738.881 602.801 739.636C602.801 740.392 602.926 741.03 603.176 741.55C603.429 742.07 603.768 742.463 604.195 742.73C604.624 742.997 605.102 743.131 605.631 743.131C606.159 743.131 606.636 742.997 607.062 742.73C607.491 742.463 607.831 742.07 608.081 741.55C608.334 741.03 608.46 740.392 608.46 739.636ZM612.129 740.062V744H611.124V737.455H612.095V738.477H612.18C612.334 738.145 612.567 737.878 612.879 737.676C613.192 737.472 613.595 737.369 614.089 737.369C614.533 737.369 614.92 737.46 615.253 737.642C615.585 737.821 615.844 738.094 616.028 738.46C616.213 738.824 616.305 739.284 616.305 739.841V744H615.3V739.909C615.3 739.395 615.166 738.994 614.899 738.707C614.632 738.418 614.266 738.273 613.8 738.273C613.479 738.273 613.192 738.342 612.939 738.482C612.689 738.621 612.491 738.824 612.347 739.091C612.202 739.358 612.129 739.682 612.129 740.062ZM620.802 744.136C620.189 744.136 619.66 743.991 619.217 743.702C618.774 743.412 618.433 743.013 618.194 742.504C617.956 741.996 617.836 741.415 617.836 740.761C617.836 740.097 617.958 739.51 618.203 739.001C618.45 738.49 618.794 738.091 619.234 737.804C619.677 737.514 620.194 737.369 620.785 737.369C621.245 737.369 621.66 737.455 622.029 737.625C622.399 737.795 622.701 738.034 622.937 738.341C623.173 738.648 623.319 739.006 623.376 739.415H622.37C622.294 739.116 622.123 738.852 621.859 738.622C621.598 738.389 621.245 738.273 620.802 738.273C620.41 738.273 620.066 738.375 619.771 738.58C619.478 738.781 619.25 739.067 619.085 739.436C618.923 739.803 618.842 740.233 618.842 740.727C618.842 741.233 618.922 741.673 619.081 742.048C619.243 742.423 619.47 742.714 619.762 742.922C620.058 743.129 620.404 743.233 620.802 743.233C621.064 743.233 621.301 743.188 621.514 743.097C621.727 743.006 621.907 742.875 622.055 742.705C622.203 742.534 622.308 742.33 622.37 742.091H623.376C623.319 742.477 623.179 742.825 622.954 743.135C622.733 743.442 622.439 743.686 622.072 743.868C621.708 744.047 621.285 744.136 620.802 744.136ZM627.591 744.136C626.96 744.136 626.416 743.997 625.958 743.719C625.504 743.438 625.153 743.045 624.906 742.543C624.662 742.037 624.539 741.449 624.539 740.778C624.539 740.108 624.662 739.517 624.906 739.006C625.153 738.491 625.497 738.091 625.937 737.804C626.38 737.514 626.897 737.369 627.488 737.369C627.829 737.369 628.166 737.426 628.498 737.54C628.831 737.653 629.133 737.838 629.406 738.094C629.679 738.347 629.896 738.682 630.058 739.099C630.22 739.517 630.301 740.031 630.301 740.642V741.068H625.255V740.199H629.278C629.278 739.83 629.204 739.5 629.056 739.21C628.912 738.92 628.704 738.692 628.434 738.524C628.167 738.357 627.852 738.273 627.488 738.273C627.088 738.273 626.741 738.372 626.449 738.571C626.159 738.767 625.936 739.023 625.779 739.338C625.623 739.653 625.545 739.991 625.545 740.352V740.932C625.545 741.426 625.63 741.845 625.801 742.189C625.974 742.53 626.214 742.79 626.521 742.969C626.828 743.145 627.184 743.233 627.591 743.233C627.855 743.233 628.093 743.196 628.306 743.122C628.522 743.045 628.708 742.932 628.865 742.781C629.021 742.628 629.142 742.437 629.227 742.21L630.199 742.483C630.096 742.812 629.924 743.102 629.683 743.352C629.441 743.599 629.143 743.793 628.788 743.932C628.433 744.068 628.034 744.136 627.591 744.136Z" fill="#9CA3AF"/>
<path d="M807.001 720.529L816.76 726.059C820.359 728.097 821.878 728.097 825.477 726.059L835.236 720.529" stroke="#58CC02" stroke-width="2" stroke-linejoin="round"/>
<path d="M807.024 731.083C807.115 735.41 807.162 737.574 808.759 739.177C810.355 740.78 812.578 740.836 817.023 740.947C819.762 741.018 822.475 741.018 825.214 740.947C829.66 740.836 831.882 740.78 833.479 739.177C835.075 737.574 835.122 735.41 835.215 731.083C835.243 729.691 835.243 728.308 835.215 726.916C835.122 722.589 835.075 720.424 833.479 718.822C831.882 717.218 829.66 717.163 825.214 717.052C822.484 716.983 819.753 716.983 817.023 717.052C812.578 717.163 810.355 717.218 808.759 718.822C807.162 720.424 807.115 722.589 807.022 726.916C806.993 728.305 806.994 729.694 807.024 731.083Z" stroke="#58CC02" stroke-width="2" stroke-linejoin="round"/>
<rect x="542" y="782" width="320" height="71" rx="14" fill="white"/>
<rect x="555" y="797" width="3" height="41" rx="1.5" fill="#FEDA00"/>
<path d="M579.894 814.18C578.574 814.18 577.428 813.928 576.456 813.424C575.496 812.908 574.752 812.188 574.224 811.264C573.708 810.328 573.45 809.23 573.45 807.97C573.45 806.71 573.708 805.618 574.224 804.694C574.752 803.758 575.496 803.038 576.456 802.534C577.428 802.018 578.574 801.76 579.894 801.76C581.154 801.76 582.24 801.958 583.152 802.354C584.076 802.75 584.79 803.314 585.294 804.046C585.798 804.778 586.05 805.66 586.05 806.692V806.962H583.044V806.692C583.044 805.9 582.798 805.312 582.306 804.928C581.826 804.544 581.04 804.352 579.948 804.352C579.072 804.352 578.364 804.472 577.824 804.712C577.296 804.94 576.912 805.318 576.672 805.846C576.432 806.362 576.312 807.07 576.312 807.97C576.312 808.858 576.432 809.566 576.672 810.094C576.912 810.622 577.296 811.006 577.824 811.246C578.364 811.474 579.072 811.588 579.948 811.588C581.04 811.588 581.826 811.396 582.306 811.012C582.798 810.628 583.044 810.04 583.044 809.248V808.978H586.05V809.248C586.05 810.268 585.798 811.15 585.294 811.894C584.79 812.626 584.076 813.19 583.152 813.586C582.24 813.982 581.154 814.18 579.894 814.18ZM592.008 814.18C591.012 814.18 590.13 814.012 589.362 813.676C588.594 813.34 588 812.824 587.58 812.128C587.16 811.432 586.95 810.556 586.95 809.5C586.95 808.54 587.16 807.712 587.58 807.016C588 806.308 588.582 805.762 589.326 805.378C590.082 804.994 590.958 804.802 591.954 804.802C592.938 804.802 593.796 804.97 594.528 805.306C595.272 805.642 595.848 806.14 596.256 806.8C596.664 807.448 596.868 808.24 596.868 809.176C596.868 809.332 596.862 809.476 596.85 809.608C596.838 809.74 596.82 809.884 596.796 810.04H588.696V808.618H594.888L594.276 809.5C594.276 809.38 594.276 809.266 594.276 809.158C594.276 809.05 594.276 808.942 594.276 808.834C594.276 808.15 594.09 807.658 593.718 807.358C593.346 807.058 592.74 806.908 591.9 806.908C590.988 806.908 590.352 807.088 589.992 807.448C589.632 807.796 589.452 808.354 589.452 809.122V809.806C589.452 810.574 589.632 811.138 589.992 811.498C590.352 811.846 590.994 812.02 591.918 812.02C592.71 812.02 593.268 811.918 593.592 811.714C593.916 811.51 594.078 811.216 594.078 810.832V810.652H596.778V810.85C596.778 811.498 596.58 812.074 596.184 812.578C595.788 813.082 595.23 813.478 594.51 813.766C593.802 814.042 592.968 814.18 592.008 814.18ZM608.219 814H605.033L602.783 810.742H599.471V808.33H602.765L605.069 804.982H608.273L604.979 809.338L608.219 814ZM600.713 814H598.013V801.94H600.713V814ZM617.178 814.18C615.966 814.18 614.934 814.024 614.082 813.712C613.23 813.388 612.582 812.914 612.138 812.29C611.694 811.654 611.472 810.868 611.472 809.932V809.824H614.172V810.148C614.172 810.52 614.25 810.82 614.406 811.048C614.574 811.276 614.874 811.444 615.306 811.552C615.738 811.66 616.362 811.714 617.178 811.714C617.898 811.714 618.45 811.678 618.834 811.606C619.218 811.522 619.482 811.396 619.626 811.228C619.77 811.06 619.842 810.844 619.842 810.58C619.842 810.208 619.716 809.938 619.464 809.77C619.224 809.602 618.798 809.464 618.186 809.356L614.802 808.87C614.082 808.75 613.464 808.552 612.948 808.276C612.444 808 612.054 807.634 611.778 807.178C611.502 806.71 611.364 806.146 611.364 805.486C611.364 805.03 611.46 804.58 611.652 804.136C611.856 803.692 612.174 803.296 612.606 802.948C613.038 802.588 613.602 802.3 614.298 802.084C615.006 801.868 615.87 801.76 616.89 801.76C618.126 801.76 619.14 801.94 619.932 802.3C620.736 802.648 621.336 803.146 621.732 803.794C622.128 804.43 622.326 805.168 622.326 806.008V806.116H619.608V805.864C619.608 805.48 619.524 805.168 619.356 804.928C619.2 804.688 618.906 804.514 618.474 804.406C618.042 804.286 617.424 804.226 616.62 804.226C615.972 804.226 615.462 804.268 615.09 804.352C614.73 804.436 614.472 804.562 614.316 804.73C614.16 804.898 614.082 805.114 614.082 805.378C614.082 805.606 614.13 805.798 614.226 805.954C614.322 806.098 614.472 806.212 614.676 806.296C614.88 806.38 615.15 806.452 615.486 806.512L618.87 807.052C619.77 807.196 620.484 807.43 621.012 807.754C621.552 808.078 621.942 808.474 622.182 808.942C622.422 809.398 622.542 809.902 622.542 810.454C622.542 811.102 622.362 811.714 622.002 812.29C621.642 812.854 621.066 813.31 620.274 813.658C619.482 814.006 618.45 814.18 617.178 814.18ZM629.996 814H627.764C626.708 814 625.88 813.742 625.28 813.226C624.68 812.71 624.38 811.882 624.38 810.742V803.236H627.08V810.436C627.08 810.892 627.176 811.198 627.368 811.354C627.572 811.498 627.908 811.57 628.376 811.57H629.996V814ZM629.996 807.214H622.958V804.982H629.996V807.214ZM640.115 814H637.595V811.858L637.451 811.822V808.672C637.451 808.084 637.301 807.688 637.001 807.484C636.713 807.28 636.209 807.178 635.489 807.178C634.805 807.178 634.313 807.28 634.013 807.484C633.713 807.688 633.563 808.048 633.563 808.564V808.636H630.845V808.582C630.845 807.838 631.043 807.184 631.439 806.62C631.835 806.044 632.393 805.6 633.113 805.288C633.845 804.964 634.703 804.802 635.687 804.802C636.695 804.802 637.523 804.964 638.171 805.288C638.831 805.612 639.317 806.068 639.629 806.656C639.953 807.232 640.115 807.916 640.115 808.708V814ZM633.779 814.18C632.807 814.18 632.045 813.964 631.493 813.532C630.941 813.1 630.665 812.512 630.665 811.768C630.665 811.312 630.773 810.922 630.989 810.598C631.205 810.274 631.529 810.016 631.961 809.824C632.393 809.62 632.933 809.482 633.581 809.41L637.631 808.996V810.544L634.319 810.922C633.995 810.946 633.755 811.012 633.599 811.12C633.455 811.216 633.383 811.372 633.383 811.588C633.383 811.828 633.479 812.002 633.671 812.11C633.863 812.218 634.157 812.272 634.553 812.272C635.201 812.272 635.735 812.212 636.155 812.092C636.575 811.972 636.893 811.78 637.109 811.516C637.337 811.24 637.451 810.874 637.451 810.418L637.703 810.4V811.93H637.451C637.247 812.626 636.833 813.178 636.209 813.586C635.597 813.982 634.787 814.18 633.779 814.18ZM647.838 814H645.606C644.55 814 643.722 813.742 643.122 813.226C642.522 812.71 642.222 811.882 642.222 810.742V803.236H644.922V810.436C644.922 810.892 645.018 811.198 645.21 811.354C645.414 811.498 645.75 811.57 646.218 811.57H647.838V814ZM647.838 807.214H640.8V804.982H647.838V807.214ZM652.575 814.18C651.735 814.18 651.033 814.024 650.469 813.712C649.917 813.388 649.503 812.956 649.227 812.416C648.963 811.876 648.831 811.27 648.831 810.598V804.982H651.531V809.698C651.531 810.418 651.705 810.946 652.053 811.282C652.401 811.606 653.001 811.768 653.853 811.768C654.741 811.768 655.359 811.594 655.707 811.246C656.067 810.886 656.247 810.322 656.247 809.554L656.589 809.536L656.787 811.246H656.283C656.211 811.75 656.031 812.224 655.743 812.668C655.467 813.112 655.065 813.478 654.537 813.766C654.021 814.042 653.367 814.18 652.575 814.18ZM658.947 814H656.427V811.21L656.247 811.12V804.982H658.947V814ZM664.881 814.18C663.369 814.18 662.205 813.898 661.389 813.334C660.573 812.758 660.165 811.948 660.165 810.904V810.85H662.865V811.012C662.865 811.42 663.009 811.696 663.297 811.84C663.597 811.972 664.131 812.038 664.899 812.038C665.619 812.038 666.093 811.978 666.321 811.858C666.561 811.726 666.681 811.528 666.681 811.264C666.681 811.012 666.591 810.838 666.411 810.742C666.231 810.634 665.877 810.544 665.349 810.472L662.811 810.166C661.911 810.07 661.215 809.818 660.723 809.41C660.243 809.002 660.003 808.414 660.003 807.646C660.003 807.118 660.159 806.644 660.471 806.224C660.783 805.792 661.263 805.45 661.911 805.198C662.571 804.934 663.417 804.802 664.449 804.802C665.433 804.802 666.267 804.928 666.951 805.18C667.647 805.42 668.175 805.786 668.535 806.278C668.895 806.77 669.075 807.382 669.075 808.114V808.168H666.375V808.06C666.375 807.808 666.321 807.604 666.213 807.448C666.117 807.28 665.919 807.154 665.619 807.07C665.331 806.986 664.911 806.944 664.359 806.944C663.687 806.944 663.237 807.01 663.009 807.142C662.781 807.262 662.667 807.466 662.667 807.754C662.667 807.982 662.757 808.156 662.937 808.276C663.129 808.384 663.519 808.48 664.107 808.564L666.033 808.798C667.233 808.93 668.085 809.206 668.589 809.626C669.093 810.046 669.345 810.628 669.345 811.372C669.345 811.936 669.165 812.428 668.805 812.848C668.445 813.268 667.935 813.598 667.275 813.838C666.615 814.066 665.817 814.18 664.881 814.18Z" fill="#1D1D1D"/>
<path d="M573.057 833V824.273H576.006C576.688 824.273 577.247 824.389 577.685 824.622C578.122 824.852 578.446 825.169 578.656 825.572C578.866 825.976 578.972 826.435 578.972 826.949C578.972 827.463 578.866 827.919 578.656 828.317C578.446 828.714 578.124 829.027 577.689 829.254C577.254 829.479 576.699 829.591 576.023 829.591H573.636V828.636H575.989C576.455 828.636 576.83 828.568 577.114 828.432C577.401 828.295 577.608 828.102 577.736 827.852C577.866 827.599 577.932 827.298 577.932 826.949C577.932 826.599 577.866 826.294 577.736 826.033C577.605 825.771 577.396 825.57 577.109 825.428C576.822 825.283 576.443 825.21 575.972 825.21H574.114V833H573.057ZM577.165 829.08L579.312 833H578.085L575.972 829.08H577.165ZM583.27 833.136C582.64 833.136 582.096 832.997 581.638 832.719C581.184 832.438 580.833 832.045 580.586 831.543C580.341 831.037 580.219 830.449 580.219 829.778C580.219 829.108 580.341 828.517 580.586 828.006C580.833 827.491 581.176 827.091 581.617 826.804C582.06 826.514 582.577 826.369 583.168 826.369C583.509 826.369 583.846 826.426 584.178 826.54C584.51 826.653 584.813 826.838 585.086 827.094C585.358 827.347 585.576 827.682 585.738 828.099C585.9 828.517 585.98 829.031 585.98 829.642V830.068H580.935V829.199H584.958C584.958 828.83 584.884 828.5 584.736 828.21C584.591 827.92 584.384 827.692 584.114 827.524C583.847 827.357 583.532 827.273 583.168 827.273C582.767 827.273 582.421 827.372 582.128 827.571C581.838 827.767 581.615 828.023 581.459 828.338C581.303 828.653 581.225 828.991 581.225 829.352V829.932C581.225 830.426 581.31 830.845 581.48 831.189C581.654 831.53 581.894 831.79 582.201 831.969C582.507 832.145 582.864 832.233 583.27 832.233C583.534 832.233 583.773 832.196 583.986 832.122C584.202 832.045 584.388 831.932 584.544 831.781C584.701 831.628 584.821 831.437 584.907 831.21L585.878 831.483C585.776 831.812 585.604 832.102 585.363 832.352C585.121 832.599 584.823 832.793 584.468 832.932C584.113 833.068 583.713 833.136 583.27 833.136ZM589.436 833.153C589.022 833.153 588.645 833.075 588.307 832.919C587.969 832.76 587.701 832.531 587.502 832.233C587.303 831.932 587.203 831.568 587.203 831.142C587.203 830.767 587.277 830.463 587.425 830.23C587.573 829.994 587.77 829.81 588.017 829.676C588.265 829.543 588.537 829.443 588.836 829.378C589.137 829.31 589.439 829.256 589.743 829.216C590.141 829.165 590.463 829.126 590.711 829.101C590.961 829.072 591.142 829.026 591.256 828.96C591.373 828.895 591.431 828.781 591.431 828.619V828.585C591.431 828.165 591.316 827.838 591.086 827.605C590.858 827.372 590.513 827.256 590.05 827.256C589.57 827.256 589.194 827.361 588.921 827.571C588.648 827.781 588.456 828.006 588.346 828.244L587.391 827.903C587.561 827.506 587.789 827.196 588.073 826.974C588.36 826.75 588.672 826.594 589.01 826.506C589.351 826.415 589.686 826.369 590.016 826.369C590.226 826.369 590.468 826.395 590.74 826.446C591.016 826.494 591.282 826.595 591.537 826.749C591.796 826.902 592.01 827.134 592.181 827.443C592.351 827.753 592.436 828.168 592.436 828.688V833H591.431V832.114H591.38C591.311 832.256 591.198 832.408 591.039 832.57C590.88 832.732 590.668 832.869 590.404 832.983C590.14 833.097 589.817 833.153 589.436 833.153ZM589.59 832.25C589.988 832.25 590.323 832.172 590.596 832.016C590.871 831.859 591.078 831.658 591.218 831.411C591.36 831.163 591.431 830.903 591.431 830.631V829.71C591.388 829.761 591.294 829.808 591.15 829.851C591.007 829.891 590.843 829.926 590.655 829.957C590.471 829.986 590.29 830.011 590.114 830.034C589.941 830.054 589.8 830.071 589.692 830.085C589.431 830.119 589.186 830.175 588.959 830.251C588.735 830.325 588.553 830.437 588.414 830.588C588.277 830.736 588.209 830.937 588.209 831.193C588.209 831.543 588.338 831.807 588.597 831.986C588.858 832.162 589.189 832.25 589.59 832.25ZM595.278 824.273V833H594.272V824.273H595.278ZM600.87 828.79V829.727H597.051V828.79H600.87ZM605.486 826.455V827.307H602.094V826.455H605.486ZM603.082 824.886H604.088V831.125C604.088 831.409 604.129 831.622 604.212 831.764C604.297 831.903 604.405 831.997 604.536 832.045C604.669 832.091 604.81 832.114 604.957 832.114C605.068 832.114 605.159 832.108 605.23 832.097C605.301 832.082 605.358 832.071 605.401 832.062L605.605 832.966C605.537 832.991 605.442 833.017 605.32 833.043C605.197 833.071 605.043 833.085 604.855 833.085C604.571 833.085 604.293 833.024 604.02 832.902C603.75 832.78 603.526 832.594 603.347 832.344C603.17 832.094 603.082 831.778 603.082 831.398V824.886ZM606.999 833V826.455H608.004V833H606.999ZM607.51 825.364C607.314 825.364 607.145 825.297 607.003 825.163C606.864 825.03 606.794 824.869 606.794 824.682C606.794 824.494 606.864 824.334 607.003 824.2C607.145 824.067 607.314 824 607.51 824C607.706 824 607.874 824.067 608.013 824.2C608.155 824.334 608.226 824.494 608.226 824.682C608.226 824.869 608.155 825.03 608.013 825.163C607.874 825.297 607.706 825.364 607.51 825.364ZM609.846 833V826.455H610.818V827.477H610.903C611.039 827.128 611.26 826.857 611.564 826.663C611.868 826.467 612.233 826.369 612.659 826.369C613.091 826.369 613.45 826.467 613.737 826.663C614.027 826.857 614.252 827.128 614.414 827.477H614.483C614.65 827.139 614.902 826.871 615.237 826.672C615.572 826.47 615.974 826.369 616.443 826.369C617.028 826.369 617.507 826.553 617.879 826.919C618.251 827.283 618.437 827.849 618.437 828.619V833H617.431V828.619C617.431 828.136 617.299 827.791 617.035 827.584C616.771 827.376 616.46 827.273 616.102 827.273C615.642 827.273 615.285 827.412 615.032 827.69C614.779 827.966 614.653 828.315 614.653 828.739V833H613.63V828.517C613.63 828.145 613.51 827.845 613.268 827.618C613.027 827.388 612.716 827.273 612.335 827.273C612.074 827.273 611.829 827.342 611.602 827.482C611.377 827.621 611.196 827.814 611.056 828.061C610.92 828.305 610.852 828.588 610.852 828.909V833H609.846ZM623.02 833.136C622.39 833.136 621.846 832.997 621.388 832.719C620.934 832.438 620.583 832.045 620.336 831.543C620.091 831.037 619.969 830.449 619.969 829.778C619.969 829.108 620.091 828.517 620.336 828.006C620.583 827.491 620.926 827.091 621.367 826.804C621.81 826.514 622.327 826.369 622.918 826.369C623.259 826.369 623.596 826.426 623.928 826.54C624.26 826.653 624.563 826.838 624.836 827.094C625.108 827.347 625.326 827.682 625.488 828.099C625.65 828.517 625.73 829.031 625.73 829.642V830.068H620.685V829.199H624.708C624.708 828.83 624.634 828.5 624.486 828.21C624.341 827.92 624.134 827.692 623.864 827.524C623.597 827.357 623.282 827.273 622.918 827.273C622.517 827.273 622.171 827.372 621.878 827.571C621.588 827.767 621.365 828.023 621.209 828.338C621.053 828.653 620.975 828.991 620.975 829.352V829.932C620.975 830.426 621.06 830.845 621.23 831.189C621.404 831.53 621.644 831.79 621.951 831.969C622.257 832.145 622.614 832.233 623.02 832.233C623.284 832.233 623.523 832.196 623.736 832.122C623.952 832.045 624.138 831.932 624.294 831.781C624.451 831.628 624.571 831.437 624.657 831.21L625.628 831.483C625.526 831.812 625.354 832.102 625.113 832.352C624.871 832.599 624.573 832.793 624.218 832.932C623.863 833.068 623.463 833.136 623.02 833.136ZM630.294 825.21V824.273H636.84V825.21H634.096V833H633.039V825.21H630.294ZM637.655 833V826.455H638.626V827.443H638.695C638.814 827.119 639.03 826.857 639.342 826.655C639.655 826.453 640.007 826.352 640.399 826.352C640.473 826.352 640.565 826.354 640.676 826.357C640.787 826.359 640.871 826.364 640.928 826.369V827.392C640.893 827.384 640.815 827.371 640.693 827.354C640.574 827.334 640.447 827.324 640.314 827.324C639.996 827.324 639.712 827.391 639.462 827.524C639.214 827.655 639.018 827.837 638.874 828.07C638.732 828.3 638.661 828.562 638.661 828.858V833H637.655ZM644.046 833.153C643.631 833.153 643.255 833.075 642.917 832.919C642.578 832.76 642.31 832.531 642.111 832.233C641.912 831.932 641.813 831.568 641.813 831.142C641.813 830.767 641.887 830.463 642.034 830.23C642.182 829.994 642.38 829.81 642.627 829.676C642.874 829.543 643.147 829.443 643.445 829.378C643.746 829.31 644.049 829.256 644.353 829.216C644.75 829.165 645.073 829.126 645.32 829.101C645.57 829.072 645.752 829.026 645.865 828.96C645.982 828.895 646.04 828.781 646.04 828.619V828.585C646.04 828.165 645.925 827.838 645.695 827.605C645.468 827.372 645.123 827.256 644.659 827.256C644.179 827.256 643.803 827.361 643.53 827.571C643.257 827.781 643.066 828.006 642.955 828.244L642 827.903C642.171 827.506 642.398 827.196 642.682 826.974C642.969 826.75 643.282 826.594 643.62 826.506C643.961 826.415 644.296 826.369 644.625 826.369C644.836 826.369 645.077 826.395 645.35 826.446C645.625 826.494 645.891 826.595 646.147 826.749C646.405 826.902 646.62 827.134 646.79 827.443C646.961 827.753 647.046 828.168 647.046 828.688V833H646.04V832.114H645.989C645.921 832.256 645.807 832.408 645.648 832.57C645.489 832.732 645.277 832.869 645.013 832.983C644.749 833.097 644.426 833.153 644.046 833.153ZM644.199 832.25C644.597 832.25 644.932 832.172 645.205 832.016C645.48 831.859 645.688 831.658 645.827 831.411C645.969 831.163 646.04 830.903 646.04 830.631V829.71C645.998 829.761 645.904 829.808 645.759 829.851C645.617 829.891 645.452 829.926 645.265 829.957C645.08 829.986 644.9 830.011 644.723 830.034C644.55 830.054 644.409 830.071 644.301 830.085C644.04 830.119 643.796 830.175 643.569 830.251C643.344 830.325 643.162 830.437 643.023 830.588C642.887 830.736 642.819 830.937 642.819 831.193C642.819 831.543 642.948 831.807 643.206 831.986C643.468 832.162 643.799 832.25 644.199 832.25ZM651.54 833.136C650.927 833.136 650.398 832.991 649.955 832.702C649.512 832.412 649.171 832.013 648.933 831.504C648.694 830.996 648.575 830.415 648.575 829.761C648.575 829.097 648.697 828.51 648.941 828.001C649.188 827.49 649.532 827.091 649.972 826.804C650.415 826.514 650.933 826.369 651.523 826.369C651.984 826.369 652.398 826.455 652.768 826.625C653.137 826.795 653.44 827.034 653.675 827.341C653.911 827.648 654.058 828.006 654.114 828.415H653.109C653.032 828.116 652.862 827.852 652.597 827.622C652.336 827.389 651.984 827.273 651.54 827.273C651.148 827.273 650.805 827.375 650.509 827.58C650.217 827.781 649.988 828.067 649.823 828.436C649.661 828.803 649.58 829.233 649.58 829.727C649.58 830.233 649.66 830.673 649.819 831.048C649.981 831.423 650.208 831.714 650.501 831.922C650.796 832.129 651.143 832.233 651.54 832.233C651.802 832.233 652.039 832.188 652.252 832.097C652.465 832.006 652.646 831.875 652.793 831.705C652.941 831.534 653.046 831.33 653.109 831.091H654.114C654.058 831.477 653.917 831.825 653.692 832.135C653.471 832.442 653.177 832.686 652.81 832.868C652.447 833.047 652.023 833.136 651.54 833.136ZM656.522 830.614L656.505 829.369H656.71L659.573 826.455H660.817L657.766 829.54H657.681L656.522 830.614ZM655.585 833V824.273H656.59V833H655.585ZM659.744 833L657.187 829.761L657.903 829.062L661.022 833H659.744ZM662.112 833V826.455H663.118V833H662.112ZM662.623 825.364C662.427 825.364 662.258 825.297 662.116 825.163C661.977 825.03 661.907 824.869 661.907 824.682C661.907 824.494 661.977 824.334 662.116 824.2C662.258 824.067 662.427 824 662.623 824C662.819 824 662.987 824.067 663.126 824.2C663.268 824.334 663.339 824.494 663.339 824.682C663.339 824.869 663.268 825.03 663.126 825.163C662.987 825.297 662.819 825.364 662.623 825.364ZM665.965 829.062V833H664.96V826.455H665.931V827.477H666.016C666.17 827.145 666.403 826.878 666.715 826.676C667.028 826.472 667.431 826.369 667.925 826.369C668.369 826.369 668.756 826.46 669.089 826.642C669.421 826.821 669.68 827.094 669.864 827.46C670.049 827.824 670.141 828.284 670.141 828.841V833H669.136V828.909C669.136 828.395 669.002 827.994 668.735 827.707C668.468 827.418 668.102 827.273 667.636 827.273C667.315 827.273 667.028 827.342 666.775 827.482C666.525 827.621 666.327 827.824 666.183 828.091C666.038 828.358 665.965 828.682 665.965 829.062ZM674.621 835.591C674.135 835.591 673.718 835.528 673.368 835.403C673.019 835.281 672.728 835.119 672.495 834.918C672.265 834.719 672.081 834.506 671.945 834.278L672.746 833.716C672.837 833.835 672.952 833.972 673.091 834.125C673.23 834.281 673.421 834.416 673.662 834.53C673.907 834.646 674.226 834.705 674.621 834.705C675.15 834.705 675.586 834.577 675.929 834.321C676.273 834.065 676.445 833.665 676.445 833.119V831.79H676.36C676.286 831.909 676.181 832.057 676.044 832.233C675.911 832.406 675.718 832.561 675.465 832.697C675.215 832.831 674.877 832.898 674.451 832.898C673.922 832.898 673.448 832.773 673.027 832.523C672.61 832.273 672.279 831.909 672.034 831.432C671.793 830.955 671.672 830.375 671.672 829.693C671.672 829.023 671.79 828.439 672.026 827.942C672.262 827.442 672.59 827.055 673.01 826.783C673.431 826.507 673.917 826.369 674.468 826.369C674.894 826.369 675.232 826.44 675.482 826.582C675.735 826.722 675.928 826.881 676.061 827.06C676.198 827.236 676.303 827.381 676.377 827.494H676.479V826.455H677.451V833.188C677.451 833.75 677.323 834.207 677.067 834.56C676.814 834.915 676.473 835.175 676.044 835.339C675.618 835.507 675.144 835.591 674.621 835.591ZM674.587 831.994C674.99 831.994 675.331 831.902 675.61 831.717C675.888 831.533 676.1 831.267 676.245 830.92C676.39 830.574 676.462 830.159 676.462 829.676C676.462 829.205 676.391 828.788 676.249 828.428C676.107 828.067 675.897 827.784 675.618 827.58C675.34 827.375 674.996 827.273 674.587 827.273C674.161 827.273 673.806 827.381 673.522 827.597C673.24 827.812 673.029 828.102 672.887 828.466C672.748 828.83 672.678 829.233 672.678 829.676C672.678 830.131 672.749 830.533 672.891 830.882C673.036 831.229 673.249 831.501 673.53 831.7C673.814 831.896 674.167 831.994 674.587 831.994Z" fill="#9CA3AF"/>
<path fill-rule="evenodd" clip-rule="evenodd" d="M823.661 806.481C822.924 806.481 822.199 806.554 821.501 806.697C821.171 806.764 820.881 806.959 820.695 807.24C820.508 807.522 820.441 807.865 820.509 808.195C820.576 808.526 820.771 808.816 821.052 809.002C821.333 809.188 821.677 809.255 822.007 809.188C823.608 808.862 825.27 809.017 826.783 809.635C828.296 810.253 829.591 811.305 830.506 812.659C831.42 814.013 831.913 815.608 831.921 817.242C831.929 818.876 831.453 820.476 830.552 821.839C829.651 823.202 828.366 824.268 826.86 824.901C825.354 825.534 823.693 825.706 822.089 825.396C820.485 825.086 819.009 824.306 817.847 823.157C816.686 822.008 815.891 820.54 815.564 818.939C815.531 818.776 815.465 818.62 815.372 818.482C815.279 818.343 815.159 818.225 815.02 818.132C814.881 818.04 814.725 817.976 814.561 817.944C814.397 817.912 814.229 817.913 814.065 817.946C813.901 817.98 813.746 818.045 813.608 818.138C813.469 818.231 813.351 818.351 813.258 818.49C813.166 818.629 813.102 818.785 813.07 818.949C813.038 819.113 813.039 819.281 813.072 819.445C813.382 820.961 814.014 822.393 814.924 823.644L815.175 823.974L810.533 828.616C810.302 828.845 810.168 829.152 810.157 829.476C810.146 829.801 810.259 830.117 810.473 830.36C810.688 830.603 810.987 830.755 811.31 830.785C811.633 830.815 811.955 830.72 812.21 830.521L812.33 830.414L816.972 825.772C818.325 826.838 819.914 827.565 821.606 827.893C823.297 828.221 825.042 828.139 826.696 827.655C828.349 827.171 829.863 826.298 831.111 825.11C832.359 823.922 833.304 822.453 833.869 820.825C834.433 819.197 834.6 817.458 834.356 815.752C834.111 814.047 833.462 812.425 832.463 811.021C831.464 809.617 830.144 808.473 828.613 807.683C827.082 806.893 825.384 806.481 823.661 806.481ZM812.856 805.209C812.618 805.209 812.385 805.276 812.184 805.402C811.982 805.528 811.819 805.708 811.715 805.921L811.654 806.07L811.488 806.551C811.314 807.062 811.033 807.53 810.664 807.925C810.295 808.319 809.846 808.631 809.348 808.839L809.113 808.928L808.632 809.092C808.394 809.173 808.186 809.323 808.033 809.522C807.88 809.722 807.79 809.963 807.774 810.213C807.758 810.464 807.817 810.714 807.943 810.932C808.069 811.149 808.257 811.325 808.482 811.436L808.632 811.497L809.113 811.662C809.624 811.836 810.092 812.117 810.487 812.486C810.881 812.855 811.193 813.304 811.401 813.802L811.49 814.038L811.654 814.518C811.735 814.756 811.885 814.964 812.085 815.117C812.285 815.27 812.525 815.36 812.776 815.376C813.027 815.391 813.277 815.333 813.494 815.206C813.712 815.08 813.887 814.893 813.998 814.667L814.059 814.518L814.224 814.038C814.398 813.526 814.679 813.058 815.048 812.664C815.417 812.269 815.866 811.958 816.365 811.75L816.6 811.661L817.08 811.497C817.318 811.415 817.527 811.265 817.679 811.066C817.832 810.866 817.922 810.626 817.938 810.375C817.954 810.124 817.896 809.874 817.77 809.656C817.644 809.439 817.456 809.263 817.23 809.153L817.08 809.092L816.6 808.926C816.089 808.752 815.62 808.471 815.226 808.102C814.831 807.733 814.52 807.284 814.312 806.786L814.223 806.551L814.059 806.07C813.973 805.819 813.811 805.601 813.595 805.447C813.38 805.293 813.121 805.21 812.856 805.209ZM812.856 809.272C813.157 809.65 813.5 809.993 813.878 810.294C813.499 810.595 813.158 810.936 812.856 811.316C812.555 810.936 812.215 810.596 811.834 810.294C812.213 809.993 812.556 809.65 812.856 809.272Z" fill="#FEDA00"/>
<rect x="542" y="871" width="320" height="71" rx="14" fill="white"/>
<rect x="555" y="886" width="3" height="41" rx="1.5" fill="#58CC02"/>
<path d="M585.816 903H582.576L579.462 898.356H575.646V895.728H579.426L582.63 890.94H585.87L581.676 896.88L585.816 903ZM576.42 903H573.72V890.94H576.42V903ZM589.252 903H586.552V893.982H589.252V903ZM589.252 893.064H586.552V890.94H589.252V893.064ZM593.365 903H590.665V893.982H593.167V896.556L593.365 896.646V903ZM593.365 897.78H592.825V896.376H593.329C593.413 895.884 593.575 895.446 593.815 895.062C594.067 894.666 594.403 894.36 594.823 894.144C595.243 893.916 595.753 893.802 596.353 893.802C597.037 893.802 597.583 893.946 597.991 894.234C598.411 894.51 598.717 894.888 598.909 895.368C599.101 895.836 599.197 896.364 599.197 896.952V898.446H596.497V897.51C596.497 897.006 596.383 896.646 596.155 896.43C595.939 896.202 595.555 896.088 595.003 896.088C594.403 896.088 593.977 896.226 593.725 896.502C593.485 896.778 593.365 897.204 593.365 897.78ZM602.875 903H600.175V893.982H602.875V903ZM602.875 893.064H600.175V890.94H602.875V893.064ZM620.74 903H618.04V898.284C618.04 897.54 617.89 897.012 617.59 896.7C617.29 896.388 616.75 896.232 615.97 896.232C615.154 896.232 614.596 896.406 614.296 896.754C614.008 897.102 613.864 897.666 613.864 898.446H613.522L613.306 896.754H613.828C613.9 896.238 614.056 895.758 614.296 895.314C614.548 894.87 614.914 894.51 615.394 894.234C615.886 893.946 616.516 893.802 617.284 893.802C618.064 893.802 618.706 893.958 619.21 894.27C619.726 894.582 620.11 895.008 620.362 895.548C620.614 896.088 620.74 896.7 620.74 897.384V903ZM606.988 903H604.288V893.982H606.79V896.79L606.988 896.88V903ZM613.864 903H611.164V898.284C611.164 897.54 611.014 897.012 610.714 896.7C610.414 896.388 609.874 896.232 609.094 896.232C608.266 896.232 607.708 896.406 607.42 896.754C607.132 897.102 606.988 897.666 606.988 898.446H606.646L606.448 896.718H606.934C607.018 896.214 607.18 895.746 607.42 895.314C607.66 894.87 608.014 894.51 608.482 894.234C608.95 893.946 609.562 893.802 610.318 893.802C611.098 893.802 611.734 893.964 612.226 894.288C612.73 894.612 613.102 895.044 613.342 895.584C613.582 896.124 613.702 896.724 613.702 897.384H613.864V903ZM631.19 899.67H625.826V897.24H630.902C631.658 897.24 632.21 897.108 632.558 896.844C632.918 896.568 633.098 896.052 633.098 895.296C633.098 894.564 632.918 894.06 632.558 893.784C632.21 893.508 631.658 893.37 630.902 893.37H625.826V890.94H631.19C632.126 890.94 632.936 891.114 633.62 891.462C634.304 891.798 634.832 892.29 635.204 892.938C635.588 893.586 635.78 894.372 635.78 895.296C635.78 896.22 635.588 897.012 635.204 897.672C634.832 898.32 634.304 898.818 633.62 899.166C632.936 899.502 632.126 899.67 631.19 899.67ZM627.59 903H624.89V890.94H627.59V903ZM641.526 903.18C640.53 903.18 639.648 903.012 638.88 902.676C638.112 902.34 637.518 901.824 637.098 901.128C636.678 900.432 636.468 899.556 636.468 898.5C636.468 897.54 636.678 896.712 637.098 896.016C637.518 895.308 638.1 894.762 638.844 894.378C639.6 893.994 640.476 893.802 641.472 893.802C642.456 893.802 643.314 893.97 644.046 894.306C644.79 894.642 645.366 895.14 645.774 895.8C646.182 896.448 646.386 897.24 646.386 898.176C646.386 898.332 646.38 898.476 646.368 898.608C646.356 898.74 646.338 898.884 646.314 899.04H638.214V897.618H644.406L643.794 898.5C643.794 898.38 643.794 898.266 643.794 898.158C643.794 898.05 643.794 897.942 643.794 897.834C643.794 897.15 643.608 896.658 643.236 896.358C642.864 896.058 642.258 895.908 641.418 895.908C640.506 895.908 639.87 896.088 639.51 896.448C639.15 896.796 638.97 897.354 638.97 898.122V898.806C638.97 899.574 639.15 900.138 639.51 900.498C639.87 900.846 640.512 901.02 641.436 901.02C642.228 901.02 642.786 900.918 643.11 900.714C643.434 900.51 643.596 900.216 643.596 899.832V899.652H646.296V899.85C646.296 900.498 646.098 901.074 645.702 901.578C645.306 902.082 644.748 902.478 644.028 902.766C643.32 903.042 642.486 903.18 641.526 903.18ZM657.503 903H654.803V898.284C654.803 897.552 654.635 897.03 654.299 896.718C653.963 896.394 653.381 896.232 652.553 896.232C651.689 896.232 651.083 896.412 650.735 896.772C650.399 897.12 650.231 897.678 650.231 898.446H649.889L649.691 896.754H650.195C650.279 896.25 650.459 895.776 650.735 895.332C651.011 894.876 651.401 894.51 651.905 894.234C652.421 893.946 653.075 893.802 653.867 893.802C654.683 893.802 655.361 893.964 655.901 894.288C656.441 894.6 656.843 895.026 657.107 895.566C657.371 896.106 657.503 896.712 657.503 897.384V903ZM650.231 903H647.531V893.982H650.033V896.79L650.231 896.88V903ZM663.908 906.24C662.936 906.24 662.09 906.096 661.37 905.808C660.662 905.532 660.116 905.13 659.732 904.602C659.348 904.074 659.156 903.432 659.156 902.676H661.856C661.856 903 661.91 903.258 662.018 903.45C662.138 903.654 662.36 903.792 662.684 903.864C663.008 903.948 663.476 903.99 664.088 903.99C664.664 903.99 665.114 903.936 665.438 903.828C665.774 903.72 666.008 903.51 666.14 903.198C666.272 902.898 666.338 902.454 666.338 901.866V896.466L666.518 896.412V893.982H669.038V901.686C669.038 902.742 668.834 903.6 668.426 904.26C668.018 904.932 667.43 905.43 666.662 905.754C665.906 906.078 664.988 906.24 663.908 906.24ZM662.828 902.082C661.928 902.082 661.166 901.914 660.542 901.578C659.918 901.242 659.438 900.762 659.102 900.138C658.766 899.514 658.598 898.782 658.598 897.942C658.598 897.102 658.772 896.376 659.12 895.764C659.468 895.14 659.966 894.66 660.614 894.324C661.262 893.976 662.036 893.802 662.936 893.802C663.86 893.802 664.628 894 665.24 894.396C665.852 894.792 666.23 895.38 666.374 896.16H666.878L666.68 897.834H666.338C666.338 897.426 666.242 897.102 666.05 896.862C665.858 896.61 665.576 896.43 665.204 896.322C664.832 896.202 664.364 896.142 663.8 896.142C663.224 896.142 662.75 896.202 662.378 896.322C662.018 896.43 661.748 896.616 661.568 896.88C661.4 897.132 661.316 897.486 661.316 897.942C661.316 898.386 661.4 898.74 661.568 899.004C661.748 899.268 662.018 899.46 662.378 899.58C662.738 899.7 663.2 899.76 663.764 899.76C664.628 899.76 665.27 899.628 665.69 899.364C666.122 899.1 666.338 898.656 666.338 898.032H666.68V899.832H666.194C666.05 900.504 665.702 901.05 665.15 901.47C664.598 901.878 663.824 902.082 662.828 902.082ZM679.578 903H677.058V900.858L676.914 900.822V897.672C676.914 897.084 676.764 896.688 676.464 896.484C676.176 896.28 675.672 896.178 674.952 896.178C674.268 896.178 673.776 896.28 673.476 896.484C673.176 896.688 673.026 897.048 673.026 897.564V897.636H670.308V897.582C670.308 896.838 670.506 896.184 670.902 895.62C671.298 895.044 671.856 894.6 672.576 894.288C673.308 893.964 674.166 893.802 675.15 893.802C676.158 893.802 676.986 893.964 677.634 894.288C678.294 894.612 678.78 895.068 679.092 895.656C679.416 896.232 679.578 896.916 679.578 897.708V903ZM673.242 903.18C672.27 903.18 671.508 902.964 670.956 902.532C670.404 902.1 670.128 901.512 670.128 900.768C670.128 900.312 670.236 899.922 670.452 899.598C670.668 899.274 670.992 899.016 671.424 898.824C671.856 898.62 672.396 898.482 673.044 898.41L677.094 897.996V899.544L673.782 899.922C673.458 899.946 673.218 900.012 673.062 900.12C672.918 900.216 672.846 900.372 672.846 900.588C672.846 900.828 672.942 901.002 673.134 901.11C673.326 901.218 673.62 901.272 674.016 901.272C674.664 901.272 675.198 901.212 675.618 901.092C676.038 900.972 676.356 900.78 676.572 900.516C676.8 900.24 676.914 899.874 676.914 899.418L677.166 899.4V900.93H676.914C676.71 901.626 676.296 902.178 675.672 902.586C675.06 902.982 674.25 903.18 673.242 903.18ZM680.011 906.06H679.561V904.044H680.047C680.347 904.044 680.569 903.978 680.713 903.846C680.869 903.714 680.947 903.492 680.947 903.18V893.982H683.647V902.748C683.647 903.6 683.497 904.266 683.197 904.746C682.909 905.226 682.495 905.562 681.955 905.754C681.415 905.958 680.767 906.06 680.011 906.06ZM683.647 893.064H680.947V890.94H683.647V893.064ZM688.821 903.18C687.981 903.18 687.279 903.024 686.715 902.712C686.163 902.388 685.749 901.956 685.473 901.416C685.209 900.876 685.077 900.27 685.077 899.598V893.982H687.777V898.698C687.777 899.418 687.951 899.946 688.299 900.282C688.647 900.606 689.247 900.768 690.099 900.768C690.987 900.768 691.605 900.594 691.953 900.246C692.313 899.886 692.493 899.322 692.493 898.554L692.835 898.536L693.033 900.246H692.529C692.457 900.75 692.277 901.224 691.989 901.668C691.713 902.112 691.311 902.478 690.783 902.766C690.267 903.042 689.613 903.18 688.821 903.18ZM695.193 903H692.673V900.21L692.493 900.12V893.982H695.193V903ZM705.682 903H703.162V900.858L703.018 900.822V897.672C703.018 897.084 702.868 896.688 702.568 896.484C702.28 896.28 701.776 896.178 701.056 896.178C700.372 896.178 699.88 896.28 699.58 896.484C699.28 896.688 699.13 897.048 699.13 897.564V897.636H696.412V897.582C696.412 896.838 696.61 896.184 697.006 895.62C697.402 895.044 697.96 894.6 698.68 894.288C699.412 893.964 700.27 893.802 701.254 893.802C702.262 893.802 703.09 893.964 703.738 894.288C704.398 894.612 704.884 895.068 705.196 895.656C705.52 896.232 705.682 896.916 705.682 897.708V903ZM699.346 903.18C698.374 903.18 697.612 902.964 697.06 902.532C696.508 902.1 696.232 901.512 696.232 900.768C696.232 900.312 696.34 899.922 696.556 899.598C696.772 899.274 697.096 899.016 697.528 898.824C697.96 898.62 698.5 898.482 699.148 898.41L703.198 897.996V899.544L699.886 899.922C699.562 899.946 699.322 900.012 699.166 900.12C699.022 900.216 698.95 900.372 698.95 900.588C698.95 900.828 699.046 901.002 699.238 901.11C699.43 901.218 699.724 901.272 700.12 901.272C700.768 901.272 701.302 901.212 701.722 901.092C702.142 900.972 702.46 900.78 702.676 900.516C702.904 900.24 703.018 899.874 703.018 899.418L703.27 899.4V900.93H703.018C702.814 901.626 702.4 902.178 701.776 902.586C701.164 902.982 700.354 903.18 699.346 903.18ZM717.022 903H714.322V898.284C714.322 897.552 714.154 897.03 713.818 896.718C713.482 896.394 712.9 896.232 712.072 896.232C711.208 896.232 710.602 896.412 710.254 896.772C709.918 897.12 709.75 897.678 709.75 898.446H709.408L709.21 896.754H709.714C709.798 896.25 709.978 895.776 710.254 895.332C710.53 894.876 710.92 894.51 711.424 894.234C711.94 893.946 712.594 893.802 713.386 893.802C714.202 893.802 714.88 893.964 715.42 894.288C715.96 894.6 716.362 895.026 716.626 895.566C716.89 896.106 717.022 896.712 717.022 897.384V903ZM709.75 903H707.05V893.982H709.552V896.79L709.75 896.88V903Z" fill="#1D1D1D"/>
<path d="M573.057 922V913.273H578.29V914.21H574.114V917.159H577.898V918.097H574.114V922H573.057ZM582.142 922.136C581.551 922.136 581.033 921.996 580.587 921.714C580.143 921.433 579.797 921.04 579.547 920.534C579.3 920.028 579.176 919.437 579.176 918.761C579.176 918.08 579.3 917.484 579.547 916.976C579.797 916.467 580.143 916.072 580.587 915.791C581.033 915.51 581.551 915.369 582.142 915.369C582.733 915.369 583.25 915.51 583.693 915.791C584.139 916.072 584.486 916.467 584.733 916.976C584.983 917.484 585.108 918.08 585.108 918.761C585.108 919.437 584.983 920.028 584.733 920.534C584.486 921.04 584.139 921.433 583.693 921.714C583.25 921.996 582.733 922.136 582.142 922.136ZM582.142 921.233C582.591 921.233 582.96 921.118 583.25 920.888C583.54 920.658 583.754 920.355 583.893 919.98C584.033 919.605 584.102 919.199 584.102 918.761C584.102 918.324 584.033 917.916 583.893 917.538C583.754 917.161 583.54 916.855 583.25 916.622C582.96 916.389 582.591 916.273 582.142 916.273C581.693 916.273 581.324 916.389 581.034 916.622C580.744 916.855 580.53 917.161 580.391 917.538C580.251 917.916 580.182 918.324 580.182 918.761C580.182 919.199 580.251 919.605 580.391 919.98C580.53 920.355 580.744 920.658 581.034 920.888C581.324 921.118 581.693 921.233 582.142 921.233ZM586.643 922V915.455H587.615V916.443H587.683C587.802 916.119 588.018 915.857 588.331 915.655C588.643 915.453 588.995 915.352 589.387 915.352C589.461 915.352 589.554 915.354 589.664 915.357C589.775 915.359 589.859 915.364 589.916 915.369V916.392C589.882 916.384 589.804 916.371 589.681 916.354C589.562 916.334 589.436 916.324 589.302 916.324C588.984 916.324 588.7 916.391 588.45 916.524C588.203 916.655 588.007 916.837 587.862 917.07C587.72 917.3 587.649 917.562 587.649 917.858V922H586.643ZM591.108 922V915.455H592.08V916.477H592.165C592.301 916.128 592.521 915.857 592.825 915.663C593.129 915.467 593.494 915.369 593.92 915.369C594.352 915.369 594.712 915.467 594.999 915.663C595.288 915.857 595.514 916.128 595.676 916.477H595.744C595.912 916.139 596.163 915.871 596.499 915.672C596.834 915.47 597.236 915.369 597.705 915.369C598.29 915.369 598.768 915.553 599.141 915.919C599.513 916.283 599.699 916.849 599.699 917.619V922H598.693V917.619C598.693 917.136 598.561 916.791 598.297 916.584C598.033 916.376 597.722 916.273 597.364 916.273C596.903 916.273 596.547 916.412 596.294 916.69C596.041 916.966 595.915 917.315 595.915 917.739V922H594.892V917.517C594.892 917.145 594.771 916.845 594.53 916.618C594.288 916.388 593.977 916.273 593.597 916.273C593.335 916.273 593.091 916.342 592.864 916.482C592.639 916.621 592.457 916.814 592.318 917.061C592.182 917.305 592.114 917.588 592.114 917.909V922H591.108ZM605.663 919.324V915.455H606.668V922H605.663V920.892H605.594C605.441 921.224 605.202 921.507 604.879 921.74C604.555 921.97 604.146 922.085 603.651 922.085C603.242 922.085 602.879 921.996 602.56 921.817C602.242 921.635 601.992 921.362 601.81 920.999C601.629 920.632 601.538 920.17 601.538 919.614V915.455H602.543V919.545C602.543 920.023 602.677 920.403 602.944 920.688C603.214 920.972 603.558 921.114 603.975 921.114C604.225 921.114 604.479 921.05 604.738 920.922C604.999 920.794 605.218 920.598 605.394 920.334C605.573 920.07 605.663 919.733 605.663 919.324ZM609.516 913.273V922H608.51V913.273H609.516ZM611.358 922V915.455H612.364V922H611.358ZM611.869 914.364C611.673 914.364 611.504 914.297 611.362 914.163C611.223 914.03 611.153 913.869 611.153 913.682C611.153 913.494 611.223 913.334 611.362 913.2C611.504 913.067 611.673 913 611.869 913C612.065 913 612.233 913.067 612.372 913.2C612.514 913.334 612.585 913.494 612.585 913.682C612.585 913.869 612.514 914.03 612.372 914.163C612.233 914.297 612.065 914.364 611.869 914.364ZM614.206 922V915.455H615.177V916.443H615.245C615.365 916.119 615.581 915.857 615.893 915.655C616.206 915.453 616.558 915.352 616.95 915.352C617.024 915.352 617.116 915.354 617.227 915.357C617.338 915.359 617.422 915.364 617.478 915.369V916.392C617.444 916.384 617.366 916.371 617.244 916.354C617.125 916.334 616.998 916.324 616.865 916.324C616.547 916.324 616.262 916.391 616.012 916.524C615.765 916.655 615.569 916.837 615.424 917.07C615.282 917.3 615.211 917.562 615.211 917.858V922H614.206ZM624.875 922H622.182V913.273H624.994C625.841 913.273 626.565 913.447 627.168 913.797C627.77 914.143 628.232 914.642 628.553 915.293C628.874 915.94 629.034 916.716 629.034 917.619C629.034 918.528 628.872 919.311 628.548 919.967C628.224 920.621 627.753 921.124 627.134 921.476C626.514 921.825 625.761 922 624.875 922ZM623.239 921.062H624.807C625.528 921.062 626.126 920.923 626.601 920.645C627.075 920.366 627.429 919.97 627.662 919.456C627.895 918.942 628.011 918.33 628.011 917.619C628.011 916.915 627.896 916.308 627.666 915.8C627.436 915.288 627.092 914.896 626.635 914.624C626.178 914.348 625.608 914.21 624.926 914.21H623.239V921.062ZM630.67 922V915.455H631.676V922H630.67ZM631.182 914.364C630.986 914.364 630.817 914.297 630.675 914.163C630.536 914.03 630.466 913.869 630.466 913.682C630.466 913.494 630.536 913.334 630.675 913.2C630.817 913.067 630.986 913 631.182 913C631.378 913 631.545 913.067 631.685 913.2C631.827 913.334 631.898 913.494 631.898 913.682C631.898 913.869 631.827 914.03 631.685 914.163C631.545 914.297 631.378 914.364 631.182 914.364ZM636.16 924.591C635.674 924.591 635.257 924.528 634.907 924.403C634.558 924.281 634.267 924.119 634.034 923.918C633.804 923.719 633.62 923.506 633.484 923.278L634.285 922.716C634.376 922.835 634.491 922.972 634.63 923.125C634.77 923.281 634.96 923.416 635.201 923.53C635.446 923.646 635.765 923.705 636.16 923.705C636.689 923.705 637.125 923.577 637.468 923.321C637.812 923.065 637.984 922.665 637.984 922.119V920.79H637.899C637.825 920.909 637.72 921.057 637.583 921.233C637.45 921.406 637.257 921.561 637.004 921.697C636.754 921.831 636.416 921.898 635.99 921.898C635.461 921.898 634.987 921.773 634.566 921.523C634.149 921.273 633.818 920.909 633.574 920.432C633.332 919.955 633.211 919.375 633.211 918.693C633.211 918.023 633.329 917.439 633.565 916.942C633.801 916.442 634.129 916.055 634.549 915.783C634.97 915.507 635.456 915.369 636.007 915.369C636.433 915.369 636.771 915.44 637.021 915.582C637.274 915.722 637.467 915.881 637.6 916.06C637.737 916.236 637.842 916.381 637.916 916.494H638.018V915.455H638.99V922.188C638.99 922.75 638.862 923.207 638.606 923.56C638.353 923.915 638.012 924.175 637.583 924.339C637.157 924.507 636.683 924.591 636.16 924.591ZM636.126 920.994C636.529 920.994 636.87 920.902 637.149 920.717C637.427 920.533 637.639 920.267 637.784 919.92C637.929 919.574 638.001 919.159 638.001 918.676C638.001 918.205 637.93 917.788 637.788 917.428C637.646 917.067 637.436 916.784 637.157 916.58C636.879 916.375 636.535 916.273 636.126 916.273C635.7 916.273 635.345 916.381 635.061 916.597C634.779 916.812 634.568 917.102 634.426 917.466C634.287 917.83 634.217 918.233 634.217 918.676C634.217 919.131 634.288 919.533 634.43 919.882C634.575 920.229 634.788 920.501 635.069 920.7C635.353 920.896 635.706 920.994 636.126 920.994ZM640.831 922V915.455H641.836V922H640.831ZM641.342 914.364C641.146 914.364 640.977 914.297 640.835 914.163C640.696 914.03 640.626 913.869 640.626 913.682C640.626 913.494 640.696 913.334 640.835 913.2C640.977 913.067 641.146 913 641.342 913C641.538 913 641.706 913.067 641.845 913.2C641.987 913.334 642.058 913.494 642.058 913.682C642.058 913.869 641.987 914.03 641.845 914.163C641.706 914.297 641.538 914.364 641.342 914.364ZM646.525 915.455V916.307H643.133V915.455H646.525ZM644.121 913.886H645.127V920.125C645.127 920.409 645.168 920.622 645.251 920.764C645.336 920.903 645.444 920.997 645.575 921.045C645.708 921.091 645.849 921.114 645.996 921.114C646.107 921.114 646.198 921.108 646.269 921.097C646.34 921.082 646.397 921.071 646.44 921.062L646.644 921.966C646.576 921.991 646.481 922.017 646.359 922.043C646.237 922.071 646.082 922.085 645.894 922.085C645.61 922.085 645.332 922.024 645.059 921.902C644.789 921.78 644.565 921.594 644.386 921.344C644.21 921.094 644.121 920.778 644.121 920.398V913.886ZM649.964 922.153C649.549 922.153 649.173 922.075 648.835 921.919C648.496 921.76 648.228 921.531 648.029 921.233C647.83 920.932 647.731 920.568 647.731 920.142C647.731 919.767 647.805 919.463 647.952 919.23C648.1 918.994 648.298 918.81 648.545 918.676C648.792 918.543 649.065 918.443 649.363 918.378C649.664 918.31 649.967 918.256 650.271 918.216C650.668 918.165 650.991 918.126 651.238 918.101C651.488 918.072 651.67 918.026 651.783 917.96C651.9 917.895 651.958 917.781 651.958 917.619V917.585C651.958 917.165 651.843 916.838 651.613 916.605C651.386 916.372 651.04 916.256 650.577 916.256C650.097 916.256 649.721 916.361 649.448 916.571C649.175 916.781 648.984 917.006 648.873 917.244L647.918 916.903C648.089 916.506 648.316 916.196 648.6 915.974C648.887 915.75 649.2 915.594 649.538 915.506C649.879 915.415 650.214 915.369 650.543 915.369C650.754 915.369 650.995 915.395 651.268 915.446C651.543 915.494 651.809 915.595 652.065 915.749C652.323 915.902 652.538 916.134 652.708 916.443C652.879 916.753 652.964 917.168 652.964 917.688V922H651.958V921.114H651.907C651.839 921.256 651.725 921.408 651.566 921.57C651.407 921.732 651.195 921.869 650.931 921.983C650.667 922.097 650.344 922.153 649.964 922.153ZM650.117 921.25C650.515 921.25 650.85 921.172 651.123 921.016C651.398 920.859 651.606 920.658 651.745 920.411C651.887 920.163 651.958 919.903 651.958 919.631V918.71C651.915 918.761 651.822 918.808 651.677 918.851C651.535 918.891 651.37 918.926 651.183 918.957C650.998 918.986 650.817 919.011 650.641 919.034C650.468 919.054 650.327 919.071 650.219 919.085C649.958 919.119 649.714 919.175 649.487 919.251C649.262 919.325 649.08 919.437 648.941 919.588C648.805 919.736 648.737 919.937 648.737 920.193C648.737 920.543 648.866 920.807 649.124 920.986C649.386 921.162 649.717 921.25 650.117 921.25ZM655.805 913.273V922H654.799V913.273H655.805Z" fill="#9CA3AF"/>
<path d="M813.868 907L824.018 907M824.018 907L819.668 902.65M824.018 907L819.668 911.35" stroke="#58CC02" stroke-width="2" stroke-linecap="round" stroke-linejoin="round"/>
<path d="M828.368 901.2L828.368 912.8" stroke="#58CC02" stroke-width="2" stroke-linecap="round"/>
<path d="M835.618 907C835.618 913.835 835.618 917.253 833.495 919.377C831.37 921.5 827.953 921.5 821.118 921.5C814.283 921.5 810.865 921.5 808.742 919.377C806.618 917.251 806.618 913.835 806.618 907C806.618 900.165 806.618 896.747 808.742 894.624C810.864 892.5 814.283 892.5 821.118 892.5C827.953 892.5 831.371 892.5 833.495 894.624C835.618 896.746 835.618 900.165 835.618 907Z" stroke="#58CC02" stroke-width="2"/>
<path d="M558.235 282.829C556.898 281.496 555.268 280.493 553.474 279.902C551.68 279.31 549.773 279.146 547.905 279.423C546.036 279.699 544.258 280.408 542.713 281.494C541.168 282.579 539.898 284.01 539.004 285.674C531.919 298.895 528.21 313.66 528.208 328.658V385.9C528.218 389.102 529.492 392.172 531.755 394.439C534.017 396.707 537.084 397.989 540.289 398.008H574.62C577.83 398.008 580.91 396.738 583.187 394.476C585.463 392.214 586.751 389.143 586.77 385.935V328.692C586.768 325.966 587.106 323.251 587.776 320.609C588.281 318.59 588.256 316.476 587.703 314.47C587.149 312.464 586.086 310.635 584.617 309.16L558.235 282.829ZM586.527 493.03V435.788C586.536 432.589 585.278 429.516 583.027 427.241C580.777 424.965 577.717 423.673 574.516 423.645H540.184C538.592 423.632 537.013 423.933 535.538 424.531C534.062 425.13 532.72 426.014 531.587 427.132C530.455 428.251 529.555 429.583 528.94 431.05C528.324 432.518 528.005 434.092 528 435.684V493.03C527.978 506.461 530.93 519.73 536.644 531.886C537.46 533.651 538.691 535.193 540.232 536.38C541.772 537.568 543.577 538.365 545.493 538.706C547.408 539.047 549.378 538.92 551.234 538.337C553.09 537.753 554.777 536.73 556.153 535.355L583.541 508.052C584.903 506.716 585.929 505.076 586.532 503.266C587.136 501.457 587.3 499.53 587.013 497.644C586.752 496.118 586.589 494.577 586.527 493.03ZM620.164 237C606.42 236.982 592.848 240.053 580.452 245.985C578.698 246.809 577.167 248.041 575.989 249.578C574.81 251.115 574.017 252.912 573.677 254.819C573.337 256.726 573.459 258.686 574.034 260.535C574.609 262.385 575.619 264.069 576.98 265.448L604.022 292.577C605.364 293.932 607.005 294.952 608.815 295.554C610.624 296.157 612.549 296.326 614.436 296.047C616.271 295.737 618.129 295.586 619.99 295.596H677.267C680.471 295.587 683.542 294.313 685.811 292.052C688.08 289.79 689.363 286.725 689.382 283.523V249.177C689.373 245.975 688.098 242.906 685.836 240.638C683.573 238.37 680.506 237.088 677.302 237.069L620.164 237ZM772.416 237.208H727.289C725.699 237.204 724.125 237.513 722.655 238.117C721.185 238.722 719.85 239.611 718.724 240.732C717.599 241.854 716.706 243.186 716.096 244.653C715.487 246.12 715.174 247.693 715.174 249.281V283.627C715.169 285.215 715.478 286.789 716.083 288.258C716.688 289.726 717.577 291.061 718.7 292.186C719.822 293.311 721.155 294.203 722.623 294.812C724.091 295.421 725.665 295.734 727.254 295.734H772.381C784.42 295.762 795.957 300.563 804.457 309.084C812.957 317.605 817.726 329.149 817.716 341.181L817.508 481.235C817.481 493.264 812.675 504.79 804.148 513.279C795.621 521.769 784.07 526.527 772.034 526.509L619.782 526.3C616.838 526.3 613.907 525.903 611.069 525.121C609.034 524.586 606.895 524.596 604.866 525.151C602.836 525.705 600.989 526.783 599.509 528.278L573.127 554.471C571.797 555.802 570.796 557.425 570.203 559.211C569.61 560.997 569.442 562.896 569.712 564.758C569.981 566.62 570.681 568.393 571.756 569.938C572.831 571.482 574.251 572.755 575.904 573.656C589.307 580.973 604.336 584.803 619.608 584.792L771.86 585C799.42 585 825.856 574.083 845.376 554.639C864.896 535.196 875.908 508.812 876 481.27V341.216C876.046 313.702 865.163 287.294 845.741 267.792C826.319 248.291 799.947 237.291 772.416 237.208Z" fill="white" fill-opacity="0.5"/>
<path d="M273 1280.18C275.092 1280.09 276.863 1279.29 278.312 1277.79C279.76 1276.29 280.501 1274.5 280.501 1272.42C280.501 1274.5 281.209 1276.29 282.657 1277.79C284.106 1279.29 285.876 1280.09 287.969 1280.18C285.876 1280.28 284.106 1281.08 282.657 1282.58C281.957 1283.29 281.406 1284.13 281.035 1285.05C280.665 1285.97 280.483 1286.96 280.501 1287.95C280.501 1285.87 279.792 1284.08 278.312 1282.58C276.863 1281.08 275.092 1280.28 273 1280.18ZM280.501 1257.18C284.557 1256.99 288.001 1255.42 290.834 1252.48C293.667 1249.54 295.083 1246.06 295.083 1242C295.083 1246.06 296.499 1249.54 299.332 1252.48C302.165 1255.42 305.61 1256.95 309.698 1257.18C307.026 1257.31 304.579 1258.04 302.326 1259.45C300.105 1260.82 298.334 1262.67 297.015 1264.97C295.727 1267.28 295.083 1269.74 295.083 1272.42C295.083 1268.36 293.667 1264.85 290.834 1261.91C288.001 1258.94 284.557 1257.37 280.501 1257.18ZM291.188 1291.59C294.246 1291.46 296.854 1290.28 298.978 1288.08C301.103 1285.87 302.165 1283.25 302.165 1280.18C302.165 1283.25 303.227 1285.87 305.352 1288.08C307.477 1290.28 310.052 1291.46 313.11 1291.59C310.052 1291.72 307.477 1292.9 305.352 1295.11C303.227 1297.31 302.165 1299.93 302.165 1303C302.165 1299.93 301.103 1297.31 298.978 1295.11C296.948 1292.96 294.149 1291.7 291.188 1291.59ZM313.11 1276.45C316.168 1276.32 318.744 1275.14 320.868 1272.93C322.993 1270.73 324.023 1268.11 324.023 1265.01C324.023 1268.07 325.085 1270.69 327.21 1272.9C329.334 1275.1 331.942 1276.29 335 1276.41C331.942 1276.54 329.334 1277.72 327.21 1279.93C325.085 1282.13 324.023 1284.75 324.023 1287.82C324.023 1284.75 322.961 1282.13 320.868 1279.93C318.744 1277.76 316.168 1276.57 313.11 1276.45Z" fill="white"/>
<path d="M200.674 649.687C200.701 647.702 201.468 645.798 202.827 644.35C204.071 643.662 205.443 643.233 206.858 643.091C208.273 642.949 209.703 643.095 211.06 643.522C216.05 644.724 220.963 646.185 225.798 647.904C228.286 648.69 230.734 649.602 233.14 650.591C236.723 652.013 240.228 653.643 243.767 655.269C250.284 658.265 256.636 661.608 262.796 665.284C268.976 668.92 274.782 673.157 280.131 677.932L293.97 690.802L297.152 694.103C297.542 694.531 297.878 695.006 298.151 695.517C298.273 695.879 298.266 696.272 298.13 696.629C298.037 697.077 297.836 697.496 297.543 697.848C297.25 698.201 296.875 698.475 296.45 698.648C294.853 699.159 293.187 699.406 291.51 699.375C289.705 699.34 286.502 699.279 283.743 699.637C282.349 699.57 280.959 699.74 279.631 700.134L278.674 709.276C278.378 711.896 278.216 713.948 278.179 715.88C278.121 718.955 278.429 724.303 278.35 728.49C278.346 728.673 278.307 728.853 278.233 729.021C278.16 729.189 278.055 729.341 277.923 729.468C277.791 729.595 277.635 729.695 277.465 729.762C277.294 729.828 277.112 729.861 276.929 729.858C276.746 729.854 276.565 729.815 276.397 729.741C276.23 729.668 276.078 729.562 275.951 729.43C275.824 729.299 275.724 729.143 275.657 728.972C275.59 728.802 275.558 728.62 275.561 728.437C275.639 724.332 275.209 718.9 275.226 715.824C275.265 713.814 275.304 711.719 275.644 708.972C275.983 706.23 276.048 702.781 276.415 700.774C276.781 698.767 276.843 697.664 281.988 696.777C285.034 696.462 289.225 696.336 291.487 696.256L293.749 695.971L291.414 693.588L277.488 681C272.332 676.35 266.713 672.241 260.72 668.735C254.658 665.317 248.425 662.21 242.047 659.425C238.589 657.882 235.081 656.38 231.577 655.124C224.118 652.198 216.408 649.962 208.542 648.442C204.82 649.971 205.327 651.376 205.388 652.485C205.501 654.56 205.833 656.618 206.379 658.624L211.329 676.625C212.332 680.214 213.417 683.561 214.548 686.828C217.311 694.724 220.374 702.134 223.17 710.687C223.828 712.631 224.612 714.52 225.524 716.356C226.986 719.256 228.661 722.04 230.215 724.658C230.65 725.504 231.154 726.306 231.728 727.067L232.129 727.567L232.382 727.202L236.609 720.838C238.689 718.101 240.905 715.47 243.249 712.956C245.597 710.418 248.097 708.024 250.733 705.787C252.524 704.345 257.572 700.338 258.993 703.319C259.393 703.86 259.824 704.893 260.065 705.185L264.743 712.256L269.419 720.928C271.088 723.954 273.089 726.827 274.878 729.86C275.632 731.187 276.385 732.555 277.014 734.007C277.15 734.303 277.162 734.641 277.048 734.947C276.935 735.252 276.705 735.5 276.409 735.636C276.409 735.636 275.243 736.558 273.585 735.254C271.928 733.951 271.442 733.614 270.513 732.858C269.58 732.101 267.431 730.543 265.934 729.444C264.437 728.349 263.221 727.546 261.882 726.577L255.727 722.103C252.487 719.703 249.371 717.224 246.34 714.577L245.628 715.343C243.426 717.823 241.336 720.401 239.365 723.068L235.55 729.318C235.156 730.01 234.72 730.672 234.24 731.303C234.001 731.547 233.709 731.733 233.387 731.848C233.065 731.963 232.721 732.003 232.382 731.965C231.409 731.791 230.506 731.347 229.772 730.685C228.629 729.535 227.645 728.228 226.851 726.814C225.219 724.194 223.423 721.325 221.877 718.506C220.807 716.52 219.901 714.462 219.159 712.334C216.285 703.82 213.052 696.489 210.247 688.678C208.998 685.286 207.87 681.856 206.832 678.181L201.84 660.019C200.907 656.659 200.517 653.171 200.682 649.688M260.449 719.732C261.851 720.672 263.199 721.682 264.494 722.762C265.871 723.896 267.162 725.069 268.537 726.33L271.552 729.546C269.999 727.096 268.362 724.727 266.932 722.238L261.995 713.927L257.404 707.067C257.203 706.817 256.608 705.78 256.369 705.365C256.131 704.95 255.539 705.883 255.082 706.202C254.624 706.522 253.2 707.849 252.658 708.29C251.24 709.534 249.818 710.943 248.475 712.312C252.322 714.978 256.515 717.15 260.449 719.732Z" fill="white"/>
<path d="M242.394 679.964C244.522 682.383 246.406 684.926 248.494 687.554C250.809 690.502 252.984 693.558 255.011 696.711C255.449 697.376 255.846 698.081 256.244 698.745C257.248 702.013 255.74 701.488 252.957 699.011L252.599 698.43C250.357 695.474 247.822 692.678 245.447 690.085C241.636 685.537 237.4 681.35 233.372 677.208L224.427 668.451C219.989 664.185 215.622 659.844 211.329 655.432C204.894 643.65 222.684 660.41 232.283 669.503C235.786 672.975 239.174 676.284 242.39 679.959M244.277 667.434C249.923 671.439 255.418 675.652 260.75 680.066L273.517 690.864C274.323 691.618 275.252 692.415 276.18 693.212C278.102 695.71 277.797 696.611 273.365 694.554C272.717 694.09 272.07 693.626 271.545 693.165L258.18 683.221L224.879 659.307C221.6 656.985 218.436 654.664 215.156 652.428C214.429 649.665 220.216 651.703 224.968 654.624L227.117 655.978C232.879 659.747 238.684 663.426 244.277 667.434Z" fill="white"/>
</g>
<defs>
<clipPath id="clip0_1079_65">
<rect width="1405" height="1684" fill="white"/>
</clipPath>
<clipPath id="clip1_1079_65">
<rect width="766.295" height="486.122" fill="white" transform="translate(335.104 1004.88)"/>
</clipPath>
</defs>
</svg>
