<svg width="800" height="647" viewBox="0 0 800 647" fill="none" xmlns="http://www.w3.org/2000/svg">
<path d="M456.2 132.392H671.414C673.453 132.392 675.408 133.201 676.849 134.643C678.29 136.084 679.1 138.039 679.1 140.078V186.192C679.1 188.23 678.29 190.185 676.849 191.626C675.408 193.068 673.453 193.878 671.414 193.878H456.2C454.162 193.878 452.207 193.068 450.765 191.626C449.324 190.185 448.514 188.23 448.514 186.192V140.078C448.514 138.039 449.324 136.084 450.765 134.643C452.207 133.201 454.162 132.392 456.2 132.392Z" fill="#00AA13"/>
<path d="M456.201 134.313H671.413C672.942 134.313 674.408 134.921 675.49 136.002C676.571 137.083 677.178 138.55 677.178 140.078V186.194C677.178 187.723 676.571 189.19 675.49 190.271C674.408 191.352 672.942 191.959 671.413 191.959H456.201C454.672 191.959 453.206 191.352 452.125 190.271C451.043 189.19 450.436 187.723 450.436 186.194V140.078C450.436 138.55 451.043 137.083 452.125 136.002C453.206 134.921 454.672 134.313 456.201 134.313Z" fill="#F2F2F2"/>
<path d="M542.06 150.166H476.149C473.082 150.166 470.595 152.653 470.595 155.72V155.721C470.595 158.788 473.082 161.275 476.149 161.275H542.06C545.128 161.275 547.614 158.788 547.614 155.721V155.72C547.614 152.653 545.128 150.166 542.06 150.166Z" fill="#00AA13"/>
<path d="M618.57 149.686C619.71 149.686 620.825 150.024 621.773 150.657C622.721 151.291 623.46 152.191 623.896 153.244C624.332 154.298 624.446 155.457 624.224 156.575C624.001 157.694 623.452 158.721 622.646 159.527C621.84 160.333 620.813 160.882 619.694 161.105C618.576 161.327 617.417 161.213 616.364 160.777C615.31 160.34 614.41 159.601 613.776 158.653C613.143 157.705 612.805 156.591 612.805 155.451C612.805 153.922 613.412 152.455 614.493 151.374C615.574 150.293 617.041 149.686 618.57 149.686Z" fill="#00AA13"/>
<path d="M633.942 149.686C635.082 149.686 636.197 150.024 637.145 150.657C638.093 151.291 638.832 152.191 639.268 153.244C639.704 154.298 639.818 155.457 639.596 156.575C639.374 157.694 638.824 158.721 638.018 159.527C637.212 160.333 636.185 160.882 635.066 161.105C633.948 161.327 632.789 161.213 631.736 160.777C630.682 160.34 629.782 159.601 629.148 158.653C628.515 157.705 628.177 156.591 628.177 155.451C628.177 153.922 628.784 152.455 629.865 151.374C630.946 150.293 632.413 149.686 633.942 149.686Z" fill="#00AA13"/>
<path d="M649.315 149.686C650.455 149.686 651.57 150.024 652.518 150.657C653.466 151.291 654.205 152.191 654.641 153.244C655.077 154.298 655.191 155.457 654.969 156.575C654.747 157.694 654.198 158.721 653.391 159.527C652.585 160.333 651.558 160.882 650.44 161.105C649.321 161.327 648.162 161.213 647.109 160.777C646.055 160.34 645.155 159.601 644.521 158.653C643.888 157.705 643.55 156.591 643.55 155.451C643.55 153.922 644.157 152.455 645.238 151.374C646.319 150.293 647.786 149.686 649.315 149.686Z" fill="#00AA13"/>
<path d="M327.863 261.724H325.583V199.278C325.583 189.692 321.775 180.499 314.997 173.721C308.219 166.944 299.026 163.136 289.441 163.136H157.141C147.556 163.136 138.363 166.944 131.585 173.722C124.808 180.5 121 189.692 121 199.278V541.86C121 551.445 124.808 560.638 131.586 567.416C138.364 574.194 147.557 578.002 157.142 578.002H289.442C294.188 578.002 298.888 577.067 303.273 575.251C307.658 573.434 311.642 570.772 314.998 567.416C318.354 564.06 321.017 560.076 322.833 555.691C324.649 551.306 325.584 546.606 325.584 541.86V306.174H327.864L327.863 261.724Z" fill="#91FF9D"/>
<path d="M290.9 172.78H273.63C274.424 174.727 274.727 176.84 274.512 178.931C274.298 181.023 273.572 183.029 272.4 184.775C271.227 186.52 269.643 187.95 267.787 188.939C265.932 189.928 263.862 190.445 261.759 190.445H185.968C183.865 190.445 181.795 189.928 179.939 188.939C178.083 187.95 176.499 186.52 175.326 184.775C174.154 183.029 173.428 181.023 173.213 178.931C172.999 176.839 173.302 174.726 174.096 172.779H157.966C150.808 172.779 143.943 175.623 138.882 180.684C133.82 185.746 130.976 192.61 130.976 199.768V541.848C130.976 545.393 131.674 548.903 133.03 552.177C134.387 555.452 136.375 558.427 138.881 560.934C141.387 563.44 144.363 565.428 147.637 566.785C150.912 568.141 154.422 568.839 157.966 568.839H290.9C298.058 568.839 304.923 565.996 309.985 560.934C315.047 555.873 317.89 549.008 317.89 541.849V199.766C317.89 192.608 315.047 185.743 309.985 180.681C304.923 175.619 298.058 172.776 290.9 172.775V172.78Z" fill="#00AA13"/>
<path d="M224.433 420.16C251.821 420.16 274.024 397.957 274.024 370.569C274.024 343.18 251.821 320.978 224.433 320.978C197.044 320.978 174.842 343.18 174.842 370.569C174.842 397.957 197.044 420.16 224.433 420.16Z" fill="#F2F2F2"/>
<path d="M213.618 396.19L195.434 372.808L206.008 364.583L214.618 375.654L243.706 344.948L253.433 354.163L213.618 396.19Z" fill="#00AA13"/>
<path d="M456.2 192.426H671.414C673.453 192.426 675.408 193.236 676.849 194.677C678.29 196.118 679.1 198.073 679.1 200.112V246.226C679.1 248.264 678.29 250.219 676.849 251.661C675.408 253.102 673.453 253.912 671.414 253.912H456.2C454.162 253.912 452.207 253.102 450.765 251.661C449.324 250.219 448.514 248.264 448.514 246.226V200.112C448.514 198.073 449.324 196.118 450.765 194.677C452.207 193.236 454.162 192.426 456.2 192.426Z" fill="#00AA13"/>
<path d="M456.201 194.348H671.413C672.942 194.348 674.408 194.955 675.49 196.036C676.571 197.117 677.178 198.584 677.178 200.113V246.229C677.178 247.758 676.571 249.224 675.49 250.305C674.408 251.386 672.942 251.994 671.413 251.994H456.201C454.672 251.994 453.206 251.386 452.125 250.305C451.043 249.224 450.436 247.758 450.436 246.229V200.113C450.436 198.584 451.043 197.117 452.125 196.036C453.206 194.955 454.672 194.348 456.201 194.348Z" fill="#F2F2F2"/>
<path d="M541.886 209.952H476.616C473.445 209.952 470.875 212.522 470.875 215.693V215.694C470.875 218.865 473.445 221.435 476.616 221.435H541.886C545.057 221.435 547.627 218.865 547.627 215.694V215.693C547.627 212.522 545.057 209.952 541.886 209.952Z" fill="#00AA13"/>
<path d="M618.57 209.72C619.71 209.72 620.825 210.058 621.773 210.691C622.721 211.325 623.46 212.225 623.896 213.279C624.332 214.332 624.446 215.491 624.224 216.609C624.001 217.728 623.452 218.755 622.646 219.561C621.84 220.367 620.813 220.917 619.694 221.139C618.576 221.361 617.417 221.247 616.364 220.811C615.31 220.375 614.41 219.636 613.776 218.688C613.143 217.74 612.805 216.625 612.805 215.485C612.805 213.956 613.412 212.489 614.493 211.408C615.574 210.327 617.041 209.72 618.57 209.72Z" fill="#00AA13"/>
<path d="M633.942 209.72C635.082 209.72 636.197 210.058 637.145 210.691C638.093 211.325 638.832 212.225 639.268 213.279C639.704 214.332 639.818 215.491 639.596 216.609C639.374 217.728 638.824 218.755 638.018 219.561C637.212 220.367 636.185 220.917 635.066 221.139C633.948 221.361 632.789 221.247 631.736 220.811C630.682 220.375 629.782 219.636 629.148 218.688C628.515 217.74 628.177 216.625 628.177 215.485C628.177 213.956 628.784 212.489 629.865 211.408C630.946 210.327 632.413 209.72 633.942 209.72Z" fill="#00AA13"/>
<path d="M649.315 209.72C650.455 209.72 651.57 210.058 652.518 210.691C653.466 211.325 654.205 212.225 654.641 213.279C655.077 214.332 655.191 215.491 654.969 216.609C654.747 217.728 654.198 218.755 653.391 219.561C652.585 220.367 651.558 220.917 650.44 221.139C649.321 221.361 648.162 221.247 647.109 220.811C646.055 220.375 645.155 219.636 644.521 218.688C643.888 217.74 643.55 216.625 643.55 215.485C643.55 213.956 644.157 212.489 645.238 211.408C646.319 210.327 647.786 209.72 649.315 209.72Z" fill="#00AA13"/>
<path d="M456.2 252.715H671.414C673.453 252.715 675.408 253.525 676.849 254.966C678.29 256.407 679.1 258.362 679.1 260.401V306.515C679.1 308.553 678.29 310.508 676.849 311.95C675.408 313.391 673.453 314.201 671.414 314.201H456.2C454.162 314.201 452.207 313.391 450.765 311.95C449.324 310.508 448.514 308.553 448.514 306.515V260.401C448.514 258.362 449.324 256.407 450.765 254.966C452.207 253.525 454.162 252.715 456.2 252.715Z" fill="#00AA13"/>
<path d="M456.201 254.637H671.413C672.942 254.637 674.408 255.244 675.49 256.325C676.571 257.406 677.178 258.873 677.178 260.402V306.518C677.178 308.047 676.571 309.513 675.49 310.594C674.408 311.675 672.942 312.283 671.413 312.283H456.201C454.672 312.283 453.206 311.675 452.125 310.594C451.043 309.513 450.436 308.047 450.436 306.518V260.402C450.436 258.873 451.043 257.406 452.125 256.325C453.206 255.244 454.672 254.637 456.201 254.637Z" fill="#F2F2F2"/>
<path d="M541.886 270.241H476.616C473.445 270.241 470.875 272.812 470.875 275.982V275.983C470.875 279.154 473.445 281.724 476.616 281.724H541.886C545.057 281.724 547.627 279.154 547.627 275.983V275.982C547.627 272.812 545.057 270.241 541.886 270.241Z" fill="#00AA13"/>
<path d="M618.57 270.009C619.71 270.009 620.825 270.347 621.773 270.98C622.721 271.614 623.46 272.514 623.896 273.568C624.332 274.621 624.446 275.78 624.224 276.898C624.001 278.017 623.452 279.044 622.646 279.85C621.84 280.657 620.813 281.206 619.694 281.428C618.576 281.65 617.417 281.536 616.364 281.1C615.31 280.664 614.41 279.925 613.776 278.977C613.143 278.029 612.805 276.914 612.805 275.774C612.805 274.245 613.412 272.778 614.493 271.697C615.574 270.616 617.041 270.009 618.57 270.009Z" fill="#00AA13"/>
<path d="M633.942 270.009C635.082 270.009 636.197 270.347 637.145 270.98C638.093 271.614 638.832 272.514 639.268 273.568C639.704 274.621 639.818 275.78 639.596 276.898C639.374 278.017 638.824 279.044 638.018 279.85C637.212 280.657 636.185 281.206 635.066 281.428C633.948 281.65 632.789 281.536 631.736 281.1C630.682 280.664 629.782 279.925 629.148 278.977C628.515 278.029 628.177 276.914 628.177 275.774C628.177 274.245 628.784 272.778 629.865 271.697C630.946 270.616 632.413 270.009 633.942 270.009Z" fill="#00AA13"/>
<path d="M649.315 270.009C650.455 270.009 651.57 270.347 652.518 270.98C653.466 271.614 654.205 272.514 654.641 273.568C655.077 274.621 655.191 275.78 654.969 276.898C654.747 278.017 654.198 279.044 653.391 279.85C652.585 280.657 651.558 281.206 650.44 281.428C649.321 281.65 648.162 281.536 647.109 281.1C646.055 280.664 645.155 279.925 644.521 278.977C643.888 278.029 643.55 276.914 643.55 275.774C643.55 274.245 644.157 272.778 645.238 271.697C646.319 270.616 647.786 270.009 649.315 270.009Z" fill="#00AA13"/>
<path d="M215.1 135.392H213.619V126.5H215.1V135.392ZM215.1 117.618H213.619V108.731H215.1V117.618ZM508.365 108.731H506.884V99.844H508.365V108.731ZM215.1 99.844H213.619V90.958H215.1V99.844ZM508.365 90.957H506.884V82.071H508.365V90.957ZM215.1 82.071H213.619V73.184H215.1V82.071ZM508.365 73.184H506.884V69.484H503.184V68H508.368L508.365 73.184ZM494.294 69.484H485.407V68H494.294V69.484ZM476.52 69.484H467.633V68H476.52V69.484ZM458.746 69.484H449.859V68H458.746V69.484ZM440.972 69.484H432.085V68H440.972V69.484ZM423.198 69.484H414.311V68H423.198V69.484ZM405.424 69.484H396.539V68H405.426L405.424 69.484ZM387.65 69.484H378.763V68H387.65V69.484ZM369.876 69.484H360.989V68H369.876V69.484ZM352.102 69.484H343.215V68H352.102V69.484ZM334.328 69.484H325.441V68H334.328V69.484ZM316.554 69.484H307.667V68H316.559L316.554 69.484ZM298.78 69.484H289.893V68H298.78V69.484ZM281.006 69.484H272.119V68H281.006V69.484ZM263.232 69.484H254.345V68H263.232V69.484ZM245.458 69.484H236.571V68H245.459L245.458 69.484ZM227.684 69.484H218.797V68H227.684V69.484Z" fill="#00AA13"/>
<path d="M508.365 398.139H505.403V396.658H506.884V390.734H508.365V398.139ZM496.516 398.139H487.627V396.658H496.514L496.516 398.139ZM478.742 398.139H469.855V396.658H478.742V398.139ZM460.968 398.139H452.081V396.658H460.968V398.139ZM443.194 398.139H434.307V396.658H443.194V398.139ZM425.42 398.139H416.533V396.658H425.42V398.139ZM407.646 398.139H398.759V396.658H407.646V398.139ZM389.872 398.139H380.987V396.658H389.874L389.872 398.139ZM508.363 381.847H506.882V372.96H508.363V381.847ZM508.363 364.073H506.882V355.186H508.363V364.073ZM508.363 346.299H506.882V337.412H508.363V346.299Z" fill="#00AA13"/>
</svg>
