<svg width="424" height="349" viewBox="0 0 424 349" fill="none" xmlns="http://www.w3.org/2000/svg">
<g clip-path="url(#clip0_1061_626)">
<path d="M372.642 0H52.8497C51.4753 0.00382237 50.1584 0.551389 49.1865 1.52305C48.2147 2.49471 47.6671 3.81147 47.6632 5.18561V36.9366H377.829V5.18561C377.825 3.81147 377.277 2.49471 376.306 1.52305C375.334 0.551389 374.017 0.00382237 372.642 0Z" fill="#FFE100"/>
<path d="M64.9176 244.795L42.6361 237.828C51.8646 208.409 47.9675 164.187 47.924 163.738L71.1037 161.608C71.35 163.68 75.5368 210.886 64.9176 244.795Z" fill="url(#paint0_linear_1061_626)"/>
<path d="M92.9216 284.122L69.7419 281.471C72.6393 255.572 72.7842 238.48 73.016 187.754C73.016 180.164 73.0885 171.82 73.1464 162.608L96.4854 162.738C96.4854 171.951 96.384 180.28 96.3551 187.855C96.1088 239.537 96.0219 256.948 92.9216 284.122Z" fill="url(#paint1_linear_1061_626)"/>
<path d="M102.324 302.387C94.9788 267.696 98.2819 166.577 98.4123 162.231L121.737 163.013C121.737 164.027 118.405 265.567 125.156 297.492L102.324 302.387Z" fill="url(#paint2_linear_1061_626)"/>
<path d="M146.974 273.765L123.794 271.766C126.402 241.348 123.794 163.868 123.794 163.129L147.119 162.333C147.119 165.519 149.697 241.985 146.974 273.765Z" fill="url(#paint3_linear_1061_626)"/>
<path d="M156.304 300.707C146.554 264.075 148.857 166.519 148.958 162.391L172.283 162.97C172.283 163.941 169.951 261.294 178.86 294.696L156.304 300.707Z" fill="url(#paint4_linear_1061_626)"/>
<path d="M176.745 284.426C172.124 251.763 174.152 166.026 174.239 162.391L197.563 162.956C197.563 163.825 195.506 250.401 199.852 281.167L176.745 284.426Z" fill="url(#paint5_linear_1061_626)"/>
<path d="M216.73 300.736L194.202 294.667C201.011 269.449 200.33 191.085 199.49 163.028L222.815 162.333C222.945 166.577 225.828 267.059 216.73 300.736Z" fill="url(#paint6_linear_1061_626)"/>
<path d="M227.002 287.555C221.381 252.472 224.626 165.881 224.771 162.231L248.081 163.129C248.081 163.998 244.778 251.053 250.051 283.861L227.002 287.555Z" fill="url(#paint7_linear_1061_626)"/>
<path d="M273.361 162.68H250.022V262.279H273.361V162.68Z" fill="url(#paint8_linear_1061_626)"/>
<path d="M294.599 288.439L271.912 282.992C279.156 252.574 275.346 164.085 275.302 163.202L298.612 162.159C298.786 165.925 302.669 254.819 294.599 288.439Z" fill="url(#paint9_linear_1061_626)"/>
<path d="M313.302 305.14C297.236 272.664 300.177 173.472 300.568 162.275L323.893 163.086C322.893 191.896 322.806 271.723 334.222 294.797L313.302 305.14Z" fill="url(#paint10_linear_1061_626)"/>
<path d="M332.73 285.049C325.906 250.285 325.834 166.272 325.834 162.68H349.144C349.144 163.52 349.144 248.025 355.605 280.544L332.73 285.049Z" fill="url(#paint11_linear_1061_626)"/>
<path d="M358.88 249.648C351.187 222.127 351.1 165.099 351.1 162.738H374.439C374.439 163.289 374.526 219.012 381.349 243.419L358.88 249.648Z" fill="url(#paint12_linear_1061_626)"/>
<path d="M174.992 26.1452C173.482 26.0696 172.022 25.5794 170.772 24.7285C169.523 23.8776 168.532 22.6989 167.908 21.3218L163.489 10.1394C162.872 8.7654 161.892 7.58593 160.654 6.72823C159.415 5.87054 157.966 5.36718 156.463 5.27246H74.8559C73.3399 5.35427 71.8757 5.85164 70.6235 6.71009C69.3714 7.56854 68.3798 8.75496 67.7571 10.1394L63.3385 21.3652C62.7135 22.7414 61.7221 23.9192 60.4726 24.7699C59.2232 25.6206 57.7639 26.1114 56.2542 26.1887H52.8497C51.4753 26.1925 50.1584 26.7401 49.1865 27.7118C48.2147 28.6834 47.6671 30.0002 47.6632 31.3743V177.368C47.6785 178.735 48.2311 180.04 49.2017 181.002C50.1723 181.965 51.4828 182.506 52.8497 182.51H372.642C374.017 182.506 375.334 181.959 376.306 180.987C377.277 180.015 377.825 178.699 377.829 177.325V31.3309C377.825 29.9567 377.277 28.64 376.306 27.6683C375.334 26.6966 374.017 26.1491 372.642 26.1452H174.992Z" fill="url(#paint13_linear_1061_626)"/>
<path d="M152.493 18.4104C152.424 18.4831 152.341 18.5411 152.249 18.5807C152.157 18.6203 152.058 18.6407 151.957 18.6407C151.857 18.6407 151.758 18.6203 151.666 18.5807C151.573 18.5411 151.49 18.4831 151.421 18.4104C151.281 18.267 151.203 18.0747 151.203 17.8744C151.203 17.6742 151.281 17.4819 151.421 17.3385L157.535 11.2403C157.604 11.1676 157.687 11.1096 157.779 11.07C157.871 11.0304 157.971 11.01 158.071 11.01C158.171 11.01 158.271 11.0304 158.363 11.07C158.455 11.1096 158.538 11.1676 158.607 11.2403C158.746 11.3812 158.824 11.5712 158.824 11.769C158.824 11.9669 158.746 12.1568 158.607 12.2977L152.493 18.4104Z" fill="#5E5E5E"/>
<path d="M151.421 12.2977C151.282 12.1568 151.205 11.9669 151.205 11.769C151.205 11.5712 151.282 11.3813 151.421 11.2403C151.491 11.1694 151.575 11.113 151.667 11.0746C151.759 11.0362 151.858 11.0164 151.957 11.0164C152.057 11.0164 152.156 11.0362 152.248 11.0746C152.34 11.113 152.423 11.1694 152.493 11.2403L158.607 17.3819C158.747 17.5253 158.825 17.7176 158.825 17.9179C158.825 18.1181 158.747 18.3105 158.607 18.4538C158.538 18.5266 158.455 18.5845 158.363 18.6241C158.271 18.6637 158.171 18.6841 158.071 18.6841C157.971 18.6841 157.871 18.6637 157.779 18.6241C157.687 18.5845 157.604 18.5266 157.535 18.4538L151.421 12.2977Z" fill="#5E5E5E"/>
<path d="M362.009 18.4104C361.94 18.4831 361.857 18.5411 361.764 18.5807C361.672 18.6203 361.573 18.6407 361.473 18.6407C361.372 18.6407 361.273 18.6203 361.181 18.5807C361.089 18.5411 361.006 18.4831 360.937 18.4104C360.797 18.267 360.719 18.0747 360.719 17.8744C360.719 17.6742 360.797 17.4819 360.937 17.3385L367.05 11.2403C367.119 11.1676 367.203 11.1096 367.295 11.07C367.387 11.0304 367.486 11.01 367.586 11.01C367.687 11.01 367.786 11.0304 367.878 11.07C367.97 11.1096 368.053 11.1676 368.122 11.2403C368.261 11.3812 368.339 11.5712 368.339 11.769C368.339 11.9669 368.261 12.1568 368.122 12.2977L362.009 18.4104Z" fill="#5E5E5E"/>
<path d="M360.937 12.2977C360.798 12.1568 360.72 11.9669 360.72 11.769C360.72 11.5712 360.798 11.3813 360.937 11.2403C361.007 11.1694 361.09 11.113 361.182 11.0746C361.274 11.0362 361.373 11.0164 361.473 11.0164C361.572 11.0164 361.671 11.0362 361.763 11.0746C361.855 11.113 361.939 11.1694 362.009 11.2403L368.122 17.3819C368.262 17.5253 368.341 17.7176 368.341 17.9179C368.341 18.1181 368.262 18.3105 368.122 18.4538C368.053 18.5266 367.97 18.5845 367.878 18.6241C367.786 18.6637 367.687 18.6841 367.586 18.6841C367.486 18.6841 367.387 18.6637 367.295 18.6241C367.203 18.5845 367.119 18.5266 367.05 18.4538L360.937 12.2977Z" fill="#5E5E5E"/>
<path d="M345.87 39.0947H79.6367C78.6606 39.0947 77.8693 39.8859 77.8693 40.8619V58.5045C77.8693 59.4805 78.6606 60.2717 79.6367 60.2717H345.87C346.846 60.2717 347.637 59.4805 347.637 58.5045V40.8619C347.637 39.8859 346.846 39.0947 345.87 39.0947Z" fill="#A6FF47" fill-opacity="0.3"/>
<path d="M354.606 11.646H348.246V18.0049H354.606V11.646Z" stroke="#5E5E5E" stroke-linecap="round" stroke-linejoin="round"/>
<path d="M341.509 18.0049H335.149" stroke="#5E5E5E" stroke-linecap="round" stroke-linejoin="round"/>
<path d="M154.42 87.9669C153.691 87.2364 153.282 86.2467 153.282 85.2148C153.282 84.1829 153.691 83.1931 154.42 82.4626C155.155 81.7364 156.147 81.3291 157.18 81.3291C158.213 81.3291 159.205 81.7364 159.94 82.4626L180.744 103.277C181.473 104.01 181.883 105.003 181.883 106.037C181.883 107.071 181.473 108.063 180.744 108.796C180.013 109.525 179.023 109.934 177.991 109.934C176.959 109.934 175.969 109.525 175.238 108.796L154.42 87.9669Z" fill="#5E5E5E"/>
<path d="M180.744 87.9669C181.473 87.2364 181.882 86.2467 181.882 85.2148C181.882 84.1829 181.473 83.1931 180.744 82.4626C180.009 81.7364 179.017 81.3291 177.984 81.3291C176.951 81.3291 175.959 81.7364 175.224 82.4626L154.42 103.263C153.69 103.996 153.281 104.988 153.281 106.022C153.281 107.057 153.69 108.049 154.42 108.782C155.151 109.511 156.141 109.92 157.173 109.92C158.205 109.92 159.195 109.511 159.925 108.782L180.744 87.9669Z" fill="#5E5E5E"/>
<path d="M244.749 87.9669C244.02 87.2364 243.61 86.2467 243.61 85.2148C243.61 84.1829 244.02 83.1931 244.749 82.4626C245.479 81.7338 246.469 81.3245 247.501 81.3245C248.533 81.3245 249.523 81.7338 250.254 82.4626L271.072 103.277C271.802 104.01 272.212 105.003 272.212 106.037C272.212 107.071 271.802 108.063 271.072 108.796C270.341 109.525 269.351 109.934 268.319 109.934C267.287 109.934 266.297 109.525 265.567 108.796L244.749 87.9669Z" fill="#5E5E5E"/>
<path d="M271.058 87.9669C271.786 87.2364 272.196 86.2467 272.196 85.2148C272.196 84.1829 271.786 83.1931 271.058 82.4626C270.327 81.7338 269.337 81.3245 268.305 81.3245C267.273 81.3245 266.283 81.7338 265.552 82.4626L244.734 103.263C244.004 103.996 243.594 104.988 243.594 106.022C243.594 107.057 244.004 108.049 244.734 108.782C245.465 109.511 246.455 109.92 247.487 109.92C248.519 109.92 249.509 109.511 250.239 108.782L271.058 87.9669Z" fill="#5E5E5E"/>
<path d="M227.451 129.162C227.963 129.164 228.471 129.064 228.944 128.869C229.418 128.674 229.848 128.387 230.211 128.025C230.573 127.663 230.86 127.233 231.055 126.759C231.25 126.285 231.35 125.778 231.348 125.266C231.35 124.753 231.25 124.246 231.055 123.772C230.86 123.299 230.573 122.868 230.211 122.506C229.848 122.144 229.418 121.857 228.944 121.662C228.471 121.467 227.963 121.367 227.451 121.369H198.027C196.993 121.377 196.004 121.792 195.275 122.524C194.545 123.256 194.134 124.247 194.13 125.28C194.13 125.791 194.231 126.297 194.427 126.769C194.623 127.241 194.91 127.67 195.272 128.03C195.634 128.391 196.064 128.676 196.537 128.871C197.009 129.065 197.516 129.164 198.027 129.162H227.451Z" fill="#5E5E5E"/>
<path d="M369.31 44.0631C369.31 44.3512 369.196 44.6275 368.992 44.8313C368.788 45.035 368.512 45.1495 368.224 45.1495H355.794C355.652 45.1495 355.511 45.1213 355.38 45.0665C355.249 45.0117 355.13 44.9315 355.031 44.8304C354.931 44.7293 354.852 44.6095 354.799 44.4777C354.746 44.346 354.72 44.2051 354.722 44.0631C354.722 43.7788 354.835 43.5062 355.036 43.3052C355.237 43.1041 355.509 42.9912 355.794 42.9912H368.224C368.51 42.9912 368.784 43.1037 368.987 43.3043C369.19 43.5049 369.307 43.7775 369.31 44.0631Z" fill="#8F8F8F"/>
<path d="M369.31 49.6832C369.307 49.9702 369.191 50.2443 368.988 50.4472C368.785 50.6502 368.511 50.7658 368.224 50.7696H355.794C355.508 50.7658 355.235 50.6496 355.035 50.4463C354.834 50.243 354.722 49.9688 354.722 49.6832C354.722 49.5424 354.749 49.4031 354.803 49.273C354.857 49.143 354.936 49.0248 355.036 48.9253C355.135 48.8257 355.253 48.7468 355.383 48.6929C355.514 48.6391 355.653 48.6113 355.794 48.6113H368.224C368.51 48.6113 368.784 48.7238 368.987 48.9244C369.19 49.125 369.307 49.3976 369.31 49.6832Z" fill="#8F8F8F"/>
<path d="M369.31 55.3036C369.307 55.5905 369.191 55.8647 368.988 56.0676C368.785 56.2705 368.511 56.3862 368.224 56.3899H355.794C355.508 56.3861 355.235 56.27 355.035 56.0667C354.834 55.8634 354.722 55.5892 354.722 55.3036C354.722 55.0193 354.835 54.7467 355.036 54.5456C355.237 54.3446 355.509 54.2317 355.794 54.2317H368.224C368.51 54.2317 368.784 54.3441 368.987 54.5447C369.19 54.7454 369.307 55.018 369.31 55.3036Z" fill="#8F8F8F"/>
<path d="M73.8853 47.5684C73.7259 47.4144 73.5129 47.3284 73.2913 47.3284C73.0696 47.3284 72.8567 47.4144 72.6973 47.5684L71.886 48.452C71.7594 47.0369 71.2233 45.6892 70.3432 44.5737C69.4631 43.4582 68.2771 42.623 66.9302 42.1703C65.5832 41.7176 64.1335 41.6669 62.7582 42.0244C61.3829 42.3819 60.1415 43.1321 59.1856 44.1834C58.2297 45.2347 57.6007 46.5416 57.3754 47.9445C57.1502 49.3473 57.3384 50.7854 57.9172 52.083C58.4959 53.3807 59.4401 54.4817 60.6344 55.2516C61.8286 56.0216 63.2213 56.4271 64.6424 56.4187C64.8481 56.3918 65.0369 56.2909 65.1738 56.135C65.3106 55.9791 65.3861 55.7788 65.3861 55.5714C65.3861 55.3639 65.3106 55.1636 65.1738 55.0077C65.0369 54.8518 64.8481 54.7509 64.6424 54.724C63.5499 54.73 62.4793 54.4184 61.5607 53.8271C60.6422 53.2359 59.9153 52.3904 59.4686 51.3936C59.0218 50.3969 58.8745 49.2918 59.0444 48.2128C59.2144 47.1338 59.6944 46.1275 60.4259 45.3163C61.1575 44.505 62.109 43.9239 63.1649 43.6435C64.2208 43.3632 65.3354 43.3957 66.3731 43.7372C67.4108 44.0786 68.3268 44.7143 69.0098 45.5668C69.6928 46.4193 70.1132 47.4519 70.22 48.5389L69.2783 47.8002C69.1131 47.6504 68.8951 47.5723 68.6723 47.5832C68.4495 47.594 68.2402 47.6929 68.0903 47.8581C67.9405 48.0233 67.8624 48.2413 67.8733 48.464C67.8841 48.6868 67.9831 48.8961 68.1483 49.0459L70.5532 51.2331C70.6282 51.305 70.7168 51.3613 70.8138 51.3986C70.9108 51.4359 71.0143 51.4535 71.1182 51.4504C71.2287 51.4481 71.3376 51.4223 71.4374 51.3749C71.5373 51.3275 71.626 51.2594 71.6977 51.1752L73.8853 48.7707C74.0436 48.6107 74.1324 48.3947 74.1324 48.1696C74.1324 47.9444 74.0436 47.7284 73.8853 47.5684Z" fill="#8F8F8F"/>
<path opacity="0.5" d="M374.569 335.254C374.391 336.159 373.911 336.978 373.209 337.577C372.507 338.177 371.624 338.522 370.701 338.556H51.8066C50.8834 338.524 49.9983 338.18 49.2958 337.58C48.5933 336.981 48.1148 336.16 47.9385 335.254L20.9631 179.381C20.514 176.847 21.9048 174.804 24.0489 174.804H398.401C400.56 174.804 401.936 176.847 401.501 179.381L374.569 335.254Z" fill="white"/>
<g style="mix-blend-mode:multiply">
<path d="M398.401 174.804H24.0489C21.9048 174.804 20.514 176.847 20.9631 179.381L25.7874 207.279H396.662L401.487 179.381C401.979 176.847 400.603 174.804 398.401 174.804Z" fill="#D9D9D9"/>
</g>
<path d="M404.746 142.387H19.2536C17.1093 142.387 15.371 144.125 15.371 146.269V186.465C15.371 188.609 17.1093 190.347 19.2536 190.347H404.746C406.891 190.347 408.629 188.609 408.629 186.465V146.269C408.629 144.125 406.891 142.387 404.746 142.387Z" fill="#58CC02"/>
<path d="M31.7852 182.148C31.7871 182.574 31.705 182.996 31.5437 183.391C31.3824 183.785 31.1449 184.144 30.8449 184.447C30.5449 184.749 30.1882 184.99 29.7953 185.155C29.4023 185.319 28.9806 185.405 28.5545 185.407C27.6938 185.407 26.8684 185.065 26.2598 184.457C25.6512 183.848 25.3093 183.023 25.3093 182.162V150.643C25.3093 150.218 25.3934 149.797 25.5566 149.404C25.7199 149.011 25.9592 148.654 26.2607 148.354C26.5622 148.054 26.9201 147.816 27.3137 147.655C27.7073 147.493 28.129 147.411 28.5545 147.413C29.4113 147.413 30.233 147.753 30.8389 148.359C31.4448 148.965 31.7852 149.787 31.7852 150.643V182.148Z" fill="#337804"/>
<path d="M53.3712 182.148C53.3732 182.575 53.2906 182.999 53.1284 183.394C52.9662 183.789 52.7274 184.149 52.4259 184.452C52.1244 184.754 51.766 184.995 51.3713 185.159C50.9766 185.323 50.5535 185.407 50.1261 185.407C49.2679 185.403 48.4462 185.06 47.8408 184.452C47.2353 183.844 46.8954 183.021 46.8954 182.162V150.643C46.8954 149.787 47.2358 148.965 47.8417 148.359C48.4475 147.753 49.2693 147.413 50.1261 147.413C50.5516 147.411 50.9732 147.493 51.3669 147.655C51.7605 147.816 52.1184 148.054 52.4199 148.354C52.7214 148.654 52.9607 149.011 53.1239 149.404C53.2872 149.797 53.3712 150.218 53.3712 150.643V182.148Z" fill="#337804"/>
<path d="M74.9573 182.148C74.9592 182.575 74.8767 182.999 74.7145 183.394C74.5522 183.789 74.3135 184.149 74.012 184.452C73.7104 184.754 73.3521 184.995 72.9574 185.159C72.5627 185.323 72.1396 185.407 71.7122 185.407C70.8515 185.407 70.0261 185.065 69.4175 184.457C68.8089 183.848 68.467 183.023 68.467 182.162V150.643C68.467 150.218 68.551 149.797 68.7143 149.404C68.8776 149.011 69.1168 148.654 69.4184 148.354C69.7199 148.054 70.0778 147.816 70.4714 147.655C70.865 147.493 71.2867 147.411 71.7122 147.413C72.1376 147.411 72.5593 147.493 72.9529 147.655C73.3466 147.816 73.7044 148.054 74.006 148.354C74.3075 148.654 74.5468 149.011 74.71 149.404C74.8733 149.797 74.9573 150.218 74.9573 150.643V182.148Z" fill="#337804"/>
<path d="M96.5289 182.148C96.5308 182.574 96.4488 182.996 96.2875 183.391C96.1261 183.785 95.8887 184.144 95.5887 184.447C95.2887 184.749 94.932 184.99 94.539 185.155C94.146 185.319 93.7244 185.405 93.2983 185.407C92.4376 185.407 91.6122 185.065 91.0036 184.457C90.395 183.848 90.0531 183.023 90.0531 182.162V150.643C90.0531 150.218 90.1371 149.797 90.3004 149.404C90.4637 149.011 90.7029 148.654 91.0045 148.354C91.306 148.054 91.6638 147.816 92.0575 147.655C92.4511 147.493 92.8728 147.411 93.2983 147.413C94.1551 147.413 94.9768 147.753 95.5827 148.359C96.1885 148.965 96.5289 149.787 96.5289 150.643V182.148Z" fill="#337804"/>
<path d="M118.115 182.148C118.117 182.575 118.034 182.999 117.872 183.394C117.71 183.789 117.471 184.149 117.17 184.452C116.868 184.754 116.51 184.995 116.115 185.159C115.72 185.323 115.297 185.407 114.87 185.407C114.012 185.403 113.19 185.06 112.585 184.452C111.979 183.844 111.639 183.021 111.639 182.162V150.643C111.639 149.787 111.98 148.965 112.585 148.359C113.191 147.753 114.013 147.413 114.87 147.413C115.295 147.411 115.717 147.493 116.111 147.655C116.504 147.816 116.862 148.054 117.164 148.354C117.465 148.654 117.704 149.011 117.868 149.404C118.031 149.797 118.115 150.218 118.115 150.643V182.148Z" fill="#337804"/>
<path d="M139.701 182.148C139.703 182.575 139.62 182.999 139.458 183.394C139.296 183.789 139.057 184.149 138.756 184.452C138.454 184.754 138.096 184.995 137.701 185.159C137.307 185.323 136.883 185.407 136.456 185.407C135.605 185.388 134.796 185.036 134.203 184.426C133.609 183.817 133.279 182.999 133.283 182.148V150.643C133.283 149.787 133.624 148.965 134.229 148.359C134.835 147.753 135.657 147.413 136.514 147.413C137.363 147.425 138.174 147.77 138.77 148.374C139.367 148.979 139.701 149.794 139.701 150.643V182.148Z" fill="#337804"/>
<path d="M161.287 182.148C161.287 183.009 160.945 183.834 160.337 184.442C159.728 185.051 158.903 185.393 158.042 185.393C157.181 185.393 156.356 185.051 155.747 184.442C155.139 183.834 154.797 183.009 154.797 182.148V150.643C154.797 150.218 154.881 149.797 155.044 149.404C155.207 149.011 155.447 148.654 155.748 148.354C156.05 148.054 156.408 147.816 156.801 147.655C157.195 147.493 157.617 147.411 158.042 147.413C158.468 147.411 158.889 147.493 159.283 147.655C159.676 147.816 160.034 148.054 160.336 148.354C160.637 148.654 160.877 149.011 161.04 149.404C161.203 149.797 161.287 150.218 161.287 150.643V182.148Z" fill="#337804"/>
<path d="M182.859 182.148C182.863 183.006 182.526 183.831 181.924 184.441C181.321 185.052 180.501 185.399 179.643 185.407C178.782 185.407 177.957 185.065 177.348 184.457C176.739 183.848 176.397 183.023 176.397 182.162V150.643C176.397 150.218 176.481 149.797 176.645 149.404C176.808 149.011 177.047 148.654 177.349 148.354C177.65 148.054 178.008 147.816 178.402 147.655C178.795 147.493 179.217 147.411 179.643 147.413C180.499 147.413 181.321 147.753 181.927 148.359C182.533 148.965 182.873 149.787 182.873 150.643L182.859 182.148Z" fill="#337804"/>
<path d="M204.445 182.148C204.445 182.574 204.361 182.996 204.198 183.39C204.035 183.783 203.796 184.141 203.494 184.442C203.193 184.744 202.835 184.983 202.442 185.146C202.048 185.309 201.626 185.393 201.2 185.393C200.342 185.389 199.52 185.045 198.914 184.437C198.309 183.829 197.969 183.006 197.969 182.148V150.643C197.969 149.787 198.309 148.965 198.915 148.359C199.521 147.753 200.343 147.413 201.2 147.413C201.625 147.411 202.047 147.493 202.44 147.655C202.834 147.816 203.192 148.054 203.494 148.354C203.795 148.654 204.034 149.011 204.198 149.404C204.361 149.797 204.445 150.218 204.445 150.643V182.148Z" fill="#337804"/>
<path d="M226.002 182.148C226.002 183.009 225.66 183.834 225.051 184.442C224.443 185.051 223.617 185.393 222.757 185.393C221.897 185.389 221.074 185.046 220.466 184.438C219.859 183.83 219.515 183.007 219.512 182.148V150.643C219.515 149.785 219.859 148.964 220.467 148.358C221.075 147.753 221.899 147.413 222.757 147.413C223.182 147.411 223.604 147.493 223.998 147.655C224.391 147.816 224.749 148.054 225.051 148.354C225.352 148.654 225.591 149.011 225.755 149.404C225.918 149.797 226.002 150.218 226.002 150.643V182.148Z" fill="#337804"/>
<path d="M247.617 182.148C247.613 183.007 247.27 183.83 246.662 184.438C246.055 185.046 245.231 185.389 244.372 185.393C243.511 185.393 242.686 185.051 242.077 184.442C241.469 183.834 241.127 183.009 241.127 182.148V150.643C241.127 150.218 241.211 149.797 241.374 149.404C241.537 149.011 241.777 148.654 242.078 148.354C242.38 148.054 242.737 147.816 243.131 147.655C243.525 147.493 243.946 147.411 244.372 147.413C245.23 147.413 246.053 147.753 246.661 148.358C247.27 148.964 247.613 149.785 247.617 150.643V182.148Z" fill="#337804"/>
<path d="M269.189 182.148C269.189 183.006 268.849 183.829 268.243 184.437C267.638 185.045 266.816 185.389 265.958 185.393C265.097 185.393 264.272 185.051 263.663 184.442C263.055 183.834 262.713 183.009 262.713 182.148V150.643C262.713 150.218 262.797 149.797 262.96 149.404C263.123 149.011 263.363 148.654 263.664 148.354C263.966 148.054 264.324 147.816 264.717 147.655C265.111 147.493 265.532 147.411 265.958 147.413C266.815 147.413 267.637 147.753 268.242 148.359C268.848 148.965 269.189 149.787 269.189 150.643V182.148Z" fill="#337804"/>
<path d="M290.775 182.148C290.775 183.009 290.433 183.834 289.824 184.442C289.216 185.051 288.39 185.393 287.53 185.393C286.671 185.389 285.85 185.045 285.244 184.437C284.639 183.829 284.299 183.006 284.299 182.148V150.643C284.299 149.787 284.639 148.965 285.245 148.359C285.851 147.753 286.673 147.413 287.53 147.413C287.955 147.411 288.377 147.493 288.77 147.655C289.164 147.816 289.522 148.054 289.823 148.354C290.125 148.654 290.364 149.011 290.527 149.404C290.691 149.797 290.775 150.218 290.775 150.643V182.148Z" fill="#337804"/>
<path d="M312.361 182.148C312.361 183.009 312.019 183.834 311.41 184.442C310.802 185.051 309.976 185.393 309.116 185.393C308.256 185.389 307.433 185.046 306.825 184.438C306.217 183.83 305.874 183.007 305.87 182.148V150.643C305.874 149.785 306.218 148.964 306.826 148.358C307.434 147.753 308.257 147.413 309.116 147.413C309.541 147.411 309.963 147.493 310.356 147.655C310.75 147.816 311.108 148.054 311.409 148.354C311.711 148.654 311.95 149.011 312.113 149.404C312.277 149.797 312.361 150.218 312.361 150.643V182.148Z" fill="#337804"/>
<path d="M333.947 182.148C333.943 183.007 333.6 183.83 332.992 184.438C332.384 185.046 331.561 185.389 330.702 185.393C329.841 185.393 329.016 185.051 328.407 184.442C327.798 183.834 327.457 183.009 327.457 182.148V150.643C327.457 150.218 327.541 149.797 327.704 149.404C327.867 149.011 328.106 148.654 328.408 148.354C328.709 148.054 329.067 147.816 329.461 147.655C329.855 147.493 330.276 147.411 330.702 147.413C331.56 147.413 332.383 147.753 332.991 148.358C333.599 148.964 333.943 149.785 333.947 150.643V182.148Z" fill="#337804"/>
<path d="M355.518 182.148C355.518 183.006 355.179 183.829 354.573 184.437C353.968 185.045 353.146 185.389 352.288 185.393C351.427 185.393 350.602 185.051 349.993 184.442C349.385 183.834 349.043 183.009 349.043 182.148V150.643C349.043 150.218 349.127 149.797 349.29 149.404C349.453 149.011 349.693 148.654 349.994 148.354C350.296 148.054 350.653 147.816 351.047 147.655C351.441 147.493 351.862 147.411 352.288 147.413C353.145 147.413 353.966 147.753 354.572 148.359C355.178 148.965 355.518 149.787 355.518 150.643V182.148Z" fill="#337804"/>
<path d="M377.105 182.148C377.105 183.009 376.763 183.834 376.154 184.442C375.546 185.051 374.72 185.393 373.859 185.393C373.001 185.389 372.18 185.045 371.574 184.437C370.969 183.829 370.629 183.006 370.629 182.148V150.643C370.629 149.787 370.969 148.965 371.575 148.359C372.181 147.753 373.003 147.413 373.859 147.413C374.285 147.411 374.707 147.493 375.1 147.655C375.494 147.816 375.852 148.054 376.153 148.354C376.455 148.654 376.694 149.011 376.857 149.404C377.021 149.797 377.105 150.218 377.105 150.643V182.148Z" fill="#337804"/>
<path d="M398.691 182.148C398.695 183.001 398.362 183.821 397.766 184.431C397.169 185.041 396.357 185.392 395.503 185.407C394.644 185.403 393.821 185.06 393.213 184.453C392.605 183.845 392.262 183.022 392.258 182.162V150.643C392.262 149.785 392.606 148.964 393.214 148.358C393.822 147.753 394.645 147.413 395.503 147.413C396.353 147.425 397.163 147.77 397.76 148.374C398.356 148.979 398.691 149.794 398.691 150.643V182.148Z" fill="#337804"/>
<path d="M424 338.556H0V349H424V338.556Z" fill="#A6FF47"/>
</g>
<defs>
<linearGradient id="paint0_linear_1061_626" x1="57.3842" y1="300.939" x2="57.3842" y2="192.679" gradientUnits="userSpaceOnUse">
<stop stop-color="white"/>
<stop offset="1" stop-color="#BBDBF0"/>
</linearGradient>
<linearGradient id="paint1_linear_1061_626" x1="83.1137" y1="300.939" x2="83.1137" y2="192.679" gradientUnits="userSpaceOnUse">
<stop stop-color="white"/>
<stop offset="1" stop-color="#BBDBF0"/>
</linearGradient>
<linearGradient id="paint2_linear_1061_626" x1="111.364" y1="300.939" x2="111.364" y2="192.679" gradientUnits="userSpaceOnUse">
<stop stop-color="white"/>
<stop offset="1" stop-color="#BBDBF0"/>
</linearGradient>
<linearGradient id="paint3_linear_1061_626" x1="135.949" y1="300.939" x2="135.949" y2="192.679" gradientUnits="userSpaceOnUse">
<stop stop-color="white"/>
<stop offset="1" stop-color="#BBDBF0"/>
</linearGradient>
<linearGradient id="paint4_linear_1061_626" x1="163.75" y1="300.939" x2="163.75" y2="192.679" gradientUnits="userSpaceOnUse">
<stop stop-color="white"/>
<stop offset="1" stop-color="#BBDBF0"/>
</linearGradient>
<linearGradient id="paint5_linear_1061_626" x1="186.77" y1="300.939" x2="186.77" y2="192.679" gradientUnits="userSpaceOnUse">
<stop stop-color="white"/>
<stop offset="1" stop-color="#BBDBF0"/>
</linearGradient>
<linearGradient id="paint6_linear_1061_626" x1="208.777" y1="300.939" x2="208.777" y2="192.679" gradientUnits="userSpaceOnUse">
<stop stop-color="white"/>
<stop offset="1" stop-color="#BBDBF0"/>
</linearGradient>
<linearGradient id="paint7_linear_1061_626" x1="236.882" y1="300.939" x2="236.882" y2="192.679" gradientUnits="userSpaceOnUse">
<stop stop-color="white"/>
<stop offset="1" stop-color="#BBDBF0"/>
</linearGradient>
<linearGradient id="paint8_linear_1061_626" x1="261.699" y1="300.939" x2="261.699" y2="192.678" gradientUnits="userSpaceOnUse">
<stop stop-color="white"/>
<stop offset="1" stop-color="#BBDBF0"/>
</linearGradient>
<linearGradient id="paint9_linear_1061_626" x1="285.806" y1="300.939" x2="285.806" y2="192.679" gradientUnits="userSpaceOnUse">
<stop stop-color="white"/>
<stop offset="1" stop-color="#BBDBF0"/>
</linearGradient>
<linearGradient id="paint10_linear_1061_626" x1="317.171" y1="300.939" x2="317.171" y2="192.679" gradientUnits="userSpaceOnUse">
<stop stop-color="white"/>
<stop offset="1" stop-color="#BBDBF0"/>
</linearGradient>
<linearGradient id="paint11_linear_1061_626" x1="340.727" y1="300.939" x2="340.727" y2="192.678" gradientUnits="userSpaceOnUse">
<stop stop-color="white"/>
<stop offset="1" stop-color="#BBDBF0"/>
</linearGradient>
<linearGradient id="paint12_linear_1061_626" x1="366.225" y1="300.939" x2="366.225" y2="192.679" gradientUnits="userSpaceOnUse">
<stop stop-color="white"/>
<stop offset="1" stop-color="#BBDBF0"/>
</linearGradient>
<linearGradient id="paint13_linear_1061_626" x1="212.746" y1="149.282" x2="212.746" y2="179.294" gradientUnits="userSpaceOnUse">
<stop stop-color="white"/>
<stop offset="1" stop-color="#BBDBF0"/>
</linearGradient>
<clipPath id="clip0_1061_626">
<rect width="424" height="349" fill="white"/>
</clipPath>
</defs>
</svg>
