<svg width="488" height="296" viewBox="0 0 488 296" fill="none" xmlns="http://www.w3.org/2000/svg">
<g clip-path="url(#clip0_1061_56)">
<mask id="mask0_1061_56" style="mask-type:luminance" maskUnits="userSpaceOnUse" x="0" y="0" width="488" height="296">
<path d="M487.46 0H0V295.3H487.46V0Z" fill="white"/>
</mask>
<g mask="url(#mask0_1061_56)">
<path d="M291.3 263.27C227.13 234.27 216.2 246.92 161.83 273.68C102.92 302.67 50.5004 260.42 44.1504 224C26.0604 120 88.6404 25.0002 162.28 4.14015C204.66 -7.85985 286.44 3.76015 291.4 71.8002C293.65 102.8 278.51 131.2 314.61 142.33C351.95 153.85 409.71 125.06 424.77 183.05C439.69 240.52 351.29 290.37 291.3 263.27Z" fill="#CEFF8A" fill-opacity="0.5"/>
<path d="M487.46 284C487.46 290.25 383.46 295.31 255.06 295.31C126.66 295.31 22.6699 290.24 22.6699 284C22.6699 277.76 126.72 272.69 255.06 272.69C383.4 272.69 487.46 277.74 487.46 284Z" fill="#204B03" fill-opacity="0.3"/>
<path d="M61.75 285.09L317.78 286.24L344.25 143.28L107.58 142.22L61.75 285.09Z" fill="#58CC02"/>
<path d="M61.75 285.09L70.9 285.13L115.37 142.25L107.58 142.22L61.75 285.09Z" fill="#A6FF47"/>
<path d="M144.05 285.46L317.78 286.24L344.25 143.28L107.58 142.22L103.06 156.3L144.05 285.46Z" fill="#A6FF47"/>
<path d="M393.08 286.58L154.27 285.51L107.58 142.22L344.25 143.28L393.08 286.58Z" fill="#7FEA16"/>
<path d="M382.46 281.921L165.64 280.941L123.25 150.851L338.12 151.821L382.46 281.921Z" fill="white"/>
<path d="M333.45 170.76L139.38 170.57L137.48 164.72L331.69 165.59L333.45 170.76Z" fill="#FF7600"/>
<path d="M167.75 196.42L147.17 196.33L139.77 175.71L160.35 175.81L167.75 196.42Z" fill="#A6FF47"/>
<path d="M192.98 196.54L172.4 196.44L165 175.82L185.58 175.92L192.98 196.54Z" fill="#A6FF47"/>
<path d="M218.21 196.65L197.63 196.56L190.23 175.94L210.81 176.03L218.21 196.65Z" fill="#A6FF47"/>
<path d="M243.44 196.76L222.86 196.67L215.46 176.05L236.05 176.15L243.44 196.76Z" fill="#A6FF47"/>
<path d="M267.35 196.87L246.76 196.78L239.36 176.16L259.95 176.26L267.35 196.87Z" fill="#A6FF47"/>
<path d="M292.58 196.99L272 196.89L264.6 176.28L285.18 176.37L292.58 196.99Z" fill="#A6FF47"/>
<path d="M317.82 197.101L297.23 197.001L289.83 176.391L310.42 176.481L317.82 197.101Z" fill="#A6FF47"/>
<path d="M343.04 197.21L322.46 197.12L315.06 176.5L335.64 176.59L343.04 197.21Z" fill="#A6FF47"/>
<path d="M176.83 221.69L156.24 221.6L148.84 200.99L169.42 201.07L176.83 221.69Z" fill="#A6FF47"/>
<path d="M202.05 221.811L181.47 221.721L174.07 201.101L194.65 201.191L202.05 221.811Z" fill="#A6FF47"/>
<path d="M227.28 221.92L206.7 221.83L199.3 201.22L219.89 201.31L227.28 221.92Z" fill="#A6FF47"/>
<path d="M252.51 222.04L231.94 221.95L224.54 201.33L245.12 201.42L252.51 222.04Z" fill="#A6FF47"/>
<path d="M276.42 222.14L255.84 222.05L248.44 201.44L269.02 201.53L276.42 222.14Z" fill="#A6FF47"/>
<path d="M301.65 222.26L281.07 222.17L273.67 201.55L294.25 201.64L301.65 222.26Z" fill="#A6FF47"/>
<path d="M326.88 222.37L306.3 222.28L298.9 201.66L319.48 201.76L326.88 222.37Z" fill="#A6FF47"/>
<path d="M352.11 222.48L331.53 222.39L324.13 201.78L344.72 201.87L352.11 222.48Z" fill="#A6FF47"/>
<path d="M185.89 246.97L165.31 246.88L157.91 226.26L178.49 226.35L185.89 246.97Z" fill="#A6FF47"/>
<path d="M211.12 247.08L190.54 246.99L183.14 226.37L203.72 226.47L211.12 247.08Z" fill="#A6FF47"/>
<path d="M236.36 247.2L215.77 247.1L208.37 226.49L228.95 226.58L236.36 247.2Z" fill="#A6FF47"/>
<path d="M261.59 247.311L241 247.221L233.61 226.601L254.19 226.691L261.59 247.311Z" fill="#A6FF47"/>
<path d="M285.49 247.42L264.9 247.32L257.51 226.71L278.09 226.8L285.49 247.42Z" fill="#A6FF47"/>
<path d="M310.72 247.53L290.14 247.44L282.74 226.82L303.31 226.92L310.72 247.53Z" fill="#A6FF47"/>
<path d="M335.95 247.65L315.37 247.55L307.97 226.93L328.55 227.03L335.95 247.65Z" fill="#A6FF47"/>
<path d="M361.19 247.76L340.6 247.67L333.2 227.05L353.79 227.14L361.19 247.76Z" fill="#A6FF47"/>
<path d="M194.95 272.25L174.38 272.15L166.97 251.53L187.56 251.63L194.95 272.25Z" fill="#A6FF47"/>
<path d="M220.19 272.36L199.61 272.26L192.21 251.65L212.79 251.74L220.19 272.36Z" fill="#A6FF47"/>
<path d="M245.42 272.47L224.84 272.38L217.44 251.76L238.03 251.85L245.42 272.47Z" fill="#A6FF47"/>
<path d="M270.65 272.58L250.07 272.49L242.67 251.88L263.26 251.97L270.65 272.58Z" fill="#A6FF47"/>
<path d="M294.56 272.69L273.98 272.6L266.57 251.98L287.16 252.08L294.56 272.69Z" fill="#A6FF47"/>
<path d="M319.79 272.81L299.21 272.71L291.81 252.09L312.39 252.19L319.79 272.81Z" fill="#A6FF47"/>
<path d="M345.03 272.92L324.44 272.83L317.04 252.21L337.63 252.3L345.03 272.92Z" fill="#A6FF47"/>
<path d="M370.26 273.03L349.68 272.94L342.27 252.32L362.86 252.41L370.26 273.03Z" fill="#A6FF47"/>
<path d="M152.1 150.73C152.154 151.653 151.929 152.571 151.456 153.364C150.982 154.158 150.28 154.79 149.442 155.18C148.604 155.57 147.668 155.699 146.756 155.55C145.844 155.402 144.998 154.982 144.327 154.347C143.656 153.711 143.192 152.888 142.994 151.985C142.797 151.082 142.875 150.141 143.219 149.283C143.564 148.426 144.158 147.691 144.925 147.175C145.691 146.659 146.596 146.386 147.52 146.39C148.106 146.374 148.689 146.474 149.236 146.683C149.783 146.893 150.284 147.208 150.709 147.611C151.134 148.014 151.476 148.497 151.715 149.032C151.953 149.568 152.084 150.145 152.1 150.73Z" fill="#A6FF47"/>
<path d="M148.49 151.58L146.74 150.34C146.74 150.34 149.41 146.48 148.67 142.89C148.458 141.992 148.058 141.15 147.496 140.419C146.934 139.688 146.223 139.085 145.41 138.65C144.551 138.417 143.669 138.283 142.78 138.25C141.84 138.233 140.907 138.424 140.05 138.81C139.317 139.138 138.667 139.626 138.148 140.239C137.628 140.852 137.253 141.573 137.05 142.35H134.47C135.253 139.979 136.933 138.008 139.15 136.86C141.454 135.925 144.025 135.882 146.36 136.74C147.5 137.272 148.496 138.07 149.264 139.067C150.031 140.064 150.548 141.231 150.77 142.47C151.7 147 148.62 151.4 148.49 151.58Z" fill="#7FEA16"/>
<path d="M177.92 150.84C177.974 151.762 177.75 152.679 177.277 153.472C176.803 154.266 176.102 154.898 175.265 155.288C174.427 155.679 173.492 155.808 172.58 155.66C171.668 155.512 170.822 155.094 170.151 154.459C169.48 153.825 169.014 153.003 168.816 152.101C168.617 151.199 168.694 150.258 169.037 149.4C169.38 148.542 169.972 147.807 170.738 147.29C171.503 146.772 172.406 146.497 173.33 146.5C174.514 146.467 175.662 146.906 176.523 147.72C177.384 148.534 177.886 149.656 177.92 150.84Z" fill="#A6FF47"/>
<path d="M174.31 151.7L172.56 150.46C172.56 150.46 175.23 146.6 174.48 143C174.269 142.106 173.871 141.267 173.313 140.538C172.754 139.809 172.048 139.207 171.24 138.77C170.378 138.539 169.492 138.405 168.6 138.37C167.66 138.348 166.728 138.536 165.87 138.92C165.138 139.252 164.489 139.743 163.97 140.357C163.451 140.971 163.076 141.693 162.87 142.47H160.29C161.083 140.1 162.774 138.136 165 137C167.304 136.061 169.874 136.015 172.21 136.87C173.35 137.405 174.345 138.206 175.112 139.204C175.879 140.203 176.396 141.371 176.62 142.61C177.52 147.09 174.44 151.51 174.31 151.7Z" fill="#7FEA16"/>
<path d="M208.05 151C208.106 151.925 207.883 152.846 207.409 153.642C206.935 154.438 206.233 155.074 205.394 155.466C204.554 155.858 203.616 155.989 202.701 155.841C201.787 155.693 200.938 155.274 200.264 154.637C199.591 154.001 199.125 153.176 198.926 152.271C198.727 151.366 198.805 150.422 199.15 149.562C199.494 148.702 200.09 147.965 200.858 147.448C201.627 146.93 202.533 146.656 203.46 146.66C204.642 146.633 205.788 147.074 206.647 147.887C207.507 148.699 208.011 149.818 208.05 151Z" fill="#A6FF47"/>
<path d="M204.43 151.83L202.68 150.59C202.68 150.59 205.35 146.74 204.6 143.14C204.388 142.244 203.988 141.403 203.428 140.673C202.868 139.942 202.16 139.338 201.35 138.9C200.491 138.672 199.609 138.538 198.72 138.5C197.777 138.483 196.842 138.675 195.98 139.06C195.248 139.391 194.599 139.882 194.08 140.496C193.561 141.11 193.185 141.832 192.98 142.61H190.4C191.184 140.241 192.864 138.274 195.08 137.13C197.384 136.191 199.955 136.145 202.29 137C203.429 137.534 204.423 138.333 205.19 139.33C205.958 140.327 206.475 141.492 206.7 142.73C207.65 147.23 204.57 151.65 204.43 151.83Z" fill="#7FEA16"/>
<path d="M233.86 151.09C233.916 152.013 233.694 152.931 233.221 153.726C232.749 154.52 232.049 155.154 231.212 155.546C230.375 155.938 229.44 156.069 228.527 155.922C227.615 155.775 226.767 155.358 226.095 154.724C225.423 154.09 224.957 153.268 224.757 152.366C224.558 151.463 224.634 150.522 224.976 149.663C225.318 148.805 225.911 148.069 226.677 147.551C227.442 147.034 228.346 146.758 229.27 146.76C230.452 146.728 231.599 147.166 232.459 147.977C233.32 148.789 233.823 149.908 233.86 151.09Z" fill="#A6FF47"/>
<path d="M230.25 152L228.49 150.76C228.49 150.76 231.17 146.9 230.42 143.31C230.211 142.413 229.812 141.571 229.252 140.84C228.692 140.109 227.982 139.506 227.17 139.07C226.312 138.839 225.429 138.705 224.54 138.67C223.6 138.652 222.668 138.843 221.81 139.23C221.077 139.557 220.426 140.045 219.907 140.658C219.387 141.271 219.013 141.993 218.81 142.77H216.23C217.011 140.398 218.691 138.426 220.91 137.28C223.216 136.349 225.783 136.303 228.12 137.15C229.261 137.685 230.256 138.485 231.024 139.484C231.791 140.483 232.308 141.651 232.53 142.89C233.46 147.35 230.38 151.77 230.25 152Z" fill="#7FEA16"/>
<path d="M266.14 151.24C266.196 152.165 265.973 153.085 265.5 153.881C265.026 154.677 264.325 155.312 263.486 155.705C262.647 156.097 261.709 156.229 260.795 156.082C259.881 155.935 259.031 155.516 258.358 154.881C257.684 154.245 257.217 153.422 257.017 152.517C256.817 151.613 256.894 150.669 257.237 149.809C257.58 148.949 258.173 148.211 258.941 147.693C259.708 147.174 260.614 146.898 261.54 146.9C262.725 146.868 263.874 147.306 264.736 148.12C265.598 148.933 266.103 150.055 266.14 151.24Z" fill="#A6FF47"/>
<path d="M262.52 152.091L260.76 150.851C260.76 150.851 263.44 147.001 262.69 143.401C262.48 142.504 262.081 141.662 261.521 140.931C260.96 140.2 260.251 139.597 259.44 139.161C258.58 138.934 257.698 138.804 256.81 138.771C255.871 138.751 254.938 138.938 254.08 139.321C253.347 139.652 252.698 140.142 252.179 140.756C251.659 141.37 251.284 142.093 251.08 142.871H248.5C249.284 140.502 250.964 138.535 253.18 137.391C255.481 136.455 258.047 136.408 260.38 137.261C261.523 137.793 262.521 138.592 263.291 139.591C264.06 140.59 264.578 141.759 264.8 143.001C265.73 147.491 262.66 151.911 262.52 152.091Z" fill="#7FEA16"/>
<path d="M292 151.36C292.054 152.282 291.83 153.2 291.357 153.993C290.883 154.786 290.182 155.419 289.345 155.809C288.508 156.199 287.572 156.329 286.66 156.181C285.748 156.033 284.902 155.615 284.231 154.98C283.56 154.345 283.095 153.524 282.896 152.621C282.697 151.719 282.774 150.778 283.117 149.92C283.46 149.062 284.052 148.327 284.818 147.81C285.583 147.293 286.486 147.018 287.41 147.02C288.594 146.988 289.742 147.427 290.603 148.241C291.464 149.054 291.966 150.176 292 151.36Z" fill="#A6FF47"/>
<path d="M288.34 152.21L286.59 151C286.59 151 289.26 147.14 288.51 143.55C288.301 142.653 287.902 141.811 287.342 141.08C286.781 140.349 286.072 139.746 285.26 139.31C284.401 139.082 283.519 138.948 282.63 138.91C281.69 138.892 280.758 139.083 279.9 139.47C279.168 139.799 278.518 140.287 277.999 140.9C277.48 141.513 277.104 142.233 276.9 143.01H274.32C275.1 140.64 276.776 138.67 278.99 137.52C281.298 136.582 283.873 136.539 286.21 137.4C287.351 137.93 288.347 138.728 289.113 139.726C289.879 140.723 290.393 141.891 290.61 143.13C291.55 147.61 288.48 152 288.34 152.21Z" fill="#7FEA16"/>
<path d="M322.07 151.49C322.124 152.412 321.899 153.33 321.425 154.124C320.951 154.917 320.25 155.55 319.412 155.94C318.574 156.329 317.638 156.458 316.726 156.31C315.814 156.161 314.967 155.742 314.297 155.106C313.626 154.47 313.161 153.648 312.964 152.745C312.766 151.842 312.845 150.901 313.189 150.043C313.533 149.185 314.127 148.451 314.894 147.935C315.661 147.419 316.565 147.145 317.49 147.15C318.672 147.12 319.818 147.56 320.676 148.374C321.534 149.187 322.036 150.308 322.07 151.49Z" fill="#A6FF47"/>
<path d="M318.46 152.35L316.71 151.11C316.71 151.11 319.39 147.25 318.63 143.65C318.418 142.755 318.018 141.916 317.458 141.187C316.898 140.458 316.19 139.856 315.38 139.42C314.523 139.181 313.64 139.046 312.75 139.02C311.808 138.999 310.872 139.187 310.01 139.57C309.28 139.902 308.633 140.392 308.114 141.004C307.595 141.616 307.219 142.335 307.01 143.11H304.44C305.223 140.747 306.894 138.782 309.1 137.63C311.407 136.689 313.982 136.642 316.32 137.5C317.461 138.036 318.456 138.836 319.225 139.835C319.994 140.833 320.513 142 320.74 143.24C321.67 147.75 318.59 152.16 318.46 152.35Z" fill="#7FEA16"/>
<path d="M241.804 203.767L232.539 218.542L234.996 220.083L244.261 205.307L241.804 203.767Z" fill="#7FEA16"/>
<path d="M232.144 203.502L230.127 205.586L245.282 220.252L247.299 218.168L232.144 203.502Z" fill="#7FEA16"/>
<path d="M350.456 229.483L341.209 244.258L343.667 245.796L352.914 231.021L350.456 229.483Z" fill="#FEB801"/>
<path d="M340.804 229.195L338.788 231.279L353.956 245.947L355.972 243.863L340.804 229.195Z" fill="#FEB801"/>
<path d="M200.404 228.782L191.131 243.553L193.587 245.095L202.86 230.324L200.404 228.782Z" fill="#FEB801"/>
<path d="M190.74 228.517L188.724 230.602L203.884 245.262L205.9 243.178L190.74 228.517Z" fill="#FEB801"/>
<path d="M271.82 256.8L281.07 269.23L289.4 249.32L280.67 262.24L271.82 256.8Z" fill="#7FEA16"/>
<path d="M172.57 179.881L181.81 192.301L190.14 172.391L181.41 185.321L172.57 179.881Z" fill="#FEB801"/>
<path d="M67.78 120.55H0V188.33H67.78V120.55Z" fill="#FEDA00"/>
<path d="M67.22 120.55H0V132.09H67.22V120.55Z" fill="#E08B03"/>
<path d="M60.8798 139.87H7.58984V142.01H60.8798V139.87Z" fill="white"/>
<path d="M60.8798 146.8H7.58984V148.94H60.8798V146.8Z" fill="white"/>
<path d="M60.8798 153.72H7.58984V155.86H60.8798V153.72Z" fill="white"/>
<path d="M60.8798 160.641H7.58984V162.781H60.8798V160.641Z" fill="white"/>
<path d="M60.8798 167.561H7.58984V169.701H60.8798V167.561Z" fill="white"/>
<path d="M60.8798 174.49H7.58984V176.63H60.8798V174.49Z" fill="white"/>
<path d="M295.3 97.8705L308.75 115.461L305.89 95.0205L295.3 97.8705Z" fill="#FEDA00"/>
<path d="M247.38 99.1401H305C307.692 99.1323 310.289 98.1492 312.312 96.3731C314.334 94.597 315.644 92.1482 316 89.4801L318.37 71.7101C318.577 70.1417 318.448 68.5471 317.991 67.0326C317.534 65.5181 316.759 64.1184 315.718 62.927C314.677 61.7356 313.394 60.7799 311.954 60.1234C310.515 59.467 308.952 59.1249 307.37 59.1201H245C243.417 59.1233 241.854 59.4643 240.413 60.1202C238.973 60.7761 237.69 61.7319 236.648 62.9236C235.607 64.1154 234.832 65.5157 234.375 67.0309C233.919 68.5462 233.791 70.1414 234 71.7101L236.36 89.4801C236.716 92.1516 238.029 94.6032 240.056 96.3797C242.082 98.1563 244.685 99.1371 247.38 99.1401Z" fill="#FEDA00"/>
<path d="M285.08 79.1305C285.08 79.894 285.306 80.6402 285.731 81.275C286.155 81.9098 286.758 82.4045 287.463 82.6967C288.168 82.9889 288.944 83.0653 289.693 82.9164C290.442 82.7674 291.13 82.3998 291.67 81.86C292.209 81.3201 292.577 80.6323 292.726 79.8836C292.875 79.1348 292.798 78.3587 292.506 77.6534C292.214 76.948 291.719 76.3452 291.085 75.921C290.45 75.4969 289.704 75.2705 288.94 75.2705C288.433 75.2692 287.93 75.3681 287.461 75.5617C286.992 75.7552 286.566 76.0395 286.208 76.3982C285.849 76.7569 285.565 77.1829 285.371 77.6518C285.178 78.1207 285.079 78.6232 285.08 79.1305Z" fill="#F0F8FF"/>
<path d="M276.18 82.9803C278.306 82.9803 280.03 81.2566 280.03 79.1303C280.03 77.004 278.306 75.2803 276.18 75.2803C274.054 75.2803 272.33 77.004 272.33 79.1303C272.33 81.2566 274.054 82.9803 276.18 82.9803Z" fill="#F0F8FF"/>
<path d="M263.42 82.9803C265.547 82.9803 267.27 81.2566 267.27 79.1303C267.27 77.004 265.547 75.2803 263.42 75.2803C261.294 75.2803 259.57 77.004 259.57 79.1303C259.57 81.2566 261.294 82.9803 263.42 82.9803Z" fill="#F0F8FF"/>
<path d="M182.13 60.9004H43.25C40.3505 60.9004 38 63.2509 38 66.1504V94.3804C38 97.2799 40.3505 99.6304 43.25 99.6304H182.13C185.029 99.6304 187.38 97.2799 187.38 94.3804V66.1504C187.38 63.2509 185.029 60.9004 182.13 60.9004Z" fill="#7FEA16"/>
<path d="M72.6799 87.8106C72.6799 89.2029 72.1268 90.5383 71.1422 91.5229C70.1577 92.5074 68.8223 93.0606 67.4299 93.0606H51.6799C50.2866 93.0606 48.9502 92.5078 47.9641 91.5235C46.9779 90.5392 46.4226 89.2039 46.4199 87.8106V72.0606C46.4199 71.3703 46.556 70.6868 46.8205 70.0492C47.085 69.4115 47.4726 68.8323 47.9611 68.3447C48.4497 67.8571 49.0296 67.4706 49.6678 67.2073C50.3059 66.9441 50.9896 66.8092 51.6799 66.8106H67.4299C68.1197 66.8092 68.803 66.9441 69.4406 67.2075C70.0781 67.4709 70.6574 67.8575 71.1452 68.3453C71.6329 68.8331 72.0196 69.4124 72.283 70.0499C72.5463 70.6875 72.6812 71.3707 72.6799 72.0606V87.8106Z" fill="white"/>
<path d="M178.37 70.6104H81.8604V71.8704H178.37V70.6104Z" fill="white"/>
<path d="M178.37 78.1299H81.8604V79.3899H178.37V78.1299Z" fill="white"/>
<path d="M178.37 85.6406H81.8604V86.8906H178.37V85.6406Z" fill="white"/>
<path d="M52.2417 69.2478L48.7949 72.8837L66.3359 89.512L69.7827 85.8761L52.2417 69.2478Z" fill="#FF7600"/>
<path d="M65.4964 68.7285L49.3486 86.7129L53.0765 90.06L69.2243 72.0757L65.4964 68.7285Z" fill="#FF7600"/>
<path d="M433.41 91.4297C433.41 91.4297 446.41 91.8797 446.22 101.03C446.03 110.18 459.65 106.63 460.53 122.52C460.84 128.11 454.34 134.98 447.53 133.68C442.21 132.68 433.35 121.01 433.8 104.38C434.25 87.7497 430 93.9097 430 93.9097L433.41 91.4297Z" fill="#1D1D1D"/>
<path d="M452.53 202.501L408.18 170.031L409.05 163.381L451.22 160.061L452.53 202.501Z" fill="#1D1D1D"/>
<path d="M409.46 278.27C409.46 278.27 407.76 280.34 405.76 283.13C403.76 285.92 402.26 288.84 405.06 290.18C407.86 291.52 411.26 288.23 412.36 286.29C413.46 284.35 414.71 284.56 416.22 283.29C417.73 282.02 416.94 277.21 416.94 277.21L409.46 278.27Z" fill="#1D1D1D"/>
<path d="M435.18 186.49C431.09 191.86 417.46 278.44 417.46 278.44C413.37 282.01 407.23 278.44 407.23 278.44C402.79 234.29 408.23 168.72 408.23 168.72C408.23 168.72 439.23 191.86 435.13 186.49H435.18Z" fill="#1D1D1D"/>
<path d="M450.27 279.7C450.27 279.7 451.97 281.76 453.97 284.55C455.97 287.34 457.47 290.26 454.67 291.6C451.87 292.94 448.47 289.6 447.37 287.71C446.27 285.82 445.02 285.98 443.5 284.71C441.98 283.44 442.79 278.63 442.79 278.63L450.27 279.7Z" fill="#1D1D1D"/>
<path d="M424.55 187.91C428.64 193.28 442.27 279.91 442.27 279.91C446.36 283.48 452.5 279.91 452.5 279.91C456.93 235.76 452.12 166.18 452.12 166.18C452.12 166.18 420.46 193.33 424.55 187.96V187.91Z" fill="#1D1D1D"/>
<path d="M452.69 168.42C452.69 168.42 424.99 173.99 407.69 165.42L408.87 160.84C422.882 165.41 437.85 166.214 452.27 163.17L452.69 168.42Z" fill="#130C2D"/>
<path d="M438.9 163.771H436.44L435.86 171.43H439.92L438.9 163.771Z" fill="#1E1240"/>
<path d="M421.7 162.891L419.92 162.311L416.87 169.331L420.53 170.531L421.7 162.891Z" fill="#1E1240"/>
<path d="M408.86 132.21C410.11 129.14 412.98 126.32 416.6 127.28C418.66 127.82 419.28 130.79 419.47 133.42C419.94 139.75 413.9 162.91 405.85 163.65C398.46 164.34 404.91 141.94 408.86 132.21Z" fill="#E9B79C"/>
<path d="M405.25 163.701C398.41 164.281 378.87 158.261 378.87 158.261L382.33 155.351L406.56 154.351C406.56 154.351 412.09 163.121 405.25 163.701Z" fill="#E9B79C"/>
<path d="M371 150.061C371 151.581 372.13 154.291 374.2 156.531C375.865 157.997 377.641 159.335 379.51 160.531C379.98 160.851 380.38 161.201 380.84 161.471L383.95 158.021C382.95 157.601 381.14 157.181 379.95 155.361C379.569 154.637 379.274 153.872 379.07 153.081C378.95 152.491 377.62 148.771 377.07 150.281C376.928 151.019 377.015 151.783 377.32 152.471C377.368 152.552 377.389 152.647 377.38 152.741C377.356 152.81 377.309 152.869 377.248 152.909C377.186 152.949 377.113 152.967 377.04 152.961C376.897 152.937 376.76 152.882 376.64 152.801C375.824 152.377 375.097 151.8 374.5 151.101C373.72 150.161 373.36 149.101 372.59 147.991C372.4 147.711 372.03 147.321 371.59 147.451C371.15 147.581 371 148.781 371 150.061Z" fill="#E9B79C"/>
<path d="M419.7 142.37C419.7 142.37 419.99 145.23 418.09 144.99C417.851 144.989 417.615 144.94 417.395 144.846C417.175 144.753 416.976 144.616 416.809 144.445C416.643 144.274 416.512 144.071 416.424 143.849C416.337 143.626 416.295 143.389 416.3 143.15C416.19 143.392 416.03 143.609 415.831 143.785C415.631 143.961 415.396 144.092 415.142 144.171C414.888 144.249 414.62 144.273 414.355 144.24C414.091 144.207 413.837 144.118 413.61 143.98C413.258 143.78 412.999 143.451 412.887 143.062C412.775 142.673 412.819 142.256 413.01 141.9C412.924 142.148 412.785 142.374 412.603 142.563C412.421 142.752 412.201 142.899 411.956 142.994C411.712 143.089 411.45 143.13 411.188 143.114C410.926 143.098 410.671 143.025 410.44 142.9C409.11 142.39 409.84 140.72 409.84 140.72C409.84 140.72 409.3 142.72 407.58 142.03C405.86 141.34 407.46 139.45 407.46 139.45C407.46 139.45 406.07 141.37 404.59 140.59C403.11 139.81 405.72 137.75 405.72 137.75L419.7 142.37Z" fill="#FBFCFB"/>
<path d="M419.69 142.73C419.69 142.73 427.69 122.81 418.91 119.54C409.01 115.85 404.7 138.76 404.7 138.76C404.7 138.76 413.5 144.17 419.69 142.73Z" fill="#58CC02"/>
<path d="M416 119.37C425.56 118.96 433.72 117.8 447.51 119.52L449.4 133.07C447.532 136.239 446.092 139.643 445.12 143.19C441.17 157.8 453.86 158.14 452.42 161.5C449.85 167.5 426.7 171.5 416.26 168.43C412.57 167.35 413.04 162.8 413.81 161.11C419.33 149.11 408.4 144.46 410.81 137.31C411.21 136.13 410.05 134.87 410.16 133.59C414.16 121.48 416 119.37 416 119.37Z" fill="#A6FF47"/>
<path d="M434.47 118.38C436 118.47 441.78 118.9 441.78 118.9L433.78 129.56C433.427 130.024 432.978 130.407 432.464 130.683C431.949 130.958 431.382 131.12 430.799 131.157C430.217 131.194 429.634 131.106 429.088 130.897C428.543 130.689 428.05 130.366 427.64 129.95L424.24 126.47L419.71 129.74C419.361 130 418.941 130.149 418.506 130.167C418.071 130.185 417.64 130.072 417.27 129.842C416.9 129.613 416.608 129.277 416.431 128.879C416.255 128.481 416.202 128.038 416.28 127.61L417.94 119.24C417.94 119.24 428.66 118 434.47 118.38Z" fill="#FBFCFB"/>
<path d="M421.76 90.6504C421.76 90.6504 430.06 85.4504 436.36 92.7904C442.66 100.13 435.73 112.79 428.36 114.91C427.66 115.12 431.71 105.08 430.61 102.39C430.5 102.12 430.27 101.86 430.18 101.58C430.124 101.367 430.084 101.15 430.06 100.93C429.93 100.365 429.77 99.808 429.58 99.2604C429.213 98.1993 428.748 97.1749 428.19 96.2004C427.327 94.6615 426.212 93.2788 424.89 92.1104C424.38 91.6691 423.816 91.296 423.21 91.0004C422.94 90.8604 422.07 90.4604 421.76 90.6504Z" fill="#1D1D1D"/>
<path d="M432.31 104.28C432.31 104.28 421.89 107.54 422.68 108.49C423.47 109.44 422.68 111.71 422.97 113.76C423.27 115.98 422.32 118.51 420.9 121C419.9 122.75 421.6 124.26 423.61 124.39C432.26 124.94 435.67 118.54 435.67 118.54C431.84 114.77 432.31 104.28 432.31 104.28Z" fill="#E9B79C"/>
<path d="M423 113.76C422.72 111.71 423.51 109.44 422.71 108.49C421.91 107.54 432.35 104.28 432.35 104.28C431.533 106.022 431.165 107.94 431.28 109.86C428.748 112.429 425.874 114.636 422.74 116.42C422.996 115.559 423.085 114.655 423 113.76Z" fill="#C58063"/>
<path d="M421.79 91.6903C418.67 95.0203 412.33 108.69 419.23 113.82C422.17 116.02 429.6 111.87 433.13 105.56C434.58 102.97 434.22 97.4903 431.36 92.9703C430.07 90.9103 425.37 87.8003 421.79 91.6903Z" fill="#E9B79C"/>
<path d="M421.82 94.6502C421.82 94.6502 426.16 105.53 434.62 104.36C434.62 104.36 436.62 94.1302 428.18 89.8402C428.18 89.8402 416.18 86.8402 415.12 102.38C415.12 102.38 420.94 102.59 421.82 94.6502Z" fill="#1D1D1D"/>
<path d="M429.56 104.81C429.56 104.81 431.44 101.73 433.1 101.94C434.76 102.15 433.98 106.65 430.82 107.03C427.66 107.41 428.94 105.67 429.56 104.81Z" fill="#E9B79C"/>
<path d="M432.18 114.19L432.23 113.58V113.89H432.54C432.54 113.73 432.41 111.76 432.33 110.02C432.27 108.92 432.21 107.78 432.16 106.93C432.159 106.89 432.149 106.85 432.132 106.814C432.116 106.777 432.091 106.744 432.062 106.717C432.032 106.69 431.997 106.67 431.959 106.656C431.921 106.643 431.88 106.638 431.84 106.64C431.76 106.645 431.684 106.682 431.63 106.742C431.576 106.801 431.547 106.88 431.55 106.96C431.55 107.81 431.65 108.96 431.71 110.05C431.9 114.16 431.9 114.16 432.18 114.19Z" fill="#E8A32B"/>
<path d="M434.11 113.78C434.18 113.775 434.247 113.747 434.3 113.7C434.328 113.673 434.351 113.641 434.366 113.605C434.382 113.568 434.39 113.53 434.39 113.49C434.39 113.451 434.382 113.412 434.366 113.376C434.351 113.34 434.328 113.307 434.3 113.28C433.667 112.516 433.247 111.598 433.08 110.62C432.98 110.16 432.91 109.71 432.84 109.25C432.77 108.79 432.68 108.19 432.56 107.65C432.501 107.359 432.396 107.079 432.25 106.82C432.207 106.752 432.139 106.704 432.06 106.685C431.982 106.667 431.899 106.679 431.83 106.72C431.795 106.739 431.764 106.765 431.739 106.796C431.714 106.827 431.696 106.863 431.686 106.901C431.675 106.94 431.673 106.98 431.679 107.019C431.685 107.059 431.699 107.097 431.72 107.13C431.827 107.338 431.905 107.561 431.95 107.79C432.08 108.3 432.15 108.79 432.23 109.34C432.31 109.89 432.37 110.28 432.47 110.74C432.663 111.818 433.131 112.827 433.83 113.67C433.866 113.708 433.91 113.737 433.958 113.756C434.006 113.775 434.058 113.783 434.11 113.78Z" fill="#E8A32B"/>
<path d="M430 113.08L430.35 112.58L430.18 112.83L430.48 112.91L430.57 112.68C431.322 110.906 431.876 109.055 432.22 107.16C432.224 107.12 432.22 107.079 432.208 107.04C432.196 107.002 432.177 106.966 432.15 106.935C432.124 106.904 432.092 106.879 432.056 106.861C432.02 106.843 431.981 106.832 431.94 106.83C431.901 106.826 431.861 106.829 431.823 106.841C431.785 106.852 431.75 106.871 431.719 106.896C431.688 106.921 431.663 106.952 431.644 106.987C431.625 107.022 431.614 107.06 431.61 107.1C431.289 108.945 430.745 110.745 429.99 112.46C429.85 112.8 429.79 112.94 430 113.08Z" fill="#E8A32B"/>
<path d="M430.88 106.94C430.855 106.715 430.897 106.488 431.002 106.287C431.107 106.086 431.271 105.922 431.47 105.815C431.67 105.708 431.897 105.664 432.123 105.688C432.348 105.712 432.561 105.803 432.734 105.95C432.906 106.096 433.031 106.291 433.092 106.509C433.152 106.728 433.146 106.959 433.073 107.174C433.001 107.388 432.866 107.576 432.685 107.713C432.504 107.849 432.287 107.929 432.06 107.94C431.773 107.957 431.49 107.863 431.27 107.677C431.05 107.49 430.911 107.227 430.88 106.94Z" fill="#E8A32B"/>
<path d="M425.7 104.81C425.77 104.81 425.62 104.81 425.59 104.81C425.476 104.866 425.355 104.906 425.23 104.93C424.73 105.02 424.47 104.71 424.31 104.3C424.21 104.05 423.81 104.23 423.9 104.48C423.97 104.681 424.087 104.863 424.242 105.009C424.397 105.156 424.584 105.263 424.789 105.322C424.994 105.381 425.21 105.389 425.419 105.347C425.628 105.305 425.824 105.213 425.99 105.08C426.24 104.93 425.94 104.61 425.7 104.76V104.81Z" fill="#1E100C"/>
<path d="M420.89 103.56C420.773 103.683 420.638 103.787 420.49 103.87C420.01 104.12 419.71 103.87 419.49 103.43C419.36 103.19 418.95 103.36 419.08 103.61C419.169 103.871 419.35 104.091 419.589 104.229C419.828 104.367 420.109 104.414 420.38 104.36C420.714 104.265 421.013 104.073 421.24 103.81C421.43 103.6 421.06 103.36 420.88 103.56H420.89Z" fill="#1E100C"/>
<path d="M419.89 101.4C420.212 101.294 420.562 101.313 420.87 101.454C421.178 101.595 421.421 101.847 421.55 102.16C421.7 102.47 422.17 102.16 422.02 101.9C421.831 101.483 421.495 101.151 421.076 100.966C420.657 100.782 420.185 100.758 419.75 100.9C419.682 100.919 419.625 100.963 419.59 101.024C419.556 101.085 419.547 101.157 419.565 101.225C419.584 101.293 419.628 101.35 419.689 101.385C419.75 101.42 419.822 101.429 419.89 101.41V101.4Z" fill="#552B19"/>
<path d="M424.36 102.811C424.645 102.626 424.989 102.554 425.323 102.609C425.658 102.665 425.96 102.844 426.17 103.111C426.4 103.371 426.78 102.991 426.55 102.731C426.254 102.379 425.84 102.148 425.385 102.079C424.93 102.011 424.466 102.111 424.08 102.361C424.034 102.403 424.005 102.461 423.997 102.523C423.988 102.585 424.002 102.648 424.035 102.701C424.068 102.754 424.119 102.794 424.178 102.814C424.237 102.834 424.302 102.833 424.36 102.811Z" fill="#552B19"/>
<path d="M422.53 103C422.669 103.48 422.669 103.99 422.53 104.47C422.31 105.14 421.53 105.47 421.07 105.98C420.46 106.73 421.07 107.21 421.99 107.49C422.22 107.56 422.34 107.28 422.11 107.21C419.98 106.57 422.5 105.54 422.85 104.67C423.039 104.109 423.039 103.501 422.85 102.94C422.85 102.75 422.43 102.81 422.48 103H422.53Z" fill="#BD7C64"/>
<path d="M423.8 108.42C423.8 108.42 423.94 110.23 422.4 110.25C421.967 110.239 421.553 110.069 421.238 109.772C420.922 109.475 420.727 109.072 420.69 108.64L423.8 108.42Z" fill="#F8FFFF"/>
<path d="M426.73 108.051C426.633 108.309 426.438 108.52 426.187 108.636C425.936 108.752 425.65 108.764 425.39 108.671C425.259 108.63 425.138 108.564 425.034 108.475C424.931 108.386 424.846 108.277 424.786 108.154C424.726 108.031 424.692 107.898 424.686 107.761C424.679 107.625 424.701 107.488 424.75 107.361C424.848 107.101 425.045 106.89 425.298 106.774C425.55 106.659 425.838 106.646 426.1 106.741C426.229 106.782 426.349 106.849 426.452 106.939C426.554 107.028 426.638 107.137 426.697 107.26C426.756 107.382 426.789 107.516 426.795 107.652C426.8 107.788 426.778 107.923 426.73 108.051Z" fill="#C0775D"/>
<path d="M418 105.34C418.225 105.172 418.506 105.098 418.784 105.134C419.062 105.169 419.315 105.311 419.49 105.53C419.579 105.637 419.644 105.761 419.682 105.894C419.72 106.027 419.73 106.167 419.711 106.304C419.693 106.441 419.645 106.573 419.573 106.691C419.501 106.809 419.404 106.911 419.29 106.99C419.067 107.16 418.785 107.236 418.507 107.201C418.228 107.165 417.974 107.021 417.8 106.8C417.712 106.693 417.647 106.57 417.609 106.436C417.571 106.303 417.561 106.163 417.58 106.026C417.598 105.889 417.645 105.757 417.718 105.639C417.79 105.521 417.887 105.419 418 105.34Z" fill="#C0775D"/>
<path d="M451.97 168.46H384.51V170.4H451.97V168.46Z" fill="#B8B9BC"/>
<path d="M421.29 170.411L378.39 170.371L372.11 136.351L412.85 136.381L421.29 170.411Z" fill="#B8B9BC"/>
<path d="M419.15 170.411L376.26 170.371L369.98 136.351L410.72 136.381L419.15 170.411Z" fill="#CBCCD1"/>
<path d="M443.42 136.15C442.84 132.7 443.79 128.62 447.42 127.53C449.42 126.92 451.57 129.26 453.14 131.53C456.9 136.99 464.09 161.14 457.62 166.14C451.65 170.73 445.22 147.05 443.42 136.15Z" fill="#E9B79C"/>
<path d="M457.11 166.51C451.58 170.71 431.69 175.79 431.69 175.79L433.1 171.3L453.25 157.37C453.25 157.37 462.64 162.3 457.11 166.51Z" fill="#E9B79C"/>
<path d="M420.89 175.241C422.11 176.241 425.01 177.051 428.08 176.801C430.29 176.392 432.463 175.807 434.58 175.051C435.14 174.881 435.66 174.781 436.17 174.571L435.26 169.801C434.34 170.321 432.87 171.561 430.66 171.361C429.841 171.195 429.043 170.941 428.28 170.601C427.74 170.331 423.9 169.011 424.77 170.461C425.275 171.051 425.948 171.473 426.7 171.671C426.794 171.69 426.883 171.731 426.96 171.791C427.005 171.851 427.03 171.925 427.03 172.001C427.03 172.076 427.005 172.15 426.96 172.211C426.853 172.317 426.723 172.396 426.58 172.441C425.738 172.833 424.827 173.057 423.9 173.101C422.66 173.101 421.61 172.761 420.21 172.651C419.87 172.651 419.33 172.651 419.21 173.081C419.09 173.511 419.86 174.411 420.89 175.241Z" fill="#E9B79C"/>
<path d="M458.08 139.48C458.08 139.48 459.85 141.91 458.08 142.72C457.87 142.842 457.638 142.921 457.397 142.952C457.156 142.982 456.911 142.965 456.677 142.9C456.443 142.834 456.225 142.723 456.035 142.572C455.845 142.421 455.687 142.233 455.57 142.02C455.611 142.289 455.595 142.563 455.521 142.825C455.448 143.086 455.319 143.329 455.144 143.537C454.968 143.744 454.75 143.912 454.505 144.028C454.259 144.144 453.992 144.207 453.72 144.21C452.25 144.28 452.1 142.65 452.1 142.65C452.159 142.912 452.162 143.183 452.109 143.446C452.055 143.709 451.946 143.958 451.789 144.175C451.632 144.393 451.431 144.575 451.198 144.708C450.965 144.842 450.707 144.924 450.44 144.95C449.03 145.2 448.76 143.3 448.76 143.3C448.76 143.3 449.38 145.42 447.53 145.7C445.68 145.98 446.05 143.44 446.05 143.44C446.05 143.44 445.89 145.91 444.21 146.01C442.53 146.11 443.67 142.84 443.67 142.84L458.08 139.48Z" fill="#FBFCFB"/>
<path d="M458.26 139.82C458.26 139.82 454.46 117.55 445.26 119.31C434.84 121.31 443.37 144.31 443.37 144.31C443.37 144.31 453.75 144.44 458.26 139.82Z" fill="#58CC02"/>
</g>
</g>
<defs>
<clipPath id="clip0_1061_56">
<rect width="488" height="296" fill="white"/>
</clipPath>
</defs>
</svg>
