<svg width="423" height="319" viewBox="0 0 423 319" fill="none" xmlns="http://www.w3.org/2000/svg">
<g clip-path="url(#clip0_1061_266)">
<mask id="mask0_1061_266" style="mask-type:luminance" maskUnits="userSpaceOnUse" x="0" y="0" width="423" height="319">
<path d="M423 0H0V318.69H423V0Z" fill="white"/>
</mask>
<g mask="url(#mask0_1061_266)">
<path d="M269.6 285.22C207.14 253.76 196.77 266.87 144.6 294.12C88.1903 323.65 36.8703 278.44 30.1603 240.06C11.0003 130.6 70.0003 31.78 140.85 11C181.61 -0.93997 260.85 12.55 266.68 84.09C269.34 116.62 255.16 146.27 290.21 158.53C326.47 171.21 381.84 141.89 397.3 203.03C412.62 263.67 328 314.63 269.6 285.22Z" fill="#CEFF8A" fill-opacity="0.5"/>
<path d="M423 308.17C423 313.98 328.31 318.69 211.5 318.69C94.69 318.69 0 314 0 308.17C0 302.34 94.69 297.65 211.5 297.65C328.31 297.65 423 302.36 423 308.17Z" fill="#204B03" fill-opacity="0.3"/>
<path d="M90.4404 252.42C90.4378 254.078 90.762 255.721 91.3944 257.253C92.0268 258.786 92.9551 260.179 94.1261 261.353C95.2972 262.527 96.6882 263.459 98.2194 264.095C99.7507 264.731 101.392 265.059 103.05 265.06H380.33C381.993 265.065 383.641 264.742 385.178 264.109C386.716 263.476 388.113 262.546 389.291 261.372C390.468 260.197 391.401 258.802 392.038 257.266C392.675 255.73 393.002 254.083 393 252.42V78.5502C393.002 76.8907 392.676 75.2473 392.042 73.7138C391.408 72.1803 390.478 70.7868 389.305 69.6129C388.132 68.4391 386.739 67.5079 385.206 66.8725C383.673 66.2372 382.03 65.9102 380.37 65.9102H103.05C101.392 65.9115 99.7507 66.2395 98.2194 66.8756C96.6882 67.5116 95.2972 68.4432 94.1261 69.6171C92.9551 70.7909 92.0268 72.1841 91.3944 73.7169C90.762 75.2496 90.4378 76.892 90.4404 78.5502V252.42Z" fill="#A6FF47"/>
<path d="M103.05 65.9102H380.33C381.993 65.905 383.641 66.2281 385.178 66.8611C386.716 67.494 388.113 68.4244 389.291 69.5988C390.468 70.7732 391.401 72.1685 392.038 73.7046C392.675 75.2407 393.002 76.8874 393 78.5502V102H90.4404V78.5502C90.4378 76.8921 90.762 75.2497 91.3944 73.7169C92.0268 72.1841 92.9551 70.791 94.1261 69.6171C95.2972 68.4433 96.6882 67.5117 98.2194 66.8756C99.7507 66.2396 101.392 65.9115 103.05 65.9102Z" fill="#337804"/>
<path d="M362.34 84.0798C362.342 85.3195 362.711 86.5307 363.401 87.5605C364.092 88.5903 365.072 89.3924 366.217 89.8654C367.363 90.3384 368.624 90.4612 369.839 90.2181C371.055 89.9751 372.171 89.3771 373.047 88.4998C373.923 87.6226 374.519 86.5053 374.76 85.2894C375.001 84.0734 374.876 82.8132 374.402 81.6681C373.927 80.523 373.123 79.5443 372.092 78.8558C371.061 78.1673 369.85 77.7998 368.61 77.7998C367.785 77.7985 366.969 77.9601 366.207 78.2754C365.445 78.5906 364.752 79.0533 364.17 79.6368C363.587 80.2204 363.126 80.9133 362.812 81.6758C362.498 82.4382 362.337 83.2552 362.34 84.0798Z" fill="white"/>
<path d="M346.49 84.0798C346.49 85.3215 346.858 86.5352 347.548 87.5678C348.238 88.6003 349.218 89.4052 350.365 89.8808C351.512 90.3564 352.774 90.4814 353.992 90.2399C355.21 89.9984 356.329 89.4013 357.207 88.524C358.086 87.6467 358.685 86.5287 358.928 85.3111C359.172 84.0936 359.049 82.8312 358.575 81.6835C358.101 80.5358 357.298 79.5543 356.267 78.8631C355.235 78.1718 354.022 77.8018 352.78 77.7998C351.954 77.7972 351.136 77.9578 350.372 78.2723C349.609 78.5868 348.915 79.0492 348.33 79.6327C347.746 80.2163 347.282 80.9095 346.967 81.6727C346.651 82.4359 346.489 83.2539 346.49 84.0798Z" fill="white"/>
<path d="M331.21 84.0798C331.212 85.319 331.581 86.5299 332.271 87.5595C332.961 88.589 333.94 89.3911 335.085 89.8644C336.23 90.3378 337.49 90.4611 338.706 90.2188C339.921 89.9766 341.037 89.3796 341.914 88.5034C342.79 87.6271 343.387 86.5108 343.629 85.2955C343.871 84.0801 343.748 82.8203 343.275 81.675C342.801 80.5297 341.999 79.5504 340.97 78.8607C339.94 78.1709 338.729 77.8018 337.49 77.7998C336.665 77.7985 335.848 77.96 335.085 78.2752C334.323 78.5903 333.63 79.0528 333.046 79.6362C332.463 80.2197 332 80.9125 331.685 81.675C331.37 82.4375 331.209 83.2547 331.21 84.0798Z" fill="white"/>
<path d="M102.65 252.42C102.648 254.078 102.972 255.721 103.604 257.253C104.237 258.786 105.165 260.179 106.336 261.353C107.507 262.527 108.898 263.459 110.429 264.095C111.961 264.731 113.602 265.059 115.26 265.06H392.54C394.2 265.06 395.843 264.733 397.376 264.098C398.909 263.462 400.302 262.531 401.475 261.357C402.648 260.184 403.578 258.79 404.212 257.257C404.846 255.723 405.172 254.08 405.17 252.42V78.5502C405.172 76.8907 404.846 75.2473 404.212 73.7138C403.578 72.1803 402.648 70.7868 401.475 69.6129C400.302 68.4391 398.909 67.5079 397.376 66.8725C395.843 66.2372 394.2 65.9102 392.54 65.9102H115.26C113.602 65.9115 111.961 66.2395 110.429 66.8756C108.898 67.5116 107.507 68.4432 106.336 69.6171C105.165 70.7909 104.237 72.1841 103.604 73.7169C102.972 75.2496 102.648 76.892 102.65 78.5502V252.42Z" fill="white"/>
<path d="M115.26 65.9102H392.54C394.2 65.9102 395.843 66.2372 397.376 66.8725C398.909 67.5079 400.302 68.4391 401.475 69.6129C402.648 70.7868 403.578 72.1803 404.212 73.7138C404.846 75.2473 405.172 76.8907 405.17 78.5502V102H102.65V78.5502C102.648 76.892 102.972 75.2496 103.604 73.7169C104.237 72.1841 105.165 70.7909 106.336 69.6171C107.507 68.4432 108.898 67.5116 110.429 66.8756C111.961 66.2395 113.602 65.9115 115.26 65.9102Z" fill="#58CC02"/>
<path d="M374.55 84.0798C374.55 85.3219 374.918 86.536 375.608 87.5688C376.298 88.6015 377.279 89.4065 378.427 89.8818C379.574 90.3571 380.837 90.4815 382.055 90.2391C383.273 89.9968 384.392 89.3987 385.27 88.5204C386.149 87.6422 386.747 86.5232 386.989 85.305C387.231 84.0868 387.107 82.8241 386.632 81.6766C386.156 80.529 385.352 79.5482 384.319 78.8582C383.286 78.1681 382.072 77.7998 380.83 77.7998C380.005 77.7985 379.188 77.96 378.425 78.2752C377.663 78.5903 376.97 79.0528 376.386 79.6362C375.803 80.2197 375.34 80.9125 375.025 81.675C374.71 82.4375 374.548 83.2547 374.55 84.0798Z" fill="white"/>
<path d="M358.71 84.0798C358.71 85.3215 359.078 86.5352 359.768 87.5678C360.457 88.6003 361.437 89.4052 362.584 89.8808C363.731 90.3564 364.994 90.4814 366.211 90.2399C367.429 89.9984 368.548 89.4013 369.427 88.524C370.306 87.6467 370.905 86.5287 371.148 85.3111C371.392 84.0936 371.269 82.8312 370.795 81.6835C370.321 80.5358 369.518 79.5543 368.486 78.8631C367.455 78.1718 366.242 77.8018 365 77.7998C364.174 77.7972 363.356 77.9578 362.592 78.2723C361.828 78.5868 361.134 79.0492 360.55 79.6327C359.965 80.2163 359.502 80.9095 359.186 81.6727C358.871 82.4359 358.709 83.2539 358.71 84.0798Z" fill="white"/>
<path d="M343.42 84.0798C343.422 85.319 343.791 86.5299 344.481 87.5595C345.17 88.589 346.15 89.3911 347.295 89.8644C348.44 90.3378 349.7 90.4611 350.916 90.2188C352.131 89.9766 353.247 89.3796 354.123 88.5034C355 87.6271 355.597 86.5108 355.839 85.2955C356.081 84.0801 355.958 82.8203 355.485 81.675C355.011 80.5297 354.209 79.5504 353.18 78.8607C352.15 78.1709 350.939 77.8018 349.7 77.7998C348.875 77.7985 348.058 77.96 347.295 78.2752C346.533 78.5903 345.84 79.0528 345.256 79.6362C344.673 80.2197 344.21 80.9125 343.895 81.675C343.58 82.4375 343.419 83.2547 343.42 84.0798Z" fill="white"/>
<path d="M153.42 115.57H119.24V149.75H153.42V115.57Z" fill="#A6FF47"/>
<path d="M200.05 115.57H165.87V149.75H200.05V115.57Z" fill="#A6FF47"/>
<path d="M246.68 115.57H212.5V149.75H246.68V115.57Z" fill="#A6FF47"/>
<path d="M293.31 115.57H259.13V149.75H293.31V115.57Z" fill="#A6FF47"/>
<path d="M339.94 115.57H305.76V149.75H339.94V115.57Z" fill="#A6FF47"/>
<path d="M386.58 115.57H352.4V149.75H386.58V115.57Z" fill="#A6FF47"/>
<path d="M153.42 157.02H119.24V191.2H153.42V157.02Z" fill="#A6FF47"/>
<path d="M200.05 157.02H165.87V191.2H200.05V157.02Z" fill="#A6FF47"/>
<path d="M246.68 157.02H212.5V191.2H246.68V157.02Z" fill="#A6FF47"/>
<path d="M293.31 157.02H259.13V191.2H293.31V157.02Z" fill="#A6FF47"/>
<path d="M339.94 157.02H305.76V191.2H339.94V157.02Z" fill="#A6FF47"/>
<path d="M386.58 157.02H352.4V191.2H386.58V157.02Z" fill="#A6FF47"/>
<path d="M153.42 198.47H119.24V232.65H153.42V198.47Z" fill="#A6FF47"/>
<path d="M200.05 198.47H165.87V232.65H200.05V198.47Z" fill="#A6FF47"/>
<path d="M246.68 198.47H212.5V232.65H246.68V198.47Z" fill="#A6FF47"/>
<path d="M293.31 198.47H259.13V232.65H293.31V198.47Z" fill="#A6FF47"/>
<path d="M339.94 198.47H305.76V232.65H339.94V198.47Z" fill="#A6FF47"/>
<path d="M386.58 198.47H352.4V232.65H386.58V198.47Z" fill="#A6FF47"/>
<path d="M423 166.22C422.998 167.659 422.425 169.038 421.407 170.056C420.389 171.074 419.01 171.647 417.57 171.65H273.88C273.167 171.65 272.461 171.509 271.802 171.236C271.143 170.963 270.545 170.563 270.041 170.059C269.536 169.555 269.136 168.956 268.864 168.298C268.591 167.639 268.45 166.933 268.45 166.22V137C268.45 135.559 269.022 134.176 270.04 133.156C271.058 132.137 272.439 131.562 273.88 131.56H417.57C419.011 131.562 420.392 132.137 421.41 133.156C422.428 134.176 423 135.559 423 137V166.22Z" fill="#58CC02"/>
<path d="M304.33 159.43C304.328 160.872 303.754 162.254 302.734 163.274C301.715 164.294 300.332 164.868 298.89 164.87H282.59C281.148 164.868 279.766 164.294 278.747 163.274C277.727 162.254 277.153 160.872 277.15 159.43V143.13C277.153 141.689 277.727 140.308 278.747 139.29C279.767 138.272 281.149 137.7 282.59 137.7H298.89C300.331 137.7 301.714 138.272 302.734 139.29C303.753 140.308 304.328 141.689 304.33 143.13V159.43Z" fill="white"/>
<path d="M413.67 141.64H313.82V142.94H413.67V141.64Z" fill="white"/>
<path d="M413.67 149.41H313.82V150.71H413.67V149.41Z" fill="white"/>
<path d="M413.67 157.19H313.82V158.49H413.67V157.19Z" fill="white"/>
<path d="M283.192 140.254L279.628 144.013L297.768 161.215L301.333 157.457L283.192 140.254Z" fill="#E08B03"/>
<path d="M296.888 139.702L280.186 158.304L284.04 161.764L300.742 143.162L296.888 139.702Z" fill="#E08B03"/>
<path d="M246.68 115.57H212.5V124.54H246.68V115.57Z" fill="#7FEA16"/>
<path d="M293.31 198.47H259.13V207.01H293.31V198.47Z" fill="#7FEA16"/>
<path d="M387.1 198.47H352.77V207.01H387.1V198.47Z" fill="#7FEA16"/>
<path d="M184.19 84.25H146.07C139.034 84.25 133.33 89.9539 133.33 96.99V171.63C133.33 178.666 139.034 184.37 146.07 184.37H184.19C191.226 184.37 196.93 178.666 196.93 171.63V96.99C196.93 89.9539 191.226 84.25 184.19 84.25Z" fill="#FEDA00"/>
<path d="M144.54 94.91H142.91V93.75H147.6V94.91H145.93V99.85H144.54V94.91Z" fill="white"/>
<path d="M153.65 96.7298C153.695 97.1449 153.65 97.5647 153.518 97.9608C153.386 98.3569 153.171 98.72 152.886 99.0254C152.602 99.3309 152.255 99.5715 151.869 99.731C151.483 99.8905 151.067 99.9651 150.65 99.9498C150.252 99.9529 149.858 99.8725 149.493 99.7139C149.128 99.5554 148.8 99.3221 148.531 99.0291C148.261 98.7361 148.056 98.3899 147.929 98.0128C147.801 97.6358 147.754 97.2362 147.79 96.8398C147.763 96.4294 147.82 96.0176 147.959 95.6303C148.097 95.2429 148.314 94.8881 148.595 94.588C148.876 94.2879 149.216 94.0488 149.594 93.8857C149.972 93.7226 150.379 93.6389 150.79 93.6398C151.187 93.6355 151.58 93.7143 151.944 93.8711C152.309 94.028 152.636 94.2594 152.906 94.5505C153.175 94.8416 153.38 95.186 153.509 95.5613C153.637 95.9367 153.685 96.3347 153.65 96.7298ZM149.24 96.8198C149.24 98.0098 149.8 98.8198 150.73 98.8198C151.66 98.8198 152.19 97.9298 152.19 96.7498C152.19 95.5698 151.67 94.7498 150.72 94.7498C149.77 94.7498 149.24 95.6298 149.24 96.8198Z" fill="white"/>
<path d="M156.39 93.8297C157.009 93.7398 157.634 93.6963 158.26 93.6997C159.144 93.6266 160.027 93.8596 160.76 94.3597C161.101 94.6324 161.371 94.9846 161.546 95.3855C161.72 95.7864 161.793 96.2238 161.76 96.6597C161.788 97.1184 161.713 97.5776 161.54 98.0034C161.367 98.4292 161.1 98.8107 160.76 99.1197C159.939 99.7003 158.943 99.9794 157.94 99.9097C157.419 99.911 156.898 99.8809 156.38 99.8197L156.39 93.8297ZM157.78 98.8297C157.94 98.841 158.1 98.841 158.26 98.8297C158.543 98.8578 158.83 98.8214 159.097 98.7233C159.365 98.6251 159.607 98.4677 159.805 98.2628C160.003 98.058 160.152 97.811 160.241 97.5403C160.331 97.2696 160.357 96.9822 160.32 96.6997C160.35 96.4394 160.321 96.1758 160.235 95.9282C160.15 95.6806 160.009 95.4555 159.825 95.2693C159.641 95.0831 159.417 94.9406 159.17 94.8524C158.924 94.7642 158.66 94.7325 158.4 94.7597C158.192 94.7544 157.983 94.7745 157.78 94.8197V98.8297Z" fill="white"/>
<path d="M168.29 96.7298C168.335 97.1449 168.29 97.5647 168.158 97.9608C168.026 98.3569 167.811 98.72 167.526 99.0254C167.242 99.3309 166.895 99.5715 166.509 99.731C166.123 99.8905 165.708 99.9651 165.29 99.9498C164.891 99.9557 164.494 99.8774 164.127 99.7201C163.759 99.5627 163.429 99.3299 163.157 99.0366C162.886 98.7433 162.679 98.3961 162.55 98.0176C162.421 97.6392 162.374 97.2379 162.41 96.8398C162.383 96.4293 162.44 96.0176 162.579 95.6302C162.717 95.2429 162.934 94.8881 163.215 94.588C163.496 94.2879 163.836 94.0488 164.214 93.8857C164.592 93.7226 164.999 93.6389 165.41 93.6398C165.808 93.6357 166.202 93.7145 166.567 93.8712C166.932 94.0279 167.261 94.2589 167.532 94.5497C167.803 94.8404 168.01 95.1844 168.141 95.5598C168.271 95.9352 168.322 96.3336 168.29 96.7298ZM163.87 96.8198C163.87 98.0098 164.44 98.8198 165.36 98.8198C166.28 98.8198 166.83 97.9298 166.83 96.7498C166.83 95.5698 166.3 94.7498 165.35 94.7498C164.4 94.7498 163.87 95.6298 163.87 96.8198Z" fill="white"/>
<path d="M171 93.75H172.38V98.69H174.81V99.85H171V93.75Z" fill="white"/>
<path d="M177 93.75V99.85H175.62V93.75H177Z" fill="white"/>
<path d="M178.28 98.43C178.751 98.6709 179.271 98.8009 179.8 98.81C180.44 98.81 180.8 98.54 180.8 98.14C180.8 97.74 180.51 97.55 179.8 97.28C178.8 96.93 178.12 96.37 178.12 95.49C178.12 94.49 178.99 93.64 180.43 93.64C180.966 93.6327 181.497 93.7384 181.99 93.95L181.68 95.06C181.279 94.8735 180.842 94.7779 180.4 94.78C179.8 94.78 179.52 95.04 179.52 95.37C179.52 95.7 179.86 95.93 180.65 96.22C181.73 96.63 182.24 97.22 182.24 98.04C182.24 99.04 181.45 99.93 179.77 99.93C179.177 99.941 178.589 99.818 178.05 99.57L178.28 98.43Z" fill="white"/>
<path d="M184.29 94.91H182.66V93.75H187.34V94.91H185.68V99.85H184.29V94.91Z" fill="white"/>
<path d="M187.34 107.7H142.91V109.16H187.34V107.7Z" fill="white"/>
<path d="M187.34 113.51H142.91V114.97H187.34V113.51Z" fill="white"/>
<path d="M187.34 119.32H142.91V120.78H187.34V119.32Z" fill="white"/>
<path d="M187.34 125.13H142.91V126.59H187.34V125.13Z" fill="white"/>
<path d="M187.34 130.94H142.91V132.4H187.34V130.94Z" fill="white"/>
<path d="M187.34 136.75H142.91V138.21H187.34V136.75Z" fill="white"/>
<path d="M187.34 142.56H142.91V144.02H187.34V142.56Z" fill="white"/>
<path d="M187.34 148.36H142.91V149.82H187.34V148.36Z" fill="white"/>
<path d="M187.34 154.17H142.91V155.63H187.34V154.17Z" fill="white"/>
<path d="M187.34 159.98H142.91V161.44H187.34V159.98Z" fill="white"/>
<path d="M187.34 165.79H142.91V167.25H187.34V165.79Z" fill="white"/>
<path d="M293.31 198.47H259.13V207.01H293.31V198.47Z" fill="#7FEA16"/>
<path d="M123.3 226.27C116.76 221.89 104.91 222.94 101.89 227.4C100.25 229.83 105.54 235.71 107.77 238.9C111.68 244.52 127.16 255.24 139.58 258.81C144.12 260.12 152.71 251.65 147.14 245.81C139.83 238.05 130.43 231.06 123.3 226.27Z" fill="#FEB801"/>
<path d="M170.31 293.22C170.31 293.22 172.31 300.74 177.54 302.22C182.77 303.7 185.47 303.61 189.54 300.69C191.33 299.4 187.84 298.21 184.43 297.33C175.78 295.1 175.43 289.46 175.43 289.46L170.31 293.22Z" fill="#FBB99D"/>
<path d="M172.53 298.1C172.53 298.1 184.79 303.78 186.42 297.87C186.42 297.87 190.52 297.76 190.19 300.25C189.86 302.74 185.04 304.32 181.3 303.72C175.71 302.82 176.3 302.85 175.46 302.5C174.551 302.199 173.768 301.602 173.237 300.805C172.706 300.007 172.457 299.055 172.53 298.1Z" fill="#FF4650"/>
<path d="M142.63 254.83C142.63 254.83 125.47 291.92 119.63 296.53C115.1 300.11 101.63 305.15 95.7003 292.36C89.7703 279.57 131.22 230.36 146.09 235.87C159.59 240.9 142.63 254.83 142.63 254.83Z" fill="#1D1D1D"/>
<path d="M179 290.26C174.32 277.94 153.56 236.7 146.59 235.26C135.89 233.1 135.83 245.73 143.15 258.12C147.88 266.12 164.49 289.55 169.49 296.47C170.67 298.18 180.31 293.82 179 290.26Z" fill="#1D1D1D"/>
<path d="M153.19 302C153.19 302 156.19 309.3 162.13 310.44C168.07 311.58 171.04 311.33 175.24 308.19C177.08 306.81 173.1 305.85 169.24 305.19C159.45 303.53 158.51 297.98 158.51 297.98L153.19 302Z" fill="#FBB99D"/>
<path d="M156.16 306.66C156.16 306.66 170.31 311.51 171.49 305.57C171.49 305.57 176.01 305.21 175.91 307.68C175.81 310.15 170.64 312.02 166.44 311.68C160.17 311.14 160.87 311.13 159.86 310.84C156 309.7 156.16 306.66 156.16 306.66Z" fill="#FF4650"/>
<path d="M80.7202 276.55C80.7202 276.55 72.4902 287.55 78.6502 299.49C84.8102 311.43 85.2002 287.11 85.2002 287.11C85.2002 287.11 86.1102 279.75 80.7202 276.55Z" fill="#7FEA16"/>
<path d="M118.14 225.15C112 219.72 86.5301 221.39 82.0701 230.41C82.6186 233.659 82.8297 236.957 82.7001 240.25C84.9401 244.54 83.5601 253.3 83.3801 258.57C82.8801 273.19 78.5001 272 80.0501 276.26C82.8401 283.9 100.76 286.07 112.52 282.26C116.68 280.91 123.34 269.36 122.14 267.4C111.56 250.26 128 256.52 126.46 247.23C125.64 242.22 120.6 227.33 118.14 225.15Z" fill="#FEB801"/>
<path d="M126.32 248.55C125.849 249.794 125.076 250.9 124.07 251.77C121.07 254.19 117.18 252.7 114.2 251.03C113.58 250.69 113.11 251.68 113.72 252.03C116.95 253.84 121.06 255.26 124.39 252.91C125.806 251.885 126.857 250.435 127.39 248.77C127.6 248.09 126.52 247.9 126.31 248.56L126.32 248.55Z" fill="#2F7EDD"/>
<path d="M110.28 251.25C106.46 255.7 100.89 255.95 96.7096 251.79C96.2096 251.29 95.4996 252.13 95.9996 252.62C100.6 257.19 106.88 256.89 111.11 251.96C111.184 251.848 111.216 251.713 111.197 251.579C111.179 251.446 111.112 251.324 111.01 251.237C110.908 251.149 110.777 251.102 110.642 251.105C110.508 251.107 110.379 251.159 110.28 251.25Z" fill="#E08B03"/>
<path d="M129.46 260.45C129.46 260.45 108.46 298.01 101.75 303.1C96.5603 307.1 84.7503 312.1 78.1403 298.1C71.5303 284.1 116.66 233.71 133.54 239.66C148.86 245.08 129.46 260.45 129.46 260.45Z" fill="#1D1D1D"/>
<path d="M162.3 300.11C159.08 287.31 142.3 242.43 134.87 239.88C123.44 235.96 121.41 248.25 127.51 261.57C131.51 270.2 147.15 296.64 151.57 304.24C152.65 306.09 163.23 303.81 162.3 300.11Z" fill="#1D1D1D"/>
<path d="M97.4502 260.37C98.4502 261.45 105.77 276.03 110.71 276.25C114.29 276.41 117.71 265.43 117.71 265.43C117.71 265.43 112.88 266.21 108.21 253.69C104.31 243.14 97.4502 260.37 97.4502 260.37Z" fill="#E9B79C"/>
<path d="M112.09 276.28C120.29 275.95 142.67 265.65 142.67 265.65L138.16 262.65L110.25 266.5C110.25 266.5 103.89 276.59 112.09 276.28Z" fill="#E9B79C"/>
<path d="M136.81 262.09C137.041 261.524 137.205 260.934 137.3 260.33C137.68 259.271 138.241 258.286 138.96 257.42C139.34 256.92 139.54 255.42 140.33 255.42C141.64 255.42 140.64 257.8 140.61 258.42C140.574 258.689 140.624 258.963 140.751 259.203C140.878 259.443 141.077 259.638 141.32 259.76C141.655 259.832 142.005 259.797 142.32 259.66C143.374 259.249 144.405 258.781 145.41 258.26C145.94 258.01 146.48 257.8 147.03 257.59C147.444 257.34 147.887 257.142 148.35 257C148.436 256.987 148.524 256.993 148.608 257.017C148.692 257.041 148.77 257.083 148.837 257.14C148.903 257.197 148.956 257.268 148.993 257.347C149.03 257.426 149.049 257.512 149.05 257.6C149.05 257.94 148.68 257.99 148.43 258.14C147.88 258.48 147.33 258.84 146.79 259.21C146.67 259.28 146.08 259.57 146.07 259.73C146 260.51 147.6 259.73 147.85 259.66C148.479 259.331 149.195 259.202 149.9 259.29C150 259.29 150.1 259.35 150.14 259.44C150.18 259.53 150.08 259.73 149.96 259.82C149.26 260.37 148.37 260.65 147.68 261.22C147.57 261.31 147.45 261.44 147.48 261.58C147.59 262.16 148.73 261.9 149.11 261.84C149.49 261.78 149.65 261.79 149.77 262C149.804 262.073 149.816 262.154 149.806 262.234C149.795 262.313 149.762 262.389 149.71 262.45C149.599 262.565 149.467 262.657 149.32 262.72C148.912 262.96 148.492 263.177 148.06 263.37C147.84 263.44 147.2 263.62 147.24 263.93C147.247 263.96 147.261 263.987 147.28 264.012C147.299 264.036 147.323 264.056 147.35 264.07C147.55 264.163 147.77 264.201 147.99 264.18C148.21 264.18 148.47 264.26 148.55 264.46C148.63 264.66 148.42 264.98 148.2 265.14C147.346 265.65 146.423 266.034 145.46 266.28C144.46 266.59 143.46 266.87 142.46 267.1C140.56 267.53 138.55 267.55 136.7 268.15C136.423 268.255 136.134 268.326 135.84 268.36C135.278 268.352 134.739 268.135 134.33 267.75C133.912 267.413 133.574 266.988 133.339 266.506C133.104 266.024 132.978 265.496 132.97 264.96C132.97 264.62 132.97 263.96 133.23 263.73C133.523 263.615 133.835 263.551 134.15 263.54C134.49 263.481 134.824 263.394 135.15 263.28C135.819 263.076 136.402 262.658 136.81 262.09Z" fill="#FBB99D"/>
<path d="M93.8098 233.88C90.0598 229.51 84.9098 226.78 81.0298 229.88C78.8298 231.61 78.1398 237.22 79.4298 240.68C81.9098 247.34 90.6398 261.58 100.62 268.54C104.28 271.09 114.56 265.99 111.41 259C107.26 249.77 99.0798 240 93.8098 233.88Z" fill="#E08B03"/>
<path d="M160 258.74C159.76 258.86 159.44 258.94 159.27 258.74C159.213 258.65 159.182 258.546 159.182 258.44C159.182 258.334 159.213 258.23 159.27 258.14C159.386 257.964 159.451 257.76 159.46 257.55C159.458 257.521 159.45 257.492 159.436 257.466C159.422 257.44 159.403 257.418 159.38 257.4C159.14 257.23 158.71 257.7 158.55 257.84C158.198 258.127 157.831 258.394 157.45 258.64C157.326 258.733 157.187 258.804 157.04 258.85C156.967 258.869 156.889 258.866 156.818 258.841C156.747 258.816 156.685 258.77 156.64 258.71C156.51 258.51 156.64 258.26 156.79 258.07C156.94 257.88 157.73 256.92 157.28 256.57C157.17 256.48 157.01 256.57 156.88 256.57C156.1 256.91 155.47 257.57 154.7 257.9C154.56 257.96 154.38 258.01 154.29 257.9C154.255 257.813 154.255 257.717 154.29 257.63C154.521 256.992 154.944 256.44 155.5 256.05C155.7 255.87 157.03 254.84 156.34 254.56C156.2 254.5 155.7 254.88 155.58 254.94C155.03 255.25 154.49 255.55 153.95 255.87C153.72 256.02 153.53 256.28 153.22 256.16C153.145 256.123 153.08 256.069 153.029 256.004C152.977 255.938 152.94 255.863 152.921 255.782C152.902 255.701 152.901 255.616 152.918 255.535C152.935 255.453 152.97 255.377 153.02 255.31C153.24 254.96 153.78 254.72 154.09 254.44C154.4 254.16 154.93 253.7 155.38 253.36C156.26 252.737 157.108 252.07 157.92 251.36C158.193 251.153 158.385 250.855 158.46 250.52C158.464 250.26 158.386 250.005 158.237 249.791C158.088 249.577 157.875 249.416 157.63 249.33C157.12 249.1 154.63 248.9 155.22 247.79C155.5 247.26 156.39 247.45 157.05 247.5C158.81 250.29 160.64 253.38 162.47 256.63L162.18 256.94C161.545 257.644 160.81 258.25 160 258.74Z" fill="#E9B79C"/>
<path d="M162.46 256.61C162.46 256.61 165.87 250.26 163.46 247.92C161.05 245.58 157.02 247.75 157.02 247.75C157.869 248.577 158.549 249.562 159.02 250.65C160 252.48 161.32 256.2 162.46 256.61Z" fill="#E9B79C"/>
<path d="M110 191.57C110 191.57 100.23 185.49 92.8603 194.14C85.4903 202.79 93.6903 217.65 102.35 220.14C103.19 220.37 98.3503 208.59 99.6603 205.43C99.7903 205.11 100.05 204.8 100.16 204.43C100.221 204.18 100.268 203.926 100.3 203.67C100.449 202.993 100.636 202.326 100.86 201.67C101.285 200.415 101.827 199.203 102.48 198.05C103.485 196.239 104.79 194.613 106.34 193.24C106.945 192.713 107.618 192.269 108.34 191.92C108.6 191.83 109.62 191.35 110 191.57Z" fill="#1D1D1D"/>
<path d="M97.6398 207.63C97.6398 207.63 109.91 211.42 108.98 212.54C108.05 213.66 108.98 216.33 108.67 218.74C108.32 221.34 109.45 224.32 111.13 227.24C112.3 229.24 110.32 231.08 107.96 231.24C97.7998 231.92 93.7598 224.42 93.7598 224.42C98.2498 220 97.6398 207.63 97.6398 207.63Z" fill="#E9B79C"/>
<path d="M108.67 218.74C108.99 216.33 108.05 213.67 108.98 212.54C109.91 211.41 97.6396 207.64 97.6396 207.64C98.6037 209.683 99.0436 211.934 98.9196 214.19C101.914 217.198 105.305 219.782 109 221.87C108.691 220.857 108.579 219.794 108.67 218.74Z" fill="#C58063"/>
<path d="M98.8104 196.11C98.8104 196.11 95.3704 181.23 84.8104 183.48C74.2504 185.73 75.3304 169.25 56.8104 171.79C50.2904 172.69 43.8104 181.79 46.8104 189.34C49.1704 195.26 64.6104 202.87 83.7004 198.61C102.79 194.35 96.6204 200.61 96.6204 200.61L98.8104 196.11Z" fill="#1D1D1D"/>
<path d="M110 192.79C113.68 196.69 121.2 212.73 113.11 218.79C109.67 221.39 100.91 216.54 96.7397 209.14C95.0197 206.14 95.4197 199.67 98.7397 194.33C100.22 191.92 105.73 188.23 110 192.79Z" fill="#E9B79C"/>
<path d="M109.93 196.27C109.93 196.27 104.88 209.07 94.9296 207.74C94.9296 207.74 92.5696 195.74 102.44 190.65C102.44 190.65 116.51 187.03 117.85 205.32C117.85 205.32 111 205.61 109.93 196.27Z" fill="#1D1D1D"/>
<path d="M100.89 208.24C100.89 208.24 98.6599 204.63 96.7099 204.89C94.7599 205.15 95.7099 210.43 99.4099 210.89C103.11 211.35 101.61 209.25 100.89 208.24Z" fill="#E9B79C"/>
<path d="M97.8399 219.28L97.7799 218.57V218.93L97.4199 218.87C97.4199 218.68 97.5499 216.37 97.6499 214.33C97.7099 213.03 97.7699 211.69 97.8199 210.69C97.8225 210.643 97.8343 210.597 97.8548 210.554C97.8753 210.511 97.9041 210.473 97.9394 210.441C97.9747 210.41 98.0158 210.385 98.0606 210.37C98.1053 210.354 98.1526 210.347 98.1999 210.35C98.2963 210.355 98.3868 210.398 98.4522 210.469C98.5176 210.54 98.5527 210.634 98.5499 210.73C98.5499 211.73 98.4399 213.06 98.3699 214.36C98.1699 219.25 98.1699 219.25 97.8399 219.28Z" fill="#E8A32B"/>
<path d="M95.5702 218.81C95.4898 218.801 95.4136 218.77 95.3502 218.72C95.3169 218.687 95.2905 218.648 95.2724 218.605C95.2544 218.562 95.2451 218.516 95.2451 218.47C95.2451 218.423 95.2544 218.377 95.2724 218.334C95.2905 218.291 95.3169 218.252 95.3502 218.22C96.0877 217.316 96.5802 216.239 96.7802 215.09C96.8902 214.56 96.9702 214.02 97.0502 213.49C97.1302 212.96 97.2302 212.23 97.3802 211.6C97.4481 211.25 97.5695 210.913 97.7402 210.6C97.7915 210.521 97.8706 210.466 97.9615 210.443C98.0525 210.421 98.1485 210.434 98.2302 210.48C98.2714 210.501 98.3077 210.532 98.3369 210.568C98.366 210.604 98.3873 210.646 98.3995 210.691C98.4117 210.736 98.4145 210.784 98.4077 210.83C98.401 210.876 98.3848 210.92 98.3602 210.96C98.2304 211.204 98.1393 211.467 98.0902 211.74C97.9502 212.34 97.8602 212.96 97.7702 213.57C97.6802 214.18 97.6002 214.67 97.4902 215.21C97.2725 216.479 96.7241 217.669 95.9002 218.66C95.8633 218.712 95.8134 218.753 95.7554 218.779C95.6975 218.806 95.6335 218.816 95.5702 218.81Z" fill="#E8A32B"/>
<path d="M100.41 218L100 217.41L100.2 217.71L99.8502 217.8L99.7402 217.53C98.8367 215.45 98.1659 213.277 97.7402 211.05C97.7437 210.961 97.7795 210.875 97.841 210.81C97.9025 210.745 97.9855 210.705 98.0746 210.696C98.1638 210.687 98.253 210.712 98.3258 210.764C98.3985 210.816 98.4498 210.893 98.4702 210.98C98.8472 213.148 99.4921 215.261 100.39 217.27C100.58 217.64 100.64 217.8 100.41 218Z" fill="#E8A32B"/>
<path d="M99.3501 210.76C99.3701 210.492 99.3092 210.224 99.1751 209.992C99.041 209.759 98.84 209.572 98.5982 209.454C98.3564 209.337 98.0849 209.295 97.8191 209.335C97.5532 209.374 97.3053 209.492 97.1074 209.673C96.9095 209.855 96.7708 210.092 96.7093 210.354C96.6479 210.615 96.6665 210.889 96.7628 211.14C96.859 211.391 97.0285 211.607 97.2491 211.761C97.4698 211.914 97.7314 211.997 98.0001 212C98.3419 212.009 98.6736 211.884 98.9254 211.653C99.1772 211.421 99.3295 211.102 99.3501 210.76Z" fill="#E8A32B"/>
<path d="M105.42 208.22L105.54 208.29C105.681 208.353 105.828 208.4 105.98 208.43C106.57 208.53 106.87 208.17 107.05 207.69C107.16 207.39 107.64 207.6 107.53 207.9C107.447 208.135 107.309 208.346 107.127 208.517C106.946 208.688 106.726 208.814 106.487 208.883C106.248 208.953 105.995 208.964 105.75 208.916C105.506 208.869 105.276 208.764 105.08 208.61C104.79 208.43 105.08 208.05 105.42 208.22Z" fill="#1E100C"/>
<path d="M111.07 206.74C111.206 206.885 111.364 207.006 111.54 207.1C112.1 207.39 112.45 207.1 112.71 206.58C112.85 206.29 113.34 206.5 113.19 206.79C113.083 207.097 112.87 207.355 112.589 207.518C112.309 207.682 111.979 207.739 111.66 207.68C111.272 207.562 110.925 207.337 110.66 207.03C110.44 206.79 110.87 206.5 111.09 206.74H111.07Z" fill="#1E100C"/>
<path d="M112.23 204.19C111.852 204.068 111.441 204.094 111.081 204.263C110.721 204.432 110.438 204.731 110.29 205.1C110.11 205.46 109.56 205.15 109.73 204.79C109.951 204.297 110.345 203.903 110.837 203.682C111.329 203.46 111.886 203.428 112.4 203.59C112.48 203.613 112.547 203.666 112.588 203.738C112.628 203.81 112.638 203.896 112.615 203.975C112.593 204.055 112.54 204.122 112.467 204.162C112.395 204.203 112.31 204.213 112.23 204.19Z" fill="#552B19"/>
<path d="M107 205.88C106.665 205.662 106.261 205.577 105.867 205.642C105.473 205.706 105.117 205.916 104.87 206.23C104.6 206.53 104.16 206.09 104.42 205.79C104.766 205.375 105.251 205.1 105.785 205.017C106.319 204.935 106.865 205.049 107.32 205.34C107.392 205.382 107.444 205.452 107.464 205.532C107.485 205.613 107.473 205.698 107.43 205.77C107.388 205.842 107.319 205.893 107.238 205.914C107.157 205.935 107.072 205.922 107 205.88Z" fill="#552B19"/>
<path d="M109.14 206.13C108.97 206.694 108.97 207.296 109.14 207.86C109.4 208.65 110.33 208.98 110.86 209.63C111.58 210.51 110.86 211.07 109.79 211.41C109.52 211.5 109.38 211.16 109.65 211.08C112.15 210.32 109.18 209.08 108.76 208.08C108.554 207.429 108.554 206.73 108.76 206.08C108.82 205.85 109.26 205.92 109.2 206.14L109.14 206.13Z" fill="#BD7C64"/>
<path d="M111.07 216C111.07 216 112.2 214.19 110.6 213.34C110.141 213.119 109.616 213.074 109.126 213.214C108.635 213.354 108.214 213.669 107.94 214.1L111.07 216Z" fill="#F8FFFF"/>
<path d="M104.22 212.05C104.341 212.352 104.574 212.596 104.87 212.73C105.167 212.864 105.503 212.878 105.81 212.77C105.96 212.716 106.098 212.634 106.216 212.527C106.333 212.42 106.429 212.29 106.497 212.146C106.565 212.002 106.603 211.846 106.611 211.688C106.618 211.529 106.594 211.37 106.54 211.22C106.426 210.915 106.195 210.669 105.899 210.534C105.603 210.399 105.265 210.387 104.96 210.5C104.809 210.553 104.671 210.635 104.552 210.741C104.433 210.848 104.336 210.977 104.267 211.121C104.199 211.265 104.159 211.421 104.151 211.581C104.143 211.74 104.166 211.9 104.22 212.05Z" fill="#C0775D"/>
<path d="M114.5 208.82C114.235 208.624 113.905 208.538 113.578 208.581C113.252 208.624 112.955 208.792 112.75 209.05C112.65 209.176 112.576 209.321 112.534 209.477C112.491 209.632 112.48 209.794 112.502 209.954C112.523 210.113 112.577 210.267 112.659 210.405C112.741 210.544 112.85 210.664 112.98 210.76C113.243 210.958 113.574 211.045 113.902 211.002C114.229 210.959 114.526 210.79 114.73 210.53C114.829 210.404 114.903 210.258 114.945 210.103C114.988 209.948 114.999 209.786 114.977 209.626C114.956 209.467 114.902 209.313 114.82 209.174C114.738 209.036 114.629 208.915 114.5 208.82Z" fill="#C0775D"/>
<path d="M397.07 197.47H339.33V235.86H397.07V197.47Z" fill="#FFB31A"/>
<path d="M339.33 197.47L368.2 221.6L397.07 197.47V235.86H339.33V197.47Z" fill="#FEDA00"/>
<path d="M332.9 197.82C332.91 199.162 333.317 200.472 334.071 201.584C334.824 202.696 335.889 203.559 337.133 204.066C338.376 204.573 339.742 204.701 341.057 204.433C342.373 204.165 343.58 203.513 344.526 202.56C345.472 201.607 346.115 200.396 346.373 199.078C346.632 197.76 346.494 196.396 345.978 195.156C345.462 193.916 344.59 192.857 343.473 192.112C342.356 191.367 341.043 190.97 339.7 190.97C337.892 190.98 336.161 191.707 334.886 192.991C333.612 194.275 332.898 196.011 332.9 197.82Z" fill="#7FEA16"/>
<path d="M339 196.14L337.72 196.75L337.46 195.58L339.23 194.75H340.54V201.46H339V196.14Z" fill="white"/>
<path d="M288.23 40.0896L302.14 58.2896L299.19 37.1396L288.23 40.0896Z" fill="#FEDA00"/>
<path d="M238.65 41.4H298.24C301.031 41.3999 303.727 40.3856 305.826 38.546C307.925 36.7065 309.284 34.1669 309.65 31.4L312.1 13C312.312 11.3767 312.175 9.72686 311.699 8.16063C311.222 6.5944 310.417 5.14781 309.337 3.91743C308.257 2.68705 306.927 1.70118 305.436 1.02565C303.945 0.350111 302.327 0.000448063 300.69 0H236.2C234.563 0.00206474 232.946 0.352811 231.455 1.02888C229.965 1.70495 228.636 2.69081 227.556 3.92082C226.477 5.15083 225.672 6.59675 225.195 8.16227C224.718 9.72779 224.58 11.377 224.79 13L227.24 31.38C227.604 34.1496 228.961 36.6928 231.06 38.536C233.159 40.3793 235.856 41.3971 238.65 41.4Z" fill="#FEDA00"/>
<path d="M277.66 20.7002C277.66 21.4913 277.895 22.2647 278.334 22.9225C278.774 23.5803 279.399 24.093 280.129 24.3957C280.86 24.6985 281.665 24.7777 282.441 24.6233C283.216 24.469 283.929 24.088 284.489 23.5286C285.048 22.9692 285.429 22.2565 285.583 21.4806C285.738 20.7046 285.658 19.9004 285.356 19.1695C285.053 18.4386 284.54 17.8138 283.882 17.3743C283.225 16.9348 282.451 16.7002 281.66 16.7002C280.599 16.7002 279.582 17.1216 278.832 17.8718C278.082 18.6219 277.66 19.6393 277.66 20.7002Z" fill="#F0F8FF"/>
<path d="M264.46 20.7002C264.46 21.4913 264.695 22.2647 265.134 22.9225C265.574 23.5803 266.198 24.093 266.929 24.3957C267.66 24.6985 268.464 24.7777 269.24 24.6233C270.016 24.469 270.729 24.088 271.288 23.5286C271.848 22.9692 272.229 22.2565 272.383 21.4806C272.537 20.7046 272.458 19.9004 272.155 19.1695C271.853 18.4386 271.34 17.8138 270.682 17.3743C270.024 16.9348 269.251 16.7002 268.46 16.7002C267.399 16.7002 266.382 17.1216 265.632 17.8718C264.881 18.6219 264.46 19.6393 264.46 20.7002Z" fill="#F0F8FF"/>
<path d="M251.26 20.7002C251.26 21.4913 251.494 22.2647 251.934 22.9225C252.373 23.5803 252.998 24.093 253.729 24.3957C254.46 24.6985 255.264 24.7777 256.04 24.6233C256.816 24.469 257.529 24.088 258.088 23.5286C258.648 22.9692 259.029 22.2565 259.183 21.4806C259.337 20.7046 259.258 19.9004 258.955 19.1695C258.653 18.4386 258.14 17.8138 257.482 17.3743C256.824 16.9348 256.051 16.7002 255.26 16.7002C254.199 16.7002 253.181 17.1216 252.431 17.8718C251.681 18.6219 251.26 19.6393 251.26 20.7002Z" fill="#F0F8FF"/>
</g>
</g>
<defs>
<clipPath id="clip0_1061_266">
<rect width="423" height="319" fill="white"/>
</clipPath>
</defs>
</svg>
