<svg width="1006" height="552" viewBox="0 0 1006 552" fill="none" xmlns="http://www.w3.org/2000/svg">
<g clip-path="url(#clip0_894_562)">
<path d="M888.854 0H116.613C112.973 0.0353855 109.496 1.5132 106.944 4.10928C104.392 6.70536 102.973 10.2077 103 13.848V538.508C102.979 542.144 104.4 545.64 106.952 548.23C109.503 550.82 112.978 552.293 116.613 552.327H888.854C892.49 552.293 895.964 550.82 898.516 548.23C901.067 545.64 902.488 542.144 902.467 538.508V13.848C902.494 10.208 901.076 6.70601 898.525 4.10999C895.973 1.51396 892.496 0.0359117 888.856 0H888.854Z" fill="#003408"/>
<path d="M866.032 2.74316H117.432C113.93 2.74979 110.573 4.14578 108.098 6.6248C105.623 9.10382 104.233 12.4633 104.232 15.9662V516.973C104.237 520.472 105.63 523.827 108.104 526.301C110.579 528.776 113.933 530.168 117.432 530.173H866.032C869.532 530.168 872.886 528.776 875.361 526.301C877.835 523.827 879.227 520.472 879.232 516.973V15.9672C879.232 12.4655 877.843 9.10685 875.37 6.62798C872.897 4.1491 869.541 2.75236 866.039 2.74416L866.032 2.74316Z" fill="white"/>
<path d="M667.723 212.339H667.718C666.878 212.339 666.2 212.106 666.203 211.822L666.963 133.076C666.963 132.792 667.646 132.562 668.484 132.562H668.489C669.329 132.562 670.007 132.795 670.004 133.079L669.244 211.827C669.241 212.108 668.561 212.339 667.723 212.339Z" fill="#D6D6E3"/>
<path d="M473.081 396.136H473.076C472.236 396.136 471.558 395.836 471.561 395.469L472.321 296.403C472.321 296.037 473.004 295.74 473.842 295.74H473.847C474.687 295.74 475.365 296.04 475.362 296.407L474.602 395.472C474.599 395.84 473.919 396.136 473.081 396.136Z" fill="#D6D6E3"/>
<path d="M328.621 254.916H328.616C327.776 254.916 327.098 254.716 327.1 254.474L327.86 188.026C327.86 187.784 328.543 187.588 329.381 187.587H329.386C330.226 187.587 330.904 187.787 330.901 188.029L330.141 254.477C330.139 254.72 329.459 254.916 328.621 254.916Z" fill="#D6D6E3"/>
<path d="M265.832 316.045C268.76 300.235 286.732 292.945 301.301 294.182C322.116 295.952 339.487 309.656 358.86 316.116C368.222 319.238 378.294 320.952 388.104 319.155C395.838 317.562 403.008 313.942 408.882 308.665C420.146 299.038 427.761 285.909 439.033 276.292C445.061 270.864 452.686 267.535 460.765 266.803C470.711 266.142 480.451 269.513 489.165 274.031C506.484 283.006 520.665 297.287 539.109 304.214C547.579 307.48 556.766 308.429 565.725 306.964C574.667 305.183 583.169 301.654 590.744 296.58C606.627 286.546 619.716 272.622 636.416 263.822C644.628 259.495 653.751 256.185 663.132 256.122C672.198 256.134 680.913 259.624 687.482 265.871C700.13 277.371 710.102 295.517 729.419 295.836C733.448 295.911 737.412 294.823 740.838 292.702C743.33 291.161 741.038 287.213 738.538 288.763C730.664 293.632 721.181 290.563 714.005 285.837C706.362 280.808 700.936 273.121 694.698 266.572C688.498 260.066 681.271 254.586 672.357 252.556C663.451 250.797 654.23 251.567 645.739 254.78C627.492 261.138 613.679 274.224 598.539 285.61C583.614 296.831 566.188 306.539 546.931 301.866C527.757 297.213 513.211 282.693 496.631 272.947C480.6 263.526 460.95 257.509 443.688 267.423C430.644 274.914 422.397 288.143 412.379 298.923C407.436 304.241 401.923 309.183 395.246 312.204C385.968 316.404 375.482 315.912 365.817 313.424C345.657 308.234 328.653 294.66 308.124 290.599C292.886 287.585 274.851 291.383 265.55 304.853C263.493 307.856 262.093 311.258 261.439 314.838C260.907 317.708 265.303 318.938 265.839 316.051L265.832 316.045Z" fill="#00AA13"/>
<path d="M329.38 326.006C340.298 326.006 349.148 317.155 349.148 306.238C349.148 295.32 340.298 286.47 329.38 286.47C318.463 286.47 309.612 295.32 309.612 306.238C309.612 317.155 318.463 326.006 329.38 326.006Z" fill="#00AA13"/>
<path d="M471.561 284.188C482.479 284.188 491.329 275.338 491.329 264.42C491.329 253.503 482.479 244.652 471.561 244.652C460.643 244.652 451.793 253.503 451.793 264.42C451.793 275.338 460.643 284.188 471.561 284.188Z" fill="#00AA13"/>
<path d="M666.202 270.502C677.119 270.502 685.97 261.651 685.97 250.734C685.97 239.816 677.119 230.966 666.202 230.966C655.284 230.966 646.434 239.816 646.434 250.734C646.434 261.651 655.284 270.502 666.202 270.502Z" fill="#00AA13"/>
<path d="M350.229 167.226H306.869C305.415 167.229 303.978 166.908 302.663 166.286C301.349 165.664 300.189 164.757 299.269 163.632C298.326 162.481 297.651 161.134 297.294 159.69C296.936 158.246 296.905 156.74 297.202 155.283C300.685 137.949 300.685 120.095 297.202 102.762C296.905 101.304 296.936 99.7977 297.294 98.3534C297.651 96.909 298.326 95.5625 299.269 94.4115C300.17 93.3094 301.301 92.4172 302.582 91.797C303.863 91.1768 305.264 90.8436 306.688 90.8205C319.87 84.3645 334.569 84.3645 350.381 90.8205C352.739 90.8576 355.007 91.7355 356.776 93.2963C358.544 94.857 359.698 96.9979 360.028 99.3335C362.705 119.035 362.705 139.008 360.028 158.71C359.694 161.071 358.519 163.233 356.719 164.798C354.919 166.363 352.614 167.225 350.229 167.226Z" fill="#E6E6E6"/>
<path d="M692.653 121.251H649.293C646.909 121.249 644.604 120.387 642.804 118.822C641.004 117.258 639.828 115.097 639.493 112.736C636.816 93.0339 636.816 73.0604 639.493 53.3587C639.824 51.0256 640.976 48.8868 642.742 47.3264C644.507 45.7659 646.771 44.886 649.127 44.8447C662.77 38.7297 677.461 38.7307 692.803 44.8447C694.232 44.8637 695.639 45.1952 696.926 45.8159C698.213 46.4366 699.349 47.3314 700.253 48.4377C701.196 49.5885 701.871 50.9349 702.229 52.379C702.586 53.8232 702.617 55.3289 702.32 56.7867C698.837 74.1204 698.837 91.9739 702.32 109.308C702.618 110.765 702.586 112.271 702.229 113.715C701.871 115.16 701.196 116.506 700.253 117.657C699.333 118.783 698.174 119.689 696.859 120.311C695.544 120.933 694.108 121.254 692.653 121.251Z" fill="#00AA13"/>
<path d="M688.112 67.4858H651.612C651.007 67.4858 650.427 67.2455 649.999 66.8177C649.571 66.39 649.331 65.8098 649.331 65.2048C649.331 64.5999 649.571 64.0197 649.999 63.5919C650.427 63.1641 651.007 62.9238 651.612 62.9238H688.112C688.717 62.9238 689.297 63.1641 689.725 63.5919C690.153 64.0197 690.393 64.5999 690.393 65.2048C690.393 65.8098 690.153 66.39 689.725 66.8177C689.297 67.2455 688.717 67.4858 688.112 67.4858Z" fill="white"/>
<path d="M688.112 85.7339H651.612C651.007 85.7339 650.427 85.4936 649.999 85.0658C649.571 84.638 649.331 84.0578 649.331 83.4529C649.331 82.8479 649.571 82.2677 649.999 81.84C650.427 81.4122 651.007 81.1719 651.612 81.1719H688.112C688.717 81.1719 689.297 81.4122 689.725 81.84C690.153 82.2677 690.393 82.8479 690.393 83.4529C690.393 84.0578 690.153 84.638 689.725 85.0658C689.297 85.4936 688.717 85.7339 688.112 85.7339Z" fill="white"/>
<path d="M688.113 103.982H651.613C651.008 103.982 650.428 103.742 650 103.314C649.572 102.886 649.332 102.306 649.332 101.701C649.332 101.096 649.572 100.516 650 100.088C650.428 99.6602 651.008 99.4199 651.613 99.4199H688.113C688.718 99.4199 689.298 99.6602 689.726 100.088C690.154 100.516 690.394 101.096 690.394 101.701C690.394 102.306 690.154 102.886 689.726 103.314C689.298 103.742 688.718 103.982 688.113 103.982Z" fill="white"/>
<path d="M350.892 110.467H314.392C313.787 110.467 313.207 110.227 312.779 109.799C312.352 109.371 312.111 108.791 312.111 108.186C312.111 107.581 312.352 107.001 312.779 106.573C313.207 106.146 313.787 105.905 314.392 105.905H350.892C351.497 105.905 352.077 106.146 352.505 106.573C352.933 107.001 353.173 107.581 353.173 108.186C353.173 108.791 352.933 109.371 352.505 109.799C352.077 110.227 351.497 110.467 350.892 110.467Z" fill="white"/>
<path d="M350.892 128.714H314.392C313.787 128.714 313.207 128.474 312.779 128.046C312.352 127.618 312.111 127.038 312.111 126.433C312.111 125.828 312.352 125.248 312.779 124.82C313.207 124.393 313.787 124.152 314.392 124.152H350.892C351.497 124.152 352.077 124.393 352.505 124.82C352.933 125.248 353.173 125.828 353.173 126.433C353.173 127.038 352.933 127.618 352.505 128.046C352.077 128.474 351.497 128.714 350.892 128.714Z" fill="white"/>
<path d="M350.892 146.962H314.392C313.787 146.962 313.207 146.722 312.779 146.294C312.352 145.867 312.111 145.286 312.111 144.681C312.111 144.076 312.352 143.496 312.779 143.068C313.207 142.641 313.787 142.4 314.392 142.4H350.892C351.497 142.4 352.077 142.641 352.505 143.068C352.933 143.496 353.173 144.076 353.173 144.681C353.173 145.286 352.933 145.867 352.505 146.294C352.077 146.722 351.497 146.962 350.892 146.962Z" fill="white"/>
<path d="M496.63 493.097H453.27C450.885 493.095 448.581 492.233 446.781 490.669C444.98 489.105 443.805 486.943 443.47 484.582C440.793 464.881 440.793 444.908 443.47 425.206C443.8 422.879 444.946 420.744 446.705 419.184C448.464 417.624 450.72 416.741 453.07 416.691C467.189 409.109 481.904 409.107 496.812 416.691C498.234 416.715 499.635 417.049 500.915 417.669C502.195 418.29 503.325 419.182 504.225 420.283C505.168 421.434 505.843 422.78 506.2 424.224C506.558 425.669 506.589 427.174 506.292 428.632C502.809 445.967 502.809 463.821 506.292 481.155C506.589 482.613 506.558 484.119 506.2 485.563C505.843 487.007 505.168 488.353 504.225 489.504C503.305 490.629 502.146 491.535 500.833 492.157C499.519 492.778 498.083 493.1 496.63 493.097Z" fill="#00AA13"/>
<path d="M493.831 435.191H457.331C456.726 435.191 456.146 434.951 455.718 434.523C455.29 434.095 455.05 433.515 455.05 432.91C455.05 432.305 455.29 431.725 455.718 431.297C456.146 430.869 456.726 430.629 457.331 430.629H493.831C494.436 430.629 495.016 430.869 495.444 431.297C495.871 431.725 496.112 432.305 496.112 432.91C496.112 433.515 495.871 434.095 495.444 434.523C495.016 434.951 494.436 435.191 493.831 435.191Z" fill="white"/>
<path d="M493.831 453.439H457.331C456.726 453.439 456.146 453.199 455.718 452.771C455.29 452.343 455.05 451.763 455.05 451.158C455.05 450.553 455.29 449.973 455.718 449.545C456.146 449.117 456.726 448.877 457.331 448.877H493.831C494.436 448.877 495.016 449.117 495.444 449.545C495.871 449.973 496.112 450.553 496.112 451.158C496.112 451.763 495.871 452.343 495.444 452.771C495.016 453.199 494.436 453.439 493.831 453.439Z" fill="white"/>
<path d="M493.831 471.686H457.331C456.726 471.686 456.146 471.446 455.718 471.018C455.29 470.59 455.05 470.01 455.05 469.405C455.05 468.8 455.29 468.22 455.718 467.792C456.146 467.364 456.726 467.124 457.331 467.124H493.831C494.436 467.124 495.016 467.364 495.444 467.792C495.871 468.22 496.112 468.8 496.112 469.405C496.112 470.01 495.871 470.59 495.444 471.018C495.016 471.446 494.436 471.686 493.831 471.686Z" fill="white"/>
<path d="M797.559 324.031L809.659 329.765C804.694 322.836 800.416 312.015 798.126 303.405C794.248 311.426 787.997 321.24 781.809 327.105L794.602 323.814C786.719 362.449 757.069 390.185 723.115 390.185V393.127C758.585 393.123 789.51 364.225 797.559 324.031Z" fill="#00AA13"/>
<path d="M759.847 276.163H836.328C839.572 276.163 842.211 280.53 842.211 285.897C842.211 291.264 839.572 295.631 836.328 295.631H759.847C756.603 295.631 753.964 291.264 753.964 285.897C753.964 280.53 756.603 276.163 759.847 276.163Z" fill="#00AA13"/>
<path d="M728.57 428.289L694.095 458.941C691.96 460.836 689.16 461.806 686.311 461.639C683.461 461.472 680.794 460.181 678.895 458.05C664.567 446.671 652.814 433.85 644.334 419.183C642.439 417.048 641.469 414.248 641.636 411.399C641.803 408.549 643.094 405.882 645.225 403.983L679.696 373.331C681.831 371.436 684.63 370.466 687.48 370.633C690.33 370.8 692.997 372.091 694.896 374.222L729.457 413.089C731.352 415.224 732.322 418.024 732.155 420.873C731.988 423.723 730.697 426.39 728.566 428.289H728.57Z" fill="white"/>
<path d="M728.57 428.289L694.095 458.941C691.96 460.836 689.16 461.806 686.311 461.639C683.461 461.472 680.794 460.181 678.895 458.05C662.549 448.042 650.302 435.531 644.334 419.183C642.439 417.048 641.469 414.248 641.636 411.399C641.803 408.549 643.094 405.882 645.225 403.983L679.696 373.331C681.831 371.436 684.63 370.466 687.48 370.633C690.33 370.8 692.997 372.091 694.896 374.222L729.457 413.089C731.352 415.224 732.322 418.024 732.155 420.873C731.988 423.723 730.697 426.39 728.566 428.289H728.57ZM646.21 405.089C644.369 406.728 643.254 409.03 643.11 411.49C642.966 413.95 643.804 416.367 645.44 418.21C653.085 433.718 664.872 446.498 680.001 457.077C681.64 458.917 683.942 460.032 686.402 460.176C688.862 460.321 691.279 459.482 693.122 457.846L727.595 427.19C729.435 425.551 730.55 423.249 730.694 420.789C730.838 418.328 730 415.912 728.364 414.069L693.803 375.202C692.164 373.361 689.862 372.246 687.402 372.102C684.941 371.958 682.525 372.796 680.682 374.432L646.21 405.089Z" fill="#00AA13"/>
<path d="M697.234 400.064L668.834 425.32C668.548 425.583 668.213 425.786 667.848 425.917C667.483 426.049 667.095 426.107 666.708 426.087C666.32 426.067 665.941 425.971 665.591 425.803C665.241 425.635 664.928 425.4 664.67 425.11C664.413 424.82 664.215 424.481 664.089 424.114C663.964 423.747 663.912 423.359 663.938 422.972C663.964 422.585 664.067 422.206 664.24 421.859C664.414 421.512 664.654 421.203 664.949 420.95L693.349 395.694C693.634 395.432 693.969 395.229 694.334 395.097C694.699 394.966 695.087 394.908 695.474 394.928C695.862 394.947 696.241 395.044 696.591 395.212C696.941 395.379 697.254 395.615 697.512 395.905C697.77 396.195 697.967 396.533 698.093 396.9C698.218 397.267 698.27 397.656 698.244 398.043C698.218 398.43 698.115 398.808 697.942 399.155C697.768 399.502 697.528 399.811 697.234 400.064Z" fill="#00AA13"/>
<path d="M707.987 412.152L679.587 437.408C679.301 437.666 678.966 437.865 678.602 437.993C678.239 438.121 677.853 438.176 677.469 438.154C677.084 438.133 676.707 438.036 676.36 437.868C676.013 437.7 675.702 437.466 675.446 437.178C675.19 436.89 674.993 436.554 674.867 436.19C674.741 435.825 674.689 435.44 674.713 435.055C674.736 434.67 674.836 434.294 675.005 433.948C675.175 433.602 675.411 433.293 675.701 433.038L704.101 407.782C704.387 407.52 704.722 407.317 705.087 407.185C705.452 407.054 705.839 406.996 706.227 407.015C706.614 407.035 706.994 407.132 707.344 407.299C707.694 407.467 708.006 407.703 708.264 407.993C708.522 408.283 708.719 408.621 708.845 408.988C708.971 409.355 709.022 409.744 708.996 410.131C708.971 410.518 708.868 410.896 708.694 411.243C708.521 411.59 708.28 411.899 707.986 412.152H707.987Z" fill="#00AA13"/>
<path d="M686.482 387.972L658.082 413.228C657.796 413.49 657.461 413.693 657.096 413.825C656.731 413.956 656.343 414.014 655.956 413.994C655.568 413.975 655.189 413.878 654.839 413.71C654.489 413.542 654.176 413.307 653.918 413.017C653.661 412.727 653.463 412.388 653.337 412.021C653.212 411.654 653.16 411.266 653.186 410.879C653.212 410.492 653.315 410.114 653.488 409.767C653.662 409.42 653.902 409.111 654.197 408.858L682.597 383.602C682.882 383.339 683.217 383.136 683.582 383.005C683.947 382.873 684.335 382.815 684.722 382.835C685.11 382.854 685.49 382.951 685.839 383.119C686.189 383.287 686.502 383.522 686.76 383.812C687.018 384.102 687.215 384.441 687.341 384.808C687.466 385.175 687.518 385.563 687.492 385.95C687.466 386.337 687.363 386.715 687.19 387.062C687.016 387.409 686.776 387.718 686.482 387.972Z" fill="#00AA13"/>
<path d="M221.629 283.145L228.534 278.691C225.702 284.073 223.261 292.479 221.955 299.168C219.743 292.937 216.177 285.313 212.647 280.759L219.947 283.316C215.447 253.304 198.536 231.758 179.167 231.758V229.473C199.397 229.473 217.038 251.921 221.629 283.145Z" fill="#00AA13"/>
<path d="M160.719 337.409H237.2C240.444 337.409 243.083 333.182 243.083 327.987C243.083 322.792 240.444 318.565 237.2 318.565H160.719C157.475 318.565 154.836 322.792 154.836 327.987C154.836 333.182 157.473 337.409 160.719 337.409Z" fill="#00AA13"/>
<path d="M155.644 218.218H201.772C204.626 218.215 207.362 217.079 209.38 215.061C211.398 213.043 212.534 210.307 212.537 207.453V155.443C212.534 152.589 211.398 149.852 209.38 147.834C207.362 145.816 204.626 144.681 201.772 144.678H155.644C152.79 144.682 150.055 145.817 148.037 147.835C146.02 149.853 144.885 152.589 144.882 155.443V207.454C144.885 210.307 146.02 213.043 148.038 215.061C150.055 217.078 152.79 218.214 155.644 218.218Z" fill="white"/>
<path d="M155.644 218.218H201.772C204.626 218.214 207.362 217.079 209.38 215.061C211.398 213.043 212.533 210.307 212.536 207.453V155.443C212.533 152.589 211.397 149.852 209.379 147.834C207.361 145.816 204.625 144.681 201.771 144.678H155.644C152.79 144.681 150.054 145.816 148.036 147.834C146.018 149.852 144.883 152.588 144.88 155.442C139.711 171.806 140.236 189.242 144.88 207.453C144.883 210.307 146.018 213.043 148.036 215.061C150.054 217.079 152.79 218.214 155.644 218.218ZM201.772 146.149C204.236 146.15 206.599 147.13 208.342 148.873C210.084 150.615 211.064 152.978 211.066 155.443V207.454C211.064 209.918 210.084 212.281 208.342 214.024C206.599 215.766 204.236 216.746 201.772 216.748H155.644C153.179 216.746 150.816 215.766 149.074 214.024C147.331 212.281 146.351 209.918 146.35 207.454V155.443C146.351 152.978 147.331 150.615 149.074 148.873C150.816 147.13 153.179 146.15 155.644 146.149H201.772Z" fill="#00AA13"/>
<path d="M160.3 176.3H198.307C199.073 176.285 199.803 175.971 200.34 175.425C200.877 174.878 201.177 174.142 201.177 173.376C201.177 172.61 200.877 171.875 200.34 171.328C199.803 170.781 199.073 170.467 198.307 170.453H160.3C159.912 170.445 159.526 170.516 159.165 170.659C158.804 170.803 158.475 171.017 158.198 171.29C157.921 171.562 157.7 171.886 157.55 172.245C157.4 172.603 157.322 172.988 157.322 173.376C157.322 173.765 157.4 174.149 157.55 174.508C157.7 174.866 157.921 175.191 158.198 175.463C158.475 175.735 158.804 175.949 159.165 176.093C159.526 176.237 159.912 176.307 160.3 176.3Z" fill="#F2F2F2"/>
<path d="M160.3 192.478H198.307C199.073 192.464 199.803 192.15 200.34 191.603C200.877 191.057 201.177 190.321 201.177 189.555C201.177 188.789 200.877 188.053 200.34 187.506C199.803 186.96 199.073 186.646 198.307 186.631H160.3C159.912 186.624 159.526 186.694 159.165 186.838C158.804 186.982 158.475 187.196 158.198 187.468C157.921 187.74 157.7 188.065 157.55 188.423C157.4 188.782 157.322 189.166 157.322 189.555C157.322 189.943 157.4 190.328 157.55 190.686C157.7 191.045 157.921 191.369 158.198 191.641C158.475 191.914 158.804 192.128 159.165 192.272C159.526 192.415 159.912 192.486 160.3 192.478Z" fill="#F2F2F2"/>
</g>
<defs>
<clipPath id="clip0_894_562">
<rect width="1006" height="552" fill="white"/>
</clipPath>
</defs>
</svg>
